<?xml version="1.0" encoding="utf-8"?>
<!-- Generator: Adobe Illustrator 24.1.2, SVG Export Plug-In . SVG Version: 6.00 Build 0)  -->
<svg version="1.1" xmlns="http://www.w3.org/2000/svg" xmlns:xlink="http://www.w3.org/1999/xlink" x="0px" y="0px"
	 viewBox="0 0 1366 768" style="enable-background:new 0 0 1366 768;" xml:space="preserve">
<style type="text/css">
	.st0{display:none;}
	.st1{fill:none;stroke:#000000;stroke-width:2;stroke-miterlimit:10;}
	.st2{fill:none;stroke:#000000;stroke-width:2;stroke-linecap:round;stroke-linejoin:round;stroke-miterlimit:10;}
	.st3{fill:none;stroke:#000000;stroke-width:0.75;stroke-linecap:round;stroke-linejoin:round;stroke-miterlimit:10;}
	.st4{fill:none;stroke:#000000;stroke-width:0.5;stroke-linecap:round;stroke-linejoin:round;stroke-miterlimit:10;}
	.st5{fill:none;stroke:#000000;stroke-width:0.75;stroke-miterlimit:10;}
	.st6{fill:none;stroke:#000000;stroke-miterlimit:10;}
</style>
<g id="Layer_1" class="st0">
	
		<image style="display:inline;overflow:visible;" width="564" height="564" xlink:href="../Graphic Design Inspiration/mexicanfood.jpg"  transform="matrix(1 0 0 1 401 102)">
	</image>
</g>
<g id="Layer_2">
	<path class="st1" d="M902.9,364.4c3.5-5.3,3.3-8.7,4.9-11.1c3.5-5,16.3-5.9,22,0.4c3.4,3.8,3.4,9.2,3.4,11.5c0,3-1.5,4.3-1.8,8.5
		c-0.2,2.6,0.1,4.3,0.4,6.5c0.3,2.5,1.3,11,0.8,19.5c-0.2,3.8-0.3,5.9-1.3,8.6c-0.6,1.7-1.9,5.6-5.5,9.1c-0.8,0.8-4.5,4.3-10.7,5.7
		c-6.2,1.4-11.3-0.2-13.5-1.1c-6.2-2.5-9.5-6.9-10.7-8.5c-1.2-1.7-4.1-5.9-4.5-12c-0.1-0.8-0.3-4.8,1.5-9.5c0.8-2.2,1.9-3.9,4-7
		c5.1-7.6,6.1-6.7,7.1-10c0.8-2.7,0.6-5.2,2.8-9C902.2,365.4,902.5,365.1,902.9,364.4z"/>
	<path class="st2" d="M913.7,410c-1.2,0.2-2.5,0.4-3.7,0.6c-1.2-0.5-2.4-0.9-3.7-1.4c-1.6-0.9-4.4-2.8-6.2-6.3
		c-0.6-1.2-1-2.3-1.3-3.3"/>
	<path class="st1" d="M903.8,398.8"/>
	<path class="st3" d="M917.3,356.3c0.8,0.1,3.3,0.6,5.3,2.8c1.9,1.9,2.3,4.1,2.5,4.9"/>
	<path class="st4" d="M917.8,399.2"/>
	<path class="st4" d="M917.9,400.8"/>
</g>
<g id="Layer_3">
	<path class="st1" d="M909.3,386c5.8-0.5,9.8,4.1,10,4.4c0.3,0.4,3.8,4.6,2.6,10.2c-1.1,5.4-6.2,10.5-12.7,10
		c-5.9-0.4-10.4-5.3-11.1-10.7C897.4,392.9,903,386.6,909.3,386z"/>
	<path class="st5" d="M918.2,394.9c0.3,1,0.7,3,0,5.1c-1.1,3.4-4.3,5.8-8.3,6.5"/>
	<path class="st5" d="M918.2,355.2c0.4,0,4.8,0,7.4,3.6c2,2.7,1.7,5.6,1.6,6.3"/>
	<path class="st6" d="M912.5,354.9c2.8-1.9,6.9-2.6,10.4-1.1c4.8,2.1,6.1,7.2,6.6,9c0.7,2.7,0.5,5.2,0.3,6.6
		c-0.4,2.6-1.1,3.3-1.6,5.7c-0.5,2.6,0,4.2,0.4,7.3c0.1,0.6,0.2,4.6,0.5,12.5c0.3,8,0.3,9.2-0.3,11.1c-0.3,1.2-1.4,4.3-4.1,7.5
		c-1.2,1.5-3.7,4.3-7.9,5.7c-3.9,1.3-7.2,0.7-9.9,0.3c-4.3-0.8-7.3-2.4-8-2.9c-1.6-1-3.9-2.4-5.9-5.1c-0.6-0.8-2.1-3-2.8-6.2
		c-1.2-5.3,0.5-9.7,1.5-12c1.9-4.7,3.3-4.3,7.4-10.8c2.9-4.5,4.9-7.8,6.3-12.7c1.1-4,1.4-7.4,4.2-11.6
		C911,356,912,355.2,912.5,354.9z"/>
</g>
</svg>
