<svg id="Layer_1" data-name="Layer 1" xmlns="http://www.w3.org/2000/svg" viewBox="0 0 752.55 457"><defs><style>.cls-1,.cls-11,.cls-12,.cls-13,.cls-14,.cls-15,.cls-17,.cls-2,.cls-4,.cls-9{fill:none;}.cls-1,.cls-10,.cls-11,.cls-12,.cls-13,.cls-14,.cls-15,.cls-16,.cls-17,.cls-2,.cls-3,.cls-4,.cls-5,.cls-8,.cls-9{stroke:#000;}.cls-1,.cls-10,.cls-11,.cls-12,.cls-13,.cls-14,.cls-15,.cls-16,.cls-2,.cls-3,.cls-4,.cls-5,.cls-6,.cls-8,.cls-9{stroke-miterlimit:10;}.cls-1{stroke-width:4px;}.cls-12,.cls-2,.cls-5{stroke-width:2px;}.cls-16,.cls-3,.cls-5,.cls-6,.cls-7{fill:#fff;}.cls-6{stroke:#f7f7f7;}.cls-8{fill:#fcfcfc;}.cls-13,.cls-9{stroke-width:0.5px;}.cls-10{fill:#4f1d00;}.cls-10,.cls-11,.cls-12,.cls-13,.cls-14,.cls-15,.cls-16{stroke-linecap:round;}.cls-14{stroke-width:0.25px;}.cls-15{stroke-width:0.75px;}.cls-17{stroke-linejoin:round;}</style></defs><path class="cls-1" d="M737,683.14c-1.12,13.66-4.44,31.53-14.48,46.32-12.62,18.59-29.84,23.44-35.85,25.23C534.24,800.12,386.13,867.19,234.4,916.2c0,0-76.4,24.62-79.06,14.25S236.09,904.26,265.65,826C288.91,764.31,275.77,672,273,652.56c-6.2-43.58-14.56-59.4-7.35-68.87,14.6-19.21,63.6,26.54,167.29,85.5,80.71,45.89,116.48,55.4,134.21,59.38,42.53,9.55,99.57,21.35,137.87-19,6.37-6.71,23.5-16.85,33.1-40.38a123.33,123.33,0,0,0,8-33.35C746.05,635.82,744.18,645.23,737,683.14Z" transform="translate(0.55 -478)"/><path class="cls-1" d="M748.69,624.36C756.3,577,729.36,530,704.57,506.79c-25-23.43-52.67-27.42-93.07-26.72-80.37,1.41-109.81,19.64-174.88,30-116.21,18.48-143-20.49-250,14.25-38.36,12.45-81.89,32.71-80.89,38,.44,2.35,39.16-18.89,88.24-14.25,32.68,3.09,56.33,16.35,71.7,24.94,76.46,42.75,157.57,87.22,191.42,104.8,122.35,63.56,166.62,56.09,182.23,52.55,15.39-3.5,58.79-14.14,89.39-59.68C736,659.78,745.26,645.69,748.69,624.36Z" transform="translate(0.55 -478)"/><path class="cls-1" d="M38.61,619.91" transform="translate(0.55 -478)"/><path class="cls-2" d="M102,562.91c-20.85,11.25-58.52,37-77.9,89.06C10,689.89,11.34,726.29,13.79,792.69c1.37,37.18,2.05,55.77,8.27,70.37,25.8,60.56,98.57,65.32,107.55,65.9a131.63,131.63,0,0,0,40-3.56" transform="translate(0.55 -478)"/><polyline class="cls-3" points="123.92 88.1 120.43 82.46 168.82 85.28 177.55 88.69 178.98 100.94 125.3 99.82 123.92 88.1 180.41 91.14"/><path class="cls-4" d="M105.71,562.31a225.08,225.08,0,0,0-38.84,38.45c-14.12,17.74-32.78,41.17-42.4,76.59C11.65,724.61,30,737.76,22.75,802.94c-.95,8.6-3.69,30.27,3.1,54.77a128.11,128.11,0,0,0,7.24,19.15C45,901.31,91.37,921.49,152.7,924.07" transform="translate(0.55 -478)"/><path class="cls-4" d="M213.28,725.25s-13.1,19.3,4.83,26.28,19.3,27.16,29.87,20.63" transform="translate(0.55 -478)"/><path class="cls-4" d="M108,758.7S94.91,778,112.83,785s19.3,27.16,29.88,20.63" transform="translate(0.55 -478)"/><path class="cls-4" d="M228.37,725.25s-13.09,19.3,4.83,26.28,19.3,27.16,29.87,20.63" transform="translate(0.55 -478)"/><path class="cls-5" d="M239.45,599.72l-21.6,26.72-17.46-7.72,28-33.85L268.06,624" transform="translate(0.55 -478)"/><path class="cls-2" d="M269,628.63l-30.22,23.93-20.91-26.12" transform="translate(0.55 -478)"/><path class="cls-2" d="M203.14,697.1l21.6,28.5L269,736.88l5.4-17.81c-15.33-22.63-26-39.59-34-52.85-3.33-5.54-8.73-14.68-15.63-14.25-5.89.37-10.09,7.56-13,12.53C204.94,676.13,203.42,689,203.14,697.1Z" transform="translate(0.55 -478)"/><polyline class="cls-2" points="255.63 254.6 250.12 245.82 218.4 195.94 214.04 190.71"/><polyline class="cls-5" points="180.26 242.25 173.82 261.85 166.64 272.54 180.26 283.23 203.7 300.44 218.4 295.1 207.83 278.12 203.7 251.16 183.47 242.25"/><path class="cls-2" d="M112.14,677.5" transform="translate(0.55 -478)"/><path class="cls-3" d="M185.22,744.6c-3.37,1.32-1.89,20.28,0,36.81L205.9,801.6c5.58,3.44,23.8,13.65,37.51,3.56,2.3-1.68,6.2-5.21,5.69-7.12-.73-2.75-9.84.67-24.82-.6-6.9-.58-11.1-1-16.08-4.15A30.05,30.05,0,0,1,195.79,779c-4.83-11.75-.08-21.42-6.44-30.88C188.34,746.65,186.6,744.06,185.22,744.6Z" transform="translate(0.55 -478)"/><path class="cls-4" d="M91.69,809.5s-10,9.91-8.27,11.25" transform="translate(0.55 -478)"/><path class="cls-4" d="M91.69,842.13c.69,0,33.09,18.25,33.09,18.25" transform="translate(0.55 -478)"/><path class="cls-4" d="M76.52,854.6s36.89,30.28,41.37,24" transform="translate(0.55 -478)"/><path class="cls-4" d="M161.66,891.56s20,9.79,21.55,10.24,23.15-12,19.93-20.49" transform="translate(0.55 -478)"/><path class="cls-4" d="M172.69,854.6S140,879.53,147.88,888s22.17,25.83,22.17,25.83,55.38-27.25,50.9-34.33.26-19.11.26-19.11-12.78-23.15-18.07-18.25S172.69,854.6,172.69,854.6Z" transform="translate(0.55 -478)"/><path class="cls-4" d="M109.87,798H79.28S54.46,823.87,60,842.13s9,61,37.23,59.68,50.32-17.38,41.36-20.5,7.58-41.81-3.1-31.37S111,790,117.89,798" transform="translate(0.55 -478)"/><path class="cls-4" d="M91.69,832.77" transform="translate(0.55 -478)"/><path class="cls-4" d="M8.62,772.65c6.2,14.26,34.12,38.3,36.88,29.4s24.13-.45,24.13-.45,24.07-16.48,13.59-13.8-8.42-15.59-6.7-14.25S59.18,758,59.18,758s-20.92-7.13-17.47-7.57-4.48-17.79-4.48-17.79S2.41,758.4,8.62,772.65Z" transform="translate(0.55 -478)"/><path class="cls-3" d="M63.88,606.3S31.25,634.16,43.2,646.63s53.17,5.16,54-3.27" transform="translate(0.55 -478)"/><path class="cls-4" d="M83.22,656.72s12.89,49.88,26.65,17.22S142,633.56,142,633.56" transform="translate(0.55 -478)"/><path class="cls-4" d="M112.14,681.66s-3.22,39.78,12.64,46.91" transform="translate(0.55 -478)"/><path class="cls-4" d="M124.78,681.66s-13.1,19.3,4.83,26.27,19.3,27.17,29.87,20.64" transform="translate(0.55 -478)"/><path class="cls-4" d="M118.33,729.85" transform="translate(0.55 -478)"/><path class="cls-4" d="M76.77,728.73" transform="translate(0.55 -478)"/><path class="cls-4" d="M0,704.52" transform="translate(0.55 -478)"/><path class="cls-3" d="M59.18,738.36a47.22,47.22,0,0,1-6.78-3.92c-4.36-3-18.62-11.81-22.76-13L0,704.52l4.83-27a194.56,194.56,0,0,0,17.23,15.14C52.52,716.34,76.78,720,76.46,728,76.35,730.65,73.45,734.44,59.18,738.36Z" transform="translate(0.55 -478)"/><polyline class="cls-3" points="5.38 199.5 13.68 200.05 12.8 199.5 13.68 200.05 73.17 236.61 77.02 246.71"/><path class="cls-4" d="M23.25,684.27" transform="translate(0.55 -478)"/><path class="cls-4" d="M23.25,688.54" transform="translate(0.55 -478)"/><path class="cls-2" d="M116.64,755.41c2,0,29.53-18.4,29.53-18.4l9.19,26.72,22.52,36.51L130.55,797l-11-19.6Z" transform="translate(0.55 -478)"/><line class="cls-2" x1="123.75" y1="299.38" x2="151.78" y2="285.73"/><path class="cls-4" d="M64.39,760.16S77.29,810,91.05,777.38,123.19,737,123.19,737" transform="translate(0.55 -478)"/><path class="cls-4" d="M106,785.1s-13.1,19.3,4.82,26.28,19.31,27.16,29.88,20.63" transform="translate(0.55 -478)"/><path class="cls-2" d="M156.87,607.63l-.12-21.55c-14.45-1.46-30-2.36-46.6-2.38a470.18,470.18,0,0,0-47.57,2.38l1,20.39a457.69,457.69,0,0,1,50.69-1.74C129.32,605.05,143.56,606.1,156.87,607.63Z" transform="translate(0.55 -478)"/><path class="cls-2" d="M117.37,574.26" transform="translate(0.55 -478)"/><path class="cls-5" d="M44.62,566.48A337.17,337.17,0,0,1,89.92,569c7,.87,15.75,2.21,28,1.91a147.23,147.23,0,0,0,23-2.38l12.53,17.52L61.9,584.89,44.14,567.15" transform="translate(0.55 -478)"/><path class="cls-2" d="M131.33,584.87" transform="translate(0.55 -478)"/><path class="cls-2" d="M84.28,572.7" transform="translate(0.55 -478)"/><path class="cls-2" d="M131.33,588" transform="translate(0.55 -478)"/><path class="cls-2" d="M102,592" transform="translate(0.55 -478)"/><line class="cls-2" x1="41.77" y1="115.5" x2="61.76" y2="134.92"/><line class="cls-2" x1="41.77" y1="116.99" x2="44.7" y2="87.59"/><path class="cls-2" d="M149.6,709l17.92,8" transform="translate(0.55 -478)"/><path class="cls-2" d="M181.31,705.41l28.27,15.14" transform="translate(0.55 -478)"/><path class="cls-2" d="M197.86,654.64" transform="translate(0.55 -478)"/><path class="cls-2" d="M219.23,784.38l16.08-8.9" transform="translate(0.55 -478)"/><path class="cls-4" d="M237.61,789.73l22.06-13.66" transform="translate(0.55 -478)"/><path class="cls-4" d="M197,614.74,224.74,652" transform="translate(0.55 -478)"/><path class="cls-4" d="M259.67,724.41l6-10.09" transform="translate(0.55 -478)"/><path class="cls-4" d="M254.62,785.57l-2.3,20.78" transform="translate(0.55 -478)"/><path class="cls-4" d="M71.24,662.66q11.25,16.92,22.52,33.84" transform="translate(0.55 -478)"/><path class="cls-3" d="M67.81,703.18A46.62,46.62,0,0,1,61,699.26c-4.36-3-18.62-11.81-22.76-13L8.64,669.34q2.4-13.51,4.82-27A193.52,193.52,0,0,0,30.7,657.46c30.46,23.7,54.72,27.31,54.4,35.32C85,695.47,82.08,699.26,67.81,703.18Z" transform="translate(0.55 -478)"/><polyline class="cls-4" points="21.43 164.32 22.32 164.87 81.81 201.43 85.66 211.53"/><path class="cls-6" d="M15.38,685.43" transform="translate(0.55 -478)"/><path class="cls-7" d="M16.61,684.46c-.45,1.41,8.52,8.5,9.14,7.5.51-.83-4.36-8-8.39-7.79C16.72,684.19,16.63,684.38,16.61,684.46Z" transform="translate(0.55 -478)"/><path class="cls-4" d="M191.19,635.35a170.9,170.9,0,0,0-42.28-16.63,157.5,157.5,0,0,0-20.22-3.56l-3.91,11.65,58.94,18.26,5.69,1.56Z" transform="translate(0.55 -478)"/><path class="cls-2" d="M195.44,626.44,192,636Z" transform="translate(0.55 -478)"/><polyline class="cls-4" points="194.26 149.7 153.26 132.32 141.38 129.63 130.16 134.62 128.14 139.66"/><polyline class="cls-3" points="156.75 84.31 153.26 78.67 201.65 81.49 210.37 84.91 211.8 97.15 158.12 96.04 156.75 84.31 213.23 87.35"/><polyline class="cls-8" points="204.43 101.53 200.94 95.89 249.33 98.71 258.06 102.13 259.48 114.37 205.81 113.26 204.43 101.53 260.91 104.57"/><polyline class="cls-4" points="226.38 177.7 222.89 172.06 271.28 174.88 280 178.29 281.43 190.54 227.75 189.42 226.38 177.7 282.86 180.74"/><line class="cls-5" x1="155.84" y1="106.87" x2="61.76" y2="105.7"/><path class="cls-4" d="M191.65,811.4c-15.48-8.85-46.45,21.17-43.43,34.73,2.69,12.11,33.19,14.39,56.53,4.46,24-10.2,38.41-32.43,37.23-34.74-1.34-2.62-22.76,20.54-37.92,10.69C197.22,822.09,197.8,814.91,191.65,811.4Z" transform="translate(0.55 -478)"/><path class="cls-9" d="M164.08,831.88c19.15,8.92,26.22,10.71,26.88,8.91,1.1-3-15.54-15.08-14.47-17.81.69-1.77,8.43,1.29,18.61,6.23" transform="translate(0.55 -478)"/><path class="cls-4" d="M297.82,627" transform="translate(0.55 -478)"/><path class="cls-10" d="M290.93,703.18q2.74-27.39,5.51-54.77" transform="translate(0.55 -478)"/><path class="cls-11" d="M304.71,685.22A285.81,285.81,0,0,1,307,779c-8.34,58.38-32.78,96.54-44.12,112.22" transform="translate(0.55 -478)"/><path class="cls-11" d="M315.74,686.41a423,423,0,0,1,1.38,63.53,417.36,417.36,0,0,1-8.27,63.54" transform="translate(0.55 -478)"/><path class="cls-11" d="M297.36,743.41a292.75,292.75,0,0,1-14.25,87.88,252.76,252.76,0,0,1-22.52,49.88" transform="translate(0.55 -478)"/><path class="cls-11" d="M290.93,723.82a302.43,302.43,0,0,1-11,94.41c-12,42.19-30.58,70.23-41.83,84.91" transform="translate(0.55 -478)"/><path class="cls-11" d="M326.77,742.22c1.09,5.54,3.07,19.06-1.83,33.26a50.86,50.86,0,0,1-5.52,11.28" transform="translate(0.55 -478)"/><path class="cls-11" d="M333.67,695.91a249.7,249.7,0,0,1-1.38,93.82c-8.57,41-25.43,68.06-34.47,80.75" transform="translate(0.55 -478)"/><path class="cls-12" d="M304.25,830.1l-13.32,33.25" transform="translate(0.55 -478)"/><path class="cls-13" d="M389.74,687" transform="translate(0.55 -478)"/><path class="cls-13" d="M364.46,698.88a458.64,458.64,0,0,1-3.67,81.35,438.06,438.06,0,0,1-17,75.4" transform="translate(0.55 -478)"/><path class="cls-13" d="M355.27,767.16a286.32,286.32,0,0,1-10.57,46.91A259.1,259.1,0,0,1,324,862.17" transform="translate(0.55 -478)"/><path class="cls-14" d="M346.54,685.82c.37,8,.72,19.74.46,33.84-.53,28.89-1.12,60.67-11.49,95a214.46,214.46,0,0,1-25.28,54.63" transform="translate(0.55 -478)"/><path class="cls-14" d="M322.64,802.19a385.68,385.68,0,0,1-16.09,38.6,351.94,351.94,0,0,1-28,48.1" transform="translate(0.55 -478)"/><path class="cls-14" d="M378.71,712.54c-.83,5-1.92,11.44-3.23,19,0,0-2.89,16.66-6,33.27-6.43,34.76-14.95,75.33-16.09,80.75" transform="translate(0.55 -478)"/><path class="cls-14" d="M376.41,783.79q-3.3,14.4-7.35,29.69c-3,11.2-6.07,21.89-9.19,32.06" transform="translate(0.55 -478)"/><path d="M391.58,729.75c-.53-1-4.18-.16-6.44,3-2.07,2.89-1.18,5.27-2.75,11.88-1.78,7.47-4.08,9.32-3.22,11.87,1.3,3.87,7,5.9,8.73,3.57,1.07-1.43.79-4.67.12-6.68-.55-1.64-1.17-1.9-1.73-3.86a13.91,13.91,0,0,1-.46-4.46c.12-2.2.73-3.7,2.53-7.57C391.25,731.24,391.88,730.32,391.58,729.75Z" transform="translate(0.55 -478)"/><path class="cls-15" d="M405,707.64a223.72,223.72,0,0,1,2.41,56.55A210,210,0,0,1,385,843" transform="translate(0.55 -478)"/><path class="cls-15" d="M396.4,760.19c-.63,10.73-1.79,22.71-3.79,35.62A366.27,366.27,0,0,1,384,836.34" transform="translate(0.55 -478)"/><path class="cls-15" d="M385,791.8c-1.4,7.74-3.19,16.1-5.52,24.94a308.13,308.13,0,0,1-9.3,29.39" transform="translate(0.55 -478)"/><path class="cls-15" d="M420.88,733a215.72,215.72,0,0,1-1.38,71.7c-2.72,15.59-5.22,21.6-6.55,24.49A61.34,61.34,0,0,1,405,842.13" transform="translate(0.55 -478)"/><path class="cls-15" d="M414,769.54c-2.67,11.5-4.41,21-5.51,27.61-2.22,13.31-2.77,20.3-5.86,30.73a116.44,116.44,0,0,1-6.9,17.81" transform="translate(0.55 -478)"/><path class="cls-13" d="M429.5,731.68c.5,8.22,1,19.84,1,33.85,0,12.08,0,19.91-1,29.84a186.4,186.4,0,0,1-7.59,36.51" transform="translate(0.55 -478)"/><path class="cls-13" d="M444.49,719.22a90,90,0,0,1,3.1,32.73A86.13,86.13,0,0,1,445,766.42" transform="translate(0.55 -478)"/><path class="cls-13" d="M454.31,753.51a187.41,187.41,0,0,1,.52,23.6,184.68,184.68,0,0,1-7.58,45.42" transform="translate(0.55 -478)"/><path class="cls-13" d="M437.08,740.37a398,398,0,0,1-.52,49.88c-.81,11-2,21.18-3.45,30.5" transform="translate(0.55 -478)"/><path class="cls-13" d="M459.83,717.66a416.3,416.3,0,0,0,5.51,54.55c1.84,10.68,4.6,23.78.18,37.85a48.19,48.19,0,0,1-5.69,12" transform="translate(0.55 -478)"/><path class="cls-13" d="M465.11,640.69q1.84,10.68,3.68,21.37" transform="translate(0.55 -478)"/><path class="cls-13" d="M474,713a180.71,180.71,0,0,1,5.17,58.34A175,175,0,0,1,471.55,811" transform="translate(0.55 -478)"/><path class="cls-13" d="M485.68,717c2,14.41,3.13,26.7,3.79,36.07,1.42,19.9.92,28.7.69,32.06a167.27,167.27,0,0,1-3.1,22.72" transform="translate(0.55 -478)"/><path class="cls-13" d="M500.85,756.18c-.4,10.76-1.06,22.07-2.07,33.84q-.9,10.56-2.07,20.49" transform="translate(0.55 -478)"/><path class="cls-13" d="M503.26,746.83c.88,5.83,2.22,14.9,3.79,26.27,1.64,11.87,2.39,18,0,24.49a24.32,24.32,0,0,1-4.82,8" transform="translate(0.55 -478)"/><path class="cls-13" d="M511.88,739.26c-2.78,13.58-1.63,23.11,0,29.39,1.79,6.88,4.71,12,4.48,20.48a37.74,37.74,0,0,1-3.1,13.81" transform="translate(0.55 -478)"/><path class="cls-13" d="M526,737a108.72,108.72,0,0,0-.69,21.82c.35,4.73.74,5.57,1,11.13.42,8,.66,13.52-1,19.6a33.29,33.29,0,0,1-5.51,11.13" transform="translate(0.55 -478)"/><path class="cls-13" d="M529.8,738.36a67.63,67.63,0,0,1,6.9,27.17,69.51,69.51,0,0,1-6.55,33" transform="translate(0.55 -478)"/><path class="cls-13" d="M545,735.69a107.27,107.27,0,0,1,0,51.22" transform="translate(0.55 -478)"/><path class="cls-13" d="M555,737a49.41,49.41,0,0,1,3.44,12.47,56.71,56.71,0,0,1-2.07,24,58.9,58.9,0,0,1-6.89,15.58" transform="translate(0.55 -478)"/><path class="cls-13" d="M563.58,740.59c5.47,9.22,5.23,15.78,4.83,18.7-.19,1.42-.62,3.4-6.89,17.37-1.42,3.16-2.62,5.77-3.45,7.57" transform="translate(0.55 -478)"/><path class="cls-13" d="M574.61,741.93c4.3,9.13,3.5,15.94,3.11,18.26-1,5.77-4,10.27-9,17.81-1.63,2.47-3.09,4.43-4.13,5.79" transform="translate(0.55 -478)"/><path class="cls-13" d="M585.3,747.27c-1.12,6.8-1.94,12.05-2.41,15.14-1.2,7.8-1.57,10.63-3.45,13.36a12,12,0,0,1-7.24,4.9" transform="translate(0.55 -478)"/><path class="cls-13" d="M704.11,534.4A159.49,159.49,0,0,1,722,571.22c6.52,19.28,8.37,36.33,9.65,48.69.87,8.42,1.23,15.56,1.38,20.78" transform="translate(0.55 -478)"/><path class="cls-13" d="M702.27,546.28a334.61,334.61,0,0,1,15.16,36.81,287.45,287.45,0,0,1,9.2,34.44c2.82,13.83,3.48,22,.92,30.28a34.88,34.88,0,0,1-4.6,9.5" transform="translate(0.55 -478)"/><path class="cls-13" d="M689.86,536.78c3.38,9.62,6.29,17.38,8.27,22.56,7.22,18.87,10.92,26.56,17,43.35,3.94,10.86,6.07,16.27,6.89,20.19,3.32,15.87,1.26,30.3-.92,39.78" transform="translate(0.55 -478)"/><path class="cls-13" d="M695.83,572.41c2.74,6.56,6.34,15.24,10.57,25.53,3.63,8.8,5,12.06,6.44,17.22,1.26,4.35,2.23,9.89,4.13,20.78,2.95,16.88,3.16,20.92,1.84,25.53a25.17,25.17,0,0,1-4.13,8.31" transform="translate(0.55 -478)"/><path class="cls-13" d="M689.57,582.72A260.9,260.9,0,0,0,698,609.66c3.29,8.78,4.6,10.75,6,17.15.4,1.82.7,3.48,2.41,23.6.89,10.49,1.06,13,.86,16.92a76.67,76.67,0,0,1-2.24,14.92" transform="translate(0.55 -478)"/><path class="cls-13" d="M676.82,601.65a180.22,180.22,0,0,0,7.24,40.08,151.37,151.37,0,0,1,5.51,26.72c.66,5.78,1,11.7-1.38,17.59a22.32,22.32,0,0,1-5.17,7.79" transform="translate(0.55 -478)"/><path class="cls-13" d="M672.85,622.28a82,82,0,0,1,7.36,46.32,73.22,73.22,0,0,1-10.11,28.5" transform="translate(0.55 -478)"/><path class="cls-13" d="M663.2,614a200.26,200.26,0,0,1,4.14,62.94,191.57,191.57,0,0,1-6.44,34.44" transform="translate(0.55 -478)"/><path class="cls-13" d="M650.79,619.91a108.67,108.67,0,0,1,9.65,41.56,110.71,110.71,0,0,1-8.73,47.5" transform="translate(0.55 -478)"/><path class="cls-13" d="M643.44,627.63a84.44,84.44,0,0,1,6.89,41c-1.59,20.37-9.87,33.62-12.87,38" transform="translate(0.55 -478)"/><path class="cls-13" d="M628.27,635.35A219.1,219.1,0,0,1,629.65,668a215.74,215.74,0,0,1-9.19,55.82" transform="translate(0.55 -478)"/><path class="cls-13" d="M613.56,622.88a146.16,146.16,0,0,1,7.36,61.75,138.41,138.41,0,0,1-9.65,39.19" transform="translate(0.55 -478)"/><path class="cls-13" d="M606.21,619.91a157.45,157.45,0,0,1,6,48.09,155.38,155.38,0,0,1-6.9,41.57" transform="translate(0.55 -478)"/><path class="cls-13" d="M591.5,613.67a190,190,0,0,1,2.42,99.76" transform="translate(0.55 -478)"/><path class="cls-13" d="M578.06,607.88A80.57,80.57,0,0,1,593.57,644,94,94,0,0,1,587,697" transform="translate(0.55 -478)"/><path class="cls-13" d="M562.89,593.63c5.12,7.19,17.17,26,21,55.22a138.71,138.71,0,0,1-4.48,57.45" transform="translate(0.55 -478)"/><path class="cls-13" d="M565.65,632.82a124.13,124.13,0,0,1,7.93,36.52,129.36,129.36,0,0,1-2.41,34.73" transform="translate(0.55 -478)"/><path class="cls-13" d="M559.1,640.39a319.35,319.35,0,0,0-2.76,37.41c-.14,9.47.15,18.27.69,26.27" transform="translate(0.55 -478)"/><path class="cls-13" d="M538.42,655.53a116,116,0,0,1,3.79,22.27,119.26,119.26,0,0,1-.69,24.05" transform="translate(0.55 -478)"/><path class="cls-13" d="M520.15,639.06q4.83,26.72,9.65,53.44" transform="translate(0.55 -478)"/><path class="cls-13" d="M505,641.73a83.12,83.12,0,0,1,12.41,34.73,91.69,91.69,0,0,1,0,22.72" transform="translate(0.55 -478)"/><path class="cls-13" d="M492.23,641.28c1.18.91,15.15,12.07,15.17,30.73a38.6,38.6,0,0,1-2.76,14.25" transform="translate(0.55 -478)"/><path class="cls-13" d="M473.27,631c11.57,8.89,18.57,23.07,17.58,37a36.93,36.93,0,0,1-3.79,13.81" transform="translate(0.55 -478)"/><path class="cls-13" d="M600.47,770a22,22,0,0,0,3.44-12.91,21.17,21.17,0,0,0-4.13-12" transform="translate(0.55 -478)"/><path class="cls-13" d="M609.08,769.54a12.86,12.86,0,0,0,5.86-12.47,11.43,11.43,0,0,0-3.79-7.13" transform="translate(0.55 -478)"/><path class="cls-13" d="M621.84,762a11.34,11.34,0,0,0,2.41-6.68,11.6,11.6,0,0,0-2.76-8" transform="translate(0.55 -478)"/><path class="cls-13" d="M631.49,760.63A7.84,7.84,0,0,0,633.9,754a6.75,6.75,0,0,0-3.79-5.79" transform="translate(0.55 -478)"/><path class="cls-13" d="M639.42,754.4a12.11,12.11,0,0,0,.34-4.46,10.8,10.8,0,0,0-2.07-5.34" transform="translate(0.55 -478)"/><path class="cls-13" d="M643.9,751.28a14.32,14.32,0,0,0,1-3.56,15.71,15.71,0,0,0,0-4.9" transform="translate(0.55 -478)"/><path class="cls-15" d="M649.41,752.61l5.17-4.89q-1.55-2.46-3.1-4.9" transform="translate(0.55 -478)"/><path class="cls-15" d="M716.29,711.64l.34,10.69" transform="translate(0.55 -478)"/><path class="cls-14" d="M712.15,714.76" transform="translate(0.55 -478)"/><path class="cls-14" d="M708.7,722.78a33.12,33.12,0,0,1-4.13,8.9,24.18,24.18,0,0,1-10.35,8.91" transform="translate(0.55 -478)"/><path class="cls-14" d="M695.26,724.56q-.87,7.13-1.72,14.25" transform="translate(0.55 -478)"/><path class="cls-14" d="M685.26,732.58l-4.82,14.25" transform="translate(0.55 -478)"/><path class="cls-14" d="M663.55,742.37a7.54,7.54,0,0,1,1,4.46,6.49,6.49,0,0,1-2.76,4.89" transform="translate(0.55 -478)"/><path class="cls-14" d="M657.34,742.82c-.73,4.89-1.09,8.31-.69,8.46s1.72-3.24,1.38-3.56-1.92,1.67-5.86,7.57" transform="translate(0.55 -478)"/><path class="cls-14" d="M676.3,738.81a12.33,12.33,0,0,1,0,4.9,10.55,10.55,0,0,1-2.41,4.9c-2,2.28-4.57,3.21-4.83,2.67s1.94-1.91,3.1-5.35a14.44,14.44,0,0,0,.69-5.34" transform="translate(0.55 -478)"/><path class="cls-14" d="M709.74,715.65c-.35,2.38-.69,4.75-1,7.13" transform="translate(0.55 -478)"/><path class="cls-14" d="M718.35,709.86a35.47,35.47,0,0,1-1.72,22.27" transform="translate(0.55 -478)"/><path class="cls-14" d="M638,636.83a167.54,167.54,0,0,1,3.1,21.82,175.45,175.45,0,0,1,.35,20,149.26,149.26,0,0,1-9.66,45" transform="translate(0.55 -478)"/><path class="cls-14" d="M651.14,633.27c.59,4.94,1.38,12.16,2.07,20.93,1.25,16.18,1.86,24.41.68,31.62a97.36,97.36,0,0,1-8.27,25.38c-1.32,2.82-2.54,5.09-3.45,6.68" transform="translate(0.55 -478)"/><path class="cls-14" d="M672.85,570a117.19,117.19,0,0,1,8.79,14.7A146.58,146.58,0,0,1,693.54,619c4.16,17.84,1,15.82,5.34,34.51,1.49,6.42,3.34,13,2.41,21.82a47.16,47.16,0,0,1-3.45,13.36" transform="translate(0.55 -478)"/><path class="cls-14" d="M679.06,566" transform="translate(0.55 -478)"/><path class="cls-13" d="M689.05,571.37c2.7,6.08,4.91,11.25,6.55,15.14,3.58,8.46,5.94,14.41,7.76,19.15,3.53,9.17,4.31,11.9,4.65,13.13a110.71,110.71,0,0,1,2.93,14.7,144.34,144.34,0,0,1,1,17.59,226.45,226.45,0,0,1-1.21,25.16" transform="translate(0.55 -478)"/><path class="cls-16" d="M115.34,657c-11.54-7.54-24.1-15.05-37.67-22.23A450.51,450.51,0,0,0,24.9,611l6.39-21q23.24,10.07,48.22,22.79c14.79,7.59,28.87,15.36,42.23,23.2Q118.55,646.48,115.34,657Z" transform="translate(0.55 -478)"/><polygon class="cls-17" points="31.85 111.99 122.29 157.98 128.58 154.56 81.09 130.41 55.67 117.48 43.42 111.25 31.85 111.99"/><path class="cls-17" d="M64.32,586" transform="translate(0.55 -478)"/><path class="cls-2" d="M142,652" transform="translate(0.55 -478)"/><path class="cls-5" d="M211.3,573.48q1-10.25,2.11-20.48l54.08,16-4.15,25.53a165.21,165.21,0,0,0-24.46-12.62A152.54,152.54,0,0,0,211.3,573.48Z" transform="translate(0.55 -478)"/><path class="cls-11" d="M143.39,593.19" transform="translate(0.55 -478)"/><polygon class="cls-4" points="201.59 200 140.05 195.12 140.82 178.87 202.36 183.75 201.59 200"/><polygon class="cls-4" points="201.75 182.45 139.47 177.5 139.93 167.94 202.2 172.89 201.75 182.45"/><path class="cls-9" d="M210.5,797.5a34.07,34.07,0,0,1-23-40" transform="translate(0.55 -478)"/></svg>