<?xml version="1.0" encoding="utf-8"?>
<!-- Generator: Adobe Illustrator 24.1.2, SVG Export Plug-In . SVG Version: 6.00 Build 0)  -->
<svg version="1.1" xmlns="http://www.w3.org/2000/svg" xmlns:xlink="http://www.w3.org/1999/xlink" x="0px" y="0px"
	 viewBox="0 0 1366 768" style="enable-background:new 0 0 1366 768;" xml:space="preserve">
<style type="text/css">
	.st0{display:none;}
	.st1{display:inline;fill:none;stroke:#000000;stroke-linecap:round;stroke-linejoin:round;stroke-miterlimit:10;}
	.st2{display:inline;fill:none;stroke:#000000;stroke-width:2;stroke-linecap:round;stroke-linejoin:round;stroke-miterlimit:10;}
	
		.st3{display:inline;fill:#FFFFFF;stroke:#000000;stroke-width:2;stroke-linecap:round;stroke-linejoin:round;stroke-miterlimit:10;}
	.st4{display:inline;fill:#FFFFFF;stroke:#000000;stroke-linecap:round;stroke-linejoin:round;stroke-miterlimit:10;}
	.st5{fill:none;stroke:#000000;stroke-width:0.75;stroke-linecap:round;stroke-linejoin:round;stroke-miterlimit:10;}
</style>
<g id="Layer_1" class="st0">
	
		<image style="display:inline;overflow:visible;" width="564" height="564" xlink:href="../Graphic Design Inspiration/mexicanfood.jpg"  transform="matrix(1 0 0 1 401 102)">
	</image>
</g>
<g id="Layer_2" class="st0">
	<path class="st1" d="M744.1,578.5c0.4,0.6,1.9,2.7,0,10.8c-1.1,4.7-3,12.6-9.5,20.6c-12.2,14.8-30.3,16.9-35.1,17.4
		c-4.4,0.5-14.5,1.6-25.6-2.6c-23.2-8.8-40-36.2-33.8-46.2c4.5-7.1,17.7-0.3,59.1-2.1c8.6-0.4,17.3,0.7,25.9,0.1
		C734.9,576,741.3,574.8,744.1,578.5z"/>
	<path class="st2" d="M663.7,576.2c10.8-0.1,20.6,0.1,33.2,0.3c10.3,0.2,19.9,0.5,34.3,0c12.1-0.4,20.1-1.1,20.8-4.2
		c0.4-1.6-1-4.2-2.9-5c-1.1-0.5-2.1-0.2-3.2,0c-2.6,0.4-3.3,0-8.2-0.3c-2.7-0.1-7.6-0.2-17.4-0.4c-5.5-0.1-7.8-0.1-14.5-0.2
		c-6.4-0.1-11.2-0.1-20.8-0.3c-11.7-0.2-23.4,0.9-35,0.2c-6.9-0.4-12.7-1.2-14.6,1.9c-1.1,1.9-0.6,5,1.1,6.6c2.1,2,5.6,1.2,8.7,0.8
		C651.3,574.8,657.5,576.2,663.7,576.2z"/>
	<path class="st1" d="M734.3,582.5c-0.2,3.7-1.2,15.4-10.3,23.5c-2.1,1.9-4.3,3.2-6.3,4.2"/>
	<path class="st1" d="M739.9,580.7c-0.1,3.8-1,13.5-7.9,22.9c-5.7,7.8-12.6,11.6-16.1,13.2"/>
	<path class="st1" d="M690,590.9c-3.4,3.5-6.9,7-10.3,10.5"/>
	<path class="st1" d="M686.6,589.1c-3.6,3.4-7.2,6.9-10.8,10.3"/>
	<path class="st1" d="M685.3,584.4c-1.8,2-3.5,4-5.3,6.1"/>
	<path class="st1" d="M677.6,592.5c-3.2,2.7-6.3,5.5-9.5,8.2"/>
	<path class="st1" d="M683.4,582c-2.8,2.8-5.6,5.6-8.4,8.4"/>
	<path class="st1" d="M672.6,593.1c-1.1,1-2.1,1.9-3.2,2.9"/>
	<path class="st2" d="M724.1,599.1"/>
	<path class="st3" d="M648.4,538.5"/>
	<path class="st3" d="M647,557.5"/>
	<path class="st3" d="M665,535.5c-1,3.1,3.8,5.2,9,13.7c5.7,9.4,5.8,16.6,8.2,16.6c1.8,0,2.8-4.2,4.7-9.8
		c7.2-20.4,12.6-26.6,10-29.3c-1-1-2.4-0.7-17.4,3.4C668.6,533.2,665.7,533.3,665,535.5z"/>
	<path class="st1" d="M674.1,541.8c0.8,2.2,3.2,3,4.8,2.1c1.5-0.8,2.1-3.1,0.9-4.9"/>
	<path class="st1" d="M685.3,533.9c-0.2,2.7,0.3,4.8,1.1,5c0.8,0.2,2.2-1.6,3.2-4.5"/>
	<path class="st1" d="M671.8,535.3c5.5-1.6,10.9-3.2,16.4-4.7"/>
	<path class="st1" d="M679.7,548.4c0.1,1.8,1,3.1,1.8,3.2c0.9,0.1,2.3-1.4,2.4-3.7"/>
	<path class="st1" d="M705.3,531.1"/>
	<path class="st4" d="M705.9,528.7c-2.1,1.1-0.2,5.3-0.8,16.1c-0.5,8.7-1.9,10.6-0.3,12.7c3.5,4.3,14.3,1.3,20.6-2.1
		c1.9-1,10.2-5.5,9.5-9.8c-0.5-3.1-5.3-2.9-14.2-7.9C711.2,532.4,708.2,527.4,705.9,528.7z"/>
	<path class="st1" d="M709.8,540.1c-0.1,0.2-1.3,2.5-0.5,3.4c0.8,0.9,3.2,0.6,5.8-1.4"/>
	<path class="st1" d="M721.7,543.7c-2.2-0.4-4,0.9-4.2,2.4c-0.2,1.6,1.7,3.4,3.7,3.2c1.5-0.2,2.7-1.5,2.9-3.2"/>
	<path class="st1" d="M707.7,535.8c6.2,2.8,12.3,5.6,18.5,8.4l0,0c1.6,0.4,3.2,0.7,4.7,1.1"/>
	<path class="st4" d="M662.6,556.1c1.4-18.3,1.3-19.8,0-20.6c-1.7-1-3.5,0.4-14,6.3c-12.4,7-14.8,7.7-15,10.3
		c-0.6,5.8,10.9,10.8,12.1,11.3c2.3,1,10.7,4.7,14.8,1.1C662.1,563.2,662.3,560.8,662.6,556.1z"/>
	<path class="st1" d="M658.4,542.2c-0.7,0.4-1.4,0.7-2.1,1.1"/>
	<path class="st1" d="M653.6,544.3c-5.2,2.8-10.4,5.6-15.6,8.4"/>
	<path class="st1" d="M654.4,545.6c0.1,2,0.8,3.7,1.8,4c1.2,0.3,3.2-1.5,4-4.7"/>
	<path class="st1" d="M646.3,550.7c0.1,2.7,0.5,4.2,1.1,4.3c0.8,0.1,1.9-1.7,3.4-5.6"/>
	<path class="st3" d="M639.7,563c-0.4-2.6,4.2-6.6,8.7-7.1c0.7-0.1,3-0.4,5.3,0.7c2.8,1.3,3.6,3.5,4.4,3.2c1.4-0.5-1.1-6.3,1.3-9
		c3.3-3.7,15-0.6,15.8,3.7c0.5,2.9-4.1,6.2-4,6.3c0,0,2.8-5.3,7.4-6.6c6.3-1.8,13.6,5,14,4.5c0.3-0.4-5.8-3.5-5.5-6.9
		c0.2-3.2,6.3-6.3,11.3-5.8c7.8,0.7,11.4,13.1,12.9,12.4c1-0.5-1.5-5.3,0.5-7.4c2.8-2.9,13,0.4,13.5,4.2c0.3,2.9-5.1,6-5,6.1
		c0.1,0.1,5.1-6.1,10.3-5.8c6,0.3,12.3,9.4,10.3,13.5c-2.1,4.2-11.9,0-33.5-0.5c-20.5-0.5-29.1,2.9-51.4,0
		C648.4,567.5,653.1,650.7,639.7,563z"/>
</g>
<g id="Layer_3">
	<path class="st5" d="M631.3,510.4c-0.8,3.2-2.1,8.9-4,16.2c-2.4,9.7-3.2,12.4-1.6,14.2c1.9,2.2,5.4,0.9,16.2-0.4
		c14-1.6,18.2-0.5,19-2.8c0.4-1.1,0.1-3.4-15-15.8C639.9,516.9,634.8,513,631.3,510.4z"/>
	<path class="st5" d="M633.6,516.5c-1.2,7.3-2.4,14.6-3.6,21.9"/>
	<path class="st5" d="M638.8,522.3c2.1,0.4,3.2,2,3,2.9c-0.2,1-2,1.9-4.1,1.3"/>
	<path class="st5" d="M641.2,531.9c0.8,1.5,0.2,3.3-1.1,4.1c-1.5,0.9-3.3,0-4.1-1.2c-0.9-1.3-0.8-3.1,0.3-4.5"/>
	<path class="st5" d="M650.3,529.8c1.4,1.7,1,4.1-0.4,4.9c-1.2,0.7-3.2,0.3-4-1.2c-0.5-1-0.4-2.3,0.4-3.3"/>
</g>
</svg>
