<?xml version="1.0" encoding="utf-8"?>
<!-- Generator: Adobe Illustrator 24.1.2, SVG Export Plug-In . SVG Version: 6.00 Build 0)  -->
<svg version="1.1" xmlns="http://www.w3.org/2000/svg" xmlns:xlink="http://www.w3.org/1999/xlink" x="0px" y="0px"
	 viewBox="0 0 1366 768" style="enable-background:new 0 0 1366 768;" xml:space="preserve">
<style type="text/css">
	.st0{display:none;}
	.st1{fill:none;stroke:#000000;stroke-miterlimit:10;}
	.st2{fill:none;stroke:#000000;stroke-width:3;stroke-miterlimit:10;}
	.st3{fill:#FFFFFF;stroke:#000000;stroke-width:3;stroke-miterlimit:10;}
	.st4{fill:none;stroke:#000000;stroke-width:2;stroke-miterlimit:10;}
	.st5{fill:none;stroke:#000000;stroke-width:4;stroke-miterlimit:10;}
	.st6{stroke:#000000;stroke-miterlimit:10;}
	.st7{fill:none;stroke:#000000;stroke-width:3;stroke-linecap:square;stroke-miterlimit:10;}
	.st8{fill:none;stroke:#000000;stroke-width:3;stroke-linecap:round;stroke-miterlimit:10;}
	.st9{fill:none;stroke:#000000;stroke-linecap:round;stroke-miterlimit:10;}
	.st10{fill:#FFFFFF;stroke:#000000;stroke-width:2;stroke-miterlimit:10;}
</style>
<g id="Layer_1" class="st0">
	
		<image style="display:inline;overflow:visible;" width="2048" height="1568" xlink:href="../Graphic Design Inspiration/churro.jpg"  transform="matrix(0.24 0 0 0.24 437 196)">
	</image>
</g>
<g id="Layer_2">
	<path class="st1" d="M552.4,359.9c-6.8,3.7-9.5-3.1-9.5-4.2c0-1.8,4.8-2.4,5.3-5.3c0.5-3-4.2-4.7-3.7-7.4c0.5-2.9,6.2-2.5,7.4-5.8
		c1.4-3.8-4.5-8.1-3.2-10c1.4-1.9,7.8,2.1,10.5-0.5c2.2-2.1,0.2-6.8,1.6-7.4c1.8-0.7,5.7,7.1,7.9,6.3c2-0.7,1.1-8.2,2.6-8.4
		c0.3,0,0.5,0.1,0.6,0.2c1.9,1.4,24.6,8.5,54.3,22.5c28.3,13.4,52.6,28.2,71.2,39.6c35.9,21.9,53.9,32.9,68.6,46.4
		c12.1,11.1,18.2,20,35.3,31.4c3.9,2.6,8.6,5.1,8.1,6.9c-0.3,1.2-2.9,0.9-3.7,2.8c-0.7,1.7,0.8,3.7,0.3,4c-0.4,0.2-1-0.9-2.3-1.4
		c-2.5-0.9-4.5,2-6.3,1.1c-1.5-0.7-0.7-3-2.5-4.4c-1.4-1-3.3-0.7-4.6-0.4c-4.2,0.8-4.8,3.5-7.6,3.6c-2.9,0.1-3.1-2.9-6.1-2.9
		c-4.2,0.1-5.7,4.5-9.9,4.4c-3.5-0.1-5.8-3.3-6.3-2.8c-0.5,0.5,2.5,3,3,6.7c0.5,3.8-1.7,8.6-5.2,10.6c-5.2,3-11.3-0.9-12.5,1.2
		c-1.3,2.3,6.5,7.3,5.2,11.6c-1.2,3.8-8.5,3.2-9.1,6.3c-0.7,3.7,8.8,5.9,9.9,12.3c0.9,5.3-4,12.3-8.7,12.7
		c-7.5,0.6-12.6-16.3-20.2-28.9c-16.4-27.3-38.1-44.3-81.5-78.3c-27.2-21.3-44-30.8-48.3-33.2c-15.8-8.9-29.9-14.9-40.4-19l-5.1-5.3
		l4.7-0.6C552.2,364,553.7,359.2,552.4,359.9z"/>
	<path class="st2" d="M741.7,504.4c0.7-3.2,7.7-2.4,9.1-6.3c1.7-4.7-6.7-10.8-5.1-13.1c1.4-2.1,8.7,2.9,13.8-0.4
		c3.2-2.1,3.8-6.4,4-7.5c0.5-4.9-4-8.3-3.2-9.1c0.9-0.9,4.7,3.7,8.3,2.8c4.5-1.2,4.9-10.3,7.5-10.3c1.7,0,1.5,3.9,5.1,5.9
		c2.9,1.6,7,1.5,9.1-0.4c0.4-0.4,0.7-0.8,0.7-0.8c1.6-2.3,0.8-5,1.2-5.1c0.8-0.2,2.2,9.7,6.3,10.7c4,0.9,9.1-6.9,9.9-6.3
		c0.6,0.5-3.6,4.9-2.8,10.3c0.1,0.8,0.5,3.3,2.4,4.7c3.9,3.1,11.2-0.6,11.5,0c0.3,0.8-12.3,4.5-12.3,8.7c0.1,3.9,11.3,5.8,11.1,9.1
		c-0.2,2.9-8.9,2.8-9.9,6.7c-1.1,4.4,8.5,9.9,7.5,11.5c-0.6,1-4.4-1.8-8.3-0.4c-3.9,1.4-6.5,6.6-6.3,11.1c0.1,3.6,2,5.6,1.2,6.3
		c-1.4,1.4-6.8-5.3-11.5-4c-5.1,1.5-4.3,11.1-9.1,12.3c-3.7,0.9-5.5-4.4-10.3-4.4c-6.7,0.1-10.1,10.7-13.1,9.9
		c-2.6-0.7,2.4-13.2-2-16.6c-4.3-3.4-14.8,3.9-15.8,2.4c-1-1.7,11.5-8.3,10.7-15.4C750.9,510.6,740.9,508.3,741.7,504.4z"/>
	<path class="st3" d="M836.3,399.2"/>
	<path class="st4" d="M741.7,504.4c-23.5-31.2-60.5-72.1-115-107.1c-25.3-16.2-49.6-28.1-71.2-36.9l-3.2-0.5"/>
	<path class="st4" d="M748.3,484.7c-22.7-24.8-53.6-54.3-94.2-82.6c-37.9-26.4-73.8-44.5-103.4-57l-6.3-2.1"/>
	<path class="st4" d="M761.7,468.3c-24-24.9-57-54.6-100.1-82.6c-39.4-25.6-76.6-42.7-107.1-54.3l-2.6-4.6"/>
	<path class="st4" d="M776.1,460.5c-33.3-30.9-53.5-46.8-66.1-55.8c-4.1-2.9-30.7-21.7-44.3-31.6c-3.5-2.6-12.4-9.1-24.9-17.1
		c0,0-2.5-1.6-4.6-2.9c-15.8-9.9-52.6-23-63.8-26.9l-3.7-0.5"/>
	<path class="st4" d="M639,351.6c4.1,2,8.2,4.1,12.3,6.2C706.4,386.5,753,422,792.4,460.1"/>
	<path class="st4" d="M556.1,337.2c-0.8,1.7,51.2,22.1,118.7,71.7c47.5,35,76.9,65.6,78.1,64.4c1.2-1.2-26.9-34.3-66.5-65.4
		C621.6,356.9,557,335.4,556.1,337.2z"/>
	<polyline class="st1" points="599.9,328.4 685.9,378.7 718.1,403.8 737.6,421.5 746.5,430.2 763.3,446.9 	"/>
	<polyline class="st4" points="610.4,348.3 696.4,398.7 728.5,423.7 748.1,441.4 757,450.1 773.8,466.9 	"/>
	<polyline class="st4" points="605.8,348.3 691.7,398.7 723.9,423.7 743.4,441.4 752.4,450.1 769.2,466.9 	"/>
	<polyline class="st5" points="619.2,373.1 694.1,414.5 722.1,435.1 739.1,449.7 746.9,456.8 761.5,470.6 	"/>
	<ellipse class="st6" cx="782.6" cy="503.6" rx="16.9" ry="18.8"/>
	<path class="st7" d="M760.1,502.3c-3.3,7.1-2.4,15.2,2.2,20.2c6.2,6.7,18.4,7.3,26.7-0.4"/>
	<path class="st8" d="M762.9,492.2c1.4-2.6,4-6.7,8.9-9.9c10.6-7,22.4-3.5,24.3-3"/>
	<path class="st9" d="M801,498.6c0,1.8-0.2,4-0.9,6.5c-0.4,1.3-0.8,2.5-1.2,3.5"/>
	<path class="st10" d="M782.7,489.6c-2.7,1.5-6.4,7.7-8.4,18.9c-0.9,4.8-0.9,7.9-1.7,7.9c-1.2,0.1-2.5-7.7-3.2-7.6
		c-0.6,0.1,0.1,5.1-0.3,5.1c-0.4,0.1-3.2-6.2-1.6-13.2c0.2-1.1,1.2-4.8,4.2-8.3c3.9-4.6,9.5-6.8,10.3-5.9c0.4,0.5-0.5,1.7,0.1,2.2
		c0.5,0.5,1.9-0.3,2-0.1C784.2,488.8,782.7,489.6,782.7,489.6z"/>
	<path class="st10" d="M793,498.6c-1.2,0-1.3,4.9-3.1,9.4c-2.3,5.9-6.4,8.6-5.8,9.2c0.5,0.5,3.5-0.9,6-3.2
		c7.1-6.4,6.4-17.7,6.2-17.7c-0.1,0-0.6,3.2-1.8,3.3C793.8,499.7,793.5,498.6,793,498.6z"/>
	<path class="st6" d="M801.7,488.7"/>
	<line class="st4" x1="556.1" y1="337.2" x2="551.8" y2="334.7"/>
</g>
</svg>
