<?xml version="1.0" encoding="utf-8"?>
<!-- Generator: Adobe Illustrator 24.1.2, SVG Export Plug-In . SVG Version: 6.00 Build 0)  -->
<svg version="1.1" xmlns="http://www.w3.org/2000/svg" xmlns:xlink="http://www.w3.org/1999/xlink" x="0px" y="0px"
	 viewBox="0 0 48 202" style="enable-background:new 0 0 48 202;" xml:space="preserve">
<style type="text/css">
	.st0{fill:#D9E021;stroke:#000000;stroke-miterlimit:10;}
	.st1{fill:#FBB03B;}
	.st2{fill:#EBC063;stroke:#000000;stroke-miterlimit:10;}
	.st3{fill:#FCEE21;stroke:#000000;stroke-linecap:round;stroke-linejoin:bevel;stroke-miterlimit:10;}
</style>
<g id="Layer_1">
</g>
<g id="Fry">
	<path class="st0" d="M2,6l2.1,194c18.6,1,28.4-0.1,29.3-3.5c0.2-0.9-0.1-1.9-1-3C33.7,131.7,35.1,69.8,36.5,8L2,6z"/>
	<g>
		<polygon class="st1" points="28,8.4 46.5,5.6 44.6,193.7 28,199.3 		"/>
		<path d="M46,6.2l-1.9,187.2l-15.6,5.2V8.8L46,6.2 M47,5L47,5L47,5z M47,5L27.5,8v192l17.5-5.9L47,5L47,5z"/>
	</g>
	<path class="st2" d="M33.5,196.5"/>
	<path class="st2" d="M43.5,179.5"/>
	<polyline class="st3" points="2,5.5 18.8,1.5 47,5.5 28.7,8.5 2,5.5 	"/>
</g>
</svg>
