<?xml version="1.0" encoding="utf-8"?>
<!-- Generator: Adobe Illustrator 24.1.2, SVG Export Plug-In . SVG Version: 6.00 Build 0)  -->
<svg version="1.1" xmlns="http://www.w3.org/2000/svg" xmlns:xlink="http://www.w3.org/1999/xlink" x="0px" y="0px"
	 viewBox="0 0 880 572" style="enable-background:new 0 0 880 572;" xml:space="preserve">
<style type="text/css">
	.st0{fill:#FFFFFF;stroke:#000000;stroke-linecap:round;stroke-linejoin:round;stroke-miterlimit:10;}
	.st1{fill:#FFFFFF;stroke:#000000;stroke-width:5;stroke-linecap:round;stroke-linejoin:round;stroke-miterlimit:10;}
	.st2{fill:#FFFFFF;stroke:#000000;stroke-width:2;stroke-linecap:round;stroke-linejoin:round;stroke-miterlimit:10;}
	.st3{fill:none;stroke:#000000;stroke-width:2;stroke-miterlimit:10;}
	.st4{fill:none;stroke:#000000;stroke-width:2;stroke-linecap:round;stroke-linejoin:round;stroke-miterlimit:10;}
	.st5{fill:none;stroke:#000000;stroke-width:0.75;stroke-linecap:round;stroke-linejoin:round;stroke-miterlimit:10;}
	.st6{fill:none;stroke:#000000;stroke-width:0.5;stroke-linecap:round;stroke-linejoin:round;stroke-miterlimit:10;}
	.st7{fill:none;stroke:#000000;stroke-width:0.75;stroke-miterlimit:10;}
	.st8{fill:none;stroke:#000000;stroke-miterlimit:10;}
	.st9{fill:#FFFFFF;stroke:#000000;stroke-linecap:round;stroke-miterlimit:10;}
	.st10{fill:#FFFFFF;stroke:#000000;stroke-width:0.75;stroke-linecap:round;stroke-miterlimit:10;}
	.st11{fill:#FFFFFF;stroke:#000000;stroke-width:0.5;stroke-linecap:round;stroke-miterlimit:10;}
	.st12{fill:#FFFFFF;stroke:#000000;stroke-width:2;stroke-linecap:round;stroke-miterlimit:10;}
	.st13{fill:none;stroke:#000000;stroke-linecap:round;stroke-linejoin:round;stroke-miterlimit:10;}
	.st14{fill:#FFFFFF;stroke:#000000;stroke-width:0.75;stroke-miterlimit:10;}
	.st15{fill:#FFFFFF;stroke:#000000;stroke-width:0.5;stroke-miterlimit:10;}
	.st16{fill:#FFFFFF;stroke:#000000;stroke-miterlimit:10;}
	.st17{fill:none;stroke:#000000;stroke-width:4;stroke-miterlimit:10;}
	.st18{fill:#FFFFFF;stroke:#000000;stroke-width:4;stroke-miterlimit:10;}
	.st19{fill:#FFFFFF;stroke:#000000;stroke-width:2;stroke-miterlimit:10;}
	.st20{fill:#FFFFFF;stroke:#F7F7F7;stroke-miterlimit:10;}
	.st21{fill:#FFFFFF;}
	.st22{fill:#FCFCFC;stroke:#000000;stroke-miterlimit:10;}
	.st23{fill:none;stroke:#000000;stroke-width:0.5;stroke-miterlimit:10;}
	.st24{fill:#4F1D00;stroke:#000000;stroke-linecap:round;stroke-miterlimit:10;}
	.st25{fill:none;stroke:#000000;stroke-linecap:round;stroke-miterlimit:10;}
	.st26{fill:none;stroke:#000000;stroke-width:2;stroke-linecap:round;stroke-miterlimit:10;}
	.st27{fill:none;stroke:#000000;stroke-width:0.5;stroke-linecap:round;stroke-miterlimit:10;}
	.st28{fill:none;stroke:#000000;stroke-width:0.25;stroke-linecap:round;stroke-miterlimit:10;}
	.st29{fill:none;stroke:#000000;stroke-width:0.75;stroke-linecap:round;stroke-miterlimit:10;}
	.st30{fill:#FFFFFF;stroke:#000000;stroke-linejoin:round;}
	.st31{fill:none;stroke:#000000;stroke-linejoin:round;}
	.st32{fill:#FFFFFF;stroke:#000000;stroke-width:0.25;stroke-linecap:round;stroke-linejoin:round;stroke-miterlimit:10;}
</style>
<g id="Layer_4">
</g>
<g id="Plate">
	<ellipse class="st0" cx="622" cy="306.3" rx="129.5" ry="54"/>
	<ellipse class="st1" cx="624.2" cy="282.3" rx="177.3" ry="64"/>
	<ellipse class="st2" cx="625" cy="279.8" rx="132.5" ry="37.5"/>
</g>
<g id="Avocado">
	<g id="Layer_2_2_">
		<path class="st3" d="M370,153.8c5.5-3.4,6.8-6.6,9.3-8.1c5.3-3.1,17.3,1.6,19.7,9.8c1.4,5-1,9.9-2,12c-1.3,2.8-3.2,3.3-5.3,7.1
			c-1.3,2.3-1.8,4-2.5,6.2c-0.8,2.4-3.6,10.7-7.8,18.3c-1.8,3.4-2.9,5.3-4.9,7.4c-1.3,1.3-4.2,4.3-8.9,6c-1.1,0.4-5.9,2-12.2,0.7
			c-6.2-1.4-10.1-5-11.7-6.8c-4.5-5-5.6-10.4-5.9-12.4c-0.3-2.1-1.1-7.2,1.2-13c0.3-0.8,1.8-4.5,5.5-8.1c1.7-1.7,3.4-2.8,6.7-4.7
			c7.9-4.8,8.4-3.6,10.8-6.2c1.9-2.1,2.8-4.5,6.5-7.1C368.9,154.4,369.3,154.3,370,153.8z"/>
		<path class="st4" d="M359.8,200.4c-1.2-0.3-2.4-0.7-3.6-1c-0.9-1-1.8-1.9-2.7-2.9c-1.1-1.5-2.8-4.5-2.8-8.5c0-1.4,0.1-2.5,0.3-3.6
			"/>
		<path class="st3" d="M355.8,185.9"/>
		<path class="st5" d="M386.6,152.5c0.7,0.4,2.7,2,3.6,4.9c0.9,2.6,0.3,4.8,0.1,5.6"/>
		<path class="st6" d="M368.2,192.3"/>
		<path class="st6" d="M367.6,193.8"/>
	</g>
	<g id="Layer_3_1_">
		<path class="st3" d="M366.3,176.5c5.5,2,7.1,8,7.1,8.3c0.1,0.5,1.4,5.9-2.1,10.5c-3.4,4.5-10.2,7-15.8,3.8
			c-5.2-2.9-7.1-9.3-5.3-14.6C352.6,177.7,360.4,174.3,366.3,176.5z"/>
		<path class="st7" d="M370.5,188.5c-0.2,1-0.7,3.1-2.2,4.7c-2.5,2.7-6.4,3.5-10.3,2.4"/>
		<path class="st7" d="M387.9,151.9c0.4,0.2,4.3,2.1,5.1,6.5c0.6,3.3-0.9,5.9-1.3,6.5"/>
		<path class="st8" d="M382.8,149.2c3.4-0.5,7.4,0.6,9.9,3.4c3.4,4,2.4,9.2,2,11.1c-0.5,2.8-1.8,5-2.6,6.2c-1.5,2.2-2.4,2.6-3.9,4.6
			c-1.6,2.2-1.8,3.9-2.8,6.9c-0.2,0.6-1.8,4.3-5,11.7c-3.2,7.5-3.8,8.6-5.1,10.1c-0.8,1-3.1,3.4-7,5.1c-1.7,0.9-5.2,2.4-9.6,1.9
			c-4.1-0.5-6.8-2.4-9.1-4c-3.5-2.6-5.5-5.3-6-6.1c-1-1.6-2.5-3.9-3.1-7.2c-0.2-1-0.6-3.7,0.2-6.9c1.2-5.4,4.7-8.7,6.6-10.4
			c3.8-3.5,4.9-2.5,11.4-6.8c4.6-2.9,7.8-5.1,11.2-9c2.7-3.2,4.5-6.2,8.9-8.9C381,149.6,382.3,149.3,382.8,149.2z"/>
	</g>
	<g id="Layer_2_6_">
		<path class="st3" d="M539.6,166.7c-0.4-6.4-2.6-9.1-2.8-12c-0.2-6.2,9.6-14.5,18-12.7c5,1.1,8.3,5.5,9.7,7.4
			c1.8,2.5,1.4,4.4,3.7,8c1.4,2.3,2.7,3.5,4.3,5.1c1.8,1.9,7.7,8.3,12.4,15.5c2.1,3.2,3.3,5,4.2,7.8c0.5,1.8,1.9,5.7,1.1,10.7
			c-0.2,1.1-1,6.2-5.2,11c-4.1,4.8-9.2,6.5-11.5,7.1c-6.5,1.6-11.8,0-13.8-0.6c-2-0.7-6.9-2.4-10.9-7.2c-0.6-0.6-3.1-3.8-4.5-8.7
			c-0.7-2.3-0.8-4.3-1-8.1c-0.5-9.3,0.9-9.1-0.3-12.4c-1-2.7-2.7-4.6-3.2-9C539.6,167.9,539.7,167.5,539.6,166.7z"/>
		<path class="st4" d="M575.8,197.7c-0.8,0.9-1.8,1.8-2.6,2.7c-1.3,0.3-2.5,0.7-3.8,1c-1.8,0.2-5.2,0.3-8.8-1.5
			c-1.2-0.6-2.2-1.3-3-1.9"/>
		<path class="st3" d="M561.1,194.4"/>
		<path class="st5" d="M546.3,151.5c0.7-0.4,3-1.5,6-0.8c2.7,0.4,4.3,2,5,2.5"/>
		<path class="st6" d="M572.6,186.4"/>
		<path class="st6" d="M573.7,187.7"/>
	</g>
	<g id="Layer_3_2_">
		<path class="st3" d="M557.8,180.6c4.4-3.9,10.4-2.4,10.7-2.3c0.5,0.2,5.8,1.5,8.3,6.8c2.4,5.1,1.4,12.3-4.2,15.7
			c-5,3.2-11.6,1.8-15.4-2.2C552.4,193.4,553.1,184.9,557.8,180.6z"/>
		<path class="st7" d="M570.3,182.7c0.8,0.6,2.4,2,3.1,4.2c1.2,3.4,0,7.3-2.8,10.3"/>
		<path class="st7" d="M546.3,150.1c0.3-0.2,3.9-2.8,8.1-1.4c3.2,1,4.8,3.6,5.1,4.2"/>
		<path class="st8" d="M541.6,153.2c1.1-3.2,4-6.2,7.7-7.1c5.1-1.1,9.3,2.3,10.8,3.5c2.2,1.8,3.5,4,4.2,5.2c1.2,2.4,1.1,3.4,2.2,5.6
			c1.2,2.4,2.5,3.4,4.7,5.8c0.4,0.4,2.9,3.7,8,10c5.1,6.4,5.8,7.4,6.5,9.3c0.5,1.2,1.5,4.4,1.2,8.6c-0.1,1.9-0.4,5.7-2.9,9.4
			c-2.4,3.4-5.4,4.8-7.8,6.1c-3.9,1.9-7.3,2.4-8.2,2.4c-1.9,0.1-4.6,0.3-7.8-0.7c-1-0.3-3.5-1.2-6-3.4c-4.2-3.6-5.5-8.3-6-10.7
			c-1.3-5,0.1-5.5-0.6-13.3c-0.4-5.4-0.8-9.3-2.6-14.2c-1.5-3.9-3.3-6.9-3.6-12C541,155,541.3,153.8,541.6,153.2z"/>
	</g>
</g>
<g id="Tacos">
	<g id="Layer_2_4_">
		<path class="st9" d="M724.8,288c1.9-0.1,3.6-0.7,6.9-1.8c2.5-0.8,4-1.3,5.7-2.2c2.3-1.1,4.4-2.1,5.2-3.7c0.2-0.3,1.4-2.8-1.8-4.7
			c-1.4-0.8-1.9-0.6-3.5-1.5c-2.1-1.3-1.3-2-3.5-3.4c-1.7-1.1-2.4-0.9-3.3-1.8c-1-1.1,0-1.6-1.2-2.7c-1-0.9-2-0.8-2.5-1.5
			c-0.8-1.1,1.7-1.7,1.4-3.1s-3.1-2.6-4.8-2.5c-1.5,0.1-1.2,1.1-3.3,1.6c-2.1,0.4-3.6-0.4-5.7,0c-2.2,0.4-1.8,1.6-3.9,1.9
			c-2.3,0.4-3.9-0.8-6.5-0.5c-2.6,0.3-2.1,1.7-5.7,2.6c-1.9,0.4-2.4,0.2-4.3,0.6c-3.1,0.6-6.3,2.1-5.7,3.3c0.4,0.9,2.7,0.8,6.1,2
			c2,0.7,2,1.1,7.3,4.7c3.7,2.5,4,2.6,5.9,4.1c1.8,1.3,3.2,2.6,4.1,3.3c3.3,2.9,3.6,3.5,5.6,4.2C718.5,287.3,721.4,288.2,724.8,288z
			"/>
		<path class="st9" d="M739.5,276.3c0,0,4,2.9,2.4,3.3"/>
		<path class="st9" d="M738.8,281.9c0,0-1.3,1.5-2.3,1.4"/>
		<path class="st9" d="M735.3,275"/>
		<path class="st9" d="M737.2,286.9c-3,1.8-5.5,2.4-6.1,2.5c-2.3,0.5-4.6,0.6-5.9,0.6c-25.5-5.3-45-8.2-58.6-9.9
			c-12.4-1.6-28.1-3.2-41.6-6.9c-3.6-1-7.1-2.1-13.3-3.1c-9.8-1.6-14.4-0.9-19.5-2.7c-4.1-1.4-5.4-3.3-7.2-6.3
			c-1.2-1.7-4.2-7.5,1.6-13.6c1.9-2,3.8-4.1,8.8-5.4c1-0.3,5.1-1.3,12.9-1.1c8.7,0.2,15.1,1.7,22.6,3.6c17.1,4.4,25.5,6.5,31.9,9.4
			c7.7,3.5,6.6,7.2,17,11.2c3.4,1.3,3.1,0.8,7.3,2.4c9.2,3.4,14.1,6.9,19.9,10.9c4.3,3,6.3,4.5,7.4,6.2c0.8,1.2,0.8,1.7,2,2.3
			c3.5,1.5,11.3,1.1,16.7-0.2c6.3-1.6,8.4-4.4,9.1-4.3C742.3,282.6,740.5,284.9,737.2,286.9z"/>
		<path class="st10" d="M706.4,280.6c0,0,2.8,5.4,3.8,5.4"/>
		<path class="st10" d="M704.2,280.4c0,0,1.5,4.9,2.6,5"/>
		<path class="st10" d="M700.6,278.5c0.1,0.2,0,3.8,0,3.8s2.8,2.9,3.6,2.8"/>
		<path class="st11" d="M698.9,277.5c0,0-1.4,5-0.9,5"/>
		<path class="st11" d="M698.9,284.3c0.3,0.1,3.6,1.1,3.6,1.1"/>
		<line class="st11" x1="695.3" y1="275.6" x2="695.3" y2="277.8"/>
		<path class="st11" d="M695.7,279.3v2.5c0,0,0.3,0.7,1.4,0.7"/>
		<path class="st11" d="M692.7,274.5c0,0-1.1,8.3,0,8.5"/>
		<path class="st11" d="M689.5,273.2v4.4c0,0-1.1,3,0.6,3.1"/>
		<path class="st11" d="M686.7,273.2c0,0,0.2,2.8,0,3.1c-0.2,0.3-1.1,5.9,0,5.8"/>
		<path class="st11" d="M683.3,272.3c0.2,0.2,0,4.8,0,4.8l0.1,4.2"/>
		<path class="st11" d="M678.5,276.8c0,0,2.6,4.1,3.3,4.5"/>
		<path class="st11" d="M676.6,268.4v4c0,0-2.1,7.8-0.5,8.1"/>
		<path class="st11" d="M673.5,267.8c0,0.2-1.8,8.3-0.8,9.9"/>
		<path class="st11" d="M671.5,267.8c0,0-3.3,11.2-2.2,11.2"/>
		<path class="st11" d="M670.3,266.2c0,0.7-3.9,12.5-2.8,12.7"/>
		<path class="st11" d="M668.8,266.4c0,0.4-3.7,11.6-2.9,11.8"/>
		<path class="st11" d="M666.1,266.4c0,0.1-3.4,11.1-1.9,11.4"/>
		<path class="st11" d="M665.1,267.5c0,0-3.2,8.6-2.1,9.2"/>
		<path class="st11" d="M662.6,269.2c0,0.1-4.1,6.9-1.7,7.5"/>
		<path class="st11" d="M658.7,272.1c0,0-1.2,4,0,4.7"/>
		<path class="st11" d="M648,253.5c0,0-3.3,8.5-1.8,9"/>
		<path class="st11" d="M646.9,253.3c0,0-4.6,9.7-3.4,10"/>
		<path class="st11" d="M645.1,252.8c0,0-4.7,10.5-3.1,10.5"/>
		<path class="st11" d="M643.3,253.1c0,0-6.6,8.7-3.3,9.1"/>
		<path class="st11" d="M643.3,251.5c0,0-3.1,4.7-2,4.7"/>
		<path class="st11" d="M641,250.9c0,0-2.9,4.4-1.9,4.7"/>
		<path class="st11" d="M637.2,255.6c-1.9,0,1.7-6.3,1.7-6.3"/>
		<path class="st11" d="M637.8,249.3c0,0-4.4,5-3.6,5.3"/>
		<path class="st11" d="M635.9,248.3c0,0-3.1,3.2-1.9,3.6"/>
		<path class="st11" d="M634,247.4c0,0-2.1,3.2-1.2,3.5"/>
		<path class="st11" d="M632.6,247.1c0,0-3.2,3.6-2,3.8"/>
		<path class="st11" d="M646.9,266.4c0,0-1.7,8.1,0,8.1"/>
		<path class="st11" d="M649.7,272.5c0,0-2.3,3,0.7,3.2"/>
		<path class="st11" d="M656.1,274.1c0,0-2.3,1.7,0,1.9"/>
		<path class="st11" d="M643.3,266.9c0.3,0.3-0.8,7.2,1.2,7.2"/>
		<path class="st11" d="M639.9,267.8c0,0-2.8,5.7,0,5.6"/>
		<path class="st11" d="M636.6,267.7c0,0-1.4,5.6,0,5.6"/>
		<path class="st11" d="M633.3,266.4c0,0-1.5,6,0,6.1"/>
		<path class="st11" d="M630.8,265.5c0,0-2.8,6.5-1.6,6.7"/>
		<path class="st11" d="M628.9,265.1c0,0-3.2,7-1.9,7"/>
		<path class="st11" d="M625,265.9c0,0-2.4,6.3-0.7,6.4"/>
		<path class="st11" d="M622.2,261.6c0,0-0.5,8.6,0,8.8"/>
		<path class="st11" d="M620.5,261.1c0,0-0.9,8.6,0,8.9"/>
		<path class="st11" d="M617.7,261.6c0,0-2.5,8.9,0,8.8"/>
		<path class="st11" d="M619.5,262.6c0,0-2.5,7.2-0.8,7.4"/>
		<path class="st11" d="M615.9,261.6c0,0-2.7,8.5-0.9,8.4"/>
		<path class="st11" d="M613.3,262.6c0,0-2.3,6.2-0.7,6.5"/>
		<path class="st11" d="M610.5,261.6c0,0-0.9,6.6,0,6.7"/>
		<path class="st11" d="M608.2,259.5c0,0.2-1.3,6.8,0,7.4"/>
		<path class="st11" d="M604.2,259.2c0,0-2.5,8-1.2,8.3"/>
		<line class="st11" x1="605.3" y1="259.5" x2="605.3" y2="267.8"/>
		<path class="st11" d="M602.6,259.5c0,0-4.2,7-2.7,7.4"/>
		<path class="st11" d="M619.5,246.3c0,0-8,3.8-6.1,4.6"/>
		<path class="st11" d="M617.1,246c0,0-10.7,6.4-9,6.8"/>
		<path class="st11" d="M616.5,243.5c-3.3,1-7.6,2.6-10.3,5.1c-0.5,0.4-0.9,0.8-1.2,1.3"/>
		<path class="st11" d="M615.9,245c0,0-11,7-9.4,7.4"/>
		<path class="st11" d="M611.1,243.1"/>
		<path class="st11" d="M606.3,245l-4.5,3.1c0,0-2.9,5.4-2.2,6.4"/>
		<path class="st11" d="M603.4,254.6c0,0-7.7,11.5-6.3,11.8"/>
		<path class="st11" d="M600.2,255.6c0,0-7.1,9.7-5.7,10.2"/>
		<path class="st11" d="M601.8,245.5c0,0-5.5,7.9-5,9c0.5,1.1-5.3,7.8-3.7,8.6"/>
		<path class="st11" d="M597.4,247.1c0,0-9,16.5-7.8,17"/>
		<path class="st11" d="M594.3,249c0.2,0.3-8.1,12.7-7.1,13.3"/>
		<path class="st11" d="M590.7,248.1c0,0-6,10.6-4.9,11.1"/>
		<path class="st11" d="M607.4,245.4c-1.9,2.7-3.8,5.4-5.7,8.1"/>
		<path class="st11" d="M607.4,253.8c-0.7,1.6-1.3,3.2-1.9,4.8"/>
		<path class="st12" d="M741.1,273.9c-2.5-5.5-6.7-9.6-8.8-11.5c-5.7-5.3-11.2-9-17.2-13.1c-10.3-6.9-15.5-10.3-22.9-12.8
			c-4.4-1.5-13.5-4.6-27.3-5.6c-11-0.8-19.7,0.1-27.8,1c-21.4,2.4-41.5,7.5-40.3,8.9c0.6,0.7,5.5-0.1,13.3,0
			c24.5,0.3,50,8.7,58.9,17.2c1.4,1.3,3.1,3.3,7.4,5.7c6.1,3.4,11,4.1,16.4,6.1c16.9,6.3,10,15,23.3,17.1c4.7,0.8,11.3,0.6,16.5-0.7
			c4.6-1.1,6.8-2.7,7.3-3C742.5,281.3,743.4,279,741.1,273.9z"/>
		<path class="st9" d="M615,237c7.9,0,13.3-0.8,17-1.7c5-1.1,8.4-2.6,13.8-2.3c1,0,4.8,0.2,5.6,1.2c0.4,0.6-0.2,1.3-1.5,1.6
			c-1.9,0.4-3.4-0.6-7.2-0.7c-2.8,0-5.1,0.5-7.3,1.1c-3.8,0.9-2.9,1.4-6.1,2.2c-4.1,1-5.6,0.3-10.4,1.4c-1.7,0.4-3.1,0.8-3.7,0.6
			c-0.8-0.3,0.8-1.2-0.3-2.1c-0.5-0.4-1.4-0.6-2-0.8"/>
		<path class="st9" d="M608.2,239.5c0.6-0.6,1.1-1.1,1.7-1.7"/>
		<path class="st9" d="M700.5,256.8c2.4,1.9,8,3.2,9.6,2.6c1.2-0.4-0.2-1.7,1.1-1.9c1-0.2,2.3,0.4,2.9,0.2c0.5-0.2,0-0.9-1-1.5
			c-0.6-0.3-1.2-0.5-4.5-1.2c-3.6-0.7-4.2-0.7-4.6-0.7c-1.7,0-3.7,0.5-4.2,1.2C699.7,255.9,699.8,256.3,700.5,256.8z"/>
		<path class="st9" d="M717.6,255c-1.4,0.5-2.8,0.9-4.2,1.4"/>
		<path class="st9" d="M710.6,254.3c0.9-0.6,2.6-0.6,4.7-0.7c1.3,0,3.8-0.1,4.5,0.4c0.5,0.4-0.3,0.7,0.3,1.3
			c0.5,0.6,1.3,0.5,1.5,0.9c0.3,0.6-1,1.4-2.5,1.6c-0.7,0.1-1.7,0-3.7-0.3c-1.9-0.2-2.7-0.3-3.1-0.4
			C710.5,256.5,709.3,255.1,710.6,254.3z"/>
		<path class="st9" d="M682.9,250.4c-0.1,0.8,6,1.4,6.3,1.5c4.5,0.5,5.6,0,9.9,0.3c5.1,0.3,5,1.1,10.1,1.5c5.2,0.4,10.5,0,10.6-0.4
			c0.1-0.3-2.9-0.7-8.9-1.5c-6.6-0.9-6.1-0.6-12.7-1.5c-5.7-0.7-8.2-1.1-11.8-0.8C686.2,249.5,683,249.8,682.9,250.4z"/>
		<path class="st9" d="M679.4,248.5c6-0.1,5.7-0.3,8.4-0.3c5.3,0.1,9.8,1,11.2,1.3c2.1,0.4,2.8,0.7,4.9,0.9c2.2,0.3,2.8,0.1,6.1,0.4
			c2.8,0.3,3.9,0.5,4.3,0.3c0.5-0.3-0.6-1.1-2-1.7c-1.8-0.7-3.9-0.8-6.7-1.1c-2.2-0.2-2.3-0.1-4.1-0.3c-2.4-0.3-3.7-0.6-5.6-1
			c-1.9-0.4-5.2-1.1-9-1.4c-3.1-0.2-6-0.4-8.9,0.3c-1.6,0.3-2.6,0.8-4.7,0.9c-0.7,0-1,0-3.2-0.3c-5.3-0.6-5.7-0.6-6.1-0.4
			c-1.2,0.3-1.4,1.5-0.3,2.1c1,0.5,2.3,0.4,9.7,0.3C677.2,248.5,677.1,248.5,679.4,248.5z"/>
		<path class="st9" d="M673.9,250.1c2.1,1.4,4.7,2.1,6.7,2.7c2.2,0.6,4.7,1.4,8.2,1.6c2.7,0.2,5.3,0,6.1-0.1
			c2.2-0.2,3.5-0.3,3.6-0.5c0.1-0.5-5.4-0.8-12.7-2.4c-4-0.9-5.9-1.3-7.9-2.3c-0.5-0.2-5.6-2.9-3.9-5.6c1-1.4,3.2-1.9,2.5-2.8
			c-0.7-0.8-3.5-1.4-5.2-1c-2.1,0.5-1.8,2.5-1.3,4.7C670.8,246.7,671.2,248.3,673.9,250.1z"/>
		<path class="st9" d="M661.3,250.3c3.3,0,5.7,0.8,12.4,3.3c14.9,5.6,6.7,3,9.5,4c1.2,0.4,3.4,1.1,3.4,2.1c0,0-0.1,0.8-1.1,1
			c-2.1,0.5-6.5-1.7-7.8-2.2c-1.8-0.8-1.3-0.8-2.9-1.6c-3-1.4-6-2.1-7-2.3c-2.6-0.6-2.7-0.3-4.4-0.8c-3.1-0.9-5.7-2.5-4.8-3.1
			C658.9,250.2,660.5,250.3,661.3,250.3z"/>
		<path class="st9" d="M664.2,253c5.3,1.6,10.6,3.2,15.9,4.7"/>
		<path class="st9" d="M672.4,259c0.9-0.3,3.1,1.1,9.4,3.1c2.2,0.7,4.1,1.2,4,1.9c-0.1,0.4-0.9,0.7-1.8,0.8
			c-0.8,0.1-1.5-0.1-5.8-1.9c0,0-0.9-0.4-2.4-1c-2.1-0.9-2.5-1.1-2.9-1.5C672.5,260.1,671.8,259.2,672.4,259z"/>
		<path class="st9" d="M642.8,240.2c2.4,0.1,3.6-1.1,6.5-1.9c3.6-0.9,8-0.9,10.6-0.3c0.5,0.1,1.9,0.5,1.9,0.9c0,0.2-0.1,0.5-1.9,1
			c-1.7,0.5-3.4,0.7-8.5,1.1c-3.8,0.3-4.4,0.3-5.4,0.6c-1.2,0.4-1.7,0.8-2.9,0.8c-1,0-2-0.2-2.7-0.5c-0.2-0.1-0.8-0.4-0.8-0.8
			c0,0,0-0.6,1-0.9C641.3,240.1,642.2,240.2,642.8,240.2z"/>
		<path class="st9" d="M648.7,236.9c-0.9-1,3.1-2.5,5.4-3.1c4.4-1.2,9.2-1.1,12-1c0,0,1.9-0.1,5.6,0c2.7,0.1,3.7,0.2,4.3,0.5
			c0.6,0.3,0.7,0.9,0.2,1.4c-1.5,1.4-8.5,1.7-13.4,1.4c-2.3-0.1-4-0.4-5.6,0.1c-1.8,0.5-1.6,1.2-3.2,1.5
			C652,238,649.3,237.6,648.7,236.9z"/>
		<path class="st9" d="M652.4,235.8c2.8-0.6,5.7-1.1,8.5-1.7"/>
		<path class="st9" d="M657.6,232.3c-0.6-0.4,1.9-1.7,4.4-2.3c1.4-0.4,4.2-1,7.7-0.8c2.4,0.2,4.2,0.6,5.6,1.1
			c6.4,2.1,13.9,6.5,11.4,7.9c-1.3,0.7-5.2,0.6-6.9-0.2c-2-0.8-0.1-1.9-1.8-3.5c-1.9-1.7-6.7-2.8-10.6-2.9
			C662,231.3,658.2,232.7,657.6,232.3z"/>
		<path class="st9" d="M639.4,229.7c5-2.2,14.1-1.7,16.2-1.5c3.4,0.2,9.1,0.9,9.1,1.9c0,0.9-5.4,2.1-9.6,1.6
			c-3.7-0.4-4.4-1.9-6.9-1.8c-3.2,0.1-5.2,2.6-5.7,3.2c-1.8,2.2,0.1,2.8-1.5,4.2c-0.5,0.5-1.6,1.2-12.4,3.4
			c-9.5,1.9-10.8,1.9-11.4,1.6c-1.3-0.6-0.8-2.1,1.2-3c3.9-1.9,10.7,0.1,15.4-1.5C639.2,236,633.7,232.3,639.4,229.7z"/>
		<path class="st9" d="M662.9,240.4c8.8,1.3,12.4-0.2,20.5,0.3c10.6,0.7,16.8,4.1,18.3,3.3c0.9-0.4-0.6-1.8-1.4-2.4
			c-0.4-0.3-1.3-0.8-2.8-1.3c-3.4-1.1-7.4-1-10.6-1.1c-8-0.2-7.4-1.3-15.4-1.7c-6.9-0.3-14.8,0.2-15,1
			C656.2,239.4,662.1,240.3,662.9,240.4z"/>
		<path class="st9" d="M636.7,245.4c0.4-1.8,13.3-2.6,14.4-2.7c4.3-0.3,11.3-0.6,17.1,1.2c2.4,0.7,4.5,1.8,4.1,2.1
			c-0.5,0.3-3.9-0.6-9.8-1.2c-2.7-0.3-6.7-0.6-11.6-0.1c-3.8,0.4-6.4,0.6-8.5,1.6c-0.8,0.3-1.4,0.8-2.4,0.8
			C638.6,247.1,636.6,246.1,636.7,245.4z"/>
		<path class="st9" d="M674.7,249.4c1.6,0.6,3.1,1.2,4.6,1.8"/>
		<path class="st9" d="M681.4,251.9c1.3,0.2,2.4,0.4,3.7,0.6"/>
		<path class="st9" d="M679.8,247.1c1.3,0,2.4,0,3.7,0"/>
		<path class="st9" d="M688.3,246.7c2.1,0.4,4.3,0.8,6.3,1.3"/>
		<path class="st9" d="M688.6,240.4c3.7,0.7,7.4,1.4,11.2,2.2"/>
		<path class="st9" d="M697.4,258c1.3,0.4,2.5,0.8,3.9,1.2"/>
		<path class="st9" d="M687.7,259.5c0.1-0.3,2.4-0.1,3.5-0.8c1.3-0.8-0.9-2,0-2.2s4.4,0.5,5,1.9c0.3,0.6,0.1,1.5-1.4,1.9
			c-1.3,0.4-2.9,0.2-4.6-0.1C689.7,260.1,687.6,259.8,687.7,259.5z"/>
		<path class="st9" d="M696.2,261.2c2.2,0.8,2.5,1,2.5,1c-0.1,0.1-1.8-0.4-4.1-0.7c-1.6-0.2-5.2-0.3-6.1,0.3c-1,0.7,1,2.1,3.5,2.8
			c2,0.6,5.3,0.8,6.5,0.2c1.2-0.6-0.5-1.4,0.2-2.6c1-1.7,5.3-2.8,6.3-2.5c0.6,0.2,0.7,0.8-0.8,2.5"/>
		<path class="st9" d="M684.9,241.8c0.9,0.8-0.1,1.4,1,1.7c1,0.3,2.8,0.2,3.9-0.2c1-0.4,0.7-0.7,1.5-1c1.5-0.5,5-0.3,5.9,0.6
			c1.1,0.9-1.9,1.8-1,3.1c0.8,1.1,3.4,1.4,3.2,1.7c-0.3,0.2-2.9-0.2-7-0.8c-8.5-1.2-9.4-1-10.8-1.7c-1.3-0.6-2-1.4-4.2-1.7
			c-0.8-0.1-1.5,0-2.1-0.3c-1-0.3-1.5-1-1.2-1.5c0.5-0.9,3.5-1.4,5.6-1.3C681.7,240.5,684.1,241,684.9,241.8z"/>
		<path class="st9" d="M702.1,241"/>
	</g>
	<g id="Meat_1_">
		<path class="st9" d="M735.3,275.9c1.3-0.1,2.6,0.8,3.1,1.1c1.2,0.8,1.4,1.5,1.5,1.9c0.1,0.7-0.2,1.2-0.5,1.6
			c-0.5,0.7-3.9,0.6-5.4,0c-1.9-0.7-1.2-2-0.7-2.9C733.7,276.9,734.1,276,735.3,275.9z"/>
		<path class="st9" d="M699.4,267c1.2-1.1,4.1-2.2,6.9-2c2.6,0.1,2.9,1.3,5.7,1.4c2.9,0.2,4.3-0.8,5.8-0.5c1.8,0.4,0.4,1.6,2.3,3.3
			c1.7,1.4,3.9,1.7,3.6,2.3c-0.4,0.9-4.4,1.7-6,1.1c-1.2-0.3-0.3-1-1.6-1.7c-1.9-1-6.7-0.9-7.8-0.2c-0.8,0.6,1,1.4,0.2,1.7
			c-0.9,0.4-4.2-0.1-5.4-1.1c-0.9-0.7,0-1.1-1.1-1.7s-2.5-0.4-3.3-1C698.1,268.2,699,267.3,699.4,267z"/>
		<path class="st9" d="M692.5,268.8"/>
		<path class="st9" d="M705.3,275.7c1.3-0.3,3.1-0.3,4,0.1c1.3,0.6-0.3,2.3-2.1,2.4c-1.8,0.1-3.9-1.3-3.2-2
			C704.2,276,704.8,275.9,705.3,275.7z"/>
		<path class="st9" d="M711.5,276.3c-0.4,0.8,2.8,1.9,5.9,2.3c2.9,0.4,6.9,0.3,7.9-0.6c0.5-0.4,0-0.8,0.6-0.9c1-0.3,2.6,1,4.8,1
			c2,0,4-1.2,4-2.1c-0.1-0.8-1.4-0.9-1.8-1.8c-0.4-1.1,2.3-1.6,1.9-2.2c-0.5-0.6-3-1.1-4.8-0.8c-2.1,0.3-1.5,1.5-4.4,2.7
			c-0.5,0.2-3.3,1.4-6.1,1.2c-1.8-0.1-2-0.7-3.5-0.6c-0.9,0.1-1.8,0.5-3.6,1.4C711.6,276.2,711.5,276.2,711.5,276.3z"/>
		<path class="st9" d="M714.5,281.4c1.4-0.3,3.7,1.7,6.7,1.4c1.8-0.2,1.5-0.9,3.7-1.4c2.9-0.6,4.7,0.3,7.7-0.3
			c2.7-0.5,3-1.6,4.4-1.5c1.5,0.1,2.7,1.4,1.9,2.2c-0.6,0.6-1.9,0.6-5.2,1.4c-3.3,0.9-2.6,1.2-4.8,1.6c-2.4,0.5-3,0.1-8.1,0.6
			c-2.4,0.2-2.7,0.3-3.5,0.3C713.9,285.3,712.8,281.8,714.5,281.4z"/>
		<path class="st9" d="M721.8,262.2c-3.9-0.2-8,3.3-7.1,3.7c0.5,0.2,2.1-0.5,3.9-0.2s1.6,1.3,3.1,2.3c2.7,1.9,9.4,2.5,10.1,1.9
			c0.3-0.2-0.2-0.4-1.2-1.3c-1.7-1.4-1.6-1.8-2.7-3C725.9,263.9,724.2,262.3,721.8,262.2z"/>
		<path class="st9" d="M697.8,267.6c-0.5-0.2-0.9-0.9-2.1-1.1s-2.8,0.3-3.3,0.8c-2.1,1.9,12,7.2,13.6,6.7
			C707.2,273.6,702.7,269,697.8,267.6z"/>
		<path class="st9" d="M699.4,267"/>
	</g>
	<g id="Layer_2_3_">
		<path class="st9" d="M677,302.8c1.9-0.1,3.6-0.7,6.9-1.8c2.5-0.8,4-1.3,5.7-2.2c2.3-1.1,4.4-2.1,5.2-3.7c0.2-0.3,1.4-2.8-1.8-4.7
			c-1.4-0.8-1.9-0.6-3.5-1.5c-2.1-1.3-1.3-2-3.5-3.4c-1.7-1.1-2.4-0.9-3.3-1.8c-1-1.1,0-1.6-1.2-2.7c-1-0.9-2-0.8-2.5-1.5
			c-0.8-1.1,1.7-1.7,1.4-3.1c-0.3-1.4-3.1-2.6-4.8-2.5c-1.5,0.1-1.2,1.1-3.3,1.6c-2.1,0.4-3.6-0.4-5.7,0c-2.2,0.4-1.8,1.6-3.9,1.9
			c-2.3,0.4-3.9-0.8-6.5-0.5s-2.1,1.7-5.7,2.6c-1.9,0.4-2.4,0.2-4.3,0.6c-3.1,0.6-6.3,2.1-5.7,3.3c0.4,0.9,2.7,0.8,6.1,2
			c2,0.7,2,1.1,7.3,4.7c3.7,2.5,4,2.6,5.9,4.1c1.8,1.3,3.2,2.6,4.1,3.3c3.3,2.9,3.6,3.5,5.6,4.2C670.7,302.1,673.6,303,677,302.8z"
			/>
		<path class="st9" d="M691.8,291.1c0,0,4,2.9,2.4,3.3"/>
		<path class="st9" d="M691.1,296.7c0,0-1.3,1.5-2.3,1.4"/>
		<path class="st9" d="M687.6,289.8"/>
		<path class="st9" d="M689.4,301.7c-3,1.8-5.5,2.4-6.1,2.5c-2.3,0.5-4.6,0.6-5.9,0.6c-25.5-5.3-45-8.2-58.6-9.9
			c-12.4-1.6-28.1-3.2-41.6-6.9c-3.6-1-7.1-2.1-13.3-3.1c-9.8-1.6-14.4-0.9-19.5-2.7c-4.1-1.4-5.4-3.3-7.2-6.3
			c-1.2-1.7-4.2-7.5,1.6-13.6c1.9-2,3.8-4.1,8.8-5.4c1-0.3,5.1-1.3,12.9-1.1c8.7,0.2,15.1,1.7,22.6,3.6c17.1,4.4,25.5,6.5,31.9,9.4
			c7.7,3.5,6.6,7.2,17,11.2c3.4,1.3,3.1,0.8,7.3,2.4c9.2,3.4,14.1,6.9,19.9,10.9c4.3,3,6.3,4.5,7.4,6.2c0.8,1.2,0.8,1.7,2,2.3
			c3.5,1.5,11.3,1.1,16.7-0.2c6.3-1.6,8.4-4.4,9.1-4.3C694.6,297.4,692.7,299.7,689.4,301.7z"/>
		<path class="st10" d="M658.6,295.4c0,0,2.8,5.4,3.8,5.4"/>
		<path class="st10" d="M656.5,295.2c0,0,1.5,4.9,2.6,5"/>
		<path class="st10" d="M652.9,293.3c0.1,0.2,0,3.8,0,3.8s2.8,2.9,3.6,2.8"/>
		<path class="st11" d="M651.1,292.3c0,0-1.4,5-0.9,5"/>
		<path class="st11" d="M651.1,299.1c0.3,0.1,3.6,1.1,3.6,1.1"/>
		<line class="st11" x1="647.5" y1="290.4" x2="647.5" y2="292.6"/>
		<path class="st11" d="M647.9,294.1v2.5c0,0,0.3,0.7,1.4,0.7"/>
		<path class="st11" d="M645,289.2c0,0-1.1,8.3,0,8.5"/>
		<path class="st11" d="M641.8,288v4.4c0,0-1.1,3,0.6,3.1"/>
		<path class="st11" d="M638.9,288c0,0,0.2,2.8,0,3.1c-0.2,0.3-1.1,5.9,0,5.8"/>
		<path class="st11" d="M635.5,287.1c0.2,0.2,0,4.8,0,4.8l0.1,4.2"/>
		<path class="st11" d="M630.8,291.6c0,0,2.6,4.1,3.3,4.5"/>
		<path class="st11" d="M628.8,283.1v4c0,0-2.1,7.8-0.5,8.1"/>
		<path class="st11" d="M625.8,282.6c0,0.2-1.8,8.3-0.8,9.9"/>
		<path class="st11" d="M623.7,282.6c0,0-3.3,11.2-2.2,11.2"/>
		<path class="st11" d="M622.6,280.9c0,0.7-3.9,12.5-2.8,12.7"/>
		<path class="st11" d="M621,281.2c0,0.4-3.7,11.6-2.9,11.8"/>
		<path class="st11" d="M618.4,281.2c0,0.1-3.4,11.1-1.9,11.4"/>
		<path class="st11" d="M617.3,282.3c0,0-3.2,8.6-2.1,9.2"/>
		<path class="st11" d="M614.9,284c0,0.1-4.1,6.9-1.7,7.5"/>
		<path class="st11" d="M611,286.9c0,0-1.2,4,0,4.7"/>
		<path class="st11" d="M600.3,268.3c0,0-3.3,8.5-1.8,9"/>
		<path class="st11" d="M599.1,268.1c0,0-4.6,9.7-3.4,10"/>
		<path class="st11" d="M597.3,267.6c0,0-4.7,10.5-3.1,10.5"/>
		<path class="st11" d="M595.6,267.9c0,0-6.6,8.7-3.3,9.1"/>
		<path class="st11" d="M595.6,266.3c0,0-3.1,4.7-2,4.7"/>
		<path class="st11" d="M593.3,265.7c0,0-2.9,4.4-1.9,4.7"/>
		<path class="st11" d="M589.5,270.4c-1.9,0,1.7-6.3,1.7-6.3"/>
		<path class="st11" d="M590,264c0,0-4.4,5-3.6,5.3"/>
		<path class="st11" d="M588.2,263.1c0,0-3.1,3.2-1.9,3.6"/>
		<path class="st11" d="M586.2,262.2c0,0-2.1,3.2-1.2,3.5"/>
		<path class="st11" d="M584.9,261.9c0,0-3.2,3.6-2,3.8"/>
		<path class="st11" d="M599.1,281.2c0,0-1.7,8.1,0,8.1"/>
		<path class="st11" d="M601.9,287.3c0,0-2.3,3,0.7,3.2"/>
		<path class="st11" d="M608.4,288.9c0,0-2.3,1.7,0,1.9"/>
		<path class="st11" d="M595.6,281.7c0.3,0.3-0.8,7.2,1.2,7.2"/>
		<path class="st11" d="M592.2,282.6c0,0-2.8,5.7,0,5.6"/>
		<path class="st11" d="M588.9,282.5c0,0-1.4,5.6,0,5.6"/>
		<path class="st11" d="M585.6,281.2c0,0-1.5,6,0,6.1"/>
		<path class="st11" d="M583,280.3c0,0-2.8,6.5-1.6,6.7"/>
		<path class="st11" d="M581.2,279.8c0,0-3.2,7-1.9,7"/>
		<path class="st11" d="M577.3,280.7c0,0-2.4,6.3-0.7,6.4"/>
		<path class="st11" d="M574.4,276.4c0,0-0.5,8.6,0,8.8"/>
		<path class="st11" d="M572.8,275.9c0,0-0.9,8.6,0,8.9"/>
		<path class="st11" d="M570,276.4c0,0-2.5,8.9,0,8.8"/>
		<path class="st11" d="M571.7,277.3c0,0-2.5,7.2-0.8,7.4"/>
		<path class="st11" d="M568.1,276.4c0,0-2.7,8.5-0.9,8.4"/>
		<path class="st11" d="M565.6,277.3c0,0-2.3,6.2-0.7,6.5"/>
		<path class="st11" d="M562.8,276.4c0,0-0.9,6.6,0,6.7"/>
		<path class="st11" d="M560.4,274.3c0,0.2-1.3,6.8,0,7.4"/>
		<path class="st11" d="M556.4,274c0,0-2.5,8-1.2,8.3"/>
		<line class="st11" x1="557.6" y1="274.3" x2="557.6" y2="282.6"/>
		<path class="st11" d="M554.9,274.3c0,0-4.2,7-2.7,7.4"/>
		<path class="st11" d="M571.7,261.1c0,0-8,3.8-6.1,4.6"/>
		<path class="st11" d="M569.4,260.7c0,0-10.7,6.4-9,6.8"/>
		<path class="st11" d="M568.8,258.2c-3.3,1-7.6,2.6-10.3,5.1c-0.5,0.4-0.9,0.8-1.2,1.3"/>
		<path class="st11" d="M568.1,259.8c0,0-11,7-9.4,7.4"/>
		<path class="st11" d="M563.3,257.9"/>
		<path class="st11" d="M558.6,259.8l-4.5,3.1c0,0-2.9,5.4-2.2,6.4"/>
		<path class="st11" d="M555.6,269.3c0,0-7.7,11.5-6.3,11.8"/>
		<path class="st11" d="M552.4,270.4c0,0-7.1,9.7-5.7,10.2"/>
		<path class="st11" d="M554.1,260.3c0,0-5.5,7.9-5,9c0.5,1.1-5.3,7.8-3.7,8.6"/>
		<path class="st11" d="M549.6,261.9c0,0-9,16.5-7.8,17"/>
		<path class="st11" d="M546.6,263.7c0.2,0.3-8.1,12.7-7.1,13.3"/>
		<path class="st11" d="M543,262.9c0,0-6,10.6-4.9,11.1"/>
		<path class="st11" d="M559.6,260.2c-1.9,2.7-3.8,5.4-5.7,8.1"/>
		<path class="st11" d="M559.6,268.6c-0.7,1.6-1.3,3.2-1.9,4.8"/>
		<path class="st12" d="M693.3,288.6c-2.5-5.5-6.7-9.6-8.8-11.5c-5.7-5.3-11.2-9-17.2-13.1c-10.3-6.9-15.5-10.3-22.9-12.8
			c-4.4-1.5-13.5-4.6-27.3-5.6c-11-0.8-19.7,0.1-27.8,1c-21.4,2.4-41.5,7.5-40.3,8.9c0.6,0.7,5.5-0.1,13.3,0
			c24.5,0.3,50,8.7,58.9,17.2c1.4,1.3,3.1,3.3,7.4,5.7c6.1,3.4,11,4.1,16.4,6.1c16.9,6.3,10,15,23.3,17.1c4.7,0.8,11.3,0.6,16.5-0.7
			c4.6-1.1,6.8-2.7,7.3-3C694.8,296.1,695.7,293.8,693.3,288.6z"/>
		<path class="st9" d="M567.2,251.8c7.9,0,13.3-0.8,17-1.7c5-1.1,8.4-2.6,13.8-2.3c1,0,4.8,0.2,5.6,1.2c0.4,0.6-0.2,1.3-1.5,1.6
			c-1.9,0.4-3.4-0.6-7.2-0.7c-2.8,0-5.1,0.5-7.3,1.1c-3.8,0.9-2.9,1.4-6.1,2.2c-4.1,1-5.6,0.3-10.4,1.4c-1.7,0.4-3.1,0.8-3.7,0.6
			c-0.8-0.3,0.8-1.2-0.3-2.1c-0.5-0.4-1.4-0.6-2-0.8"/>
		<path class="st9" d="M560.4,254.3c0.6-0.6,1.1-1.1,1.7-1.7"/>
		<path class="st9" d="M652.8,271.6c2.4,1.9,8,3.2,9.6,2.6c1.2-0.4-0.2-1.7,1.1-1.9c1-0.2,2.3,0.4,2.9,0.2c0.5-0.2,0-0.9-1-1.5
			c-0.6-0.3-1.2-0.5-4.5-1.2c-3.6-0.7-4.2-0.7-4.6-0.7c-1.7,0-3.7,0.5-4.2,1.2C651.9,270.7,652,271.1,652.8,271.6z"/>
		<path class="st9" d="M669.8,269.8c-1.4,0.5-2.8,0.9-4.2,1.4"/>
		<path class="st9" d="M662.8,269c0.9-0.6,2.6-0.6,4.7-0.7c1.3,0,3.8-0.1,4.5,0.4c0.5,0.4-0.3,0.7,0.3,1.3c0.5,0.6,1.3,0.5,1.5,0.9
			c0.3,0.6-1,1.4-2.5,1.6c-0.7,0.1-1.7,0-3.7-0.3c-1.9-0.2-2.7-0.3-3.1-0.4C662.7,271.3,661.6,269.9,662.8,269z"/>
		<path class="st9" d="M635.1,265.1c-0.1,0.8,6,1.4,6.3,1.5c4.5,0.5,5.6,0,9.9,0.3c5.1,0.3,5,1.1,10.1,1.5c5.2,0.4,10.5,0,10.6-0.4
			c0.1-0.3-2.9-0.7-8.9-1.5c-6.6-0.9-6.1-0.6-12.7-1.5c-5.7-0.7-8.2-1.1-11.8-0.8C638.5,264.3,635.2,264.6,635.1,265.1z"/>
		<path class="st9" d="M631.6,263.3c6-0.1,5.7-0.3,8.4-0.3c5.3,0.1,9.8,1,11.2,1.3c2.1,0.4,2.8,0.7,4.9,0.9c2.2,0.3,2.8,0.1,6.1,0.4
			c2.8,0.3,3.9,0.5,4.3,0.3c0.5-0.3-0.6-1.1-2-1.7c-1.8-0.7-3.9-0.8-6.7-1.1c-2.2-0.2-2.3-0.1-4.1-0.3c-2.4-0.3-3.7-0.6-5.6-1
			c-1.9-0.4-5.2-1.1-9-1.4c-3.1-0.2-6-0.4-8.9,0.3c-1.6,0.3-2.6,0.8-4.7,0.9c-0.7,0-1,0-3.2-0.3c-5.3-0.6-5.7-0.6-6.1-0.4
			c-1.2,0.3-1.4,1.5-0.3,2.1c1,0.5,2.3,0.4,9.7,0.3C629.5,263.3,629.3,263.3,631.6,263.3z"/>
		<path class="st9" d="M626.2,264.9c2.1,1.4,4.7,2.1,6.7,2.7c2.2,0.6,4.7,1.4,8.2,1.6c2.7,0.2,5.3,0,6.1-0.1
			c2.2-0.2,3.5-0.3,3.6-0.5c0.1-0.5-5.4-0.8-12.7-2.4c-4-0.9-5.9-1.3-7.9-2.3c-0.5-0.2-5.6-2.9-3.9-5.6c1-1.4,3.2-1.9,2.5-2.8
			c-0.7-0.8-3.5-1.4-5.2-1c-2.1,0.5-1.8,2.5-1.3,4.7C623.1,261.5,623.5,263.1,626.2,264.9z"/>
		<path class="st9" d="M613.5,265.1c3.3,0,5.7,0.8,12.4,3.3c14.9,5.6,6.7,3,9.5,4c1.2,0.4,3.4,1.1,3.4,2.1c0,0-0.1,0.8-1.1,1
			c-2.1,0.5-6.5-1.7-7.8-2.2c-1.8-0.8-1.3-0.8-2.9-1.6c-3-1.4-6-2.1-7-2.3c-2.6-0.6-2.7-0.3-4.4-0.8c-3.1-0.9-5.7-2.5-4.8-3.1
			C611.2,265,612.7,265.1,613.5,265.1z"/>
		<path class="st9" d="M616.4,267.8c5.3,1.6,10.6,3.2,15.9,4.7"/>
		<path class="st9" d="M624.6,273.8c0.9-0.3,3.1,1.1,9.4,3.1c2.2,0.7,4.1,1.2,4,1.9c-0.1,0.4-0.9,0.7-1.8,0.8
			c-0.8,0.1-1.5-0.1-5.8-1.9c0,0-0.9-0.4-2.4-1c-2.1-0.9-2.5-1.1-2.9-1.5C624.7,274.8,624,274,624.6,273.8z"/>
		<path class="st9" d="M595,255c2.4,0.1,3.6-1.1,6.5-1.9c3.6-0.9,8-0.9,10.6-0.3c0.5,0.1,1.9,0.5,1.9,0.9c0,0.2-0.1,0.5-1.9,1
			c-1.7,0.5-3.4,0.7-8.5,1.1c-3.8,0.3-4.4,0.3-5.4,0.6c-1.2,0.4-1.7,0.8-2.9,0.8c-1,0-2-0.2-2.7-0.5c-0.2-0.1-0.8-0.4-0.8-0.8
			c0,0,0-0.6,1-0.9C593.5,254.9,594.4,254.9,595,255z"/>
		<path class="st9" d="M601,251.7c-0.9-1,3.1-2.5,5.4-3.1c4.4-1.2,9.2-1.1,12-1c0,0,1.9-0.1,5.6,0c2.7,0.1,3.7,0.2,4.3,0.5
			s0.7,0.9,0.2,1.4c-1.5,1.4-8.5,1.7-13.4,1.4c-2.3-0.1-4-0.4-5.6,0.1c-1.8,0.5-1.6,1.2-3.2,1.5C604.3,252.8,601.5,252.4,601,251.7z
			"/>
		<path class="st9" d="M604.7,250.6c2.8-0.6,5.7-1.1,8.5-1.7"/>
		<path class="st9" d="M609.8,247.1c-0.6-0.4,1.9-1.7,4.4-2.3c1.4-0.4,4.2-1,7.7-0.8c2.4,0.2,4.2,0.6,5.6,1.1
			c6.4,2.1,13.9,6.5,11.4,7.9c-1.3,0.7-5.2,0.6-6.9-0.2c-2-0.8-0.1-1.9-1.8-3.5c-1.9-1.7-6.7-2.8-10.6-2.9
			C614.2,246.1,610.5,247.5,609.8,247.1z"/>
		<path class="st9" d="M591.7,244.5c5-2.2,14.1-1.7,16.2-1.5c3.4,0.2,9.1,0.9,9.1,1.9c0,0.9-5.4,2.1-9.6,1.6
			c-3.7-0.4-4.4-1.9-6.9-1.8c-3.2,0.1-5.2,2.6-5.7,3.2c-1.8,2.2,0.1,2.8-1.5,4.2c-0.5,0.5-1.6,1.2-12.4,3.4
			c-9.5,1.9-10.8,1.9-11.4,1.6c-1.3-0.6-0.8-2.1,1.2-3c3.9-1.9,10.7,0.1,15.4-1.5C591.4,250.8,585.9,247.1,591.7,244.5z"/>
		<path class="st9" d="M615.2,255.2c8.8,1.3,12.4-0.2,20.5,0.3c10.6,0.7,16.8,4.1,18.3,3.3c0.9-0.4-0.6-1.8-1.4-2.4
			c-0.4-0.3-1.3-0.8-2.8-1.3c-3.4-1.1-7.4-1-10.6-1.1c-8-0.2-7.4-1.3-15.4-1.7c-6.9-0.3-14.8,0.2-15,1
			C608.5,254.2,614.4,255.1,615.2,255.2z"/>
		<path class="st9" d="M589,260.1c0.4-1.8,13.3-2.6,14.4-2.7c4.3-0.3,11.3-0.6,17.1,1.2c2.4,0.7,4.5,1.8,4.1,2.1
			c-0.5,0.3-3.9-0.6-9.8-1.2c-2.7-0.3-6.7-0.6-11.6-0.1c-3.8,0.4-6.4,0.6-8.5,1.6c-0.8,0.3-1.4,0.8-2.4,0.8
			C590.8,261.9,588.9,260.9,589,260.1z"/>
		<path class="st9" d="M627,264.2c1.6,0.6,3.1,1.2,4.6,1.8"/>
		<path class="st9" d="M633.7,266.7c1.3,0.2,2.4,0.4,3.7,0.6"/>
		<path class="st9" d="M632,261.9c1.3,0,2.4,0,3.7,0"/>
		<path class="st9" d="M640.5,261.5c2.1,0.4,4.3,0.8,6.3,1.3"/>
		<path class="st9" d="M640.8,255.2c3.7,0.7,7.4,1.4,11.2,2.2"/>
		<path class="st9" d="M649.7,272.8c1.3,0.4,2.5,0.8,3.9,1.2"/>
		<path class="st9" d="M639.9,274.2c0.1-0.3,2.4-0.1,3.5-0.8c1.3-0.8-0.9-2,0-2.2c0.9-0.3,4.4,0.5,5,1.9c0.3,0.6,0.1,1.5-1.4,1.9
			c-1.3,0.4-2.9,0.2-4.6-0.1C642,274.8,639.8,274.5,639.9,274.2z"/>
		<path class="st9" d="M648.4,276c2.2,0.8,2.5,1,2.5,1c-0.1,0.1-1.8-0.4-4.1-0.7c-1.6-0.2-5.2-0.3-6.1,0.3s1,2.1,3.5,2.8
			c2,0.6,5.3,0.8,6.5,0.2c1.2-0.6-0.5-1.4,0.2-2.6c1-1.7,5.3-2.8,6.3-2.5c0.6,0.2,0.7,0.8-0.8,2.5"/>
		<path class="st9" d="M637.2,256.5c0.9,0.8-0.1,1.4,1,1.7c1,0.3,2.8,0.2,3.9-0.2c1-0.4,0.7-0.7,1.5-1c1.5-0.5,5-0.3,5.9,0.6
			c1.1,0.9-1.9,1.8-1,3.1c0.8,1.1,3.4,1.4,3.2,1.7c-0.3,0.2-2.9-0.2-7-0.8c-8.5-1.2-9.4-1-10.8-1.7c-1.3-0.6-2-1.4-4.2-1.7
			c-0.8-0.1-1.5,0-2.1-0.3c-1-0.3-1.5-1-1.2-1.5c0.5-0.9,3.5-1.4,5.6-1.3C634,255.3,636.3,255.7,637.2,256.5z"/>
		<path class="st9" d="M654.3,255.8"/>
	</g>
	<g id="Meat_2_">
		<path class="st9" d="M687.6,290.7c1.3-0.1,2.6,0.8,3.1,1.1c1.2,0.8,1.4,1.5,1.5,1.9c0.1,0.7-0.2,1.2-0.5,1.6
			c-0.5,0.7-3.9,0.6-5.4,0c-1.9-0.7-1.2-2-0.7-2.9C685.9,291.7,686.3,290.8,687.6,290.7z"/>
		<path class="st9" d="M651.6,281.8c1.2-1.1,4.1-2.2,6.9-2c2.6,0.1,2.9,1.3,5.7,1.4c2.9,0.2,4.3-0.8,5.8-0.5
			c1.8,0.4,0.4,1.6,2.3,3.3c1.7,1.4,3.9,1.7,3.6,2.3c-0.4,0.9-4.4,1.7-6,1.1c-1.2-0.3-0.3-1-1.6-1.7c-1.9-1-6.7-0.9-7.8-0.2
			c-0.8,0.6,1,1.4,0.2,1.7c-0.9,0.4-4.2-0.1-5.4-1.1c-0.9-0.7,0-1.1-1.1-1.7c-1.1-0.6-2.5-0.4-3.3-1
			C650.3,283,651.2,282.1,651.6,281.8z"/>
		<path class="st9" d="M644.8,283.6"/>
		<path class="st9" d="M657.6,290.5c1.3-0.3,3.1-0.3,4,0.1c1.3,0.6-0.3,2.3-2.1,2.4c-1.8,0.1-3.9-1.3-3.2-2
			C656.5,290.8,657.1,290.6,657.6,290.5z"/>
		<path class="st9" d="M663.8,291.1c-0.4,0.8,2.8,1.9,5.9,2.3c2.9,0.4,6.9,0.3,7.9-0.6c0.5-0.4,0-0.8,0.6-0.9c1-0.3,2.6,1,4.8,1
			c2,0,4-1.2,4-2.1c-0.1-0.8-1.4-0.9-1.8-1.8c-0.4-1.1,2.3-1.6,1.9-2.2c-0.5-0.6-3-1.1-4.8-0.8c-2.1,0.3-1.5,1.5-4.4,2.7
			c-0.5,0.2-3.3,1.4-6.1,1.2c-1.8-0.1-2-0.7-3.5-0.6c-0.9,0.1-1.8,0.5-3.6,1.4C663.9,290.9,663.8,291,663.8,291.1z"/>
		<path class="st9" d="M666.7,296.2c1.4-0.3,3.7,1.7,6.7,1.4c1.8-0.2,1.5-0.9,3.7-1.4c2.9-0.6,4.7,0.3,7.7-0.3
			c2.7-0.5,3-1.6,4.4-1.5c1.5,0.1,2.7,1.4,1.9,2.2c-0.6,0.6-1.9,0.6-5.2,1.4c-3.3,0.9-2.6,1.2-4.8,1.6c-2.4,0.5-3,0.1-8.1,0.6
			c-2.4,0.2-2.7,0.3-3.5,0.3C666.1,300.1,665.1,296.6,666.7,296.2z"/>
		<path class="st9" d="M674,277c-3.9-0.2-8,3.3-7.1,3.7c0.5,0.2,2.1-0.5,3.9-0.2c1.8,0.3,1.6,1.3,3.1,2.3c2.7,1.9,9.4,2.5,10.1,1.9
			c0.3-0.2-0.2-0.4-1.2-1.3c-1.7-1.4-1.6-1.8-2.7-3C678.1,278.7,676.5,277.1,674,277z"/>
		<path class="st9" d="M650.1,282.4c-0.5-0.2-0.9-0.9-2.1-1.1c-1.3-0.1-2.8,0.3-3.3,0.8c-2.1,1.9,12,7.2,13.6,6.7
			C659.4,288.4,654.9,283.8,650.1,282.4z"/>
		<path class="st9" d="M651.6,281.8"/>
	</g>
	<g id="Layer_2_5_">
		<path class="st9" d="M639.8,316.8c1.9-0.1,3.6-0.7,6.9-1.8c2.5-0.8,4-1.3,5.7-2.2c2.3-1.1,4.4-2.1,5.2-3.7
			c0.2-0.3,1.4-2.8-1.8-4.7c-1.4-0.8-1.9-0.6-3.5-1.5c-2.1-1.3-1.3-2-3.5-3.4c-1.7-1.1-2.4-0.9-3.3-1.8c-1-1.1,0-1.6-1.2-2.7
			c-1-0.9-2-0.8-2.5-1.5c-0.8-1.1,1.7-1.7,1.4-3.1c-0.3-1.4-3.1-2.6-4.8-2.5c-1.5,0.1-1.2,1.1-3.3,1.6c-2.1,0.4-3.6-0.4-5.7,0
			c-2.2,0.4-1.8,1.6-3.9,1.9c-2.3,0.4-3.9-0.8-6.5-0.5s-2.1,1.7-5.7,2.6c-1.9,0.4-2.4,0.2-4.3,0.6c-3.1,0.6-6.3,2.1-5.7,3.3
			c0.4,0.9,2.7,0.8,6.1,2c2,0.7,2,1.1,7.3,4.7c3.7,2.5,4,2.6,5.9,4.1c1.8,1.3,3.2,2.6,4.1,3.3c3.3,2.9,3.6,3.5,5.6,4.2
			C633.4,316.1,636.3,317,639.8,316.8z"/>
		<path class="st9" d="M654.5,305.1c0,0,4,2.9,2.4,3.3"/>
		<path class="st9" d="M653.8,310.7c0,0-1.3,1.5-2.3,1.4"/>
		<path class="st9" d="M650.3,303.8"/>
		<path class="st9" d="M652.1,315.7c-3,1.8-5.5,2.4-6.1,2.5c-2.3,0.5-4.6,0.6-5.9,0.6c-25.5-5.3-45-8.2-58.6-9.9
			c-12.4-1.6-28.1-3.2-41.6-6.9c-3.6-1-7.1-2.1-13.3-3.1c-9.8-1.6-14.4-0.9-19.5-2.7c-4.1-1.4-5.4-3.3-7.2-6.3
			c-1.2-1.7-4.2-7.5,1.6-13.6c1.9-2,3.8-4.1,8.8-5.4c1-0.3,5.1-1.3,12.9-1.1c8.7,0.2,15.1,1.7,22.6,3.6c17.1,4.4,25.5,6.5,31.9,9.4
			c7.7,3.5,6.6,7.2,17,11.2c3.4,1.3,3.1,0.8,7.3,2.4c9.2,3.4,14.1,6.9,19.9,10.9c4.3,3,6.3,4.5,7.4,6.2c0.8,1.2,0.8,1.7,2,2.3
			c3.5,1.5,11.3,1.1,16.7-0.2c6.3-1.6,8.4-4.4,9.1-4.3C657.3,311.4,655.4,313.7,652.1,315.7z"/>
		<path class="st10" d="M621.3,309.4c0,0,2.8,5.4,3.8,5.4"/>
		<path class="st10" d="M619.2,309.2c0,0,1.5,4.9,2.6,5"/>
		<path class="st10" d="M615.6,307.3c0.1,0.2,0,3.8,0,3.8s2.8,2.9,3.6,2.8"/>
		<path class="st11" d="M613.8,306.3c0,0-1.4,5-0.9,5"/>
		<path class="st11" d="M613.8,313.1c0.3,0.1,3.6,1.1,3.6,1.1"/>
		<line class="st11" x1="610.2" y1="304.4" x2="610.2" y2="306.6"/>
		<path class="st11" d="M610.6,308.1v2.5c0,0,0.3,0.7,1.4,0.7"/>
		<path class="st11" d="M607.7,303.2c0,0-1.1,8.3,0,8.5"/>
		<path class="st11" d="M604.5,302v4.4c0,0-1.1,3,0.6,3.1"/>
		<path class="st11" d="M601.7,302c0,0,0.2,2.8,0,3.1c-0.2,0.3-1.1,5.9,0,5.8"/>
		<path class="st11" d="M598.2,301.1c0.2,0.2,0,4.8,0,4.8l0.1,4.2"/>
		<path class="st11" d="M593.5,305.6c0,0,2.6,4.1,3.3,4.5"/>
		<path class="st11" d="M591.5,297.1v4c0,0-2.1,7.8-0.5,8.1"/>
		<path class="st11" d="M588.5,296.6c0,0.2-1.8,8.3-0.8,9.9"/>
		<path class="st11" d="M586.5,296.6c0,0-3.3,11.2-2.2,11.2"/>
		<path class="st11" d="M585.3,294.9c0,0.7-3.9,12.5-2.8,12.7"/>
		<path class="st11" d="M583.7,295.2c0,0.4-3.7,11.6-2.9,11.8"/>
		<path class="st11" d="M581.1,295.2c0,0.1-3.4,11.1-1.9,11.4"/>
		<path class="st11" d="M580,296.3c0,0-3.2,8.6-2.1,9.2"/>
		<path class="st11" d="M577.6,298c0,0.1-4.1,6.9-1.7,7.5"/>
		<path class="st11" d="M573.7,300.9c0,0-1.2,4,0,4.7"/>
		<path class="st11" d="M563,282.3c0,0-3.3,8.5-1.8,9"/>
		<path class="st11" d="M561.8,282.1c0,0-4.6,9.7-3.4,10"/>
		<path class="st11" d="M560.1,281.6c0,0-4.7,10.5-3.1,10.5"/>
		<path class="st11" d="M558.3,281.9c0,0-6.6,8.7-3.3,9.1"/>
		<path class="st11" d="M558.3,280.3c0,0-3.1,4.7-2,4.7"/>
		<path class="st11" d="M556,279.7c0,0-2.9,4.4-1.9,4.7"/>
		<path class="st11" d="M552.2,284.4c-1.9,0,1.7-6.3,1.7-6.3"/>
		<path class="st11" d="M552.7,278c0,0-4.4,5-3.6,5.3"/>
		<path class="st11" d="M550.9,277.1c0,0-3.1,3.2-1.9,3.6"/>
		<path class="st11" d="M548.9,276.2c0,0-2.1,3.2-1.2,3.5"/>
		<path class="st11" d="M547.6,275.9c0,0-3.2,3.6-2,3.8"/>
		<path class="st11" d="M561.8,295.2c0,0-1.7,8.1,0,8.1"/>
		<path class="st11" d="M564.6,301.3c0,0-2.3,3,0.7,3.2"/>
		<path class="st11" d="M571.1,302.9c0,0-2.3,1.7,0,1.9"/>
		<path class="st11" d="M558.3,295.7c0.3,0.3-0.8,7.2,1.2,7.2"/>
		<path class="st11" d="M554.9,296.6c0,0-2.8,5.7,0,5.6"/>
		<path class="st11" d="M551.6,296.5c0,0-1.4,5.6,0,5.6"/>
		<path class="st11" d="M548.3,295.2c0,0-1.5,6,0,6.1"/>
		<path class="st11" d="M545.7,294.3c0,0-2.8,6.5-1.6,6.7"/>
		<path class="st11" d="M543.9,293.8c0,0-3.2,7-1.9,7"/>
		<path class="st11" d="M540,294.7c0,0-2.4,6.3-0.7,6.4"/>
		<path class="st11" d="M537.2,290.4c0,0-0.5,8.6,0,8.8"/>
		<path class="st11" d="M535.5,289.9c0,0-0.9,8.6,0,8.9"/>
		<path class="st11" d="M532.7,290.4c0,0-2.5,8.9,0,8.8"/>
		<path class="st11" d="M534.4,291.3c0,0-2.5,7.2-0.8,7.4"/>
		<path class="st11" d="M530.8,290.4c0,0-2.7,8.5-0.9,8.4"/>
		<path class="st11" d="M528.3,291.3c0,0-2.3,6.2-0.7,6.5"/>
		<path class="st11" d="M525.5,290.4c0,0-0.9,6.6,0,6.7"/>
		<path class="st11" d="M523.1,288.3c0,0.2-1.3,6.8,0,7.4"/>
		<path class="st11" d="M519.1,288c0,0-2.5,8-1.2,8.3"/>
		<line class="st11" x1="520.3" y1="288.3" x2="520.3" y2="296.6"/>
		<path class="st11" d="M517.6,288.3c0,0-4.2,7-2.7,7.4"/>
		<path class="st11" d="M534.4,275.1c0,0-8,3.8-6.1,4.6"/>
		<path class="st11" d="M532.1,274.7c0,0-10.7,6.4-9,6.8"/>
		<path class="st11" d="M531.5,272.2c-3.3,1-7.6,2.6-10.3,5.1c-0.5,0.4-0.9,0.8-1.2,1.3"/>
		<path class="st11" d="M530.8,273.8c0,0-11,7-9.4,7.4"/>
		<path class="st11" d="M526.1,271.9"/>
		<path class="st11" d="M521.3,273.8l-4.5,3.1c0,0-2.9,5.4-2.2,6.4"/>
		<path class="st11" d="M518.4,283.3c0,0-7.7,11.5-6.3,11.8"/>
		<path class="st11" d="M515.1,284.4c0,0-7.1,9.7-5.7,10.2"/>
		<path class="st11" d="M516.8,274.3c0,0-5.5,7.9-5,9c0.5,1.1-5.3,7.8-3.7,8.6"/>
		<path class="st11" d="M512.3,275.9c0,0-9,16.5-7.8,17"/>
		<path class="st11" d="M509.3,277.7c0.2,0.3-8.1,12.7-7.1,13.3"/>
		<path class="st11" d="M505.7,276.9c0,0-6,10.6-4.9,11.1"/>
		<path class="st11" d="M522.3,274.2c-1.9,2.7-3.8,5.4-5.7,8.1"/>
		<path class="st11" d="M522.3,282.6c-0.7,1.6-1.3,3.2-1.9,4.8"/>
		<path class="st12" d="M656,302.6c-2.5-5.5-6.7-9.6-8.8-11.5c-5.7-5.3-11.2-9-17.2-13.1c-10.3-6.9-15.5-10.3-22.9-12.8
			c-4.4-1.5-13.5-4.6-27.3-5.6c-11-0.8-19.7,0.1-27.8,1c-21.4,2.4-41.5,7.5-40.3,8.9c0.6,0.7,5.5-0.1,13.3,0
			c24.5,0.3,50,8.7,58.9,17.2c1.4,1.3,3.1,3.3,7.4,5.7c6.1,3.4,11,4.1,16.4,6.1c16.9,6.3,10,15,23.3,17.1c4.7,0.8,11.3,0.6,16.5-0.7
			c4.6-1.1,6.8-2.7,7.3-3C657.5,310.1,658.4,307.8,656,302.6z"/>
		<path class="st9" d="M529.9,265.8c7.9,0,13.3-0.8,17-1.7c5-1.1,8.4-2.6,13.8-2.3c1,0,4.8,0.2,5.6,1.2c0.4,0.6-0.2,1.3-1.5,1.6
			c-1.9,0.4-3.4-0.6-7.2-0.7c-2.8,0-5.1,0.5-7.3,1.1c-3.8,0.9-2.9,1.4-6.1,2.2c-4.1,1-5.6,0.3-10.4,1.4c-1.7,0.4-3.1,0.8-3.7,0.6
			c-0.8-0.3,0.8-1.2-0.3-2.1c-0.5-0.4-1.4-0.6-2-0.8"/>
		<path class="st9" d="M523.1,268.3c0.6-0.6,1.1-1.1,1.7-1.7"/>
		<path class="st9" d="M615.5,285.6c2.4,1.9,8,3.2,9.6,2.6c1.2-0.4-0.2-1.7,1.1-1.9c1-0.2,2.3,0.4,2.9,0.2c0.5-0.2,0-0.9-1-1.5
			c-0.6-0.3-1.2-0.5-4.5-1.2c-3.6-0.7-4.2-0.7-4.6-0.7c-1.7,0-3.7,0.5-4.2,1.2C614.6,284.7,614.7,285.1,615.5,285.6z"/>
		<path class="st9" d="M632.5,283.8c-1.4,0.5-2.8,0.9-4.2,1.4"/>
		<path class="st9" d="M625.5,283c0.9-0.6,2.6-0.6,4.7-0.7c1.3,0,3.8-0.1,4.5,0.4c0.5,0.4-0.3,0.7,0.3,1.3c0.5,0.6,1.3,0.5,1.5,0.9
			c0.3,0.6-1,1.4-2.5,1.6c-0.7,0.1-1.7,0-3.7-0.3c-1.9-0.2-2.7-0.3-3.1-0.4C625.4,285.3,624.3,283.9,625.5,283z"/>
		<path class="st9" d="M597.9,279.1c-0.1,0.8,6,1.4,6.3,1.5c4.5,0.5,5.6,0,9.9,0.3c5.1,0.3,5,1.1,10.1,1.5c5.2,0.4,10.5,0,10.6-0.4
			c0.1-0.3-2.9-0.7-8.9-1.5c-6.6-0.9-6.1-0.6-12.7-1.5c-5.7-0.7-8.2-1.1-11.8-0.8C601.2,278.3,598,278.6,597.9,279.1z"/>
		<path class="st9" d="M594.3,277.3c6-0.1,5.7-0.3,8.4-0.3c5.3,0.1,9.8,1,11.2,1.3c2.1,0.4,2.8,0.7,4.9,0.9c2.2,0.3,2.8,0.1,6.1,0.4
			c2.8,0.3,3.9,0.5,4.3,0.3c0.5-0.3-0.6-1.1-2-1.7c-1.8-0.7-3.9-0.8-6.7-1.1c-2.2-0.2-2.3-0.1-4.1-0.3c-2.4-0.3-3.7-0.6-5.6-1
			c-1.9-0.4-5.2-1.1-9-1.4c-3.1-0.2-6-0.4-8.9,0.3c-1.6,0.3-2.6,0.8-4.7,0.9c-0.7,0-1,0-3.2-0.3c-5.3-0.6-5.7-0.6-6.1-0.4
			c-1.2,0.3-1.4,1.5-0.3,2.1c1,0.5,2.3,0.4,9.7,0.3C592.2,277.3,592,277.3,594.3,277.3z"/>
		<path class="st9" d="M588.9,278.9c2.1,1.4,4.7,2.1,6.7,2.7c2.2,0.6,4.7,1.4,8.2,1.6c2.7,0.2,5.3,0,6.1-0.1
			c2.2-0.2,3.5-0.3,3.6-0.5c0.1-0.5-5.4-0.8-12.7-2.4c-4-0.9-5.9-1.3-7.9-2.3c-0.5-0.2-5.6-2.9-3.9-5.6c1-1.4,3.2-1.9,2.5-2.8
			c-0.7-0.8-3.5-1.4-5.2-1c-2.1,0.5-1.8,2.5-1.3,4.7C585.8,275.5,586.2,277.1,588.9,278.9z"/>
		<path class="st9" d="M576.2,279.1c3.3,0,5.7,0.8,12.4,3.3c14.9,5.6,6.7,3,9.5,4c1.2,0.4,3.4,1.1,3.4,2.1c0,0-0.1,0.8-1.1,1
			c-2.1,0.5-6.5-1.7-7.8-2.2c-1.8-0.8-1.3-0.8-2.9-1.6c-3-1.4-6-2.1-7-2.3c-2.6-0.6-2.7-0.3-4.4-0.8c-3.1-0.9-5.7-2.5-4.8-3.1
			C573.9,279,575.4,279.1,576.2,279.1z"/>
		<path class="st9" d="M579.2,281.8c5.3,1.6,10.6,3.2,15.9,4.7"/>
		<path class="st9" d="M587.3,287.8c0.9-0.3,3.1,1.1,9.4,3.1c2.2,0.7,4.1,1.2,4,1.9c-0.1,0.4-0.9,0.7-1.8,0.8
			c-0.8,0.1-1.5-0.1-5.8-1.9c0,0-0.9-0.4-2.4-1c-2.1-0.9-2.5-1.1-2.9-1.5C587.4,288.8,586.7,288,587.3,287.8z"/>
		<path class="st9" d="M557.7,269c2.4,0.1,3.6-1.1,6.5-1.9c3.6-0.9,8-0.9,10.6-0.3c0.5,0.1,1.9,0.5,1.9,0.9c0,0.2-0.1,0.5-1.9,1
			c-1.7,0.5-3.4,0.7-8.5,1.1c-3.8,0.3-4.4,0.3-5.4,0.6c-1.2,0.4-1.7,0.8-2.9,0.8c-1,0-2-0.2-2.7-0.5c-0.2-0.1-0.8-0.4-0.8-0.8
			c0,0,0-0.6,1-0.9C556.3,268.9,557.1,268.9,557.7,269z"/>
		<path class="st9" d="M563.7,265.7c-0.9-1,3.1-2.5,5.4-3.1c4.4-1.2,9.2-1.1,12-1c0,0,1.9-0.1,5.6,0c2.7,0.1,3.7,0.2,4.3,0.5
			c0.6,0.3,0.7,0.9,0.2,1.4c-1.5,1.4-8.5,1.7-13.4,1.4c-2.3-0.1-4-0.4-5.6,0.1c-1.8,0.5-1.6,1.2-3.2,1.5
			C567,266.8,564.2,266.4,563.7,265.7z"/>
		<path class="st9" d="M567.4,264.6c2.8-0.6,5.7-1.1,8.5-1.7"/>
		<path class="st9" d="M572.5,261.1c-0.6-0.4,1.9-1.7,4.4-2.3c1.4-0.4,4.2-1,7.7-0.8c2.4,0.2,4.2,0.6,5.6,1.1
			c6.4,2.1,13.9,6.5,11.4,7.9c-1.3,0.7-5.2,0.6-6.9-0.2c-2-0.8-0.1-1.9-1.8-3.5c-1.9-1.7-6.7-2.8-10.6-2.9
			C576.9,260.1,573.2,261.5,572.5,261.1z"/>
		<path class="st9" d="M554.4,258.5c5-2.2,14.1-1.7,16.2-1.5c3.4,0.2,9.1,0.9,9.1,1.9c0,0.9-5.4,2.1-9.6,1.6
			c-3.7-0.4-4.4-1.9-6.9-1.8c-3.2,0.1-5.2,2.6-5.7,3.2c-1.8,2.2,0.1,2.8-1.5,4.2c-0.5,0.5-1.6,1.2-12.4,3.4
			c-9.5,1.9-10.8,1.9-11.4,1.6c-1.3-0.6-0.8-2.1,1.2-3c3.9-1.9,10.7,0.1,15.4-1.5C554.1,264.8,548.7,261.1,554.4,258.5z"/>
		<path class="st9" d="M577.9,269.2c8.8,1.3,12.4-0.2,20.5,0.3c10.6,0.7,16.8,4.1,18.3,3.3c0.9-0.4-0.6-1.8-1.4-2.4
			c-0.4-0.3-1.3-0.8-2.8-1.3c-3.4-1.1-7.4-1-10.6-1.1c-8-0.2-7.4-1.3-15.4-1.7c-6.9-0.3-14.8,0.2-15,1
			C571.2,268.2,577.1,269.1,577.9,269.2z"/>
		<path class="st9" d="M551.7,274.1c0.4-1.8,13.3-2.6,14.4-2.7c4.3-0.3,11.3-0.6,17.1,1.2c2.4,0.7,4.5,1.8,4.1,2.1
			c-0.5,0.3-3.9-0.6-9.8-1.2c-2.7-0.3-6.7-0.6-11.6-0.1c-3.8,0.4-6.4,0.6-8.5,1.6c-0.8,0.3-1.4,0.8-2.4,0.8
			C553.5,275.9,551.6,274.9,551.7,274.1z"/>
		<path class="st9" d="M589.7,278.2c1.6,0.6,3.1,1.2,4.6,1.8"/>
		<path class="st9" d="M596.4,280.7c1.3,0.2,2.4,0.4,3.7,0.6"/>
		<path class="st9" d="M594.7,275.9c1.3,0,2.4,0,3.7,0"/>
		<path class="st9" d="M603.2,275.5c2.1,0.4,4.3,0.8,6.3,1.3"/>
		<path class="st9" d="M603.5,269.2c3.7,0.7,7.4,1.4,11.2,2.2"/>
		<path class="st9" d="M612.4,286.8c1.3,0.4,2.5,0.8,3.9,1.2"/>
		<path class="st9" d="M602.6,288.2c0.1-0.3,2.4-0.1,3.5-0.8c1.3-0.8-0.9-2,0-2.2c0.9-0.3,4.4,0.5,5,1.9c0.3,0.6,0.1,1.5-1.4,1.9
			c-1.3,0.4-2.9,0.2-4.6-0.1C604.7,288.8,602.5,288.5,602.6,288.2z"/>
		<path class="st9" d="M611.1,290c2.2,0.8,2.5,1,2.5,1c-0.1,0.1-1.8-0.4-4.1-0.7c-1.6-0.2-5.2-0.3-6.1,0.3s1,2.1,3.5,2.8
			c2,0.6,5.3,0.8,6.5,0.2c1.2-0.6-0.5-1.4,0.2-2.6c1-1.7,5.3-2.8,6.3-2.5c0.6,0.2,0.7,0.8-0.8,2.5"/>
		<path class="st9" d="M599.9,270.5c0.9,0.8-0.1,1.4,1,1.7c1,0.3,2.8,0.2,3.9-0.2c1-0.4,0.7-0.7,1.5-1c1.5-0.5,5-0.3,5.9,0.6
			c1.1,0.9-1.9,1.8-1,3.1c0.8,1.1,3.4,1.4,3.2,1.7c-0.3,0.2-2.9-0.2-7-0.8c-8.5-1.2-9.4-1-10.8-1.7c-1.3-0.6-2-1.4-4.2-1.7
			c-0.8-0.1-1.5,0-2.1-0.3c-1-0.3-1.5-1-1.2-1.5c0.5-0.9,3.5-1.4,5.6-1.3C596.7,269.3,599,269.7,599.9,270.5z"/>
		<path class="st9" d="M617.1,269.8"/>
	</g>
	<g id="Meat_3_">
		<path class="st9" d="M650.3,304.7c1.3-0.1,2.6,0.8,3.1,1.1c1.2,0.8,1.4,1.5,1.5,1.9c0.1,0.7-0.2,1.2-0.5,1.6
			c-0.5,0.7-3.9,0.6-5.4,0c-1.9-0.7-1.2-2-0.7-2.9C648.6,305.7,649,304.8,650.3,304.7z"/>
		<path class="st9" d="M614.3,295.8c1.2-1.1,4.1-2.2,6.9-2c2.6,0.1,2.9,1.3,5.7,1.4c2.9,0.2,4.3-0.8,5.8-0.5
			c1.8,0.4,0.4,1.6,2.3,3.3c1.7,1.4,3.9,1.7,3.6,2.3c-0.4,0.9-4.4,1.7-6,1.1c-1.2-0.3-0.3-1-1.6-1.7c-1.9-1-6.7-0.9-7.8-0.2
			c-0.8,0.6,1,1.4,0.2,1.7c-0.9,0.4-4.2-0.1-5.4-1.1c-0.9-0.7,0-1.1-1.1-1.7s-2.5-0.4-3.3-1C613.1,297,613.9,296.1,614.3,295.8z"/>
		<path class="st9" d="M607.5,297.6"/>
		<path class="st9" d="M620.3,304.5c1.3-0.3,3.1-0.3,4,0.1c1.3,0.6-0.3,2.3-2.1,2.4c-1.8,0.1-3.9-1.3-3.2-2
			C619.2,304.8,619.8,304.6,620.3,304.5z"/>
		<path class="st9" d="M626.5,305.1c-0.4,0.8,2.8,1.9,5.9,2.3c2.9,0.4,6.9,0.3,7.9-0.6c0.5-0.4,0-0.8,0.6-0.9c1-0.3,2.6,1,4.8,1
			c2,0,4-1.2,4-2.1c-0.1-0.8-1.4-0.9-1.8-1.8c-0.4-1.1,2.3-1.6,1.9-2.2c-0.5-0.6-3-1.1-4.8-0.8c-2.1,0.3-1.5,1.5-4.4,2.7
			c-0.5,0.2-3.3,1.4-6.1,1.2c-1.8-0.1-2-0.7-3.5-0.6c-0.9,0.1-1.8,0.5-3.6,1.4C626.6,304.9,626.5,305,626.5,305.1z"/>
		<path class="st9" d="M629.4,310.2c1.4-0.3,3.7,1.7,6.7,1.4c1.8-0.2,1.5-0.9,3.7-1.4c2.9-0.6,4.7,0.3,7.7-0.3
			c2.7-0.5,3-1.6,4.4-1.5c1.5,0.1,2.7,1.4,1.9,2.2c-0.6,0.6-1.9,0.6-5.2,1.4c-3.3,0.9-2.6,1.2-4.8,1.6c-2.4,0.5-3,0.1-8.1,0.6
			c-2.4,0.2-2.7,0.3-3.5,0.3C628.8,314.1,627.8,310.6,629.4,310.2z"/>
		<path class="st9" d="M636.7,291c-3.9-0.2-8,3.3-7.1,3.7c0.5,0.2,2.1-0.5,3.9-0.2c1.8,0.3,1.6,1.3,3.1,2.3
			c2.7,1.9,9.4,2.5,10.1,1.9c0.3-0.2-0.2-0.4-1.2-1.3c-1.7-1.4-1.6-1.8-2.7-3C640.8,292.7,639.2,291.1,636.7,291z"/>
		<path class="st9" d="M612.8,296.4c-0.5-0.2-0.9-0.9-2.1-1.1c-1.3-0.1-2.8,0.3-3.3,0.8c-2.1,1.9,12,7.2,13.6,6.7
			C622.1,302.4,617.6,297.8,612.8,296.4z"/>
		<path class="st9" d="M614.3,295.8"/>
	</g>
</g>
<g id="Burrito">
	<ellipse class="st2" cx="269.6" cy="296.5" rx="129.5" ry="54"/>
	<g id="Layer_2_1_">
		<path class="st13" d="M510.1,180.5c0.4,0.6,1.9,2.7,0,10.8c-1.1,4.7-3,12.6-9.5,20.6c-12.2,14.8-30.3,16.9-35.1,17.4
			c-4.4,0.5-14.5,1.6-25.6-2.6c-23.2-8.8-40-36.2-33.8-46.2c4.5-7.1,17.7-0.3,59.1-2.1c8.6-0.4,17.3,0.7,25.9,0.1
			C500.9,178,507.3,176.8,510.1,180.5z"/>
		<path class="st4" d="M429.7,178.2c10.8-0.1,20.6,0.1,33.2,0.3c10.3,0.2,19.9,0.5,34.3,0c12.1-0.4,20.1-1.1,20.8-4.2
			c0.4-1.6-1-4.2-2.9-5c-1.1-0.5-2.1-0.2-3.2,0c-2.6,0.4-3.3,0-8.2-0.3c-2.7-0.1-7.6-0.2-17.4-0.4c-5.5-0.1-7.8-0.1-14.5-0.2
			c-6.4-0.1-11.2-0.1-20.8-0.3c-11.7-0.2-23.4,0.9-35,0.2c-6.9-0.4-12.7-1.2-14.6,1.9c-1.1,1.9-0.6,5,1.1,6.6c2.1,2,5.6,1.2,8.7,0.8
			C417.3,176.8,423.5,178.2,429.7,178.2z"/>
		<path class="st13" d="M500.3,184.5c-0.2,3.7-1.2,15.4-10.3,23.5c-2.1,1.9-4.3,3.2-6.3,4.2"/>
		<path class="st13" d="M505.9,182.7c-0.1,3.8-1,13.5-7.9,22.9c-5.7,7.8-12.6,11.6-16.1,13.2"/>
		<path class="st13" d="M456,192.9c-3.4,3.5-6.9,7-10.3,10.5"/>
		<path class="st13" d="M452.6,191.1c-3.6,3.4-7.2,6.9-10.8,10.3"/>
		<path class="st13" d="M451.3,186.4c-1.8,2-3.5,4-5.3,6.1"/>
		<path class="st13" d="M443.6,194.5c-3.2,2.7-6.3,5.5-9.5,8.2"/>
		<path class="st13" d="M449.4,184c-2.8,2.8-5.6,5.6-8.4,8.4"/>
		<path class="st13" d="M438.6,195.1c-1.1,1-2.1,1.9-3.2,2.9"/>
		<path class="st4" d="M490.1,201.1"/>
		<path class="st2" d="M414.4,140.5"/>
		<path class="st2" d="M413,159.5"/>
		<path class="st2" d="M431,137.5c-1,3.1,3.8,5.2,9,13.7c5.7,9.4,5.8,16.6,8.2,16.6c1.8,0,2.8-4.2,4.7-9.8
			c7.2-20.4,12.6-26.6,10-29.3c-1-1-2.4-0.7-17.4,3.4C434.6,135.2,431.7,135.3,431,137.5z"/>
		<path class="st13" d="M440.1,143.8c0.8,2.2,3.2,3,4.8,2.1c1.5-0.8,2.1-3.1,0.9-4.9"/>
		<path class="st13" d="M451.3,135.9c-0.2,2.7,0.3,4.8,1.1,5s2.2-1.6,3.2-4.5"/>
		<path class="st13" d="M437.8,137.3c5.5-1.6,10.9-3.2,16.4-4.7"/>
		<path class="st13" d="M445.7,150.4c0.1,1.8,1,3.1,1.8,3.2c0.9,0.1,2.3-1.4,2.4-3.7"/>
		<path class="st13" d="M471.3,133.1"/>
		<path class="st0" d="M471.9,130.7c-2.1,1.1-0.2,5.3-0.8,16.1c-0.5,8.7-1.9,10.6-0.3,12.7c3.5,4.3,14.3,1.3,20.6-2.1
			c1.9-1,10.2-5.5,9.5-9.8c-0.5-3.1-5.3-2.9-14.2-7.9C477.2,134.4,474.2,129.4,471.9,130.7z"/>
		<path class="st13" d="M475.8,142.1c-0.1,0.2-1.3,2.5-0.5,3.4s3.2,0.6,5.8-1.4"/>
		<path class="st13" d="M487.7,145.7c-2.2-0.4-4,0.9-4.2,2.4c-0.2,1.6,1.7,3.4,3.7,3.2c1.5-0.2,2.7-1.5,2.9-3.2"/>
		<path class="st13" d="M473.7,137.8c6.2,2.8,12.3,5.6,18.5,8.4l0,0c1.6,0.4,3.2,0.7,4.7,1.1"/>
		<path class="st0" d="M428.6,158.1c1.4-18.3,1.3-19.8,0-20.6c-1.7-1-3.5,0.4-14,6.3c-12.4,7-14.8,7.7-15,10.3
			c-0.6,5.8,10.9,10.8,12.1,11.3c2.3,1,10.7,4.7,14.8,1.1C428.1,165.2,428.3,162.8,428.6,158.1z"/>
		<path class="st13" d="M424.4,144.2c-0.7,0.4-1.4,0.7-2.1,1.1"/>
		<path class="st13" d="M419.6,146.3c-5.2,2.8-10.4,5.6-15.6,8.4"/>
		<path class="st13" d="M420.4,147.6c0.1,2,0.8,3.7,1.8,4c1.2,0.3,3.2-1.5,4-4.7"/>
		<path class="st13" d="M412.3,152.7c0.1,2.7,0.5,4.2,1.1,4.3c0.8,0.1,1.9-1.7,3.4-5.6"/>
		<path class="st2" d="M405.7,165c-0.4-2.6,4.2-6.6,8.7-7.1c0.7-0.1,3-0.4,5.3,0.7c2.8,1.3,3.6,3.5,4.4,3.2c1.4-0.5-1.1-6.3,1.3-9
			c3.3-3.7,15-0.6,15.8,3.7c0.5,2.9-4.1,6.2-4,6.3c0,0,2.8-5.3,7.4-6.6c6.3-1.8,13.6,5,14,4.5c0.3-0.4-5.8-3.5-5.5-6.9
			c0.2-3.2,6.3-6.3,11.3-5.8c7.8,0.7,11.4,13.1,12.9,12.4c1-0.5-1.5-5.3,0.5-7.4c2.8-2.9,13,0.4,13.5,4.2c0.3,2.9-5.1,6-5,6.1
			s5.1-6.1,10.3-5.8c6,0.3,12.3,9.4,10.3,13.5c-2.1,4.2-11.9,0-33.5-0.5c-20.5-0.5-29.1,2.9-51.4,0
			C414.4,169.5,419.1,252.7,405.7,165z"/>
	</g>
	<g id="Layer_3">
		<path class="st14" d="M654.8,384.5c6.6,1,9.1,3.3,16.1,5.2c4.6,1.2,4.7,0.9,11.2,2.3c10.6,2.4,12.6,3.8,18.7,5.2
			c3.2,0.7,12.5,2.7,22,0.6c15.3-3.3,21.8-18.4,24.8-16.7c2.5,1.4,1.8,9.5-1.9,14.9c-1,1.4-1.7,2.1-4.7,4.4
			c-14.1,11.7-15.3,13.5-19.1,14c-3.7,0.6-4.7-0.7-8.7,0.5c-4.3,1.2-5,3.1-8.4,4.6c-5.4,2.5-8-0.3-19-0.6c-8.3-0.2-7.6,1.3-14.5,0.9
			c-8.4-0.6-14.5-3.2-17.6-4.5c-8.4-3.6-11.5-6.1-12.9-7.5c-2.1-2.1-4.7-5.8-4-6.9c0.4-0.5,1.2,0,2.5,0c3.7-0.1,7.7-3.7,8.4-7.3
			c0.6-3.9-3-6.1-1.9-8.1C647.1,383.3,651.9,384,654.8,384.5z"/>
		<path class="st14" d="M639.2,392.2c0.7,0.6,1.7,1.4,3.1,1.8c0.3,0.1,0.6,0.1,0.9,0.2"/>
		<path class="st15" d="M641.2,391.2c0.7,0.4,1.3,0.9,1.9,1.3"/>
		<path class="st15" d="M639.7,394.5c0.7,0.3,1.4,0.7,2,1"/>
		<path class="st16" d="M645.8,385c-1.3,0.4-2.8,0.9-4.3,1.2c-0.9,0.2-1.8,0.4-2.7,0.5c0,0-11.5-9.3-10.9-10.6s1.1-8.1-0.2-7.5
			c-1.3,0.6-7.2,0.1-6.9,0.4c0.3,0.2-0.1,8.3,0.6,8c0.7-0.4,15.4,24.4,16.4,23.8"/>
	</g>
	<ellipse class="st1" cx="271.8" cy="272.5" rx="177.3" ry="64"/>
	<ellipse class="st4" cx="272.6" cy="270" rx="132.5" ry="37.5"/>
	<path class="st17" d="M117.4,222.8"/>
	<g>
		<g>
			<path class="st18" d="M378.4,240.7c-0.4,3.5-1.6,8.2-5.2,12c-4.5,4.8-10.7,6.1-12.8,6.6c-54.5,11.8-107.4,29.2-161.6,41.9
				c0,0-27.3,6.4-28.3,3.7c-1-2.7,28.9-6.8,39.4-27.1c8.3-16,3.6-40,2.6-45c-2.2-11.3-5.2-15.4-2.6-17.9c5.2-5,22.7,6.9,59.8,22.2
				c28.8,11.9,41.6,14.4,48,15.4c15.2,2.5,35.6,5.5,49.3-4.9c2.3-1.7,8.4-4.4,11.8-10.5c1.5-2.8,2.5-5.7,2.9-8.7
				C381.6,228.5,380.9,230.9,378.4,240.7z"/>
			<path class="st18" d="M382.5,225.5c2.7-12.3-6.9-24.5-15.8-30.5c-8.9-6.1-18.8-7.1-33.3-6.9c-28.7,0.4-39.2,5.1-62.5,7.8
				c-41.5,4.8-51.1-5.3-89.3,3.7c-13.7,3.2-29.3,8.5-28.9,9.9c0.2,0.6,14-4.9,31.5-3.7c11.7,0.8,20.1,4.2,25.6,6.5
				c27.3,11.1,56.3,22.6,68.4,27.2c43.7,16.5,59.5,14.6,65.1,13.6c5.5-0.9,21-3.7,31.9-15.5C378,234.7,381.3,231,382.5,225.5z"/>
		</g>
		<path class="st19" d="M151.4,209.5c-7.5,2.9-20.9,9.6-27.8,23.1c-5,9.8-4.6,19.3-3.7,36.5c0.5,9.7,0.7,14.5,3,18.3
			c9.2,15.7,35.2,17,38.4,17.1c4.8,0.2,9.6-0.1,14.3-0.9"/>
	</g>
	<polyline class="st16" points="159.1,210.4 157.8,208.9 175.1,209.6 178.2,210.5 178.8,213.7 159.6,213.4 159.1,210.4 179.3,211.1 
			"/>
	<path class="st8" d="M152.8,209.4c-5.2,2.9-9.8,6.3-13.9,10c-5,4.6-11.7,10.7-15.2,19.9c-4.6,12.3,2,15.7-0.6,32.6
		c-0.3,2.2-1.3,7.9,1.1,14.2c0.7,1.7,1.5,3.4,2.6,5c4.3,6.3,20.8,11.6,42.7,12.3"/>
	<path class="st8" d="M191.2,251.7c0,0-4.7,5,1.7,6.8s6.9,7.1,10.7,5.4"/>
	<path class="st8" d="M153.6,260.4c0,0-4.7,5,1.7,6.8c6.4,1.8,6.9,7.1,10.7,5.4"/>
	<path class="st8" d="M196.6,251.7c0,0-4.7,5,1.7,6.8c6.4,1.8,6.9,7.1,10.7,5.4"/>
	<path class="st19" d="M200.6,219.1l-7.7,6.9l-6.2-2l10-8.8l14.2,10.2"/>
	<path class="st3" d="M211.1,226.6l-10.8,6.2l-7.5-6.8"/>
	<path class="st3" d="M187.6,244.4l7.7,7.4l15.8,2.9l1.9-4.6c-5.5-5.9-9.3-10.3-12.1-13.7c-1.2-1.4-3.1-3.8-5.6-3.7
		c-2.1,0.1-3.6,2-4.6,3.3C188.2,238.9,187.7,242.3,187.6,244.4z"/>
	<polyline class="st3" points="206.1,253.6 204.2,251.3 192.8,238.4 191.3,237 	"/>
	<polyline class="st19" points="179.2,250.4 176.9,255.5 174.3,258.2 179.2,261 187.6,265.5 192.8,264.1 189.1,259.7 187.6,252.7 
		180.4,250.4 	"/>
	<path class="st3" d="M155.1,239.3"/>
	<path class="st16" d="M181.2,256.7c-1.2,0.3-0.7,5.3,0,9.6l7.4,5.2c2,0.9,8.5,3.5,13.4,0.9c0.8-0.4,2.2-1.4,2-1.8
		c-0.3-0.7-3.5,0.2-8.9-0.2c-2.5-0.2-4-0.3-5.7-1.1c-2-0.9-3.5-2.2-4.4-3.7c-1.7-3.1,0-5.6-2.3-8
		C182.3,257.2,181.7,256.6,181.2,256.7z"/>
	<path class="st8" d="M147.8,273.5c0,0-3.6,2.6-3,2.9"/>
	<path class="st8" d="M147.8,282c0.2,0,11.8,4.7,11.8,4.7"/>
	<path class="st8" d="M142.3,285.3c0,0,13.2,7.9,14.8,6.2"/>
	<path class="st8" d="M176.7,285.3c0,0-11.7,6.5-8.9,8.7c2.8,2.2,7.9,6.7,7.9,6.7s19.8-7.1,18.2-8.9s0.1-5,0.1-5s-4.6-6-6.5-4.7
		C185.7,283.3,176.7,285.3,176.7,285.3z"/>
	<path class="st8" d="M154.3,270.6h-10.9c0,0-8.9,6.7-6.9,11.5s3.2,15.8,13.3,15.5c10.1-0.3,18-4.5,14.8-5.3
		c-3.2-0.8,2.7-10.9-1.1-8.1c-3.8,2.7-8.8-15.6-6.3-13.5"/>
	<path class="st8" d="M147.8,279.6"/>
	<path class="st8" d="M118.1,264c2.2,3.7,12.2,9.9,13.2,7.6c1-2.3,8.6-0.1,8.6-0.1s8.6-4.3,4.9-3.6c-3.7,0.7-3-4-2.4-3.7
		c0.6,0.3-6.2-4-6.2-4s-7.5-1.9-6.2-2c1.2-0.1-1.6-4.6-1.6-4.6S115.9,260.3,118.1,264z"/>
	<path class="st16" d="M137.8,220.8c0,0-11.7,7.2-7.4,10.5c4.3,3.2,19,1.3,19.3-0.8"/>
	<path class="st8" d="M144.7,233.9c0,0,4.6,12.9,9.5,4.5c4.9-8.5,11.5-10.5,11.5-10.5"/>
	<path class="st8" d="M155.1,240.4c0,0-1.2,10.3,4.5,12.2"/>
	<path class="st8" d="M159.6,240.4c0,0-4.7,5,1.7,6.8c6.4,1.8,6.9,7.1,10.7,5.4"/>
	<path class="st8" d="M157.3,252.9"/>
	<path class="st8" d="M142.4,252.6"/>
	<path class="st8" d="M106,238.4"/>
	<path class="st16" d="M136.1,255.1c-0.8-0.3-1.7-0.6-2.4-1c-1.6-0.8-6.7-3.1-8.1-3.4l-10.6-4.4l1.7-7c1.9,1.4,4,2.7,6.2,3.9
		c10.9,6.1,19.6,7.1,19.4,9.2C142.3,253.1,141.2,254.1,136.1,255.1z"/>
	<polyline class="st16" points="116.7,239.3 119.7,239.4 119.4,239.3 119.7,239.4 140.9,248.9 142.3,251.5 	"/>
	<path class="st8" d="M112.9,234.7"/>
	<path class="st8" d="M112.9,235.5"/>
	<path class="st3" d="M156.7,259.5c0.7,0,10.6-4.8,10.6-4.8l3.3,6.9l8,9.5l-16.9-0.8l-3.9-5.1L156.7,259.5z"/>
	<line class="st3" x1="159" y1="265.2" x2="169" y2="261.7"/>
	<path class="st8" d="M138,260.7c0,0,4.6,12.9,9.5,4.5s11.5-10.5,11.5-10.5"/>
	<path class="st8" d="M152.9,267.2c0,0-4.7,5,1.7,6.8c6.4,1.8,6.9,7.1,10.7,5.4"/>
	<path class="st19" d="M171.1,221.1l0-5.6c-5.2-0.4-10.7-0.6-16.7-0.6c-5.7,0-11.4,0.2-17,0.6l0.4,5.3c6-0.4,12.1-0.5,18.1-0.5
		C161.2,220.5,166.3,220.7,171.1,221.1z"/>
	<path class="st3" d="M156.9,212.5"/>
	<path class="st19" d="M130.9,210.5c5.4,0,10.8,0.2,16.2,0.7c2.5,0.2,5.6,0.6,10,0.5c2.8,0,5.5-0.3,8.2-0.6l4.5,4.5l-32.7-0.3
		l-6.3-4.6"/>
	<path class="st3" d="M161.9,215.2"/>
	<path class="st3" d="M145.1,212.1"/>
	<path class="st3" d="M161.9,216"/>
	<path class="st3" d="M151.4,217.1"/>
	<line class="st3" x1="118.1" y1="217.9" x2="124" y2="221.5"/>
	<line class="st3" x1="118.1" y1="218.2" x2="119" y2="212.8"/>
	<path class="st3" d="M168.5,247.5l6.4,2.1"/>
	<path class="st3" d="M179.8,246.5l10.1,3.9"/>
	<path class="st3" d="M185.7,233.3"/>
	<path class="st3" d="M193.3,267l5.7-2.3"/>
	<path class="st8" d="M199.9,268.4l7.9-3.5"/>
	<path class="st8" d="M185.4,223l9.9,9.7"/>
	<path class="st8" d="M207.8,251.5l2.1-2.6"/>
	<path class="st8" d="M206,267.3l-0.8,5.4"/>
	<path class="st8" d="M140.5,235.4c2.7,2.9,5.4,5.9,8,8.8"/>
	<path class="st16" d="M139.2,245.9c-0.8-0.3-1.7-0.6-2.4-1c-1.6-0.8-6.7-3.1-8.1-3.4l-10.6-4.4c0.6-2.3,1.1-4.7,1.7-7
		c1.9,1.4,4,2.7,6.2,3.9c10.9,6.2,19.6,7.1,19.4,9.2C145.4,243.9,144.3,244.9,139.2,245.9z"/>
	<polyline class="st8" points="122.5,230.1 122.8,230.3 144,239.8 145.4,242.4 	"/>
	<path class="st20" d="M110.5,234.9"/>
	<path class="st21" d="M110.9,234.7c-0.1,0.3,2.5,1.6,2.7,1.4c0.2-0.2-1.3-1.5-2.5-1.4C110.9,234.7,110.9,234.7,110.9,234.7z"/>
	<path class="st8" d="M183.3,228.3c-4.7-1.9-9.8-3.4-15.1-4.3c-2.4-0.4-4.8-0.7-7.2-0.9l-1.4,3l21.1,4.7l2,0.4L183.3,228.3z"/>
	<path class="st3" d="M184.8,226l-1.2,2.5L184.8,226z"/>
	<polyline class="st8" points="184.2,226.3 169.6,221.8 165.3,221.1 161.3,222.4 160.6,223.7 	"/>
	<polyline class="st16" points="170.8,209.4 169.6,207.9 186.9,208.6 190,209.5 190.5,212.7 171.3,212.4 170.8,209.4 191,210.2 	"/>
	<polyline class="st22" points="187.9,213.8 186.6,212.4 203.9,213.1 207,214 207.5,217.2 188.3,216.9 187.9,213.8 208,214.6 	"/>
	<polyline class="st8" points="195.7,233.6 194.4,232.2 211.7,232.9 214.9,233.8 215.4,236.9 196.2,236.7 195.7,233.6 215.9,234.4 	
		"/>
	<line class="st3" x1="170.5" y1="215.2" x2="136.9" y2="214.9"/>
	<path class="st8" d="M183.5,274c-5.5-2.3-16.6,5.5-15.5,9c1,3.1,11.9,3.7,20.2,1.2c8.6-2.6,13.7-8.4,13.3-9
		c-0.5-0.7-8.1,5.3-13.6,2.8C185.5,276.8,185.7,274.9,183.5,274z"/>
	<path class="st23" d="M173.6,279.4c6.8,2.3,9.4,2.8,9.6,2.3c0.4-0.8-5.6-3.9-5.2-4.6c0.2-0.5,3,0.3,6.6,1.6"/>
	<path class="st8" d="M221.4,226.2"/>
	<path class="st24" d="M219,245.9c0.7-4.7,1.3-9.5,2-14.2"/>
	<path class="st25" d="M223.9,241.3c2.1,8,2.4,16.3,0.8,24.3c-3,15.2-11.7,25.1-15.8,29.1"/>
	<path class="st25" d="M227.8,241.6c0.7,5.5,0.9,11,0.5,16.5c-0.4,5.5-1.4,11.1-3,16.5"/>
	<path class="st25" d="M221.3,256.4c-0.1,7.7-1.8,15.4-5.1,22.8c-2,4.5-4.7,8.9-8,12.9"/>
	<path class="st25" d="M219,251.3c0.5,8.3-0.9,16.5-3.9,24.5c-4.3,11-10.9,18.2-14.9,22"/>
	<path class="st25" d="M231.8,256.1c0.4,1.4,1.1,4.9-0.7,8.6c-0.5,1-1.2,2-2,2.9"/>
	<path class="st25" d="M234.2,244.1c2,8.1,1.8,16.3-0.5,24.4c-3.1,10.6-9.1,17.7-12.3,21"/>
	<path class="st26" d="M223.7,278.9l-4.8,8.6"/>
	<path class="st27" d="M254.3,241.7"/>
	<path class="st27" d="M245.2,244.8c0.4,7.1,0,14.1-1.3,21.1c-1.2,6.6-3.3,13.2-6.1,19.6"/>
	<path class="st27" d="M241.9,262.6c-0.8,4.1-2.1,8.2-3.8,12.2c-1.9,4.3-4.4,8.5-7.4,12.5"/>
	<path class="st28" d="M238.8,241.4c0.1,2.1,0.3,5.1,0.2,8.8c-0.2,7.5-0.4,15.8-4.1,24.7c-2.1,5-5.1,9.8-9,14.2"/>
	<path class="st28" d="M230.3,271.6c-1.7,3.4-3.6,6.8-5.7,10c-2.9,4.3-6.2,8.5-10,12.5"/>
	<path class="st28" d="M250.3,248.4c-0.3,1.3-0.7,3-1.2,4.9c0,0-1,4.3-2.1,8.6c-2.3,9-5.3,19.6-5.7,21"/>
	<path class="st28" d="M249.5,266.9c-0.8,2.5-1.7,5.1-2.6,7.7c-1.1,2.9-2.2,5.7-3.3,8.3"/>
	<path d="M254.9,252.8c-0.2-0.3-1.5,0-2.3,0.8c-0.7,0.8-0.4,1.4-1,3.1c-0.6,1.9-1.5,2.4-1.2,3.1c0.5,1,2.5,1.5,3.1,0.9
		c0.4-0.4,0.3-1.2,0-1.7c-0.2-0.4-0.4-0.5-0.6-1c-0.1-0.4-0.2-0.8-0.2-1.2c0-0.6,0.3-1,0.9-2C254.8,253.2,255,253,254.9,252.8z"/>
	<path class="st29" d="M259.7,247.1c1.1,4.8,1.4,9.8,0.9,14.7c-0.8,7.1-3.5,14.1-8,20.5"/>
	<path class="st29" d="M256.6,260.7c-0.2,2.8-0.6,5.9-1.4,9.2c-0.8,3.5-1.8,7.1-3.1,10.5"/>
	<path class="st29" d="M252.6,268.9c-0.5,2-1.1,4.2-2,6.5c-0.9,2.6-2,5.1-3.3,7.6"/>
	<path class="st29" d="M265.4,253.7c1.3,6.2,1.1,12.5-0.5,18.6c-1,4-1.9,5.6-2.3,6.4c-0.8,1.2-1.7,2.3-2.8,3.4"/>
	<path class="st29" d="M262.9,263.2c-1,3-1.6,5.5-2,7.2c-0.8,3.5-1,5.3-2.1,8c-0.6,1.6-1.5,3.1-2.5,4.6"/>
	<path class="st27" d="M268.5,253.3c0.2,2.1,0.4,5.2,0.4,8.8c0,3.1,0,5.2-0.4,7.7c-0.5,3.2-1.4,6.4-2.7,9.5"/>
	<path class="st27" d="M273.8,250.1c1.1,2.8,1.5,5.6,1.1,8.5c-0.2,1.3-0.5,2.5-0.9,3.8"/>
	<path class="st27" d="M277.3,259c0.2,2,0.3,4.1,0.2,6.1c-0.2,4-1.1,8-2.7,11.8"/>
	<path class="st27" d="M271.2,255.6c0.3,4.3,0.2,8.6-0.2,12.9c-0.3,2.9-0.7,5.5-1.2,7.9"/>
	<path class="st27" d="M279.3,249.7c0.2,4.7,0.9,9.5,2,14.2c0.7,2.8,1.6,6.2,0.1,9.8c-0.5,1.1-1.2,2.2-2,3.1"/>
	<path class="st27" d="M281.2,229.7c0.4,1.8,0.9,3.7,1.3,5.5"/>
	<path class="st27" d="M284.4,248.5c1.7,4.9,2.4,10.1,1.8,15.1c-0.4,3.5-1.3,7-2.7,10.3"/>
	<path class="st27" d="M288.5,249.5c0.7,3.7,1.1,6.9,1.4,9.4c0.5,5.2,0.3,7.5,0.2,8.3c-0.2,2-0.6,4-1.1,5.9"/>
	<path class="st27" d="M294,259.7c-0.1,2.8-0.4,5.7-0.7,8.8c-0.2,1.8-0.5,3.6-0.7,5.3"/>
	<path class="st27" d="M294.8,257.3c0.3,1.5,0.8,3.9,1.4,6.8c0.6,3.1,0.9,4.7,0,6.4c-0.4,0.8-1,1.5-1.7,2.1"/>
	<path class="st27" d="M297.9,255.3c-1,3.5-0.6,6,0,7.6c0.6,1.8,1.7,3.1,1.6,5.3c-0.1,1.2-0.4,2.5-1.1,3.6"/>
	<path class="st27" d="M303,254.7c-0.3,1.9-0.4,3.8-0.2,5.7c0.1,1.2,0.3,1.4,0.4,2.9c0.2,2.1,0.2,3.5-0.4,5.1c-0.4,1-1.1,2-2,2.9"/>
	<path class="st27" d="M304.3,255.1c1.5,2.2,2.3,4.6,2.5,7.1c0.2,3-0.6,5.9-2.3,8.6"/>
	<path class="st27" d="M309.7,254.4c1.5,4.4,1.5,8.9,0,13.3"/>
	<path class="st27" d="M313.3,254.7c0.6,1,1,2.1,1.2,3.2c0.4,2.1,0.1,4.2-0.7,6.2c-0.5,1.4-1.4,2.8-2.5,4"/>
	<path class="st27" d="M316.4,255.7c2,2.4,1.9,4.1,1.7,4.9c-0.1,0.4-0.2,0.9-2.5,4.5c-0.5,0.8-0.9,1.5-1.2,2"/>
	<path class="st27" d="M320.3,256c1.5,2.4,1.3,4.1,1.1,4.7c-0.4,1.5-1.4,2.7-3.2,4.6c-0.6,0.6-1.1,1.2-1.5,1.5"/>
	<path class="st27" d="M324.1,257.4c-0.4,1.8-0.7,3.1-0.9,3.9c-0.4,2-0.6,2.8-1.2,3.5c-0.6,0.6-1.5,1.1-2.6,1.3"/>
	<path class="st27" d="M366.6,202.1c2.7,3,4.8,6.2,6.4,9.6c2.3,5,3,9.4,3.4,12.6c0.3,2.2,0.4,4,0.5,5.4"/>
	<path class="st27" d="M365.9,205.2c2.1,3.1,3.9,6.3,5.4,9.6c1.3,2.9,2.4,5.9,3.3,8.9c1,3.6,1.2,5.7,0.3,7.9
		c-0.4,0.9-0.9,1.7-1.6,2.5"/>
	<path class="st27" d="M361.5,202.7c1.2,2.5,2.2,4.5,3,5.9c2.6,4.9,3.9,6.9,6.1,11.3c1.4,2.8,2.2,4.2,2.5,5.2
		c1.2,4.1,0.5,7.9-0.3,10.3"/>
	<path class="st27" d="M363.6,212c1,1.7,2.3,4,3.8,6.6c1.3,2.3,1.8,3.1,2.3,4.5c0.5,1.1,0.8,2.6,1.5,5.4c1.1,4.4,1.1,5.4,0.7,6.6
		c-0.3,0.8-0.8,1.5-1.5,2.2"/>
	<path class="st27" d="M361.4,214.7c0.8,2.4,1.8,4.7,3,7c1.2,2.3,1.6,2.8,2.1,4.5c0.1,0.5,0.3,0.9,0.9,6.1c0.3,2.7,0.4,3.4,0.3,4.4
		c-0.1,1.3-0.4,2.6-0.8,3.9"/>
	<path class="st27" d="M356.9,219.6c0.3,3.5,1.2,7,2.6,10.4c0.9,2.3,1.6,4.6,2,6.9c0.2,1.5,0.4,3-0.5,4.6c-0.4,0.8-1,1.5-1.8,2"/>
	<path class="st27" d="M355.4,224.9c2.5,3.7,3.4,7.9,2.6,12c-0.5,2.6-1.7,5.1-3.6,7.4"/>
	<path class="st27" d="M352,222.8c1.7,5.4,2.2,10.9,1.5,16.3c-0.4,3-1.2,6-2.3,8.9"/>
	<path class="st27" d="M347.5,224.3c2.1,3.4,3.3,7.1,3.4,10.8c0.2,4.2-0.8,8.4-3.1,12.3"/>
	<path class="st27" d="M344.9,226.3c2,3.3,2.9,7,2.5,10.6c-0.6,5.3-3.5,8.7-4.6,9.9"/>
	<path class="st27" d="M339.5,228.3c0.5,2.8,0.6,5.6,0.5,8.5c-0.2,4.9-1.3,9.8-3.3,14.5"/>
	<path class="st27" d="M334.2,225.1c2.4,5.1,3.3,10.6,2.6,16c-0.5,3.5-1.6,6.9-3.4,10.2"/>
	<path class="st27" d="M331.6,224.3c1.6,4.1,2.3,8.3,2.1,12.5c-0.1,3.7-1,7.3-2.5,10.8"/>
	<path class="st27" d="M326.4,222.7c3.5,8.4,3.8,17.4,0.9,25.9"/>
	<path class="st27" d="M321.6,221.2c2.9,2.7,4.8,6,5.5,9.4c1.1,4.7,0.2,9.4-2.3,13.8"/>
	<path class="st27" d="M316.1,217.5c1.8,1.9,6.1,6.7,7.5,14.3c0.9,5,0.4,10.1-1.6,14.9"/>
	<path class="st27" d="M317.1,227.7c1.6,3,2.6,6.2,2.8,9.5c0.3,3,0,6.1-0.9,9"/>
	<path class="st27" d="M314.8,229.6c-0.6,3.2-0.9,6.5-1,9.7c-0.1,2.5,0.1,4.7,0.2,6.8"/>
	<path class="st27" d="M307.4,233.6c0.7,1.9,1.2,3.8,1.4,5.8c0.2,2.1,0.1,4.2-0.2,6.2"/>
	<path class="st27" d="M300.9,229.3c1.2,4.6,2.3,9.2,3.4,13.9"/>
	<path class="st27" d="M295.5,230c2.4,2.7,3.9,5.8,4.4,9c0.3,2,0.3,3.9,0,5.9"/>
	<path class="st27" d="M290.9,229.9c0.4,0.2,5.4,3.1,5.4,8c0,1.3-0.3,2.5-1,3.7"/>
	<path class="st27" d="M284.1,227.2c4.1,2.3,6.6,6,6.3,9.6c-0.1,1.2-0.6,2.5-1.4,3.6"/>
	<path class="st27" d="M329.6,263.3c0.9-1,1.3-2.2,1.2-3.4c0-1.1-0.6-2.2-1.5-3.1"/>
	<path class="st27" d="M332.6,263.2c1.5-0.7,2.3-2,2.1-3.2c-0.1-0.7-0.6-1.4-1.4-1.9"/>
	<path class="st27" d="M337.2,261.2c0.5-0.5,0.8-1.1,0.9-1.7c0-0.8-0.3-1.5-1-2.1"/>
	<path class="st27" d="M340.7,260.9c0.6-0.4,1-1.1,0.9-1.7c0-0.6-0.6-1.2-1.4-1.5"/>
	<path class="st27" d="M343.5,259.2c0.1-0.4,0.2-0.8,0.1-1.2c-0.1-0.5-0.3-1-0.7-1.4"/>
	<path class="st27" d="M345.1,258.4c0.2-0.3,0.3-0.6,0.4-0.9c0.1-0.4,0.1-0.9,0-1.3"/>
	<path class="st29" d="M347.1,258.8l1.8-1.3c-0.4-0.4-0.7-0.8-1.1-1.3"/>
	<path class="st28" d="M368.2,251c-0.3,0.8-0.8,1.6-1.5,2.3c-0.9,1-2.2,1.8-3.7,2.3"/>
	<path class="st28" d="M363.4,251.5c-0.2,1.2-0.4,2.5-0.6,3.7"/>
	<path class="st28" d="M359.9,253.6l-1.7,3.7"/>
	<path class="st28" d="M352.1,256.1c0.3,0.3,0.4,0.8,0.4,1.2c0,0.5-0.4,1-1,1.3"/>
	<path class="st28" d="M349.9,256.2c-0.3,1.3-0.4,2.2-0.2,2.2s0.6-0.8,0.5-0.9s-0.7,0.4-2.1,2"/>
	<path class="st28" d="M356.7,255.2c0.1,0.4,0.1,0.9,0,1.3c-0.1,0.5-0.4,0.9-0.9,1.3c-0.7,0.6-1.6,0.8-1.7,0.7
		c-0.1-0.1,0.7-0.5,1.1-1.4c0.2-0.4,0.3-0.9,0.2-1.4"/>
	<path class="st28" d="M368.6,249.2c-0.1,0.6-0.2,1.2-0.4,1.9"/>
	<path class="st28" d="M343,228.7c0.5,1.9,0.9,3.8,1.1,5.7c0.2,1.7,0.2,3.5,0.1,5.2c-0.3,4-1.5,7.9-3.5,11.7"/>
	<path class="st28" d="M347.7,227.8c0.2,1.3,0.5,3.2,0.7,5.4c0.4,4.2,0.7,6.3,0.2,8.2c-0.6,2.3-1.6,4.5-3,6.6
		c-0.5,0.7-0.9,1.3-1.2,1.7"/>
	<path class="st28" d="M355.4,211.4c1.2,1.2,2.2,2.5,3.1,3.8c1.9,2.8,3.3,5.8,4.3,8.9c1.5,4.6,0.4,4.1,1.9,9
		c0.5,1.7,1.2,3.4,0.9,5.7c-0.2,1.2-0.6,2.4-1.2,3.5"/>
	<path class="st28" d="M357.7,210.3"/>
	<path class="st27" d="M361.2,211.7c1,1.6,1.8,2.9,2.3,3.9c1.3,2.2,2.1,3.7,2.8,5c1.3,2.4,1.5,3.1,1.7,3.4c0.5,1.3,0.8,2.5,1,3.8
		c0.2,1.5,0.4,3,0.4,4.6c0,2.2-0.1,4.4-0.4,6.5"/>
	<path class="st9" d="M156.2,234c-4.1-2-8.6-3.9-13.5-5.8c-6.1-2.3-12.4-4.4-18.9-6.2l2.3-5.5c5.5,1.7,11.3,3.7,17.2,5.9
		c5.3,2,10.3,4,15.1,6C157.7,230.3,157,232.1,156.2,234z"/>
	<polygon class="st30" points="126.2,216.6 158.5,228.5 160.7,227.6 143.8,221.3 134.7,218 130.3,216.4 	"/>
	<path class="st31" d="M125,216.6"/>
	<path class="st3" d="M165.7,232.7"/>
	<path class="st19" d="M190.5,212.3c0.2-1.8,0.5-3.5,0.8-5.3l19.3,4.2l-1.5,6.6c-2.8-1.3-5.7-2.4-8.7-3.3
		C197.2,213.5,193.9,212.8,190.5,212.3z"/>
	<path class="st25" d="M166.2,217.4"/>
	<polygon class="st8" points="186.8,239.4 164.8,238.1 165.1,233.9 187.1,235.2 	"/>
	<polygon class="st8" points="186.9,234.8 164.6,233.6 164.8,231.1 187.1,232.4 	"/>
	<path class="st23" d="M190.2,270.4c-6-1.4-9.6-5.9-8.2-10.4"/>
	<ellipse class="st32" cx="167.8" cy="231.3" rx="12.3" ry="1.8"/>
	<g id="shading">
		<path class="st25" d="M623.3,370.7l-0.3,5c0,0,15.8,21.2,16.7,21.2"/>
		<path class="st25" d="M643.7,388.5l0.8,5.7c0,0-5,5-5,4.5c0.1-1.9,0.1-1.9,0.1-1.9"/>
		<path class="st25" d="M642.6,403.6c0,0,4.7-3.9,4.1-4.4"/>
		<path class="st29" d="M649.7,388.9"/>
		<path class="st29" d="M649.8,386.9"/>
		<path class="st29" d="M650.5,376.9"/>
		<path class="st29" d="M651.1,366.9"/>
		<path class="st29" d="M650.5,376.9"/>
		<path class="st29" d="M643.8,406.1c0,0,5.7-4.5,5.1-6.3"/>
		<path class="st29" d="M650.8,388.2l1.4,9.5c0,0-3.4,11-4.7,10.9"/>
		<path class="st27" d="M653.5,387.7l0.8,12.4c0,0-3,8.1-3.7,8.1"/>
		<path class="st27" d="M656.7,387.9c0,0,0.4,6.6-0.4,6.6"/>
		<path class="st27" d="M656.1,401.3c0,0-3,10.1-4.9,9.5"/>
		<path class="st27" d="M661.3,398.3c0,0-5.1,12.6-6.1,12.3"/>
		<path class="st27" d="M658.3,388c0.1,0.3,2.2,7.4,1.9,7.3"/>
		<path class="st27" d="M662,388.3c0,0,0.5,5.1-0.3,5.3"/>
		<path class="st27" d="M663.2,396.9c0,0-1.8,5.9-1.8,6.2"/>
		<path class="st27" d="M667.4,390l3.2,10.7c0,0-4.7,13.6-6.5,13"/>
		<path class="st27" d="M669.1,391.4l3.8,9.9c0,0-4.4,12.5-5.2,12.8"/>
		<path class="st27" d="M672.2,394.3c0,0,6.5,12.1,4.9,12.2"/>
		<path class="st27" d="M673.4,403.9c0,0,8,8.5,4.7,9.8"/>
		<path class="st27" d="M680.4,395.7l4.5,8.3c0,0-0.7,10.6-4.8,11.8"/>
		<path class="st27" d="M690.7,397.3c0,0-1.5,16.5-3.5,16.9"/>
		<path class="st27" d="M692.7,396.9c-0.3,0,4,8.9,2.8,8.4"/>
		<path class="st27" d="M694.3,398.4c0,0,3.9,7.9,2.7,8.4"/>
		<path class="st27" d="M699.1,400.6c0,0,6.2,5.5,3,8.5"/>
		<path class="st27" d="M697.5,402.2c0,0,3.7,4.2,1.6,5.6"/>
		<path class="st27" d="M699.4,402.3c0,0,3.4,6.3,1.8,6.7"/>
		<path d="M699.1,416.5c0.7-0.1,5.8-6.4,5.8-6.4l-0.3-6.5c0,0,2,5,1.7,5.2c-0.3,0.2,1-5.4,1-5.4l0.5,6.8l2.7-6.3l0.5,5.7l1-7.5l1,7
			c0,0,2.6-6.3,2.8-6.2c0.2,0.1,2,4.8,2,4.8l0.8-4.3l0.2,4l0.6-5.2l7.2-1.6l2.3-1.7l1.6,1.1l2.5-2l2.2,0.4c0,0,1.3-2.2,1.4-2.3
			c0.1-0.1,7.2-7,7.2-7l-2,7l-11.6,10.3c0,0-20.3,6.5-21,6.5c-0.7,0-6.4,4.3-8.4,3.9S699.1,416.5,699.1,416.5z"/>
	</g>
</g>
<g id="Table">
</g>
<g id="Pepper">
	<g id="Layer_3_4_">
		<path class="st14" d="M77.8,266.2c-0.3,6.7-2.2,9.4-3.4,16.6c-0.7,4.7-0.4,4.7-1,11.4c-1.2,10.8-2.3,12.9-3,19.2
			c-0.3,3.2-1.3,12.7,1.9,21.9c5.1,14.9,20.7,19.6,19.4,22.7c-1.1,2.7-9.3,2.9-15-0.2c-1.5-0.8-2.3-1.5-4.9-4.2
			C58.5,341,56.7,340,55.7,336.2c-1-3.7,0.2-4.7-1.4-8.6c-1.7-4.1-3.6-4.6-5.5-7.8c-3.1-5.1-0.6-8-1.6-18.9
			c-0.7-8.3-2.2-7.4-2.5-14.3c-0.3-8.4,1.5-14.8,2.5-18c2.7-8.7,4.8-12.2,6-13.6c1.9-2.3,5.2-5.4,6.4-4.7c0.5,0.4,0.2,1.2,0.3,2.5
			c0.5,3.7,4.6,7.3,8.2,7.5c3.9,0.2,5.7-3.7,7.9-2.8C78.1,258.4,78,263.3,77.8,266.2z"/>
		<path class="st14" d="M68.5,251.6c-0.6,0.7-1.2,1.9-1.4,3.3c-0.1,0.3-0.1,0.6-0.1,0.9"/>
		<path class="st15" d="M69.7,253.5c-0.4,0.7-0.7,1.4-1.1,2.1"/>
		<path class="st15" d="M66.2,252.4c-0.3,0.7-0.5,1.4-0.8,2.1"/>
		<path class="st16" d="M76.4,257.4c-0.6-1.3-1.2-2.6-1.7-4.1c-0.3-0.9-0.6-1.8-0.8-2.7c0,0,8-12.5,9.3-12c1.3,0.5,8.2,0.2,7.5-1.1
			s-1-7.2-1.2-6.9s-8.3,0.8-7.8,1.5c0.4,0.7-22.5,18.1-21.8,19"/>
	</g>
	<g id="shading_2_">
		<path class="st9" d="M88,233.3l-5,0.3c0,0-19.3,18.1-19.2,19"/>
		<path class="st9" d="M72.6,255.7l-5.5,1.5c0,0-5.5-4.4-5-4.4c1.9-0.1,1.9-0.1,1.9-0.1"/>
		<path class="st9" d="M57.5,256.2c0,0,4.4,4.2,4.8,3.6"/>
		<path class="st10" d="M72.9,261.6"/>
		<path class="st10" d="M74.9,261.5"/>
		<path class="st10" d="M84.9,261"/>
		<path class="st10" d="M94.9,260.5"/>
		<path class="st10" d="M84.9,261"/>
		<path class="st10" d="M55.2,257.7c0,0,5.1,5.1,6.8,4.4"/>
		<path class="st10" d="M73.7,262.6l-9.3,2.5c0,0-11.3-2.1-11.4-3.4"/>
		<path class="st11" d="M74.5,265.3l-12.2,2.2c0,0-8.4-2.1-8.5-2.8"/>
		<path class="st11" d="M74.6,268.5c0,0-6.6,1.1-6.6,0.3"/>
		<path class="st11" d="M61.3,269.4c0,0-10.4-1.9-10-3.8"/>
		<path class="st11" d="M64.9,274.3c0,0-13.1-3.6-13-4.6"/>
		<path class="st11" d="M74.7,270.1c-0.3,0.1-7.1,3.1-7.1,2.8"/>
		<path class="st11" d="M74.9,273.8c0,0-5.1,1.1-5.3,0.3"/>
		<path class="st11" d="M66.5,276c0,0-6.1-1.1-6.4-1.1"/>
		<path class="st11" d="M73.8,279.3l-10.3,4.4c0,0-14.1-3.1-13.7-5"/>
		<path class="st11" d="M72.6,281.2l-9.4,4.9c0,0-12.9-2.9-13.3-3.7"/>
		<path class="st11" d="M70.1,284.6c0,0-11.3,7.8-11.6,6.3"/>
		<path class="st11" d="M60.7,286.9c0,0-7.6,8.9-9.2,5.8"/>
		<path class="st11" d="M69.6,293l-7.7,5.4c0,0-10.6,0.5-12.3-3.5"/>
		<path class="st11" d="M69.2,303.3c0,0-16.6,0.3-17.2-1.5"/>
		<path class="st11" d="M69.8,305.3c0-0.3-8.4,4.9-8,3.7"/>
		<path class="st11" d="M68.5,307c0,0-7.4,4.8-8,3.6"/>
		<path class="st11" d="M66.8,312c0,0-4.8,6.8-8.1,3.9"/>
		<path class="st11" d="M65.1,310.6c0,0-3.8,4.2-5.4,2.2"/>
		<path class="st11" d="M65.2,312.5c0,0-5.9,4.1-6.5,2.5"/>
		<path class="st21" d="M51,313.8c0.1,0.7,7.1,5,7.1,5l6.5-1c0,0-4.8,2.5-5,2.3c-0.2-0.3,5.5,0.4,5.5,0.4l-6.7,1.2l6.6,2l-5.6,1.2
			l7.5,0.1l-6.8,1.8c0,0,6.6,1.9,6.5,2.1s-4.6,2.5-4.6,2.5l4.3,0.3l-4,0.7l5.2,0l2.4,7l1.9,2.1l-0.9,1.7l2.3,2.3l-0.2,2.2
			c0,0,2.4,1.1,2.5,1.2c0.1,0.1,7.7,6.4,7.7,6.4l-7.2-1.2l-11.5-10.3c0,0-8.8-19.5-8.8-20.2c0-0.7-5-5.9-4.8-7.9S51,313.8,51,313.8z
			"/>
	</g>
</g>
</svg>
