<?xml version="1.0" encoding="utf-8"?>
<!-- Generator: Adobe Illustrator 24.1.2, SVG Export Plug-In . SVG Version: 6.00 Build 0)  -->
<svg version="1.1" xmlns="http://www.w3.org/2000/svg" xmlns:xlink="http://www.w3.org/1999/xlink" x="0px" y="0px"
	 viewBox="0 0 499 261" style="enable-background:new 0 0 499 261;" xml:space="preserve">
<style type="text/css">
	.st0{fill:#FFFFFF;stroke:#000000;stroke-width:3;stroke-linejoin:round;stroke-miterlimit:10;}
	.st1{fill:#FFFFFF;stroke:#000000;stroke-width:4;stroke-miterlimit:10;}
	.st2{fill:#FFFFFF;stroke:#000000;stroke-width:2;stroke-miterlimit:10;}
	.st3{fill:#FFFFFF;stroke:#000000;stroke-miterlimit:10;}
	.st4{fill:#FFFFFF;stroke:#F7F7F7;stroke-miterlimit:10;}
	.st5{fill:#FFFFFF;}
	.st6{fill:#FFFFFF;stroke:#000000;stroke-width:0.5;stroke-miterlimit:10;}
	.st7{fill:#FFFFFF;stroke:#000000;stroke-linecap:round;stroke-miterlimit:10;}
	.st8{fill:#FFFFFF;stroke:#000000;stroke-width:2;stroke-linecap:round;stroke-miterlimit:10;}
	.st9{fill:#FFFFFF;stroke:#000000;stroke-width:0.5;stroke-linecap:round;stroke-miterlimit:10;}
	.st10{fill:#FFFFFF;stroke:#000000;stroke-width:0.25;stroke-linecap:round;stroke-miterlimit:10;}
	.st11{fill:#FFFFFF;stroke:#000000;stroke-width:0.75;stroke-linecap:round;stroke-miterlimit:10;}
	.st12{fill:#FFFFFF;stroke:#000000;stroke-linejoin:round;}
	.st13{fill:#FFFFFF;stroke:#000000;stroke-width:3;stroke-miterlimit:10;}
	.st14{font-family:'MyriadPro-Regular';}
	.st15{font-size:72px;}
</style>
<g id="California_Shape">
	<g id="use3536">
		<g id="state_outline">
			<path id="_x31_729" class="st0" d="M36.8,21.8l1,0l2,0.1l0.4,0l0.4,0h0l1.1,0l2.4,0.1h0.3l0.4,0l0.9,0l0.1,0l2.7,0.1l2.3,0.1
				l1.1,0l0.5,0l0.1,0l2.7,0.1l0.5,0l1,0l1.1-0.1l3.8,0.1l2.1,0l1.8,0l2.1,0l0.2,0l0.4,0l0.1,0h0l2.1,0l0.5,0l1.2,0l0.6,0l0.1,0
				l1.1,0l1.5,0l2.3,0.1l0.7,0l0.1,0l0.6,0l0.7,0l4.1,0l6.2,0.1l0.6,0l1.2,0l1.5,0l1.4,0l0.1,0l0.6,0l2.1,0l6.2,0l0.1,0l1.4,0l0.7,0
				l0.7,0l0.8,0l1.3,0l0.7,0h0.1l0.6,0l0.6,0l0.1,0l0.8,0l0.7,0l0.3,0l2.4,0.1l2.4,0.1l1.6,0l1.7,0l0,0l0.1,0l2.4,0l4.7,0.1l0.5,0
				l0.2,0l0.4,0l1,0l0.4,0l4.9,0.1l0.9,0l3.9,0h0.3l0.1,0l0.6,0h0.1l0.6,0l1.8,0l0.6,0l0.4,0l3.9,0h0.1l3.8,0.1l0.7,0h1.1l2.5,0
				l10.6,0l2.1,0l1.5,0l2.1,0l4.9,0h0.6l0.2,0l2.9,0l3.5,0h0.7l1.5,0h0.3l0.9,0l0,1l0,0.5l0,0.5l0,0.1l0,2.2l0,2.1l0,0.5l0,0.8
				l0,6.5l0,2l0,1l0,0.9v0.3l0,1l0,2.7l0,2l0,2l0,0.3l0,0.7v0.2l0,0.9l0,1.5l0,1.6l0,0.5l0,0.2l0,0.8l0,0.5l0,0.2l0,1.5l0,0.5v0.1
				l0,1l0,1.4l0,0.3l0,1.1l0,0.3v0.4l0,0.3v0.7l0,1l0,0.7v0.1l0,0.5l0,0.3l0,0.2l0,0.1l0,0.3l0,1.5l0,0.3l0,0.4l0,0.3l0,0.2l0,2.7
				l0,0.3v0l0,0.3l0,0.1V74l0,0.3v0l0,0.3v0l0,0.3v0.3l0,0.3v0.3l0,1l0,0.3v0.3l0,0.2l0,1l0,0.3l0,0.7l0,1l0,0.3v0l0,0.3l0,0.3
				l0,0.3l0,0.3l0,0.4l0,0.7l0,0.3l0,0.3l0,0l0,0.3l0,0.3l0,0.1l0,0.9l0,0.6l0,1l0,0.2l0,1.2l0,1l0.1,1.5l1.9,0.8l1.2,0.5l0.2,0.1
				l0.5,0.2l2.1,0.9l0.8,0.3l0.1,0.1l1.2,0.5l0.1,0l1.3,0.6l0.3,0.1l0.6,0.2l1,0.4l1,0.4l2.3,1l0.3,0.1l0.4,0.2l0.8,0.3l0.9,0.4
				l0.1,0l3.7,1.5l0.2,0.1l4.5,1.9l3.5,1.4l0.8,0.3l1.7,0.7l0.8,0.3l0.5,0.2l4.7,1.9l1,0.4l1.5,0.6l0.3,0.1l1.3,0.5l2,0.8l1.1,0.5
				l1.6,0.6l0.5,0.2l2.2,0.9l4.3,1.8l2.4,1l1.7,0.7l1.3,0.5l1.7,0.7l1.3,0.5l1.4,0.6l2.7,1.1l4.1,1.7l3,1.2l1.1,0.5l1,0.4l1.3,0.5
				l2.8,1.1l4.6,1.9l0.1,0l3.3,1.3l0.4,0.2l2.2,0.9l1.7,0.7l2.2,0.9l0.3,0.1l0.3,0.1l2.4,1l0.2,0.1l6.2,2.5l2.2,0.9l0.4,0.1l0.4,0.1
				l0.9,0.4l0.5,0.2l3,1.2v0l6.4,2.6l0.9,0.4l0.1,0l0.6,0.2l1.6,0.7l1.3,0.5l0.4,0.2l1.4,0.6l0.1,0l2.1,0.9l3.4,1.4l1.2,0.5l0.7,0.3
				l0.1,0l2.5,1l0.8,0.3l0.6,0.2l1.4,0.6l0.6,0.2l5.5,2.2l3.2,1.3l0.5,0.2l2.1,0.9l2.4,1l0.1,0l1.7,0.7l1,0.4l1.7,0.7l0.5,0.2
				l2.3,0.9l1.7,0.7l1.4,0.6l0.9,0.4l8.5,3.5l1.5,0.6l0.1,0l0.8,0.3l1.5,0.6l2.3,0.9l0.6,0.2l3.9,1.6l0.5,0.2l8,3.3l0.4,0.2l0.1,0.1
				l2.1,0.8l2,0.8l0.8,0.3l0.7,0.3l1.2,0.5l0.7,0.3l1.9,0.8l1.3,0.5l0.6,0.2l4.5,1.8l2.3,0.9l0.9,0.4l0.4,0.2l0.9,0.3l0.4,0.2
				l0.7,0.3l0.8,0.3l0.1,0l0.7,0.3l1.1,0.5l0.1,0l0.1,0.1l0,0.1l0,0l-0.1,0.2l-0.1,0.2l0,0.1l0,0l0.1,0.1l0.1,0.1l0.1,0.2l0,0.2
				l0,0.2l0,0.1l0.1,0.1l0,0.1l0,0.1l-0.1,0.1l0,0.2l0,0.1l0,0.1l0.1,0.2l0.3,0.1l0.4,0.1l0,0l0.5,0.1l0.5,0.2l0,0l0.3,0.1l0.2,0.2
				l0.1,0.2l0,0l0.1,0.2l0,0.1l0.1,0.2l0.3,0.3l0.3,0.2l0.4,0.2l0.3,0.2l0.4,0.1l0.3,0.1l0.2,0.1l0.1,0.1l0.2,0.1l0.3,0l0.3,0
				l0.3,0.1l0.1,0.1l0.1,0.1l0.1,0l0.3,0.1l0,0l0.2,0l0.2,0.1l0.2,0.2l0.1,0.1l0,0l0.1,0.2l0.2,0.2l0.2,0.2l0.2,0.1l0.1,0.1
				l-0.1,0.1l-0.1,0l-0.1,0.1l0,0l0.1,0.1l0.1,0l0.1,0.1l0.2,0.1l0.1,0.1l0.1,0.2l0.1,0.1l0.1,0.1l0.1,0.1l0.2,0.1l0.2,0.1l0.1,0.1
				l0,0.1l-0.1,0.1l-0.1,0.1l-0.1,0l-0.1,0.1l0,0l0,0l0,0.1l0.1,0.1l0.2,0.1l0.5,0.2l0.2,0.1l0.2,0.1l0.1,0.1l0.1,0.1l0.2,0.1
				l0.1,0.1l0.2,0.1l0.1,0.1l0.2,0.2l0.2,0.2l0.1,0.2l0,0.2l-0.1,0.2l0,0l-0.1,0.3l0,0.1v0.1l0,0.2l-0.1,0.2l0,0.1l0.1,0.1l0.2,0.1
				l0.2,0l0.2,0l0,0l0.3,0l0,0l0.4-0.1l0.2,0l0.2,0l0.1,0l0.1,0.1l0.1,0.1l0.2,0.1l0,0l0.2,0l0.3,0.1l0.3,0.1l0.3,0.1l0.1,0.1
				l0.1,0.1l0.1,0.1l0.1,0.1l0.2,0.1l0.2,0l0.2,0l0.3,0l0.2,0.1l0.2,0.1l0.2,0.1l0.3,0.1l0.1,0l0.3,0.1l0.2,0.2l0.1,0.1l0.1,0
				l0.2,0.1l0,0l0.2,0l0,0l0.3,0l0.4,0l0,0l0.4,0.1l0.2,0l0.2,0.1l0.1,0.1l0.2,0.1l0.2,0.1l0.1,0l0.1,0.1l0.3,0.1l0.2,0.1l0.3,0.1
				l0.2,0.1l0.2,0.1l0,0.1l0,0.1l0,0.1l0,0.1l0.1,0.1v0.1l0,0.1l0.1,0.1l0.1,0.1l0,0.1l0,0l-0.1,0h-0.2l-0.2,0l-0.2,0l-0.2,0l-0.2,0
				l-0.1,0l0,0l-0.1,0v0.1l0,0.1l-0.1,0l-0.1,0l-0.1,0l-0.1,0l-0.1,0.1l-0.1,0.1l-0.1,0.1l-0.3,0.2l-0.4,0.2l-0.3,0.2l-0.2,0.1
				l-0.1,0l-0.2,0.1l-0.1,0.1l-0.1,0.1l0,0.1l0,0.1l0,0.1l0,0.1l0,0l-0.1,0l0,0l-0.1,0l-0.2,0.1l-0.1,0l-0.1,0l-0.1,0.1l-0.3,0.1
				l-0.2,0l-0.3,0l-0.2,0l0,0l-0.2,0l-0.2,0l-0.1,0l-0.1,0l-0.1,0l-0.2,0.1l-0.2,0.2l-0.3,0.2l-0.3,0.2l-0.2,0.1l-0.3,0.1l-0.3,0
				l-0.3,0l-0.2,0l-0.1,0l0,0l-0.1,0.1l-0.1,0.1l-0.2,0.1l-0.2,0.1l-0.3,0.1l-0.2,0.1l-0.2,0h-0.2l-0.2,0l0,0l-0.1,0l-0.1,0l-0.2,0
				l-0.2,0.1l-0.1,0.1l-0.2,0.1l-0.2,0.1l-0.1,0.1l-0.1,0.1l0,0.1l0,0.1l0,0l-0.1,0.2l0,0.2l0,0.1l0.1,0.1l0.1,0.1l0,0.1l0,0.1
				l0,0.2l-0.1,0.1l-0.1,0.1L414,201l-0.1,0l-0.1,0l-0.2,0l-0.1,0l-0.1,0.1l-0.1,0.1l0,0l0.1,0l0.1,0.1l0.2,0l0.1,0l0,0l-0.1,0
				l-0.1,0l-0.2,0l-0.1,0.1l-0.1,0.1l0,0l0,0l-0.1,0l-0.1,0l-0.1,0l0,0l-0.1,0l-0.1,0l-0.1,0.1l-0.2,0.2l-0.2,0.1l-0.1,0l-0.2,0
				l-0.1,0l-0.2,0l-0.1,0l-0.1,0l-0.2,0l-0.2,0.1l-0.1,0.1l-0.1,0.1l-0.1,0.2l0,0.1l0,0l0,0l0.1,0l0.1,0l0.1,0l0.3,0.1l0.2,0.1
				l0.2,0.1l0.2,0.1l-0.1,0.1l-0.1,0.1l-0.3,0l-0.1,0h-0.1l-0.1,0l0,0.1l0.1,0.1l0.2,0.1l0.3,0.1l0.3,0.1l0.1,0.1l0,0.1l-0.1,0.1
				l-0.1,0.1l-0.1,0l0,0l-0.2,0l-0.2,0h-0.2l-0.1,0l-0.1,0l-0.1,0l0,0.1l0,0.1l0.1,0.1l0.1,0.1l0,0l0.1,0.2l0.1,0.1l0,0.1l0,0.1
				l-0.1,0.1l-0.1,0l0,0l0,0.1l0.1,0.1l0.1,0.1l0.1,0.2l0.2,0.2l0.1,0.1l0.1,0.1l0.2,0.2l0,0.1l0.1,0.1l0.1,0.2l-0.1,0.2l-0.1,0.1
				l-0.1,0.1l0,0.1l0.1,0.1l0.1,0.1l0.2,0l0.1,0.1l0.1,0.1l0.1,0.2l0,0.1l-0.1,0.1l-0.2,0.1l-0.1,0l-0.2,0l-0.1,0l-0.2,0l-0.2,0.1
				l-0.1,0l-0.1,0l0,0l-0.1,0l-0.1,0l-0.1,0.1l-0.1,0.1l0,0.1l0.1,0.1l0.1,0l0.2,0l0.2,0l0.1,0l0,0l0,0l-0.1,0l-0.1,0l-0.1,0l-0.1,0
				l-0.1,0v0.1l0,0.1l0.1,0.1l0.1,0.1l0,0.1l0,0.1l0,0l-0.1,0.1l0,0.1l-0.1,0.1l0,0.1l0,0.1l0.1,0.1l0.1,0.1l0.1,0.1l0,0.1l-0.1,0.1
				l0,0l-0.2,0.1l-0.2,0.1l-0.1,0l0,0l0,0l0,0.1l0,0.1l0,0.1l0,0.1l0.1,0.1l0.1,0.1l0,0.1l0,0.1l0.1,0l0,0l0.1,0l0.1,0.1l0,0.1
				l-0.1,0.1l0,0l-0.1,0.1l-0.1,0.1l-0.1,0.1l-0.3,0.1l-0.2,0.1L411,212l0,0l-0.1,0.1l0,0.1l0,0.1l0,0.1l0,0l0,0l-0.1,0.1l-0.1,0.1
				l0,0l-0.1,0l-0.1,0l0,0l-0.1,0l-0.1,0l0,0l-0.2,0l-0.2,0.1l-0.2,0.1l-0.1,0.1l-0.1,0.2l-0.1,0.1l-0.1,0.1l0,0l-0.1,0l-0.1,0.1
				l-0.2,0.1l-0.1,0l-0.1,0.1l-0.1,0.1l0,0.1l0,0.1l0,0l0,0.1l0,0.1l-0.1,0.1l0,0l0,0l-0.1,0.1l-0.2,0.1l-0.2,0.1l-0.1,0l-0.2,0
				l-0.3,0.1l-0.1,0l-0.1,0l-0.4,0l-0.2,0h-0.2l-0.3,0l-0.2,0.1l-0.2,0.1l-0.1,0.1l-0.2,0l-0.2,0l-0.2,0l-0.2,0h-0.1l-0.2,0l0,0
				l0,0.1l0.1,0.1l0.3,0.1l0.3,0.1l0.1,0.1l0.1,0.1l0,0l0,0.1l0,0l0.1,0.1l0.1,0.1l0,0l0.1,0.1l0,0.1l0,0.1l0,0l0,0l0,0.2l-0.1,0.2
				l-0.1,0.1l-0.3,0.2l-0.2,0.1l-0.3,0.1l-0.1,0.1l0,0.1l0.1,0.1l0.2,0.2l0.2,0.1l0.2,0l0.3,0l0.1,0l0.3,0l0.4,0.1l0.2,0.1l0.2,0.1
				l0.1,0.1l0,0.1l0,0l0,0l-0.1,0.1l-0.1,0l-0.1,0l-0.1,0l-0.1,0.1l0,0l0,0.1l0.1,0.1l0,0l0.2,0.1l0.2,0.1l0.1,0.1l0,0l0.1,0.1
				l0,0.1l0,0l0,0.1l-0.1,0.1l0,0.1l0,0l0,0.1l0,0l0.1,0.1l0,0.1l0,0.1l-0.1,0.1v0.1l0,0l0,0.1l0,0l0,0.1l0,0.1l-0.1,0.1l0,0
				l-0.1,0.1l-0.2,0.2l-0.2,0.2l0,0l-0.1,0.2l-0.1,0.2l0,0.2l0,0.2l0,0.1l0.1,0.1l0.1,0l0.2,0l0.2,0l0.1,0l0.1,0.1l0,0l0,0l0.1,0.1
				l0.1,0.1l0,0l0.2,0.1l0.1,0.1l0.1,0.1l0,0.1l0,0.1l0,0.1l0.1,0.1l0.2,0.1l0.2,0.1h0.1l0.1,0l0.1-0.1l0.1-0.1l0.1-0.1l0.2,0l0.1,0
				l0.1,0.1l0.1,0.1l0.1,0.1l0.2,0.1l0.1,0.1l0.1,0l0.3,0h0l0.3,0l0.4,0l0.2,0h0.1l0.2-0.1l0.1-0.1l0,0l0.1-0.1l0.1,0l0.1,0l0.2,0
				l0.4,0l0.4,0l0.4,0l0.4,0l0.2,0l0.1,0l0.2,0l0.1,0l0.2,0.1l0.2,0.1l0.1,0l0.1,0.1l0.1,0.1l0.1,0.2l0.1,0.1l0.1,0.1l0,0.2l0,0.1
				l0.1,0.1l0.1,0.1l0.1,0l0.1,0l0.1-0.1l0.1,0l0.1,0h0l0.2,0.1l0.1,0.1l0,0.1l0,0.2l0,0.1l-0.2,0.1l-0.2,0.1l-0.1,0.1l0,0.1l0,0.1
				l0.1,0.1l0.3,0.1l0.2,0.1l0,0l0.1,0.1l0.1,0.1l0,0l0,0.1l0,0.1l0,0.1l0,0.2l0,0.2l0,0.2l0,0.7l-0.5,0.2l-0.5,0.3l-0.1,0.1
				l-0.3,0.1l-0.2,0.1l-0.2,0.1l-0.1,0.1l0,0l-0.2,0.1l-0.1,0.1l-0.1,0.1l0,0.1l0,0l0,0l0,0.1l0,0.1l0,0.1l0.1,0.1l0.2,0.3l-0.2,0
				l-0.2,0l0,0.2l-0.3,0l-0.3,0l-0.4,0l0,0.2l-0.7,0l0,0.1v0.1l-1.4,0.1l0,0.1l-0.6,0l-0.6,0l-0.5,0l-1,0l-0.2,0l-0.2-0.1l-0.2-0.1
				l-0.1,0l-0.1,0l-0.2,0l-0.1,0.1l0,0l-0.1,0.1l-0.2,0.2l-0.2,0.2l-0.6,0l-8.9,0.6l-4.7,0.3l-2.1,0.1l-0.8,0.1l-1.3,0.1l-4.2,0.3
				l-4.2,0.3l-4.2,0.3l-4.2,0.3l-3.1,0.2l-1.2,0.1l-4.3,0.3l-4.3,0.3l-0.7,0l-3.7,0.2l-4,0.3l-0.7,0l-0.7,0l-2.8,0.2l-2.8,0.2
				l-1.3,0.1l-3.6,0.2l-2,0.1l-7,0.4l-2.2,0.1l-0.6,0H326l-4.5,0.3l-0.8,0.1l-1.4,0.1l-0.7,0l-0.9,0.1l-1.3,0.1l-4.4,0.3l-3.8,0.2
				l0-0.1l0-0.1l-0.1-0.2l-0.1-0.1l-0.1-0.2l0-0.1v-0.1l0-0.2l0-0.3l0-0.2l-0.1-0.2l-0.1-0.2l-0.1-0.2l-0.2-0.1l-0.2-0.1l-0.1-0.2
				l-0.2-0.1l-0.2-0.2l-0.1,0l-0.1-0.1l-0.1-0.1l-0.1-0.1l-0.2-0.1l-0.1-0.1l-0.1,0l-0.1,0h0l-0.1,0l-0.1,0l-0.1-0.1l-0.1,0l-0.2,0
				l-0.2,0l-0.2,0l-0.2,0l-0.2,0l-0.2,0l-0.1,0l-0.1,0h0l0,0l-0.1,0l-0.1-0.1l0.1-0.2l0.2-0.1l0.4-0.1l0.3-0.1l0.4,0l0.4,0.2l0.2,0
				l0.2,0l0.3,0.1l0.3,0.2l-0.2,0.2l0,0.1l0.4-0.1l0.1,0.1l-0.2,0.1l0.2,0.2l0.4,0.3l0.3,0.2l0.3,0.2h0.2l-0.1,0.2l0.1,0.2l0.1,0.1
				l0.1,0.1l0.1,0.1l0.4,0.1l0.1-0.1l0.1-0.1l0.2-0.1l0,0l0.2-0.1l-0.1-0.3l-0.2-0.1l-0.1-0.1l-0.2,0l0-0.1l-0.1-0.1l0.1-0.1
				l-0.2-0.3V234l-0.2-0.1l0.2,0l-0.3-0.2l-0.2-0.1l-0.8-0.2l-0.8-0.3l-0.3-0.1l0.1-0.1v-0.2l-0.3-0.1l-0.5,0l-0.6,0l-0.3,0.1
				l-0.2,0.2l-0.4,0l-0.4,0.2l0,0.1l0,0.1l-0.1,0.1l0,0.2l0,0.1l0.2,0v0.1l-0.1,0l0,0v0.1l0,0v0.1l0,0l0,0l0,0.1l0,0l-0.1,0l0,0
				l-0.1,0l0,0l0,0l0-0.1l0-0.1l-0.1-0.1l0-0.1l-0.1-0.1l0-0.1l0-0.1l0,0l0-0.1l0-0.1l0-0.1l0-0.1l0-0.1l0-0.1l0-0.1v-0.1l0,0v-0.2
				l0-0.1l0-0.1l0-0.1l0.1-0.1l0.1-0.1l0.1,0l0.1,0h0.1l0.1,0l0,0l0-0.1l0-0.1l0,0h0.1l0.1,0l0.1,0l0.1,0l0,0v0l-0.1,0l0,0h-0.1
				l-0.1,0l0,0v0l0,0l0,0h0.1l0.1,0l0,0v0l0,0h0l0.1,0l0,0l0,0l0.1,0h0.1l0.1,0l0.2,0h0.2l0.1,0l0.1,0l0,0l0,0l0,0l0-0.1l-0.1-0.1
				l0-0.1l0,0l0-0.1l0-0.1l0-0.1v-0.1l0-0.1l-0.1,0h-0.1l-0.1,0l0,0h0.1l0,0l-0.1,0l-0.1,0l-0.1,0l0,0l0,0l0,0l0,0l-0.1,0l-0.1,0
				l0,0l0,0l0,0h-0.1v0l0,0.1l0,0.1l0,0.1l-0.1,0h-0.1l0,0l-0.1,0v-0.1l0-0.1l-0.1,0l-0.1,0h-0.1l-0.1,0l0,0l0,0l0.1,0.1l0.1,0l0,0
				l0,0l0,0l0,0h0.1l0,0l0,0l0,0l0,0l-0.1,0l0,0l0,0l0,0l0,0l0,0l0,0l0,0l0,0.1v0l0.1,0v0l0,0l0,0l0,0l0,0h0l0,0l0,0l0,0l-0.1,0v0.1
				l0,0l0,0l0,0l0,0l0,0l-0.1,0l-0.1,0h-0.1v-0.1l0-0.2l0-0.2l0-0.1l-0.1-0.1l-0.1-0.1l-0.1-0.1l-0.1-0.1l-0.1,0l-0.1,0l-0.1,0
				l0-0.1l-0.1,0l-0.1,0l0,0l0,0l-0.1,0l-0.1,0l-0.1,0v0l0-0.1v-0.1l0-0.1l0-0.1l0-0.1v-0.1l0-0.1l0,0l0,0l0.1,0l0.1,0l0,0l0.1,0
				l0.1,0l0.1,0l0.1,0l0.1,0l0.1,0l0.1,0l0.1-0.1l0.1-0.1l0-0.1l0-0.1l0-0.1l0-0.1l0-0.1l-0.1-0.1l0-0.1l0-0.1l0-0.1l0-0.1l-0.1-0.1
				l-0.1-0.1l-0.1-0.2l0-0.2l-0.1-0.2l-0.1-0.2l-0.1-0.2l-0.1-0.1v-0.1l0-0.1l-0.1-0.1l-0.1-0.2l-0.1-0.2l0-0.1l0,0l-0.1-0.1l0-0.1
				l0-0.1l0-0.1l-0.1-0.1l-0.1-0.1L301,226l-0.2-0.2l-0.2-0.1l-0.1-0.1l-0.1-0.1l-0.1-0.1l-0.1-0.1l-0.2-0.2l-0.2-0.3l-0.1-0.1
				l-0.1-0.1l-0.3-0.3l-0.2-0.2l-0.2-0.2l-0.2-0.2l-0.1-0.1l-0.2-0.1l-0.1-0.1l-0.1-0.1l-0.1-0.1l-0.1-0.1l-0.1-0.1l-0.1-0.1
				l-0.2-0.1l-0.2-0.1l-0.2-0.1l-0.2-0.1l-0.2-0.1l-0.3-0.2l-0.2-0.1l-0.1-0.1l-0.2-0.1l-0.3-0.2l0.1,0l0.1,0l0,0l-0.1-0.1l-0.1,0
				l0,0l0,0l-0.3-0.2l-0.3-0.2l-0.3-0.2l-0.2-0.1l-0.3-0.2l-0.3-0.2l-0.4-0.2l-0.4-0.2l-0.3-0.2l-0.3-0.2l-0.4-0.2l-0.2-0.1
				l-0.2-0.1l-0.2-0.1l-0.4-0.2l-0.2-0.1l-0.3-0.1l-0.2-0.1l-0.2-0.1l-0.2-0.1l-0.2-0.1l-0.2-0.1l-0.3-0.1l-0.2-0.1l-0.2-0.1l-0.1,0
				l-0.1,0l-0.2,0l-0.1,0l-0.2,0h-0.1l-0.1,0l-0.1,0l-0.1,0l-0.1,0l-0.1,0l0,0l0,0l0-0.1l-0.1-0.1l-0.1-0.1l-0.1-0.1l-0.2-0.1
				l-0.1-0.1l-0.1,0l-0.1-0.1l0,0l0,0l0,0l-0.1-0.1l-0.1,0l-0.1,0l-0.1,0l0,0l-0.1,0l-0.2-0.1l-0.2-0.1l-0.1,0l-0.1-0.1l-0.2-0.1
				l-0.2-0.1l-0.1-0.1l-0.2-0.1l-0.2-0.1l-0.2-0.1l-0.2-0.1l-0.1,0l-0.1,0l0,0l-0.1,0l-0.1,0h-0.1l-0.1,0h0l0,0h-0.2l-0.1,0h-0.1
				l-0.1,0l0,0l-0.1,0h-0.1l-0.1,0v0l0,0l-0.1-0.1l0-0.1l0-0.1l-0.1,0l0,0l-0.1-0.1l-0.1-0.1l0-0.1l0,0l-0.1,0l-0.1,0l-0.1,0l0,0
				l0,0v0l0,0l0,0l-0.1-0.1l0,0l0,0l0-0.1l0,0l0,0l-0.1,0l-0.1-0.1l0,0l-0.2-0.1l-0.1-0.1l0,0l0,0l0,0l-0.1,0l0,0l-0.1-0.1l-0.1-0.1
				l-0.1-0.1l-0.2-0.1l-0.1-0.1l-0.2-0.1l-0.1-0.1l-0.1,0l-0.1,0l0,0l-0.2,0l-0.1,0l0,0l-0.1,0l-0.1,0h-0.2l0,0h0l0,0l0-0.1l0,0l0,0
				h-0.1l-0.1,0h0l0,0l0,0l0,0l0,0l0,0l0,0v0l0,0l-0.1-0.1l-0.1,0l-0.2,0l-0.1,0l-0.1-0.1l-0.1,0l-0.1-0.1l-0.1,0l-0.1,0l-0.1,0
				l-0.1,0l-0.1,0l-0.1,0l0,0l-0.1,0l-0.1,0l-0.1,0l-0.1,0l-0.1,0l-0.1,0l-0.1-0.1l0,0l-0.1,0h-0.1l-0.1,0l-0.1-0.1l0,0v0l0,0l0,0
				l-0.1-0.1l0,0l0-0.1l-0.1-0.1l-0.1,0l-0.1,0l-0.2,0h-0.1l-0.1,0h-0.1l0,0l0,0l0-0.1l0.1,0l0.1,0l0.1,0l0.1,0l0,0l0,0l0,0l0,0
				l0.1,0v0l0,0l0,0l0,0l0,0l0.1,0l0.1,0l0,0l0.1,0l0,0l0,0l0,0l0-0.1v0l0-0.1l0,0l0,0l0.1-0.1l0,0l0.1,0l0.1,0l0.1,0l0,0l0,0
				l-0.1,0l-0.2,0h-0.2l-0.1,0l-0.1,0l0,0.1l0,0l0,0.1l0,0.1v0.1l0,0.1l0,0.1l0,0.1v0l0,0.1l-0.1,0.1l-0.1,0l-0.1,0l-0.1,0l-0.1,0
				l-0.1,0.1l0,0l-0.1,0h-0.1l-0.1,0l-0.1,0l-0.1,0l-0.1,0l-0.1,0h-0.1v0.1l0,0.1l0,0l0,0l0,0l0,0l0,0l-0.1,0v0l0,0l0,0l0.1,0l0.1,0
				h0.1l0.1,0l0.2,0l0.1,0l0.1,0h0.1l0.1,0l0.1,0l0,0l0.1,0l0.1,0l0.1,0l0.1,0l0.1,0l0.1,0l0.1,0l0.1,0l0,0.1l-0.2,0l-0.3,0l-0.3,0
				l-0.4,0l-0.3,0l-0.2,0h-0.1l0,0l-0.1,0l0,0l0,0l-0.1-0.1l-0.1-0.1l-0.2-0.1l-0.2-0.1l-0.2-0.1l-0.2-0.1l-0.3-0.1l-0.3-0.1
				l-0.2-0.1l-0.3-0.1l-0.2,0l-0.2-0.1l-0.2-0.1l-0.2-0.1l-0.2-0.1l-0.2-0.1l-0.2-0.1l-0.2-0.1l-0.2-0.1l-0.2-0.1l-0.3-0.1l-0.2-0.1
				l-0.2-0.1l-0.2-0.1l-0.2-0.1l-0.2-0.1l-0.1-0.1l-0.1,0l-0.2-0.1l-0.1,0l-0.1,0l-0.1,0l-0.1-0.1l-0.2-0.1l-0.1-0.1l-0.1,0l-0.1,0
				l-0.1,0l0,0l-0.1-0.1h0.4l0.1,0l0.1,0.1l0,0l0.3,0.1l0.1,0.1l0.2,0.1l0.2,0.1l0.1,0l0.1,0l-0.1-0.1l-0.3-0.1l0,0l-0.2-0.1l0-0.1
				l-0.2,0l0,0l0,0l0.1,0l0.1-0.1l0,0l-0.1,0l-0.1,0.1l-0.2-0.1l-0.1,0l-0.2,0h-0.1l0,0h-0.2l0,0l-0.1,0l-0.1,0l0,0l0,0l-0.1,0l0,0
				l-0.1,0h-0.1l-0.1,0l-0.1,0V210l0-0.1l0.1-0.1l0.1,0l0.1,0l0,0l-0.2-0.1l-0.1,0l-0.2-0.1l-0.2-0.1l-0.2-0.1l-0.1,0l0,0v0l0,0.1
				l0.1,0l0.1,0l0.1,0l0,0v0h0l-0.1,0l-0.1,0l0,0.1v0l0.1,0.1l0.1,0l0.2,0.1l0,0v0h0l0,0l-0.2-0.1l-0.2-0.1l-0.1,0l-0.3-0.1l-0.4,0
				l-0.3,0l-0.7-0.1l-0.2,0h-0.2l0,0l-0.2,0l-0.1,0l-0.1,0l-0.1,0l-0.2,0l-0.2,0l0,0l0.1,0.1l0.4,0.1l0.2,0.3l-0.7,0l0.1,0h0.3
				l0.1-0.1l0-0.1l-0.2,0v-0.1l-0.2,0l0,0.1h-0.1l0-0.1l-0.2,0.1l0.2,0.1l0,0.1l-0.4-0.1l0-0.1l0.2-0.1l0.1,0l0.1,0v0l0,0h-0.3
				l-0.2-0.2l0.2-0.1l0.3-0.1l0,0l-0.4,0.1l0,0l0.4-0.1l0,0l-0.5,0.1l-0.8,0.1l-0.3,0.1l-0.1-0.1l0,0l0,0l0.1,0l0.1,0l0,0l0,0
				l-0.1,0l0,0l-0.2,0.1l-0.3,0.2l0-0.1l-0.2,0l0.1,0.1l0,0.1l-0.2,0.1l0-0.1v-0.1l0,0l0,0l0,0l0,0l-0.1,0.1l0,0l0,0l0,0l-0.1,0l0,0
				l0-0.1l0.1-0.2l-0.2,0l0-0.1l-0.1,0l0,0v0.1l0,0l0,0.1l0,0l-0.1,0l0,0l-0.1,0l0,0h0l-0.1,0h0l-0.1,0v0l0.1,0h0.1l0,0h0.1l0,0h0.1
				l0.1,0l0,0l0,0l-0.1,0l0,0l0,0l0,0l0,0.1l0,0.1v0.1l0,0.1l0,0.1l0.1,0.1l0.1,0.1l0.1,0.1l0,0.1l0,0l0,0l0,0l0,0l-0.1,0l0,0l0,0
				l0.1,0.1l0,0v0l0,0l0,0l0,0l0,0l0,0v0l0,0v0l-0.1,0h0l0,0l0,0.1v0l0,0l-0.1,0l0,0v0l0.1,0.1l0,0l0,0l0,0l0,0l-0.1,0h-0.1l0,0
				l-0.1,0v0l0,0l-0.1,0v0l-0.1,0l0,0l-0.1,0l-0.2,0l-0.1,0l-0.1,0l-0.1,0l-0.1,0l-0.1,0h0l0,0l-0.1,0h-0.1l-0.1,0l-0.1,0l-0.2,0
				l-0.2,0l-0.2,0l-0.2-0.1l-0.1,0H257l-0.1,0l0,0l0,0l-0.1,0l-0.1,0l0,0l0,0l-0.1,0l0,0h-0.1l0,0h-0.1l0,0h0l-0.1,0l-0.1,0l0,0h0
				v-0.1l-0.1,0l-0.1,0h-0.1l-0.1,0l0,0l-0.1,0l0,0l-0.1,0h0l-0.1,0l-0.1,0l-0.1,0l-0.1,0l-0.1,0l-0.1,0l-0.1,0l0,0l-0.1,0l-0.1,0
				l0,0h-0.1l0,0v-0.1l0,0v0l0,0v-0.1l0,0l0,0l0,0l0-0.1l0,0l0,0l0,0l0,0l0,0l-0.1,0l0,0l0-0.1l0,0l0,0v0l0,0l-0.1,0l0,0l-0.1,0l0,0
				l0,0v0l0.1,0l0-0.1l0-0.1l0.1-0.1l0.1,0l0.1,0l0.1,0l0.1-0.1l0,0l0,0v-0.1l0,0l0,0l0.3-0.1l0.2-0.1l0-0.1l0-0.1l0-0.1l0-0.2
				l0-0.1l0-0.2l-0.1-0.1l-0.1,0l0,0l0.1,0l0,0h-0.1l0,0l0-0.1l-0.2-0.2l-0.1-0.1l-0.1-0.1l-0.2-0.2l-0.2-0.3l-0.4-0.3l-0.3-0.3
				l-0.3-0.3l-0.2-0.2l-0.2-0.2l0,0l-0.3-0.2l0-0.1l-0.1-0.1l-0.2-0.1l-0.2-0.1l-0.2-0.1l-0.2-0.1l-0.2-0.2l-0.1-0.1l-0.2-0.1
				l-0.2-0.1l-0.2-0.1l-0.1-0.1l-0.2-0.1l-0.1,0l-0.4-0.1l-0.1,0l-0.3-0.1l-0.1,0l-0.2,0l-0.2,0l-0.2,0l-0.1,0h-0.3l-0.1,0l-0.1,0
				l-0.1,0h-0.1l-0.1,0l-0.1,0l0,0l-0.1,0l-0.2,0l-0.4,0h-0.3l-0.1,0l-0.1,0l-0.1,0H246l-0.2,0l-0.1,0l-0.1,0l-0.1,0l-0.2,0l-0.1,0
				h-0.2l-0.1,0h-0.2l-0.2,0h-0.2l-0.2,0l-0.2,0h-0.1l-0.1,0l-0.1,0l0,0l-0.1,0.1h0l0,0l-0.1,0l-0.1,0l-0.1,0l-0.1,0l-0.1,0l-0.2,0
				l-0.1,0l-0.1,0l-0.1,0h-0.1l-0.2,0l-0.3,0l-0.5,0l-0.2,0l-0.2,0l-0.4,0l-0.1,0l-0.1,0l-0.1,0l-0.1,0l-0.2,0l-0.3,0l-0.2,0l-0.1,0
				l-0.1,0l-0.1,0.1l0,0l-0.1,0.1l0,0.1l0,0l-0.1,0l-0.1,0l-0.2,0h0l0,0v0.1l-0.1,0h0l-0.1,0l-0.1-0.1l-0.1-0.1l-0.1-0.1l-0.2-0.1
				l-0.2-0.1l-0.3-0.1l-0.2-0.1l-0.2-0.1l-0.2,0l-0.1,0l-0.1,0H236l-0.1,0l-0.2,0l-0.1,0h-0.4l-0.2,0l-0.3,0l-0.2,0l-0.3,0h-0.2
				l-0.1,0l-0.1,0l0,0l-0.1,0l-0.1,0l-0.2,0l-0.1,0l-0.1,0l-0.1,0l-0.1,0l-0.1,0l-0.2,0l-0.2,0l-0.3-0.1l-0.2,0l-0.3-0.1l-0.1,0
				l-0.1,0l0,0l-0.1,0l-0.1,0l-0.1,0l-0.1,0l-0.2,0l-0.2,0l-0.2,0l-0.2,0h-0.1l0,0l-0.1,0l0,0l-0.1,0l-0.1,0l-0.1,0l0,0l-0.1-0.1
				l-0.1,0l-0.2-0.1l-0.2-0.1l-0.1,0l-0.2,0l-0.3,0l-0.1,0l0,0l-0.1,0l-0.1,0l-0.1,0l-0.2-0.1l-0.2,0l-0.1,0l-0.1,0l-0.2,0l-0.1-0.1
				l-0.1,0v0l0.1,0l0.1,0l0.1,0l0.1,0l0-0.1l-0.1,0l-0.1,0l-0.1,0l-0.1,0l0,0l-0.1,0l0,0l0,0l0,0l-0.1,0l-0.1,0l0,0l0,0l0,0.1l0,0
				l-0.1,0l-0.1,0l-0.2,0l-0.2,0l-0.2,0l-0.1,0l-0.1,0l0,0l0,0l0,0l0,0l-0.1,0l0,0v0.1l0,0l-0.1,0l0,0h-0.1l-0.2,0l-0.1,0l0.3,0h0.1
				l0.1,0l0.1,0h0.1l0.1,0l0.1,0l0.1,0l0.2,0l0.1,0l0.1,0l0.1,0h0.1l0.1,0h0l0.1,0h0.1l0.1,0l0,0v0h-0.2l0,0l-0.1,0l-0.1,0.1l-0.1,0
				l-0.2,0l-0.2,0l-0.3,0l-0.1,0l-0.3-0.1l-0.2-0.1l-0.1,0l-0.2-0.1l-0.3-0.1l-0.2-0.1l-0.1,0l-0.4-0.2l-0.2-0.1l-0.2-0.1l-0.2-0.1
				l-0.2,0l-0.2,0l-0.1,0l-0.2,0h-0.1l0,0l0,0l0,0l0.2,0l0,0l-0.1,0l0,0l-0.1,0l-0.1,0l0,0.1v0l0,0.1l0,0l-0.1,0l-0.1,0l-0.1-0.1
				l-0.1-0.1l-0.1-0.1v-0.1l0,0l0.1-0.1l0-0.1l0,0l0,0l-0.1,0l0,0l0,0.1l-0.1,0l-0.2-0.1l-0.1-0.1l-0.2-0.2l-0.3-0.3l-0.1-0.2
				l-0.1-0.1l-0.1-0.1l-0.1-0.1l-0.1-0.1l-0.2-0.2l-0.1-0.2l0-0.1l0-0.1l0-0.1l0,0l0-0.1l0,0l0,0v0l0,0v0.1l0,0l0,0l0.1,0V199
				l-0.2-0.1h-0.1l-0.1,0l0-0.1l-0.1-0.1l0-0.1l-0.2-0.1l-0.1-0.1l-0.1,0l-0.2,0h-0.2l-0.1,0l-0.1,0l-0.3,0l-0.2,0l-0.1,0l-0.2,0
				l-0.1,0l-0.2,0l-0.1,0l-0.2,0l-0.1,0l-0.2-0.1l-0.1-0.1l-0.1-0.1l-0.1,0l-0.2-0.1l-0.1-0.1l-0.2-0.1l-0.3-0.1l-0.2-0.1l-0.1,0
				l-0.1,0h-0.1l-0.2,0l-0.2,0l-0.1,0h-0.1l-0.1,0l-0.1,0l-0.1-0.1l-0.1-0.1l-0.1-0.1l-0.1-0.1l-0.1-0.1l-0.1,0l-0.1,0l-0.1,0
				l-0.1-0.1l-0.2-0.1l-0.2-0.1l-0.1-0.1l-0.1-0.1l-0.1,0l0,0h-0.1l-0.1,0l-0.1,0l-0.1,0l-0.2-0.1l-0.1-0.1l-0.1-0.1l-0.1,0
				l-0.1-0.1l-0.2,0l-0.2,0l-0.1,0h-0.1l-0.1,0h-0.2l-0.1,0l0,0l0,0l0,0l0-0.1l0-0.1l-0.1,0l-0.1,0l-0.1,0l0,0l-0.1,0l-0.1,0h-0.2
				l-0.2,0l-0.2,0l-0.2,0l-0.1,0l-0.1,0l-0.2,0l-0.1-0.1l-0.1,0l-0.1,0l-0.1,0l-0.1,0l-0.1-0.1l0,0l-0.1,0l-0.1,0l-0.1,0l-0.2,0
				l-0.1-0.1l-0.2-0.1l0,0l-0.1-0.1h-0.3l-0.1,0l0,0H207l-0.3,0l-0.2,0l-0.2,0l-0.2,0H206l-0.1,0l-0.1,0l-0.2,0h-0.3l-0.2,0h-0.1
				l-0.2,0l-0.2,0l-0.1,0h-0.1l-0.1,0l-0.1,0h-0.1l-0.2,0l-0.1,0l-0.2,0l-0.3,0l-0.2,0l-0.2,0l-0.4,0.1l-0.2,0.1l-0.1,0.1v0l0,0l0,0
				l0,0l-0.1,0l-0.1,0l-0.1,0l-0.1,0l-0.1,0.1l-0.1,0l-0.1,0l-0.2,0l-0.1,0h-0.4l-0.1,0l-0.1,0l-0.1,0l-0.1,0l-0.1,0l-0.2,0l0,0l0,0
				l-0.1,0h-0.2l-0.1,0l0,0l0,0l-0.1,0l-0.1-0.1l-0.1,0l-0.1,0l-0.2,0l-0.4-0.1l-0.1,0l-0.2,0l-0.4,0l-0.1,0l-0.1,0h-0.1l-0.1,0
				l-0.2,0h-0.1l-0.1,0l-0.3,0l-0.2,0l-0.1,0l0,0l-0.1,0h0l-0.1,0l-0.2,0.1v0l0,0.1l-0.1,0l-0.1,0l-0.2,0l-0.1,0l-0.1,0l-0.1,0
				l-0.3,0l-0.2,0h-0.1l-0.1,0l0,0l-0.1,0l0,0l0,0l-0.1-0.1l0-0.1l0,0l-0.1,0l-0.1,0l-0.1,0l-0.1,0l-0.1,0l-0.1,0l-0.1,0l-0.1,0
				l-0.2-0.1l-0.2-0.1l-0.2,0l-0.1,0h-0.1l-0.2,0h-0.1l-0.1,0h-0.1l-0.2,0h-0.1l-0.2,0l-0.2,0l-0.3-0.1l-0.3-0.1l-0.2-0.1l-0.1,0
				l0,0l-0.1,0h-0.1l-0.1,0h-0.1l-0.1,0l-0.1,0l-0.1-0.1l-0.1,0l-0.1,0l-0.1,0l0,0l-0.1,0h-0.1l-0.1,0l-0.1,0h-0.2l-0.2,0H189
				l-0.1,0l-0.1,0l-0.1,0l-0.1,0l-0.1,0l-0.1,0l-0.2,0l-0.2,0l-0.1,0l-0.1,0l-0.1,0l-0.2,0l0,0h-0.1l-0.1,0l-0.1,0l-0.1,0h-0.1
				l-0.1,0l-0.2,0l-0.2,0h-0.2l-0.1,0l-0.2-0.1l-0.3-0.1l-0.1,0l-0.2,0l-0.4,0l-0.4,0l-0.2,0l-0.3,0l-0.2,0h-0.2l-0.2,0l-0.1,0h-0.2
				l-0.2,0h-0.2l-0.1,0h-0.1l-0.1,0l-0.1,0H182l-0.2,0h-0.4l-0.2,0l-0.2,0l0,0l-0.2,0l-0.2,0h-0.2l-0.3,0l-0.2,0l-0.2,0h0l-0.2,0
				l-0.1,0l-0.2,0h-0.1l-0.1,0h0l-0.1,0l-0.2,0l-0.2,0l0,0l-0.1,0l-0.1,0l-0.1,0L178,194l-0.1,0l0,0l-0.1,0l-0.1,0l-0.2,0l-0.2,0
				l-0.3,0l-0.3,0l-0.1,0l-0.2,0l-0.1,0l-0.1,0h-0.1l-0.1,0h-0.1l-0.1,0h-0.1l-0.2,0l-0.2,0H175l-0.2,0l-0.2,0l-0.3,0l-0.3,0l-0.3,0
				l-0.2,0l-0.2,0l-0.2,0l-0.1,0l-0.1,0l-0.1,0l-0.2,0h-0.2l-0.2,0l-0.2,0l-0.2,0l0,0l0,0.1l-0.1,0l0,0h0l0,0h0l-0.1-0.1l0,0l0,0
				l-0.1,0l-0.1,0h-0.1l-0.1,0l0-0.1l0-0.1l0-0.1l0-0.1v-0.1l-0.1-0.1l0-0.1l-0.1-0.1l-0.1-0.1l-0.1-0.1l-0.1-0.1l-0.1-0.1l0,0
				l-0.1-0.1l-0.1,0l-0.1,0l0,0l0-0.1l-0.1-0.1l-0.1-0.1l-0.2-0.1l-0.1-0.1l-0.2-0.1l-0.2-0.1l-0.3-0.1l-0.3-0.1l-0.3,0l-0.2,0
				l-0.3-0.1l-0.1,0l-0.2-0.1l-0.1-0.1l-0.1,0l-0.1,0l-0.1,0l0,0l-0.2-0.1h-0.1l-0.2,0h-0.3l-0.2,0l-0.2,0l-0.2,0h-0.1l-0.1,0l0,0
				l0,0l-0.1,0l-0.2,0l-0.2,0h0l-0.1,0l0,0l-0.1,0l0,0l-0.1-0.1l0,0l0,0h-0.1l-0.1,0l0,0l-0.1,0l0,0l0,0l0,0v-0.1l0,0l0,0l0,0
				l-0.1,0l0-0.1l-0.1,0h0l-0.1,0h-0.1l0,0l0,0l0.1,0l0,0l0.1,0v-0.1l0-0.1l0,0l0.1,0l0,0l0,0l0,0V191l0,0l0-0.1v0l0.1,0l0.1-0.1
				l0,0l0.1-0.1l0.1-0.1l0.1-0.1l0.1-0.1l0.2-0.2l0.1-0.1l0.1-0.2l0.2-0.2l0.1-0.2l0.1-0.1l0.1-0.2l0.1-0.2l0.1-0.1l0-0.1l0-0.1
				l0-0.1l0,0l0-0.1l0-0.1l-0.1,0l-0.1-0.1l0,0l0,0l0-0.1l-0.1-0.1l0,0l-0.1-0.1l-0.1-0.1l-0.1-0.1l-0.1,0l-0.1,0H165l0,0l0-0.1l0,0
				l0-0.1v-0.1l0-0.1v-0.1l-0.1,0l-0.1,0l-0.1,0l0-0.1v0l0-0.1l0.1-0.1l0.1-0.1l0.1-0.1l0.1-0.1l0.2-0.2l0.1-0.2l0.1-0.2l0-0.1
				l0.1-0.2l0.1-0.3l0.1-0.1l0-0.1v0l0-0.1v-0.1l0-0.1l-0.1-0.1l-0.2-0.1l-0.2-0.1l-0.1-0.1l-0.1,0l-0.1,0l-0.1,0l-0.1,0l-0.1,0v0
				l0-0.1l0-0.1l0,0l-0.1,0l0-0.1l0,0l-0.1-0.1l-0.1,0l-0.1,0l-0.3,0h-0.1l-0.1,0l-0.1,0l-0.1,0h-0.1v0l0-0.1l0-0.1l0.1-0.1l0.1-0.2
				l0-0.1v0l-0.1,0l0,0v0l0.1-0.1l0.1-0.1l0.1-0.2l0.1-0.2l0.2-0.3l0.1-0.1l0.2-0.2l0.1-0.2l0.1-0.2l0.1-0.3l0-0.2l0.1-0.3l0-0.2
				l0.1-0.2l0-0.2l0-0.1l0-0.2l0-0.1l0-0.1l0-0.2l0-0.2v-0.1l0-0.1l-0.1-0.3l0-0.1l-0.1-0.2l-0.1-0.1l-0.2-0.1l-0.2-0.1l-0.1-0.1
				l-0.1-0.1l-0.2,0l-0.1,0h-0.2l-0.2,0h-0.1l-0.1,0l-0.1-0.1l0,0l-0.1,0l0,0l-0.1,0l-0.1,0l-0.1-0.1l-0.1-0.1l-0.2-0.1l-0.1-0.1
				l-0.5-0.1h-0.2l-0.1,0l-0.1,0l-0.1,0h-0.1l-0.1-0.1l-0.1,0l-0.4,0l-0.2,0l-0.2,0l-0.1,0l-0.1,0l-0.1,0.1l0,0.1v0l0,0l0,0l0,0l0,0
				l-0.1,0l-0.1,0l-0.1,0l-0.2,0l0,0l-0.2-0.1l-0.2-0.1L159,178l-0.1-0.1l-0.2-0.1l-0.1,0l-0.1,0l-0.2,0l0,0l-0.1,0l-0.1-0.1l-0.1,0
				l-0.1,0l-0.1,0l-0.1,0l-0.1,0l-0.2-0.1l-0.1-0.1l-0.2,0l-0.1,0l-0.1,0l-0.1,0l-0.2,0l-0.1,0l-0.2-0.1l-0.1,0l-0.1,0l0,0l0,0h-0.1
				l-0.1,0l0,0l0,0l-0.2,0l0-0.1l0,0l0,0l0,0l-0.1-0.1l-0.3-0.1l-0.1-0.1l-0.1-0.1l-0.4-0.2l-0.3-0.1l-0.2-0.1l0.1-0.1v0l-0.2-0.1
				l0.1,0l0,0l0-0.1l0-0.1v-0.1l0,0l0,0l0.1,0l0.1-0.1l0-0.1l0,0l0.1-0.1l0.1-0.1l0.2-0.2l0.2-0.2l0.1-0.1l0.1-0.1l0.1-0.1l0.1-0.1
				l0.1-0.1l0-0.1l0-0.1l0-0.2l0-0.1l0-0.2l0-0.1l0,0l0-0.1l0.1,0l0.1,0l0,0.1l0,0.1l0,0.1l0,0l0,0.1l0.1,0.2l-0.1,0.1l0,0.1
				l-0.1,0.1l0,0.2l-0.1,0.1l-0.1,0.2l0,0.1l0.1-0.1l0.2,0l0.2,0l0.1-0.1l0.2,0l0.1,0v0l-0.1,0l-0.1,0l0-0.1l0.1,0l0.2,0l0.1,0
				l0.2-0.1l0.1,0l-0.1,0l-0.1,0l-0.2,0l-0.1,0l-0.1,0l0,0h0.1l0,0l-0.1,0l0-0.1l-0.1-0.2l-0.1-0.1l0-0.1l-0.1-0.1l-0.1-0.1l-0.1,0
				l-0.2,0.1l-0.2,0.1l0,0v0l0.1,0l0.1,0l0,0v-0.1l0,0l0-0.1v-0.1l0-0.1l-0.1-0.1l-0.1-0.2l-0.1-0.1l-0.1-0.1l-0.1-0.1l-0.1-0.1
				l-0.1-0.1l-0.1-0.1l-0.1-0.1l-0.2-0.1l-0.2-0.1l-0.1,0h-0.2l-0.1,0l0,0h0l0,0l-0.1,0h-0.4l-0.1,0H153l-0.2,0l-0.1,0l-0.1,0
				l-0.1,0l-0.1,0l0,0l-0.1,0v0l0,0l0,0l-0.1,0l-0.2,0l-0.1,0l-0.1,0l-0.1,0l0-0.1l-0.3,0l-0.2,0l-0.2,0l-0.1,0l-0.1,0l0,0l-0.1,0
				l-0.1,0l-0.1,0l-0.1,0l-0.1,0h-0.1l-0.1,0l-0.1,0l0-0.1l-0.1-0.1l-0.1-0.1l-0.1-0.1l-0.2-0.1l0-0.1l-0.1,0l-0.2-0.1l-0.2,0
				l-0.1-0.1l0,0l-0.1,0l0,0l-0.1,0l-0.1-0.1l-0.1-0.1l-0.1,0l-0.1-0.1h-0.1l-0.2-0.1l0-0.1l-0.1-0.1l-0.3-0.2l-0.1-0.1l-0.4-0.2
				l-0.1,0l-0.1-0.1l-0.1-0.1l-0.2-0.1l-0.2-0.1l-0.1-0.1l0-0.1l-0.1,0l-0.1-0.1L146,169l-0.1-0.1l0-0.1l-0.1-0.1l-0.2-0.1l-0.1-0.1
				l-0.1-0.2l-0.1-0.1l-0.2-0.1l-0.1,0l-0.1-0.1l-0.2-0.1l-0.1-0.1l0,0l0-0.1l-0.1,0l-0.1-0.1l0,0l-0.1-0.1l-0.2-0.2l-0.3-0.1
				l-0.1,0l-0.2,0l-0.2,0h-0.1l-0.1,0l-0.2,0l0,0.1l0.1,0.1h-0.1l-0.2-0.1l-0.1-0.1l-0.2,0l0,0l-0.1-0.1l0-0.1l0,0l-0.2-0.1l-0.4,0
				l-0.2,0l-0.2,0H141l-0.1,0l-0.1,0l-0.2-0.1l-0.2-0.1l-0.2-0.1l-0.1,0l-0.1,0l-0.1,0v0l-0.1,0l-0.1,0l-0.1,0l-0.1,0l-0.1,0l0,0
				l-0.1,0l0,0l0-0.1l0-0.1l-0.1-0.1l-0.1,0l0,0l0,0v-0.1l-0.1-0.1l-0.1-0.1l-0.1-0.1l-0.1-0.1l-0.2-0.1l-0.1-0.1l-0.1-0.1l0,0
				l-0.1,0l-0.1,0l0,0l0,0l0.1-0.1l0-0.1l0-0.1l-0.1-0.1l0,0l0-0.1l0-0.1l-0.1-0.1v0l0.1-0.1l0,0v0l0-0.1l0,0l0,0l0,0h-0.1l-0.1,0
				l0,0l0,0l0,0l0.1,0v-0.1l-0.1-0.1l-0.1-0.1l0,0l0,0l0,0l0-0.1l0,0l-0.1,0l-0.1,0L137,164l0,0l-0.1-0.1l-0.1,0l-0.1,0l-0.1-0.1
				l-0.1,0l-0.1,0l0,0l-0.1,0l-0.1,0l0,0l0,0l-0.1,0l0,0l-0.1,0l0,0l-0.1,0l-0.1,0v0l0,0l-0.1,0l-0.2-0.1l-0.2-0.1l-0.1,0l-0.1-0.1
				l-0.1-0.1l-0.1-0.1l-0.1-0.1l-0.1-0.1l0-0.1l-0.1-0.1v0l0-0.1l-0.1-0.1l0-0.1l-0.1,0l0,0l-0.1,0l-0.1,0l-0.1,0l-0.1,0l-0.1,0
				l-0.1,0l0,0l-0.1-0.1l-0.1,0l-0.1,0h-0.1l0,0l0,0l-0.1,0h-0.1l0,0l0,0l-0.1-0.1l-0.1,0l-0.1-0.1l-0.1,0l-0.1,0l-0.1,0l0,0l0,0
				l0,0v0l0,0l0-0.1l0,0l0,0l0,0l0,0v0l0-0.1v0l-0.1,0l-0.1-0.1l-0.1-0.1l0,0l0-0.1l0-0.1l0,0l0.1,0l0,0l0,0v0l0,0l0,0l-0.2,0v-0.1
				l0,0v-0.1l0,0l-0.1-0.1l0-0.1l0,0l0-0.1l-0.1,0l0,0v-0.1l0-0.1l0-0.1l0-0.1l0-0.1l-0.1-0.1l-0.1-0.1l0-0.1l-0.1-0.1l-0.1,0l0-0.1
				l0-0.1l-0.1-0.1l-0.1-0.1l-0.1-0.1l-0.1-0.1l-0.2,0l-0.1,0l-0.1,0l-0.1,0l-0.1,0l0,0l-0.1,0l-0.2-0.1l-0.1,0l-0.1,0h-0.1l-0.2,0
				l-0.1,0l-0.1-0.1l-0.1,0l-0.2,0l-0.2,0h-0.1l-0.1,0l-0.1,0h-0.1l-0.1,0l-0.1,0l-0.1,0l0,0l-0.1-0.1l-0.1-0.1l-0.1-0.1l-0.1-0.1
				l-0.1-0.1l-0.1-0.1l-0.1,0l-0.1,0l0,0v0l0,0l0,0v0l0,0l0,0l-0.1,0v-0.1l0-0.1l-0.1,0l-0.1-0.1l-0.1,0l-0.1,0l-0.1,0l0-0.1l-0.1,0
				l-0.1-0.1l0,0l0,0l0,0l-0.1,0l0,0v0l-0.1-0.1l0,0l0,0l0-0.1l0-0.1l0-0.1l0,0l-0.1-0.1l0,0l0,0l0,0l-0.1-0.1l-0.1-0.1l0,0v0l0,0
				l0,0l-0.1,0l-0.2,0l-0.2-0.1l-0.1-0.1l-0.1,0l-0.1-0.1l-0.1-0.1l0,0l0-0.1l-0.1-0.1l-0.1-0.1l-0.1-0.1l-0.1,0l-0.1-0.1l-0.1-0.1
				l-0.1,0l-0.1-0.1l-0.1-0.1l0,0l-0.1-0.1l-0.1,0l-0.1,0l-0.1,0l0,0l-0.1,0l-0.3-0.1l-0.1-0.1l-0.1-0.1l-0.2-0.1l-0.1-0.1l0,0
				l-0.1,0l-0.1,0l-0.1-0.1l0,0l0,0l-0.1,0l-0.1,0h-0.1l-0.1,0l-0.1,0l-0.1,0v0l-0.1,0l-0.1,0l-0.1,0h0l0,0v0l-0.1,0l-0.1,0l-0.1,0
				l0,0l-0.1,0H121l-0.1,0l-0.1-0.1l-0.2-0.1l-0.2-0.1l-0.1,0l-0.1,0l-0.1,0l-0.1,0l-0.1,0h-0.1l-0.1,0l-0.1-0.1l-0.1,0l-0.1,0
				l-0.1,0l-0.1,0l-0.1,0l-0.1,0l-0.1,0l0,0h0l-0.1,0l0,0l-0.1,0l0,0l0,0l0,0l-0.1,0l0,0l-0.1,0l-0.1,0h0l0,0l0,0l0,0l0,0l0,0l0,0
				l-0.1,0l0,0v0l0-0.1l0,0l-0.1-0.1l-0.1-0.1l-0.2-0.2l-0.1-0.1l-0.1-0.1l-0.1,0l-0.1,0l-0.1,0l0,0h-0.2l-0.1-0.1l-0.1,0l-0.1,0
				l-0.2,0l0,0l0,0v0l0,0l-0.1,0h0l0,0l-0.1,0l0-0.1l0,0l-0.1,0l-0.2,0l-0.1,0l-0.1,0l-0.1,0l-0.1,0l-0.1-0.1l0,0l0.2,0l0-0.1
				l0.1-0.1l0-0.1v-0.1l0-0.1v-0.1l0,0l0,0v-0.1l0,0v-0.1l0-0.1l0-0.1l-0.1,0l-0.1,0l-0.2-0.1l0,0l-0.1-0.1v0l0.1,0l0,0l0,0v0
				l0.1-0.1v-0.1l0,0l0,0l0,0v0l0-0.1v0l0.1-0.1l0-0.1v0l0-0.1l0,0v-0.1l-0.1-0.1l0,0l0,0l-0.1,0l0,0h0l0,0l0,0l0,0l0-0.1v0l0-0.1
				l0-0.1l0-0.1v0l0-0.1l0,0l0-0.1l0-0.1l-0.1-0.1l-0.1,0l-0.1-0.1l0-0.1l-0.1-0.1l-0.1-0.1l0-0.1l0,0l0,0v0l0,0l0,0l0,0l0,0v-0.1
				l0-0.1l-0.1-0.1l-0.1-0.1l0-0.1l-0.1,0l0-0.1v-0.1l0,0l0-0.1v0l0-0.1l0,0l0,0l0,0l0,0v0l0,0l0.1,0l0.1,0l0.1,0v0l0,0l0-0.1l0-0.1
				l0,0l0,0l-0.1,0v0l0,0l0,0l0,0h-0.1l0,0l0,0l-0.1,0l0,0l-0.1,0v0l0,0l0,0l0,0l0,0h0l0,0h0.1l0.1,0h0.1l0,0l0.2,0h0.1l0,0l0.1,0
				l0.1,0l0.1,0l0.1,0l0,0l0-0.1l0-0.1l0-0.1l0,0l0-0.1l-0.1,0l0,0l0,0l0-0.1l0,0l0,0l0-0.1l0,0l-0.1-0.2l0-0.1l-0.1,0l0,0l-0.1,0h0
				l0,0l0,0v0l0,0l0,0h-0.1l0,0l0,0l0,0l-0.1,0l0,0l-0.1,0.1l-0.1,0l-0.1,0l-0.2-0.1l-0.1,0l-0.1,0l-0.1,0l0,0l-0.1-0.1l-0.1-0.1
				l0,0l0-0.1l0,0l0.1,0h0.1l0,0h0.2l0.1,0l0,0l0-0.1l0-0.1l0-0.1l0,0v-0.1l0-0.1l0.1-0.1l0.1-0.1l0,0h0.1l0.1,0h0.1l0.1,0l0.1,0
				l0.1-0.1l0-0.1l0-0.1l0,0v0l0,0l0.1,0h0l0,0v-0.1l0,0v0l0.1,0l0,0h0.2l0.2,0l0.1,0l0.1,0l0,0l0.1,0.1l0.2,0l0.1,0l0.1,0.1
				l0.2,0.1l0,0l0.1,0.1l0.1,0.1l0,0.1l0.1,0.1l0,0.1l0.1,0l0.1,0l0.2,0l0.2,0l0.1,0l0.2-0.1l0.1,0l0.2-0.1l0.1,0l0.1,0l0.1-0.1
				l0.2-0.1l0.2-0.2l0.1,0l0.2-0.2l0.2-0.2l0.2-0.1l0.1-0.1l0.1-0.1l0.2-0.2l0-0.1l0.1-0.1l0.1-0.1l0,0l0-0.1l0-0.1l0.1-0.1l0-0.1
				l0-0.1l0.1-0.2l0-0.2l0-0.1v-0.1l0-0.1v-0.1l0-0.1v-0.1l0.1,0l0,0l0.1,0.1h0.1l0,0v0l-0.1-0.1l0,0v0l0-0.1v0l0,0l0,0l0.1-0.1l0,0
				l0,0v-0.1l0-0.1l0.1-0.1l0-0.1l0.1-0.2l0.1-0.1l0.1-0.1l0-0.1l0-0.1l0.1,0l0.1,0l0.1,0h0.1l0.1,0l0.2,0l0.1,0v-0.1l-0.1,0l-0.1,0
				l-0.2,0l-0.1,0l-0.1,0l-0.1,0v0l0-0.1l0-0.1l-0.1-0.1l0-0.1l-0.1-0.1l-0.1-0.1l-0.1-0.1l-0.1-0.1l-0.1-0.1l0-0.1l0,0l0,0l0,0l0,0
				v0l-0.1,0l-0.1,0l0,0l0,0l0,0l-0.1-0.1l-0.1-0.1l-0.1-0.1l-0.1-0.1l0-0.1l-0.2-0.2l-0.2-0.2l-0.1-0.1l-0.1-0.1l-0.1-0.1l-0.1-0.1
				l-0.1-0.1l-0.1-0.1l-0.2-0.2l-0.2-0.2l-0.4-0.3l-0.2-0.1l-0.3-0.2l-0.2-0.1l-0.2-0.1l-0.2-0.1l-0.2-0.1l-0.3-0.1l-0.2-0.1l-0.1,0
				l-0.1,0l0,0l-0.1,0l-0.1,0l-0.1,0l-0.1,0l-0.1,0l-0.1,0l-0.1,0l-0.1,0l-0.1,0l-0.1,0l-0.1,0l0,0l-0.1,0.1l0,0l-0.1,0.1l-0.1,0
				l-0.1,0l0,0l-0.1,0l-0.1,0h-0.1l-0.1,0l-0.1,0l0,0l-0.1-0.1l-0.1,0l-0.1,0l-0.2,0l-0.2,0l-0.2,0l-0.1,0l-0.1,0l-0.3,0l-0.3,0.1
				l-0.1,0.1v0l0,0.1l0,0h-0.2l-0.1,0l-0.1,0l-0.1,0l-0.1,0l-0.1,0l-0.1,0l-0.3,0h-0.1l-0.1,0l0,0l-0.1,0h-0.1l0,0l-0.1,0l-0.1,0h0
				l-0.1,0l-0.1,0l-0.1,0l-0.1,0l-0.1,0l-0.1,0h-0.1l-0.1,0l-0.1,0l0,0l-0.1,0l-0.2,0l-0.1,0l-0.2,0l-0.1,0l-0.1,0l-0.1,0l-0.1,0
				l0,0h0l0,0l0,0l0,0l-0.1,0l0,0l0,0h-0.1l-0.1,0l-0.1,0l-0.1,0h0l0,0l0,0l-0.1-0.1l-0.1,0l-0.1,0l-0.1,0l-0.1,0l-0.1,0l-0.1,0
				l-0.1,0l0,0l0,0l0,0l0,0l0,0l-0.1,0l-0.1,0l-0.1,0l-0.2,0l-0.1-0.1l-0.1-0.1l-0.3-0.1l-0.2-0.1l-0.1-0.1l-0.2-0.1l-0.1,0l-0.1,0
				l0,0l-0.1,0l0,0l-0.1,0h0l0,0l-0.1,0v0l0,0l0,0l0,0l-0.1-0.1l0,0l0,0l0,0h-0.1l-0.1,0l0-0.1l0-0.1l0-0.1l0-0.1l0-0.1l0-0.1
				l-0.1,0l-0.1,0l-0.1,0l-0.1-0.1l-0.1-0.1l-0.1-0.1l0-0.1l-0.1,0l-0.1,0l-0.1-0.1l0,0l0,0l0,0v0l0,0l0,0l-0.1,0l0-0.1l0,0l0,0
				l-0.1,0l0,0l-0.1,0l0-0.1l0,0l0,0l0,0l-0.1,0l0,0l-0.1,0l0,0l0-0.1l-0.1-0.1l-0.1-0.1l-0.1,0l-0.1-0.1l-0.2-0.1l-0.2-0.1
				l-0.2-0.1l-0.4-0.1l-0.2,0l-0.1,0l-0.1,0l-0.1,0l-0.1,0l0,0l-0.1,0l0-0.1l0,0l-0.1,0H99l0,0l0,0v-0.1l0,0l0,0l0-0.1v-0.1l0,0
				l0-0.1l-0.1-0.1l0,0v0l0,0l-0.1,0l-0.1,0h-0.1l0,0l-0.1,0l-0.1,0l-0.1,0l0,0l0,0l0,0l0,0l0,0l0-0.1l0-0.1l-0.1-0.1l0-0.1l-0.1,0
				l0,0l-0.1,0l-0.1,0l-0.1-0.1l-0.2-0.1l0,0h-0.1l-0.1,0h0l-0.1,0l0,0l0,0h0l-0.1,0l0,0l-0.1-0.1l0-0.1l-0.2-0.1l0-0.1l-0.1,0l0,0
				l0,0v-0.1l0-0.1l0-0.1l0,0l0,0v0l0,0l0.1,0v-0.1l-0.1-0.1l0-0.1l-0.1-0.1l-0.1,0l-0.1-0.1l0-0.1l0-0.1l0-0.1l0.1-0.2l0,0l0.1-0.1
				l0-0.1l0.1-0.1l0-0.1v0l0,0l0-0.1l0,0l0,0l0-0.1l0-0.1l0-0.2l0-0.1l0-0.1l0-0.1l0,0v-0.1l0-0.1l0.1-0.1l0-0.1l0,0l0-0.1l0-0.1
				l0-0.1l0.1-0.1l0-0.1l0,0l0-0.1v-0.1l0-0.1l0-0.1l0-0.1l0-0.1l0-0.1l0,0l0-0.1l-0.1,0l-0.1,0l-0.1-0.1l0-0.1l0-0.1l0,0l0-0.1l0,0
				l-0.1,0l0,0l0,0l0,0l0,0l0-0.1v0l-0.1,0l0,0l0,0l0,0v0l0,0l0-0.1v-0.1l0,0l0-0.1l-0.1,0l-0.1,0v0l0-0.1l0-0.1l0,0l-0.1,0l0,0
				l0-0.1l0-0.1l0-0.1l0,0l0,0l-0.1-0.1l0-0.1l-0.1-0.1l-0.1,0l0-0.1v-0.1l0-0.1v-0.1l0-0.1l0-0.2l0-0.2l0-0.1l0-0.1l-0.1-0.1
				l-0.2-0.2l-0.1-0.1l-0.2-0.1l-0.2-0.1l-0.2,0l-0.2-0.1l-0.2,0l-0.1,0l-0.1,0l-0.1,0.1l0,0v0.1l0,0l0,0l0,0v-0.1l0-0.1l0,0
				l-0.1-0.1l-0.1,0l-0.1,0l-0.1-0.1l-0.1-0.1l-0.1,0v-0.1l0,0l0-0.1l0,0l0,0v0l0,0v0l0.1,0l0,0l0-0.1l0,0l0,0l0-0.1l0-0.1l0-0.1
				v-0.1l0,0l0,0l0,0l0,0l0,0l0,0l0,0l-0.1,0v0l0,0v0l0,0l0,0v0l0,0l0,0l0,0l0,0v-0.1l0-0.1v0l0,0l-0.1-0.1l0.1-0.1l0.1,0l0.1,0l0,0
				l0.1,0l0,0l0,0H93l0.1,0l0.1,0l0,0l0.1,0l0-0.1l0-0.1v0l0,0l0.1,0v0l0-0.1l0-0.1l0-0.1l0,0l0.1,0l0,0l0-0.1l0-0.2l0-0.2l0-0.1
				v-0.1l0-0.1l0-0.1l0-0.1l0,0l0-0.1v-0.1l0-0.1l0-0.1l0-0.1l-0.1-0.1l-0.1-0.2l0-0.1l0-0.1V120l-0.1-0.1l0-0.2l0-0.2v-0.1l0-0.1
				l0-0.1l0-0.1l0-0.1l0-0.1v-0.2l0-0.1l-0.1-0.1l0-0.1l0.1-0.1l0.1,0l0.1-0.1l0.2,0l0.2,0l0.1,0l0.2,0l0.1,0l0.1-0.1l0.1-0.1l0-0.1
				l0-0.1l0.1-0.1v0l0-0.1l0,0l0.1,0h0l0,0l0.2,0l0.2,0.1l0.1,0h0.2l0.2,0l0.4,0l0.1,0h0.2l0.1,0l0.1,0l0,0h0.1l0.1,0h0.1l0.1,0
				l0.1,0l0.2,0l0.2,0l0.1,0l0.2,0l0.1,0.1l0.1,0l0.1,0l0.2,0.2l0.1,0.1l0.1,0.1l0.1,0.5L98,119v0l0,0.1v0l0,0l0.1,0v0l-0.1,0.1
				l-0.1,0l0,0l0.1,0l0,0l0,0l0,0.1l0.1,0l0,0.1l0,0.1l0,0l0,0.1l0.2,0l0.1,0l0.1,0l0.1,0l0.2,0.1l0,0l-0.1,0.1l-0.1,0.1v0.1
				l-0.1,0.1h-0.1l-0.1,0l-0.1,0l-0.1,0l-0.1,0l0-0.1l0-0.1l0,0l-0.1,0l-0.1,0.1l-0.1,0h-0.1l0,0v0.1l-0.1,0l0.1,0.1l0,0l-0.1,0
				l-0.1,0v0l0,0.2l0,0.1l0.1,0.1l0.1,0.2l0,0.1l-0.1,0.1v0l-0.1,0.1l-0.1,0.1l0,0l0.2-0.1l0,0l-0.1,0l0,0.1l0,0.1l0.1,0l0.1,0v0
				l-0.1,0.1l-0.2,0l-0.1,0l-0.1,0l0,0.1v0.1l0,0.1l-0.1,0l0,0l0,0l0.1,0l0.2,0l0.1,0.1l0.1,0.1l0.1,0.1l0.1,0l0.1,0l0.1,0l0.1,0
				l0,0l0,0l0,0.1l0.1,0v0l-0.1,0.1l-0.1,0l-0.1,0l-0.1,0l-0.1,0.1l0.1,0.1l0.1,0l0.1,0.1l0,0l0.1,0l0.2,0.1l0.2,0.1l0.2,0l0.3,0
				l0.3,0l0.2,0l0.2,0l0.1,0l0.1,0.1l0,0.1l0.1,0.1l0.1,0l0.1,0l0.1,0.1l0.2,0l0.1,0l0.1,0l0.1,0l0,0l0,0.1l0.2,0l0,0l0.1,0l0,0l0,0
				l-0.1,0l-0.1,0v0l0.1,0h0.2l0.3,0l0.2,0l0.1,0l0.1,0l0.1,0l0.1,0l0.2,0.1l0.1,0l0.1,0.1l0.1,0.1l0,0.1v0.1l-0.2,0l-0.1,0.1l0,0.1
				v0.1l0,0.1l0.1,0l0.1-0.1l0-0.1l0,0l0.1-0.1l0.1-0.1l0.1,0l0.1,0h0.1l0.2,0l0.1,0l0.1,0l0.1,0.1l-0.1,0.1l-0.1,0.1l-0.1,0.1
				l0.1,0l0.1,0l0.1-0.1l0.1,0l0.1,0l0.1,0l0.1,0l0.2,0l0.1,0l0.1,0l0.1,0l0.1,0.1l0.1,0.1l0,0.1l-0.2,0.1l-0.2,0.1l-0.1,0l0,0.1v0
				l-0.1,0.1l-0.1,0.1v0.1l0.1,0l0.1-0.1l0,0l0.2,0h0.1l0.1,0l0.1,0l0.2,0l-0.1-0.1h-0.2l-0.2,0l-0.1,0l0.1-0.1l0.1,0l0.2,0l0.1,0.1
				l0.1,0h0.1l0.1,0v0l0.1,0l0,0.1l0,0.1l0.1,0.1l0.2,0.1l0.1,0l0,0.1l0.1,0l0.1,0l0.1,0l0.1,0l0,0l0,0.1l0.1,0.1l0.1,0l0.1,0l0.1,0
				l0.1,0v0h-0.1l-0.2,0l0,0l0.1,0l0,0l0,0v0l0,0l0.1,0l0.1-0.1l0.2,0l0.1,0l0.2,0l0.1,0l0.1,0.1l0.1,0.1l0,0l0,0.1l0,0.1l0,0.2
				l0,0.2l0.1,0.1l0,0.1l0.1,0l0.1,0.1l0.3,0.1l0.2,0l0.1,0l0.1,0.1l0,0.1l0.1,0l0.1,0l0.2,0l0,0l0.1,0h0.1l0,0l0.1,0l0.2,0l0.1,0
				l0.1,0l0.1,0.1l0.1,0l0.1,0l0.2,0l0.1,0h0.2l0.2,0l0.2-0.1l0.1,0.1h0.2l-0.2-0.1L111,126l0.1-0.1l0.2-0.1l0.1,0l0.2,0l0,0.1
				l0.1,0.1l0-0.2l0,0l0.1,0l0.2,0l0.4,0l0.3,0.1l0.1,0l0-0.1l-0.2,0l-0.3,0l-0.4,0l-0.3,0l-0.4,0l-0.3,0l-0.2,0.1l-0.2,0l-0.1-0.1
				l0-0.1l0-0.1l0,0l0,0v-0.1l0-0.1l0-0.1v-0.1l0.1,0l0.1,0l0,0l-0.1,0l-0.2-0.1l-0.1,0l-0.2,0l-0.2,0l-0.2-0.1l-0.2-0.1l0,0l-0.1,0
				L109,125l-0.2,0l-0.2,0l-0.2,0l0,0l-0.1,0l-0.1-0.1l0-0.1l0-0.3l-0.1-0.1l-0.2-0.3l-0.1-0.1l-0.1-0.1l-0.2-0.1l0-0.1v0l0,0
				l-0.1,0l-0.1-0.1l-0.1-0.1l-0.2-0.1l-0.1-0.1l0-0.1l0-0.1v0l0-0.1l0.1-0.1l0-0.1l-0.1,0l0-0.1l0-0.1l0-0.1l0,0l0-0.1v-0.1l0-0.1
				l0,0l0,0l0,0l0-0.1l0-0.1l0-0.1l0-0.1l0,0l0-0.1v-0.1l-0.1-0.1l-0.1-0.1l0-0.1l-0.1-0.1l-0.1-0.1l0,0l-0.1,0l0,0l-0.1,0h-0.1
				l-0.1,0l-0.1-0.1l-0.1-0.1l-0.1-0.1l-0.1-0.2l-0.2,0l-0.2-0.1l0,0l0.1-0.1l0,0l-0.1,0l-0.2,0l-0.2,0l-0.1,0.1l0,0.1v0.1l-0.1,0.1
				l-0.1,0l-0.1,0l-0.1-0.1l-0.2-0.1l-0.1-0.1l-0.2,0l-0.2-0.1l-0.1-0.1l0,0l0,0l0.1,0h0.1l0.1,0l0.1-0.1l0.1,0l0-0.1l-0.1,0l-0.1,0
				l-0.2-0.1h0l-0.2,0l-0.1-0.1l-0.1-0.1l0-0.1l0,0l0,0l0,0l0,0.1l0.1,0l0.2,0l0.1,0l0.1,0l0-0.1l0-0.1l0.1,0l0.1,0h0.2l0.1,0l0.1,0
				l0.1,0l0,0.1l0.1,0.1l0.1,0.1l0.1,0l0.1-0.1l-0.1-0.1l-0.1-0.1l0-0.1v0l0,0l0.1,0.1l0.1,0l0-0.1l0,0l-0.1-0.1l0,0l-0.1,0
				l-0.1-0.1v-0.1l-0.1-0.1l0,0l-0.1,0l0,0l0,0L104,119l-0.1-0.1l-0.2-0.1l-0.2-0.1l-0.2-0.1l-0.1-0.1l-0.1-0.1l-0.1-0.1l-0.1,0
				l-0.2,0.1l-0.1,0l-0.1,0l-0.1,0h-0.2l-0.1,0l-0.1-0.1l-0.2-0.1l-0.2,0l-0.2,0l-0.2,0.1l-0.2,0l-0.3,0l-0.3,0l-0.2,0v0l0-0.1
				l0-0.1l0,0l-0.1,0l0,0l-0.2,0l0,0l0,0l0.1,0h0.1l0.1,0l0.1,0l0.1-0.1l0.1-0.1h0.1l0.1,0v0l0,0l-0.1,0l-0.1,0l0,0l-0.1,0l-0.1,0
				h-0.1l-0.2,0l-0.1,0l0,0l0.2-0.1l0.1,0l0.1,0l0,0l0.1,0l0.1,0l0.1,0h0.1l0.3,0l0.1,0v0l0-0.1l-0.1,0l0,0l0.1,0l0,0l0-0.1l0-0.1
				l-0.1-0.2l-0.1-0.2l-0.1-0.1l-0.1,0l-0.1-0.1l0.1,0l0.1,0l0.1,0l0-0.1l0-0.1l-0.1-0.1l0-0.1l-0.1-0.1l0,0l0.1,0l0.1,0l0.1,0
				l0-0.1l-0.1-0.1l-0.1,0h-0.1v0l0-0.1l-0.1-0.1l-0.2-0.1l-0.2,0l-0.2,0l-0.2,0l-0.2,0l-0.1,0l0.1,0l0-0.1l-0.1,0l-0.2,0l0,0.1
				l-0.2,0.1l-0.1,0l-0.1-0.1l-0.1,0l0,0.1l0,0l0,0l0,0.1l-0.2,0l-0.2-0.1l0.1-0.1l-0.2,0l-0.2,0l-0.1,0l-0.1,0l0,0l-0.1,0l0,0
				l0.1-0.1l0,0v0l-0.1-0.1l-0.1,0l-0.1,0l0-0.1l-0.2,0l-0.3,0l-0.1,0l-0.1,0l0-0.1l0,0v0l0,0l0-0.1l0-0.1l-0.1,0l0,0l-0.1,0l-0.1,0
				h0l0,0l0-0.1v-0.1l-0.1,0l-0.1,0l0,0l0,0l-0.1,0l0,0v0l0.1,0l0.1,0l0,0l0.1,0l0.1,0l0.1,0h0.1l0.1,0l0,0.1l0.1,0.1l0.1,0l0.1,0
				h0.1l0.1,0l0-0.1l-0.1,0l0.1,0l0.1,0l0,0l-0.1,0l0.2-0.1l0.1,0l0.1-0.1v-0.1l0-0.1l0.1-0.1l0.2,0l0.2,0l0.1,0l0.1-0.1l0.1-0.1
				l0.1-0.1l0.1-0.1l0-0.1l0-0.1l-0.1,0l-0.1,0l0,0l-0.1-0.1l0-0.1l0-0.1l0-0.1l0,0l0.1,0l0.1,0l0.1,0l0.2,0l0.2,0l0.1,0.1l0.1,0.1
				l0.2,0h0.3l0.4-0.1l0.2-0.1l0.2,0l0.2,0l0.2,0l0.2,0l0.2-0.1l0.1,0l0-0.1l0-0.1l0.1,0l0.1,0l0.1-0.1l0.1,0l0.1-0.1l0.1-0.1l0-0.1
				l0.1,0l0.2,0l0.1,0l0-0.1l0-0.1l0.1-0.1l0.1,0l0.1,0l0.1,0l0.1,0l0.1,0l0.2,0l0.3,0l0.4,0l0.4,0l0.3,0l0.3,0l0.3,0l0.2,0.1
				l0.2,0.1l0.2,0.2l0.2,0.1l0.2,0.1l0.2,0.1l0.2,0h0.2l0.1,0l0.1,0l0.1,0l0.1,0l0.2-0.1l0.3-0.1l0.2-0.1l0.4,0l0.5-0.1l0.4-0.1
				l0.2,0l0-0.1l0.1,0l0.1,0l0.1,0h0.2l0.2,0l0.2,0l0.1,0l0.2,0l0.2,0l0.2,0l0.2,0l0.2,0l0.3,0l0.2,0l0.2,0.1l0.2,0l0.2,0h0.1l0.1,0
				l0.1,0l0.2,0.1l0.1,0l0.2,0l0.2,0l0.3,0h0.3l0,0l0.2,0l0.1,0l0.1,0l0.1,0l0.2,0l0.3,0l0.3,0l0.2,0l0.2,0l0.2,0l0.2,0l0.2,0l0.1,0
				l0.1,0.1l0.1,0.1l0.3,0.1l0.2,0.1l0.2,0l0.2,0l0.1,0l0.1,0l0.2,0l0.1,0l0.2,0l0.1,0h0.2l0.1,0l0.1,0l0.1,0l0.1,0l0.2,0.1l0.7,0.1
				l0.6,0h0.2l0.2,0l0.1,0l0.2,0l0.1,0l0.2,0l0.2,0l0,0l0.2,0l0.4,0.1l0.3,0.1l0.2,0.1l0.2,0h0.1l0.1-0.1l0.1,0h0l0.1,0l0,0l0.1,0h0
				l0,0l0.1,0l0.1,0l0.1-0.1l0.1,0l0.1,0l0.1,0l-0.1,0l-0.1-0.1l0-0.1l-0.1-0.1l-0.2,0l-0.2,0l-0.2,0l-0.1,0l-0.1,0l-0.2,0l-0.2,0
				l-0.1,0l-0.1,0l0-0.1l0.1,0l0.3,0l0.2,0l0.1,0l0.1,0l0.2-0.1l0.1,0l0.1,0l0.1-0.1l0.1-0.1l0.1,0l0.2-0.1l0.1,0h0.2l0,0l0,0
				l-0.1,0v-0.2l-0.1-0.1l0-0.1l0-0.1l0.2-0.1l0.1,0l0.2,0l0.3,0.1l0.2,0.1l0.3,0.1l0.3,0l0.2,0l0.2,0l0.1-0.1l0-0.1v-0.1l0.1,0
				l0.3,0l0.2,0l0.2,0l0.1,0l0.2,0.1l0.1,0.1l0.2,0l0.2,0l0,0l0,0.1v0.1l0,0.1l0.1,0.1l-0.1,0l-0.2,0l0,0.1l0,0.1l-0.2,0l-0.3,0
				l-0.2,0l-0.2,0l-0.2,0.1l-0.2,0h-0.1l0,0l0-0.1l-0.2,0l-0.1,0.1l-0.1,0.1l-0.1,0.1l0,0l-0.1,0.1l-0.2,0.1l0,0l0.1,0.1l0.1,0
				l0.1,0l0.1,0.1l0.1,0.1l0.2,0.1l0.1,0.1l0.2,0.2l0.1,0l0.2-0.1l0.2-0.1l0.2,0l0.2,0l0.1,0l0-0.1l-0.1-0.1l0-0.1l0-0.1l0.1-0.1
				l0-0.2l0.1-0.2l0.1-0.1l0-0.1l0.1,0l0.2,0l0.1,0l0,0.1l0.1,0.1l0.2,0.1l0.2,0l0.3,0l0.2,0v0.1l0,0.1l0.1,0l0.1,0.1l0.1,0.1
				l0.1,0.1l0,0.1l0.1,0.1l0,0.1l0,0.1l0.1,0l0.1,0h0v0.1l0,0.1v0.1h0.1l0-0.1l0-0.1l0,0l0.1,0l0.1,0l0.2-0.1v0l-0.1,0l-0.2,0
				l-0.1,0.1l-0.2,0l-0.2,0l0-0.1l0.1-0.1v-0.1l0-0.1l0-0.1l0-0.1l0.1-0.1l0.1-0.1l0.1,0l0.1,0l0.1,0l0.1,0l0.1,0.1l0,0.1l0,0.1
				l0.1,0.1l0.1,0l0,0l-0.1-0.1l-0.1-0.1v0l0.1,0l0.1,0l0.2,0l0.2,0.1l0.2,0l0.2-0.1l0.2-0.1l0,0l0.1,0l0.1-0.1l0.1-0.1l0.1,0l0.1,0
				l0.1,0l0.4,0.2l0.1,0l0.2,0l0.1,0l0.2,0l0.5,0l0.1,0l0.2,0l0-0.1l-0.4,0v0l-0.1,0l-0.3,0l-0.2,0l-0.2,0h-0.3l0,0l-0.1-0.1l0-0.1
				l-0.1,0l-0.2-0.1l-0.1,0l-0.3,0.1l-0.2,0v0l-0.1,0l-0.1,0l-0.2,0.1l-0.2,0l-0.1-0.1l-0.3-0.1l-0.1,0l-0.1,0l-0.1-0.1l-0.1-0.1
				h-0.1l-0.2,0l-0.2,0l-0.2,0l-0.1,0v-0.1l0-0.1l0-0.1l-0.1,0h-0.1l-0.1,0l-0.2,0.1l-0.1,0l-0.1,0l-0.1,0l-0.1,0l0-0.1l0,0
				l-0.1-0.1l-0.1-0.1l-0.1-0.1l-0.2,0l-0.1-0.1l0-0.1l0-0.1l0-0.1l0-0.1l-0.1-0.1l0.2,0l0.1-0.1l-0.2,0l-0.2,0l-0.2,0l-0.2,0
				l-0.2,0l-0.1,0l-0.3,0l-0.2,0l-0.1,0l-0.1,0l-0.1,0l-0.1,0h-0.1l-0.2,0l-0.2,0.1l-0.1,0.1l0,0.1v0.1l-0.1,0l-0.1,0l-0.2-0.1
				l-0.3-0.1l-0.3,0l-0.3,0l-0.3,0.1l-0.2,0.1l-0.1,0.1l-0.1,0.1l0,0.1l0.1,0.1l0,0.1l0,0.1l0,0.1l-0.1,0.1l-0.1,0.1l-0.1,0.1
				l-0.1,0l-0.1,0.1l-0.2,0.1l-0.2,0.1l-0.2,0l-0.3,0.1l-0.2,0.1L123,113l-0.2,0.1l-0.4,0l-0.2,0l-0.2,0l-0.2,0l-0.2-0.1l-0.2,0
				l-0.2,0l-0.1,0l0-0.1l0-0.1l0-0.1l0.1-0.1l-0.1-0.1h-0.1l-0.1,0l0,0l0.1-0.1l0.1-0.1l0.3-0.1l0.2-0.1l0.2,0l0.2-0.1l0.2,0
				l0.4-0.1l0.2-0.1l0,0h0.1l0.1,0l0.2,0l0.3,0l0.3,0l0.1,0l0.1,0l0.1-0.1l0.2-0.1l0-0.1l0-0.1l0-0.1l0.1-0.1l0.1-0.1l0.2-0.2
				l0.2-0.1l0.1-0.1l0.1-0.3l0.2-0.2l0.1-0.1l0.2-0.1l0.1-0.1l0.2-0.1l0.2,0l0.1-0.1l-0.1,0l-0.2,0l-0.1,0l-0.1,0.1l-0.3,0.1
				l-0.1,0.1l-0.1,0.1l-0.1,0.1l-0.1,0.1l-0.1,0.1l-0.1,0.1l-0.1,0.2l-0.2,0.2l-0.1,0.1l-0.2,0.1l-1.3,0.6l-0.2,0l-0.1,0l-0.1,0.1
				l-0.2,0.1l-0.1,0l-0.2,0l-0.2,0.1l-0.2,0l-0.1,0h0l-0.2,0.1l-0.3,0.1l-0.3,0.1l-0.3,0l-0.2-0.1l-0.2,0l-0.3-0.1l-0.1,0l-0.2,0
				l-0.4-0.1l-0.3,0l-0.3,0l-0.2,0l-0.1,0.1l0,0.1l0,0.1l-0.2,0.1l-0.2,0l-0.2,0.1l-0.2,0l-0.2,0l-0.1,0l-0.2,0.1h-0.3l-0.4,0h-0.4
				l-0.1,0l-0.1,0l0-0.1l0,0l0.1,0l0.2-0.1l0.1,0l0,0v0l0-0.1v0l0-0.1l0.1,0l0.1,0l0.1,0l0,0l0,0l0.1,0l0,0l0-0.1l0,0l-0.1,0l-0.2,0
				H116l-0.3,0l-0.2,0h-0.1l-0.1,0l-0.2,0l-0.2,0l-0.2,0l0,0l-0.2,0l-0.1,0l-0.2,0l-0.1,0H114l-0.1,0l-0.1-0.1l-0.1,0l-0.1,0l-0.1,0
				l-0.1-0.1l-0.1,0h-0.2l-0.1,0l-0.1,0l-0.1,0l-0.2,0l-0.2-0.1l-0.1,0l-0.1,0v0l0.1,0l0.1,0l0.2-0.1l0.1,0h0.1l0.1,0l0.1-0.1l0.1,0
				l0.1,0v-0.1l0,0l0.1,0l0.1,0l0.1,0l0.1,0l0-0.1l0-0.1l0-0.1l-0.1-0.1l-0.1-0.1l-0.2-0.1l-0.1-0.1l-0.1-0.1l-0.2,0l-0.1,0l-0.2,0
				l-0.3,0l-0.1,0l-0.2,0l-0.2,0l-0.1,0l-0.2,0h-0.1l-0.2,0l-0.1,0h-0.1l-0.1,0l0-0.1l0-0.1l0-0.1l0-0.1l0.1-0.1l0.2-0.2l0.2-0.1
				l0.2-0.1l0.2-0.1l0.2,0l0.1,0l0.1,0h0.1l0.1,0l0.2-0.1l0.1-0.1l0.1,0l0.1,0l0.1,0l0.1,0l0,0l0.1-0.1l0-0.1l-0.1,0l-0.1,0.1
				l-0.1,0.1l-0.2,0l-0.1,0.1l-0.1,0l-0.2,0.1l-0.2,0.1l-0.2,0l-0.2,0l-0.2,0l-0.2,0.1l-0.1,0.1l-0.2,0.1l-0.2,0.2l-0.1,0l-0.1,0.1
				v0.1l0,0.1l0,0.1l0,0.1l0,0.1l-0.1,0l-0.2,0l-0.1,0l-0.1,0l0.1,0l0,0l0.1,0l0,0v0l0,0.1l0,0.1l-0.1,0.1l-0.2,0.1l-0.2,0.1
				l-0.2,0.1l-0.2,0.1l-0.2,0.1l-0.3,0.1L109,112l-0.3,0.1l-0.2,0.1l-0.3,0.2l-0.1,0.1v0.1l-0.1,0.1v0l-0.2,0l-0.2,0h-0.2l-0.2,0
				l-0.2,0l-0.1,0l0,0l0-0.1l0-0.1l0,0l-0.1,0l-0.1,0l-0.1,0l-0.1,0h-0.1l-0.1,0l0-0.1l-0.1,0l-0.1,0l0-0.1l0-0.1l-0.1-0.1l-0.1,0
				l-0.1,0l0,0.1l0,0.1l-0.1,0.1h-0.1l-0.1-0.1l-0.1-0.1l-0.1-0.1l-0.1,0l0,0l-0.1,0l-0.1,0l-0.3,0h-0.2l-0.1-0.1l0,0l-0.2-0.1
				l-0.1-0.1l0,0l0-0.1l-0.1,0l-0.1,0v0l-0.1,0l0-0.1l-0.2-0.1l-0.2-0.1l-0.1-0.1l-0.1-0.1l-0.1-0.1l-0.1-0.1l-0.1-0.1l-0.1-0.1
				l0-0.1l0,0l0-0.1l0,0l0.1-0.1l0,0v-0.1l0.1,0l0.1,0l0-0.1l0-0.1l0.1,0l0,0l-0.1-0.1l-0.1,0l-0.2-0.1l-0.2,0l-0.2,0l0,0l0-0.1
				l0.1-0.1l0-0.1v-0.1h0.1l0-0.1l0-0.1l0,0l0.1-0.1l-0.1-0.1l-0.1,0l0,0l-0.1-0.1l-0.1,0l-0.1,0l-0.2,0l-0.2,0l-0.1,0l-0.1,0l0,0
				l-0.1-0.1l-0.1-0.1v-0.1l0.1-0.1l0.1-0.1l0.1-0.1l0-0.1l0-0.1l-0.1-0.1l-0.1-0.1l0-0.1l0.1,0l0.1,0l0.1,0l0.2-0.1l0.2,0l0.1-0.1
				l0.1-0.1l0-0.1l0.1-0.1l0-0.1l-0.1,0l0,0l0,0l-0.1,0.1l-0.1,0.1l-0.1,0l-0.2,0l-0.1,0l-0.2,0.1l-0.1,0.1l0,0.1l0,0.1l0.1,0.1
				l0,0.1l-0.1,0.1l-0.1,0l-0.1,0.1l0,0.1l0,0.1l0,0l-0.1,0l0,0l0,0.1l-0.1,0h-0.2l0.1,0.1l0.1,0l0.1,0l0.2,0.1l0.1,0l0.2,0l0.2,0
				l0.1,0l0,0.1l0,0l0,0.1l-0.1,0.1l0,0.1v0l0.1,0.1l0.2,0.1l0.2,0.1l0.1,0.1l0,0.1l-0.1,0.1l0,0.1l0.1,0.2l0,0.1l0.2,0.2l0.2,0.2
				l0.3,0.2l0.1,0v0.1l0.1,0l0.1,0l0.1,0.1l0.1,0.1v0.1l-0.1,0.1l-0.1,0l-0.1,0l-0.1,0.1l-0.1,0l-0.2,0l-0.2,0l0-0.1l-0.1-0.1
				l-0.1-0.1l-0.1-0.1l-0.1,0l-0.1-0.1l-0.2-0.1l-0.1-0.1l-0.3-0.2l0-0.1l-0.1,0l-0.1-0.1l-0.1-0.1l-0.1-0.1L101,111l-0.2,0
				l-0.2-0.1l-0.2-0.1l-0.1-0.1l-0.1-0.1l-0.2-0.1l-0.2-0.1l-0.3-0.1l-0.3-0.1l-0.4-0.1l-0.3-0.1l-0.3,0l-0.3,0l-0.1,0l0,0l0,0
				l0,0.1l0,0.1l-0.1,0.1l-0.2,0.1l-0.2,0.1l-0.2,0.1l-0.2,0l-0.2,0.1l-0.2,0.1l-0.2,0l-0.2,0l-0.1,0l-0.1-0.1l0,0l0,0l0,0l-0.1,0.1
				l-0.1,0.1l-0.1,0l-0.3,0l-0.3,0l-0.2,0l-0.3,0l-0.2,0l-0.1,0v0l0.1,0l0.2,0.1l0,0.1v0.2l0,0l0.1,0.1v0.2l0,0.1l0,0.1l0,0.1
				l-0.1,0.1l-0.1,0.1l-0.1,0.1l-0.1,0.1l0,0v0l0.1,0l0,0l-0.1,0l-0.2,0.2l-0.1,0.1l0,0.1l0,0.1l0,0.1l0,0.1l0.1,0.1l0.1,0l0.1,0
				l0.1,0l0.1,0.1l0.1,0l0.1,0l0.2,0l0.2,0l0.1,0.1l0.2,0l0,0l0.1,0l0.1,0.1l0,0.1l0.1,0l0,0.1l0,0.1l0,0.1l-0.1,0l-0.2,0h-0.1
				l-0.1,0l-0.1-0.1l-0.2,0l-0.1,0l-0.1,0.1l0,0l0,0.1l-0.1,0h-0.1l0,0l-0.1,0l-0.2,0.1l-0.2,0l-0.1,0l0,0l0,0l0,0.1l0,0.1l0,0h0.1
				l0.1,0l0,0.1l0,0.1l0,0.1v0l0.1,0l0.2,0l0,0l0,0l0,0l-0.1,0l-0.1,0l-0.1,0H94l-0.1,0l-0.1-0.1l-0.1,0l-0.1-0.1l-0.1,0l-0.1,0l0,0
				l0.1,0l0,0l0,0l0,0.1l0.1,0.1l0.1,0.1l0.2,0.1l0.2,0l0.2,0l0.1,0.1l0.1,0l0,0.1l0,0.1l0.1,0.1l-0.1,0l0,0l0.1,0.1l0.1,0l0.1,0
				l0.1,0.1l0.1,0l0.1,0l0.1,0.1l0.1,0h0.2l0,0l0.1,0.1l0.1,0.1l0.1,0l0,0l0,0l-0.1,0l-0.1,0l-0.1,0.1l-0.1,0.1l-0.1,0l-0.1,0
				l-0.1,0l-0.1,0l-0.1,0l0,0l0,0l0.1,0l0.1,0.1v0l-0.1,0l-0.1,0l-0.2-0.1l-0.1-0.1l-0.1-0.1l0-0.1l0-0.1l0-0.1l-0.1-0.1l-0.1,0
				l-0.1-0.1l-0.1,0l-0.1,0l-0.2-0.1l0,0l-0.1,0l-0.1,0l-0.2,0l-0.1,0l-0.1,0l0,0.1l0.1,0.1l0.1,0.1v0.1l-0.1,0l-0.1,0l-0.1,0l0,0
				l0,0.1l0.1,0l0.1,0l0.1,0l0.1,0l0,0l0.1,0.1l0.1,0l0.2,0.1l0.2,0.1l0.2,0l0,0l0,0l0,0.1l0,0l0,0l0,0l0.1,0l0.1,0.1l0,0l0,0
				l-0.1,0.1l-0.1,0l-0.1,0l0,0v0l0,0l0,0.1h-0.1l-0.1,0l-0.1,0l-0.1,0l-0.2,0l0,0l-0.1,0l-0.2,0l-0.2,0l-0.2-0.1l-0.1,0l-0.4,0
				l-0.1,0l0,0.1l-0.1,0l-0.1,0l0,0v0.1l0,0l0-0.1l-0.1,0v0l0,0l0-0.1l0,0l0,0l0,0l-0.1,0l-0.2,0l-0.1,0l0,0v0l-0.1-0.1l0,0l0,0l0,0
				l0,0l0,0l0,0l-0.1,0l0,0l0,0l0,0l-0.1,0l0,0l0,0l0,0l0,0l-0.1,0h-0.1l0,0l-0.1,0l0,0l0,0l-0.1,0l-0.1,0h-0.1l-0.1,0l-0.1,0l0-0.1
				l-0.1,0l-0.1,0l0-0.1l-0.1-0.1l-0.1-0.1l-0.1,0l-0.1,0l0,0l0,0l-0.1,0l0,0l-0.1,0l-0.1,0l-0.1,0l0,0h-0.1l-0.1,0l-0.1,0l0,0v0
				l0,0l0,0h-0.1l-0.1,0v0l0,0l0,0v0l0,0l-0.1,0l-0.1-0.1l-0.2-0.1l-0.1,0l-0.1,0l-0.1,0l-0.1,0l-0.2-0.1l-0.2-0.1l-0.2,0l-0.2,0
				l-0.1,0h-0.1l-0.1,0l-0.2,0l-0.2,0l-0.2,0.1l-0.1,0l-0.1,0l0,0v0l-0.1,0l0,0h-0.1l-0.1,0l0,0l-0.1,0l-0.1,0l-0.1,0l-0.1,0h0
				l-0.1,0l-0.1,0l-0.1-0.1l0-0.1l0-0.1l-0.1-0.1v0l0-0.1l-0.1-0.1l-0.2-0.1l-0.1-0.1l-0.1,0l-0.2,0l-0.1,0l-0.1,0l-0.1,0l-0.1,0
				h-0.2l-0.1,0l0,0l-0.1,0l0,0l0,0l0-0.1l-0.1,0l-0.1,0h-0.2l0,0l0,0l0,0l0,0l-0.1,0l-0.1,0l0,0v-0.1l0,0l0-0.1l0-0.1l-0.1-0.1
				l-0.1-0.1l-0.2-0.1l-0.1-0.1l-0.1,0l-0.1,0l-0.1-0.1l-0.1,0l-0.1,0l-0.1,0l0,0l-0.1-0.1l-0.1-0.1l-0.1,0l-0.2-0.1l0-0.1l-0.1,0
				l-0.1-0.1l-0.2-0.1l-0.4-0.1l-0.3-0.1l-0.3-0.1l-0.2-0.1l-0.3-0.1l-0.3,0l-0.3,0l-0.2,0l-0.2,0l-0.4,0l-0.2,0l-0.2,0l-0.2,0
				l-0.1-0.1v0h0.1l0.1,0l0.2,0.1h0.2l0.2,0l0.3,0l0.1,0l0.1,0h0.1l0.1,0l0,0l0-0.1l0,0l0,0l0,0v0l0,0l-0.1,0h-0.1l-0.1,0l-0.1,0
				l-0.1,0l0,0v0l0.1-0.1v-0.2l-0.1,0l0,0l0,0l0,0l0,0.1l0,0l0,0l0,0l0,0.1v0.1l-0.1,0l-0.1,0l0,0l-0.2,0l-0.1-0.1l-0.1,0h-0.1l0,0
				v0l0,0l0,0l0-0.1l-0.1,0l-0.1,0l0,0l0.1,0l0-0.1l0-0.1l0.1,0l0.1,0l0.1-0.1l0.1,0l0.1,0l0-0.1l0,0l0-0.1l0.1,0l0.1,0l0.1,0l0,0
				l0.1,0l0.1,0l0,0l-0.1,0H78l0,0l-0.1,0.1l-0.1,0l0-0.1h-0.1v0l-0.1,0l-0.1,0.1l-0.1,0l-0.1,0l0,0v-0.1l-0.1-0.2l0-0.1l0,0l0-0.1
				l0,0l0-0.1l0.1,0l0,0l0,0l-0.1,0l-0.1,0l0,0l0,0v0l0,0h0v0l0,0l0,0l0,0l0,0v0.1l-0.1,0.1l0,0.1l0,0.1l-0.1,0.1h-0.1l-0.1,0
				l-0.1,0l0,0v-0.1l0-0.1l0-0.1l0-0.1l0-0.1l0,0h0v0.1l0,0.1l0,0.1l0,0l0,0.1l0,0.1l0.1,0l0.1,0l0,0l0.1,0.1l0,0l-0.1,0l0,0
				l-0.2-0.1l-0.1,0l-0.1,0v0l0,0l0.1,0.1l0.2,0.1l0.2,0.1l0.1,0.1l0.2,0.1l0.1,0h0l0,0l0,0l-0.1,0l-0.2,0l-0.2,0l-0.3,0.1l-0.4,0.1
				l-0.3,0.1l-0.2,0.1l-0.1,0.1l0,0.1l0,0.1l0.1,0l0.1,0l0.1,0l0.1,0l0.1,0l0.1,0l0,0l0,0.1l0,0l-0.1,0l-0.1,0l0,0l0,0l-0.1,0l0,0
				l-0.2,0h-0.1l-0.1,0l-0.1,0l0,0l0,0h-0.1l0,0l-0.1,0h-0.1l-0.1,0h-0.1l0,0l-0.1,0l0,0l-0.1,0l0,0l0,0l-0.1,0h-0.1l-0.1,0h-0.1
				l0,0v0l0,0l0,0l0.1,0l0.1,0l0.1,0l0,0l0.1,0l0,0l0.1-0.1l0.1-0.1l0.1-0.1l0.1-0.1l0.2-0.2l0.1-0.1l0.2-0.2l0.2-0.2l0.2-0.2
				l0.2-0.2l0.2-0.3l0.2-0.3l0.2-0.3l0-0.1l0.2-0.2l0.2-0.2l0.1-0.2l0-0.1l0-0.1l0-0.1l0-0.1v-0.1l0-0.1l0-0.1l0,0l-0.1,0l0,0l0,0v0
				l-0.1,0l-0.1,0l-0.1,0l-0.1,0l-0.1,0l-0.1,0v0l0-0.1l0,0l0,0v-0.1l0-0.1l0-0.1l0-0.1l-0.1-0.1l-0.1-0.1l-0.1,0l-0.1-0.1l-0.1-0.1
				l0-0.1v-0.1l0,0l0,0l0,0l-0.1,0l0-0.1l0,0l0-0.1l-0.1-0.1l-0.1,0l0-0.1l0.1,0l0,0l0.2,0l0.2,0.1l0.1,0l0,0.1l0.1,0.1l0,0.1l0.1,0
				l0.2,0.1l0.7,0.4l0,0.1h0.1l0.1,0.1l-0.1,0l-0.1,0l-0.1,0l0,0h0.1l0.1,0h0.1l0,0l0,0l0.1,0l0,0l0,0l0.1,0h0l0,0l0.2,0.2l0,0h0.1
				l0,0l0,0v0l0,0l0.1,0l0.1,0l0,0.1l0.1,0.1l0,0h0l0.1,0l0,0l0,0l-0.1,0v0.1l0.1,0l0.1,0l0,0.1l0,0l0.1,0l0,0l0.1,0.1l0,0l0,0l0,0
				v0.1l0.1,0h0l0.1,0l0.1,0l0,0.1l0.1,0l0.1,0.1l0,0l0.2,0.1l1.4,0.7l0.1,0l0.2,0l0.1,0l0,0l0,0l-0.1-0.1l-0.2-0.1l-0.1-0.1l0,0
				l0,0l-0.1,0l-0.1,0l-0.1,0v-0.2l0,0l0,0l-0.1,0h-0.1l0,0h0l-0.1,0l0,0l0,0l0,0l0-0.1l-0.1-0.1l0,0l-0.1,0l-0.1,0l0,0l0-0.1l0,0
				l0,0l-0.1,0l-0.1,0l-0.1,0l-0.1,0l0,0v0l0,0l-0.1,0l-0.1,0l0-0.1l-0.1-0.1l0-0.1l0-0.1l0,0l0,0l0,0l-0.1,0l-0.1,0l0,0l0-0.1
				l-0.1-0.1v0l0,0l0,0l-0.2-0.2L78,109l-0.1,0l-0.1-0.2l0-0.1l0,0l0,0v-0.1l0-0.1l0.1-0.1l0,0v0l-0.1,0.1l-0.1,0.1l-0.1,0.1l-0.1,0
				l-0.1,0l-0.1-0.1l0,0l-0.1,0l0,0l-0.1,0l-0.1,0l-0.1,0.1l-0.1,0l0-0.1l0-0.1v0l0-0.1l0-0.1l0-0.1l-0.1-0.1h-0.1l-0.1,0l-0.1,0.1
				l-0.1,0l-0.1,0l-0.1,0l0,0l0,0l0.1-0.1l0-0.1l0-0.1l0-0.1l0-0.1l0-0.1l0,0l0-0.1l0-0.1l-0.1-0.1l0-0.1l-0.1-0.1l0,0v0l-0.2-0.1
				l-0.1-0.1l0,0l-0.1-0.1v0l0-0.1l0,0l-0.1,0l-0.1,0l-0.1,0l-0.2-0.3l-0.1,0h0l-0.1,0l-0.1,0l-0.1-0.1l-0.1,0l-0.1,0l-0.2-0.1
				l-0.2-0.1l-0.3,0l-0.3,0l-0.2,0l-0.1,0l-0.2,0.1l-0.2,0l0,0l0,0l0,0l0,0l0,0l0,0v0.1l0,0l0,0h-0.1l-0.1,0l-0.1,0l0,0l-0.1,0l0,0
				v0l0,0l-0.1,0l0,0l0,0l0-0.1l0,0l-0.1,0l0,0l-0.1,0l0,0l-0.1,0l0,0l0,0l0.1,0h0.1l0,0l0-0.1l0-0.1l0.1-0.2l0.1-0.2l0-0.1l0-0.2
				l-0.1-0.1l-0.1-0.1l-0.2-0.1l-0.1-0.1l0-0.1l-0.1-0.1l0-0.1l-0.1-0.1l-0.1,0l-0.1,0l0,0h0l-0.1,0l0-0.1l0,0v-0.1l0,0l0-0.1l0-0.1
				l-0.1-0.1l-0.1-0.1l-0.1,0l-0.2-0.1l-0.1,0l0,0l0-0.1l0,0l-0.1,0l0,0v-0.1l0-0.1l-0.1,0h-0.1l0,0v0l0-0.1l0,0l0-0.1l0,0l-0.1,0
				l-0.1-0.1l-0.1,0l-0.1,0h-0.1l-0.1,0l0,0l0,0l0,0l-0.1,0l-0.1,0l0,0v0l-0.1,0l-0.1,0l0,0l0,0h-0.1l0-0.1l-0.1-0.1l-0.1,0l-0.1,0
				l-0.1,0l-0.1-0.1l-0.3-0.1l-0.2-0.1l-0.1,0l-0.2,0l-0.1,0l-0.1,0l-0.1,0l0,0l-0.1,0l-0.1,0l-0.1,0l0,0l-0.1,0l-0.1,0l-0.1,0
				l-0.2,0l-0.1,0l-0.1,0h-0.1l0,0l0,0l-0.1,0l0,0l0,0l0,0l-0.1,0h-0.1l0,0l-0.1,0l0,0l-0.1,0l0,0l0,0l-0.1,0l0,0l-0.1,0l0,0l0,0
				l0-0.1l0,0l-0.1,0l-0.1,0l-0.2-0.1l-0.1-0.1l-0.1,0l0-0.1l0,0l-0.1,0l0,0l-0.1,0l-0.1,0l-0.1,0l0-0.1l0,0l0,0l-0.1,0l-0.1-0.1
				l0,0l-0.1,0l-0.1,0h-0.1l-0.1,0l-0.1,0l-0.1,0l0,0h-0.1l0,0l-0.1,0l0-0.1l0-0.1l0-0.1l-0.1,0l-0.1,0l-0.1,0l-0.1-0.1l-0.2,0l0,0
				l-0.1,0l0,0l-0.1,0l0,0h-0.2l0,0l-0.1-0.1l0-0.1l0,0l0,0l0-0.1l0,0l0.1-0.1l0,0l-0.1,0l-0.1,0l0,0l0,0l0-0.1l-0.1-0.1l-0.1,0
				l-0.1,0l-0.1,0l-0.1,0l-0.1,0l0,0l0,0l0,0l-0.1,0l-0.1,0l-0.1,0l0,0l0,0l0.1,0l0,0l0,0v0l0,0l-0.1,0l-0.1,0l-0.1-0.1L61,98.9
				l-0.1-0.1l-0.1-0.1l0,0l0,0l0-0.1l0,0l-0.1,0l0,0l0,0l-0.1-0.1l-0.1,0l0,0l0,0v0l-0.1-0.1l0,0l0,0l-0.1,0l0,0l0.1,0L60,98.1
				L59.9,98l0,0l-0.1,0l0-0.1l0,0l0,0l-0.1,0l-0.1,0l-0.1,0l-0.2,0l-0.1,0l-0.1,0l0-0.1l0.1,0l0-0.1l0,0l0-0.1l0,0l0,0l-0.1,0
				l-0.1-0.1l0-0.1l-0.1-0.1l0,0l-0.1,0L58.5,97l-0.1,0l0,0l-0.1-0.1l-0.1,0l0,0l-0.1,0l-0.1,0l0,0l-0.1,0l-0.2-0.1l-0.1,0l-0.1,0
				l-0.1,0h-0.1l-0.1,0l-0.1,0l-0.1,0l0,0v0l0,0l-0.1,0l-0.1,0l-0.2,0l-0.1,0l-0.1,0h-0.1l-0.1,0l-0.1,0l-0.1-0.1L56,96.1l-0.1,0
				l-0.1,0h0l-0.1,0l0,0v0l0-0.1l0,0l0,0l-0.1,0l-0.1,0v0l0-0.1l0-0.1l0,0l0,0l-0.1-0.1l-0.1,0l0,0l0,0v0l-0.1,0l0,0l-0.1,0l0,0l0,0
				l0,0l-0.1,0l-0.1,0l-0.1,0l-0.1,0l0,0l0,0v-0.1l0,0l0,0l0,0L54.2,95l-0.3-0.1l-0.1-0.1l0,0h-0.1l0,0l-0.1,0l-0.2,0l-0.1-0.1l0,0
				l-0.1,0h-0.1l-0.1,0h0l-0.1,0l0,0l0.1,0l0,0l0,0l0,0l0-0.1l0-0.1l-0.1,0l0,0l-0.1,0l-0.1-0.1l-0.1,0l-0.1,0l-0.1,0l0,0l0,0
				l-0.1,0l-0.1,0L52,94L51.9,94l0,0l-0.1,0l-0.1,0l-0.1-0.1l-0.1,0l-0.1,0l0,0l-0.1,0l-0.1-0.1l0,0l0-0.1l0-0.1l0-0.1l0-0.1l0,0
				l0-0.1l-0.1-0.1l-0.1-0.1l-0.1,0l-0.1,0l-0.1,0l-0.1,0l-0.1,0l0,0l0,0l0,0h-0.1l-0.1,0l0,0l0,0L50,92.8l-0.1-0.1l-0.1-0.1
				l-0.1-0.1l-0.1,0l-0.2-0.1l-0.2-0.1l-0.1-0.1l-0.1-0.1l-0.1,0l0,0l0,0l0,0l0,0l-0.1,0l-0.1,0l-0.1,0l-0.1,0l-0.1,0l0,0h-0.1l0,0
				l0,0l0,0v-0.1l0,0l0,0v0l0.1,0l0,0l0,0l0,0l0,0l0,0l-0.1,0l0,0l-0.1-0.1l0-0.1l-0.1-0.1l-0.1-0.1L48,91.2l0,0l0,0l0.1,0l0.1,0
				l0.1,0h0.1l0.1,0l0.1,0l0.2-0.1l0.2-0.1l0.2-0.2l0.2-0.2l0.2-0.2l0.2-0.2l0.2-0.2l0.1-0.1l0.1-0.1v-0.1l0,0v-0.1l0,0v0l0,0v0l0,0
				l0,0l0,0l0,0l0,0l0,0l0,0l0,0v0l0,0v-0.1l0,0l-0.1,0l0-0.1l0,0l0,0l-0.1-0.1l0-0.1l0,0l0,0l0-0.1l0,0l0-0.1v0l0,0l0-0.1v0l0,0v0
				l0-0.1l0-0.1l-0.1-0.1l0-0.1l0-0.1l0,0l0,0l0-0.1l-0.1,0l-0.1-0.1l0,0v-0.1l0.1-0.1l-0.1-0.1l-0.1,0l0,0l0-0.1v0l0,0l0-0.1l0,0
				l0,0l0,0l0,0l-0.1-0.1l-0.1,0l-0.1,0l0,0h-0.1l-0.1,0l-0.1,0l0-0.1l0,0l0,0h0l0,0l0,0l0,0l0,0l0,0l0,0l0,0l0,0l0-0.1l0,0l0,0l0,0
				v0l0,0l-0.1,0l-0.1,0l0,0l-0.1-0.1l-0.1,0l-0.1,0l0,0l0,0v-0.1l0,0l0,0l0,0l0-0.1l0-0.1l0,0l0-0.1l-0.1,0l-0.1,0l-0.1,0l-0.1,0
				l-0.1,0l0,0l0,0l0,0l0,0l0,0v0l0,0l-0.1-0.1l0,0l0-0.1v0l0.1,0l0,0h0.1l0,0l0,0l0,0l0-0.1l-0.1,0l0,0l0,0l0,0l0,0h0.1l0.1,0v0
				l0,0l-0.1,0l-0.1,0l0,0v0l0.1-0.1l0,0v0l0,0l-0.1,0l0,0l0-0.1L47,84.5l-0.1,0l0,0l0,0v0l0,0l0.1,0l0,0l0,0l0,0l0,0l-0.1,0l0,0
				l0-0.1l0,0l0,0V84l0-0.1l0,0l0,0l-0.1,0l0,0h-0.1l0,0l-0.1-0.1l0-0.1l0,0v0l0-0.1l0,0v0l0,0v-0.1l0,0l0,0l0,0l0,0l0,0l0,0l0,0
				l0,0l0,0l0-0.1l0,0l0.1,0v-0.1l0,0l0,0l0,0l0,0l-0.1,0l0,0h-0.1l-0.1,0l-0.1,0l0-0.1l0-0.1l0,0l0.1,0l0.1,0l0.1,0l0,0l0,0l0,0
				l0-0.1l0,0l0,0l-0.1,0l0,0l0,0v0l0,0l0,0l0,0l-0.1,0l0,0l0,0l0,0l0,0l0,0v0l0,0l0-0.1l0,0l-0.1-0.1l0,0l-0.1-0.1l-0.1-0.1l0-0.1
				l0,0l0,0l0.1,0l0,0l0,0l0,0l0-0.1l0-0.1l0,0l0,0l0.1,0h0.1l0,0l0,0l-0.1,0l-0.1,0l0,0l0-0.1l0,0l0.1,0l0.1,0l0,0l0,0v0h0l0,0l0,0
				l0,0v0l0,0v0l0-0.1l0,0l0,0l0,0v0l0,0l0,0h0l0,0l0,0l0,0l-0.1,0l0,0l0,0V81l0,0l0,0l0,0l0.1,0l0.1,0l0,0l0,0l0-0.1v-0.1l0-0.1
				l-0.1,0l0,0v0l0.1,0h0.2l0.1,0v0l0,0l0,0l-0.1,0l0,0l0,0l0,0v-0.1l0,0l0,0l0,0l0,0H46l0,0l0,0h0l0.1,0l0,0l0,0l0,0l0,0l0,0l0,0v0
				l0,0l0,0l0.1,0l0,0l0,0l0,0v-0.1l0,0l0,0l0.1,0v0l0,0v0l0,0l0.1,0l0,0v0l0,0l0-0.1v-0.1l0,0l0,0l0,0l0,0l-0.1,0v0l0.1,0h0.2l0,0
				l0.1-0.1l0.1-0.1l0.1-0.1l0-0.1l0.2-0.1l0.2-0.2l0.1-0.1l0.1-0.1l0.2-0.3l0.1-0.2l0.1-0.1v-0.2l0-0.1l-0.1,0l0-0.1l0,0l0-0.1l0,0
				l0,0l0,0V77l0-0.1l0,0l-0.1-0.1l-0.1-0.1l-0.1-0.1l0,0l-0.1-0.2l0.1-0.1l0,0l0.1,0l0-0.1l0-0.1l0-0.1V76l0,0l0,0l0,0l0,0l0,0l0,0
				l0-0.1l0-0.1v-0.1l0-0.1l0-0.1l0-0.1l-0.1-0.1v-0.1l0,0l0-0.1v-0.1l0,0l0,0l-0.1,0l0,0l0-0.1l0-0.1l0-0.1l0-0.1l0-0.1l0-0.1l0,0
				l-0.1-0.1l-0.1,0l-0.1,0v0l0-0.1l0-0.1l0,0l0-0.1L46.8,74L46.6,74l-0.3-0.1l-0.2-0.1l-0.1-0.1l0,0l0-0.1l0-0.1l0,0l0,0v-0.1l0,0
				l-0.1,0l0,0l0.1-0.1v0l0,0l0-0.1l0-0.1l-0.1-0.1l0-0.1l0-0.1l0-0.1l0-0.1l0-0.1l0-0.1v-0.1l0-0.1l0-0.1l0-0.1l0-0.1l0,0l0-0.1
				l0-0.1l0-0.1l0,0l0,0l0,0l0,0l0-0.1l0,0l0-0.1l0,0l0-0.1l0-0.1l0-0.1l-0.1-0.1l0-0.1l-0.1,0l-0.1-0.1l-0.2,0L44.7,71l-0.3-0.1
				l-0.2-0.1l-0.1-0.1l-0.1,0l0,0l-0.1,0l-0.1,0l0,0l0,0v0l-0.1,0l0,0l-0.1,0l0-0.1l-0.1-0.1l0-0.1l-0.1-0.1l0-0.1l0,0v0l0-0.1l0,0
				l-0.1-0.1l0,0l0,0l-0.1-0.2l0-0.1l0-0.1l0-0.1l-0.1-0.1l-0.1,0l-0.1,0l-0.2-0.1L42,69.2l-0.1-0.1l-0.1,0l-0.1-0.1l0-0.1l0-0.1
				l-0.1-0.1l-0.1-0.1l-0.1-0.1l-0.1-0.1l-0.1-0.1l0,0l-0.1-0.1L41,68.2l-0.2-0.1l-0.2-0.1l0,0l-0.1,0L40.4,68l-0.1-0.1l-0.1-0.1
				l0-0.1L40,67.7l-0.1-0.1l-0.1-0.1l-0.2-0.1l-0.1,0l0,0l0-0.1l0-0.1l-0.1-0.1l-0.2-0.1L38.9,67L38.8,67l-0.1,0l0,0l-0.4-0.1
				l-0.2,0l-0.1,0l-0.1,0l-0.1,0l0,0.1h0l-0.1,0l-0.1-0.1l-0.1-0.1l-0.1-0.1l0,0l0,0l0-0.1l0,0l-0.1,0l0-0.1l0,0l0-0.1l0-0.1l0-0.1
				l0-0.1l0-0.1v0l0-0.1l-0.1-0.1l-0.1-0.1l0,0l-0.1,0l-0.1,0l0,0l0,0l-0.1-0.1l-0.1-0.1l-0.2-0.1L36.5,65l0-0.1l-0.1-0.1l-0.1,0
				l-0.1,0l-0.1,0l-0.1,0l0,0l-0.1,0l-0.2-0.1l-0.2,0l-0.2,0l-0.2,0l-0.1,0l-0.1,0l-0.2,0l-0.1,0l-0.2,0l-0.2,0l-0.1,0l-0.1-0.1
				l-0.1,0l-0.2,0l-0.1-0.1l-0.1-0.1L33.2,64l-0.1-0.1l0-0.1L33,63.8l-0.1-0.1l-0.1-0.1l-0.1-0.1l-0.1-0.1l-0.1-0.1l-0.1,0l-0.1-0.1
				l-0.1-0.1l-0.2-0.1l-0.3-0.1l-0.3-0.1L31.2,63L31,63L31,63l-0.1-0.1l-0.1-0.1l-0.1,0l-0.1-0.1l-0.2-0.1l-0.1-0.1l-0.2-0.1l-0.1,0
				l-0.1,0l-0.1-0.1l-0.1-0.1l-0.1-0.1l-0.3-0.1l-0.2-0.1L28.9,62l0,0l0,0l0,0l0-0.1l0-0.1l-0.1-0.1l-0.1-0.1l-0.1,0l-0.2-0.1
				l-0.2-0.1l-0.1,0l-0.1,0l0,0l-0.1,0l0,0l-0.1-0.1l-0.1,0l0,0l0,0l-0.1,0l-0.1,0l0,0l0,0l0,0l0,0l0,0l0-0.1l0-0.1l0-0.1v-0.1
				l0.1-0.1l0.1-0.1l0.1-0.1l0-0.1l0-0.1l0,0l0,0l0-0.1l0-0.1l0,0L28,60l0-0.1l0-0.1l0-0.1l0-0.1l0-0.1l0-0.1l0,0l-0.1-0.1l0,0l0,0
				l0-0.1v-0.1l0-0.1V59l0-0.3l0-0.1l0-0.1l0-0.1l-0.1-0.2l-0.2-0.1l-0.3-0.1l-0.1,0l0,0l-0.1-0.1l0,0l0,0l-0.1-0.1l-0.1-0.1l0-0.1
				v0l0,0l0-0.1l0-0.1l0-0.1l0-0.1l-0.1-0.1l-0.1,0l-0.1,0l0,0l0-0.1l0-0.1l0.1-0.1l0.2-0.2l0.2-0.2l0.2-0.2l0.1-0.1l0.1-0.1L27,56
				l0.1-0.1l0,0l0-0.1l0,0l-0.1-0.1l0-0.1v0l0,0v-0.1l0.2-0.1l0,0l0-0.1l0.2-0.1l0.2-0.1l0.2-0.2l0.1-0.1l0.2-0.2l0.1-0.1l0.1-0.1
				l0.1-0.1l0.2-0.1l0.1-0.1l0.1-0.1l0,0l0.2-0.2l0.2-0.1l0.1-0.1l0-0.1l0.1-0.1l0.1-0.1l0.1,0l0.1,0l0-0.1l0,0l0.1,0h0.1l0.1,0h0.2
				l0,0l0,0l0,0l0.1,0l0.1,0h0.1v0l0-0.1l0.2-0.1l0,0v0l0.1,0l0.1,0l-0.2,0l-0.1,0l-0.1,0l-0.1,0l-0.1,0l-0.1,0l-0.1,0l0,0l0.1-0.1
				l0.1-0.1l0.3-0.2l0.3-0.1l-0.1,0L30.9,52l-0.6,0.5l-0.1,0.1l-0.1,0.1L30,52.8l0,0.1l0,0l-0.1,0l0,0l0,0l0.1-0.1l0.1-0.1l0.1-0.1
				l0.2-0.2l0.1-0.1l0.4-0.4l0.2-0.2l0.1-0.1l0.2-0.1l0.2-0.1l0.1-0.1L32,51l0.4-0.3l0.2-0.2l0.3-0.2l0.1-0.1l0-0.1l0.1-0.1l0.1,0.1
				l0.1,0.1v0l0.1,0l0,0.1l-0.1,0h-0.1L33,50.4l-0.3,0.2l-0.6,0.4l0,0.1l0,0.1L32,51.2l0,0l0.1,0.1l0.2,0.1l0.2,0l0.1,0l0.2,0l0.1,0
				l0.3,0l0,0l0.2,0.1l0.2,0l-0.1-0.2l0.1-0.1l0.1,0l0-0.1l0.2,0l0,0l0.1,0l0.1-0.1l-0.1-0.1l0,0l-0.1-0.2l-0.1-0.1v0l0,0l0,0l0,0
				l0-0.1l0,0l0.1-0.1l0,0l-0.1,0l-0.1-0.1v-0.1l0.1,0l0.3,0l0.2-0.1l0.1-0.1l0.1-0.1l0-0.1l-0.1-0.2v0l0.1,0l0,0v0l0.1,0l0-0.1
				l0.1-0.2l0.1-0.1l0.2-0.1l0-0.1v-0.1l0.2-0.2l0.4-0.1l0.2-0.1l0.2,0l0.1,0l0,0.1l0.5,0l0.3,0.1l0.4,0l0.2-0.1l0.1,0l0.1-0.1l0,0
				l0.1,0l0.1,0l0.1,0l0.1,0l0.5-0.2l0.2-0.1l0.1-0.1v-0.1l0-0.2h-0.2V48l0-0.1l0,0l-0.2,0l-0.2,0L38,47.9l-0.1,0L37.6,48l0,0
				l-0.1,0l-0.1-0.1l-0.2,0l-0.1-0.1v0L37,47.7h-0.2l-0.2,0l0,0h-0.1l0,0.1l-0.1,0.1l-0.1,0.1l0,0l-0.1,0L36,48.1l-0.2,0.1l-0.1,0.1
				l-0.1,0.1l-0.1,0.1l-0.1,0.1l-0.2,0.1l-0.2,0.1l-0.1,0.1L35,48.9l0,0.1L34.8,49l-0.1,0.1l0,0.1l0,0.1l-0.2,0.1l-0.1,0l-0.1,0
				l-0.1,0l-0.1,0.1L34,49.7l-0.1,0.1l-0.1,0.1l0,0.1l-0.1,0h-0.1l-0.2-0.1l0-0.1l0.1-0.1l0.3-0.2l0.1-0.1l0.1-0.1l0.1-0.2l0.4-0.3
				l0.2-0.2l0.2-0.1l0.3-0.2l0.3-0.2l0.2-0.2l0.1-0.1l0.1-0.1l0.3-0.2l0.2-0.1l0.1-0.1l0-0.1l0-0.1l0-0.1l0.1,0l0.1-0.1l0.1-0.2
				l0.1-0.2l0.2-0.2l0.1-0.1l0.1-0.2l0.1-0.2l0.1-0.1l0,0l0.2-0.3l0.1-0.2l0.1-0.2l0.1-0.2l0.1-0.1l0-0.1v0l0.1-0.1v-0.1l0-0.1
				l0-0.1l0-0.1l0-0.1v-0.1l0,0v-0.1l0,0V44l0,0v0l0,0l0,0l-0.1,0l0,0l0,0l0,0v-0.1l0,0l0-0.1l-0.1,0l0,0l0-0.1l-0.2-0.1l-0.1-0.1
				l-0.2-0.1l-0.1,0l-0.1,0l-0.1,0l-0.1,0v0.1l0,0l-0.1,0l0,0l0,0l0,0l0,0l0,0l0.1-0.1l0,0l0-0.1l0-0.1l0,0l-0.1,0h-0.1l0,0l0,0l0,0
				v-0.1l0,0l0.1-0.1l0-0.1v-0.1l0,0l-0.1,0l0,0h0.1l0,0l0,0v0l0,0l-0.1,0l0,0l-0.1-0.1v-0.1l0-0.1l-0.1,0v0l0,0l0,0l0.1,0v0l0,0v0
				l0,0l0,0v-0.1l0,0l0-0.1l0.1-0.1v0l-0.1,0l-0.1-0.1l0,0l0,0l0,0l0,0l0,0l0,0l0,0l0,0l0.1,0l0,0l0.1,0h0.1l0.1,0l0.1,0l0.1,0
				l0.1,0l0.1,0l0.1-0.1l0.1-0.1l0.1-0.1l0.1-0.1l0.1-0.2l0.1-0.1l0.2-0.2l0.1-0.2l0.2-0.3l0,0l0-0.1l0.1-0.1l0.1-0.2l0.1-0.2
				l0.1-0.1v-0.1l0,0l0-0.1l0,0l0,0l0.1-0.1L39,39l0.1-0.1l0.1-0.1v-0.1l0-0.1l0-0.1l0.1-0.1l0-0.1l0.1-0.1l0.1-0.1l0-0.1v-0.1
				l0-0.1l0,0l0,0l0-0.1l0-0.1l0-0.1l0.1-0.1l0-0.1l-0.1,0l0.1,0l0,0l0-0.1l0-0.1l0.1-0.2l0,0l0.1-0.2l0-0.2l0-0.1l0.1-0.1l0-0.1
				l0-0.1v0l0-0.1l0-0.1l0-0.1l0-0.1l0-0.1l0-0.1l0-0.1l0-0.1l0-0.1l0.1-0.1l0-0.2l0-0.2l0-0.1l0-0.1l0-0.1l0-0.1l0-0.1V34l0-0.1
				l0,0l-0.1-0.1l0-0.1l0-0.1l-0.1-0.1l-0.1-0.1l0-0.1l0-0.1l0-0.1l-0.1-0.1l0-0.1l0-0.1v-0.1l0-0.1l0,0l0-0.1l0,0l0,0l0,0l0-0.1
				l0.1,0l0,0l0-0.1v-0.2l0.1,0l0,0v0.1l0,0v0l0,0l0.1-0.1l0,0l0,0l0.1,0l0,0l0.1,0l0.2,0.1l0.2,0.1l0.1,0l0.1,0l0.1,0l0.1,0l0,0
				l0,0v0l-0.1,0l0,0l-0.1,0l-0.1,0l-0.1,0l-0.1-0.1l-0.1,0l-0.1,0l-0.1,0l-0.1,0l-0.1,0l0,0l-0.1,0l-0.1,0l-0.1-0.1l-0.2-0.1L40,32
				l0-0.1l0-0.1l0-0.1l-0.1-0.1l0-0.1v0l0,0l0,0l0,0l0,0v0l0.1,0l0,0v0l0-0.1l-0.1-0.1l-0.1-0.1v0l0.1-0.1l0,0l0-0.1l0-0.1l0,0
				l-0.1,0l0,0l0-0.1l0,0l0-0.1l-0.1,0h-0.1v-0.1l0,0l0,0l0,0l0,0l0-0.1l0-0.1l-0.1-0.2l0-0.1l0,0L39.1,30L39,29.8l-0.1-0.1l-0.1,0
				l0-0.1l-0.1-0.1l-0.1-0.1l-0.1-0.1l0-0.1l0,0v-0.1l0-0.1v-0.1L38.5,29l0,0l0-0.1l0-0.1l0,0l0-0.2l-0.1-0.2l0-0.1l-0.1-0.1
				L38.1,28l0,0l-0.2-0.1l-0.2-0.1l-0.2-0.1l-0.1,0l-0.1,0h0l0,0l-0.1,0l0,0l-0.1,0l-0.1,0l-0.1,0l-0.1,0l-0.1,0l0,0l-0.1,0l0,0
				l-0.1,0l-0.1,0l-0.2,0l-0.1,0l0,0l0,0l0,0l-0.1,0l-0.1,0l0,0l0,0l-0.2-0.1l-0.2-0.1l-0.1-0.1L35.2,27l-0.1,0l-0.1,0L35,27h-0.1
				l0,0l0,0l-0.1,0l-0.1-0.1l0-0.1l0,0l0,0v0l0,0l0.1,0l0.1,0l0.1,0l0.1,0l0,0l0.1,0l0.1-0.1l0.1-0.1l0.2-0.2l0.1-0.1l0.1-0.1
				l0.1-0.1l0.2-0.3l0.2-0.3l0.1-0.2l0.1-0.1l0.1-0.2l0.1-0.1l0.1-0.2l0.1-0.2l0.1-0.2v-0.1l0-0.1l0-0.1l0-0.1l0-0.1l0-0.1l0-0.1
				l0-0.1l0-0.1l0-0.1v-0.1l0,0l0,0l0,0l0,0.1l0,0.1l0,0.1l0,0.1l0.1,0l0,0H37l0,0l0,0l0,0l0,0l0-0.1l0-0.1l0,0l0,0l0,0h0l0,0l0,0v0
				l0-0.1l-0.1-0.1L37,23l-0.1,0l-0.1,0l0-0.1v0l0-0.1l0-0.1l0-0.1l0.1-0.1l0-0.1l0-0.1v-0.1l0-0.1l0-0.1l0,0l0,0l0-0.1L36.8,21.8
				L36.8,21.8z"/>
			<path id="_x31_770" class="st0" d="M35.9,48.8l-0.2,0.1l-0.2,0l0,0l0,0l0.1-0.1l0.1-0.1l0.1,0l0.1,0l0.1,0l0.1,0h0.1l0.1,0l0,0
				l-0.1,0l-0.1,0L35.9,48.8z"/>
			<path id="_x31_827" class="st0" d="M124,111.8L124,111.8l-0.2,0.1l-0.1,0l-0.2,0l-0.2,0l0.4-0.2l0.2-0.1l0.2-0.1l0,0.1l0,0.1
				L124,111.8L124,111.8z"/>
			<path id="_x31_828" class="st0" d="M113,111.8L113,111.8l0.1,0.1l-0.1,0l0,0h-0.2l0,0l-0.1,0l0,0l-0.2,0l-0.2-0.1v-0.1l0-0.1
				l-0.2-0.1l-0.3,0.1v-0.1l-0.1-0.1l0.1,0l0.4,0.1l0.5,0.1l0.3,0.1L113,111.8z"/>
			<path id="_x31_831" class="st0" d="M120.2,113l0.2,0.1l0.2,0l0.2,0l0.1,0l0.1,0l0.2,0l0.2,0l0.1,0l0.2,0.1l-0.2,0.1l-0.2,0
				l-0.3,0l-0.3,0l-0.4,0l-0.3-0.1l-0.2-0.1l-0.1-0.2l-0.1-0.1l-0.1-0.1v-0.2l-0.1-0.1l0.7,0.1h0.1l0.2,0l0.2,0l0.2,0l0.1,0.1l0,0.1
				l-0.1,0l-0.1,0l-0.1,0.1l-0.3,0l0,0.1l-0.2,0.1l0,0.1l0.1,0.1L120.2,113L120.2,113z"/>
			<path id="_x31_833" class="st0" d="M118.9,112.8L118.9,112.8l0.1,0.2l0.1,0.1l-0.1,0l-0.2,0l-0.2,0l-0.2,0l-0.3,0l-0.4-0.1
				l-0.2-0.1v-0.1l0.4-0.1l0.4-0.1l0.1-0.1l0-0.2l0.1-0.1l0.2,0.1l0.1,0.1l0,0.1L118.9,112.8L118.9,112.8z"/>
			<path id="_x31_852" class="st0" d="M95.9,116.9l-0.1,0l-0.1,0l0,0l0-0.1l0-0.1l0.1-0.1l0.1,0l0.1-0.1l0.2-0.1l0.1,0l0.1,0
				l0.1,0.1l0.1,0.1l0.1,0.1l-0.1,0.1l-0.1,0.1l-0.1,0h-0.1l-0.2,0L95.9,116.9L95.9,116.9z"/>
			<path id="_x31_855" class="st0" d="M98.8,118l-0.1,0l-0.1,0l-0.1,0l-0.1,0l0-0.1l-0.2-0.3l0.1-0.1l0.2,0l0.3,0.3l-0.3,0.1l0,0.1
				h0.2l0.1,0l0.1,0l0.1,0l0,0.1l-0.1,0.1l0,0.1H98.8z"/>
			<path id="_x31_859" class="st0" d="M99.9,118.3L99.9,118.3l1.3,0.1l0.5,0l0.2,0l0.1,0l0.2,0l0.2,0.1l0,0.1l0.2,0.1l0.1,0l0,0.1
				l0.2,0l0.2,0.1h0.1l0.2,0.1l0.2,0.1l0.2,0.2l0,0.1l-0.2,0.1l-0.3,0l-0.4-0.1l-0.3-0.1l-0.3-0.1l-0.3,0l-0.2-0.2l-0.1-0.1l-0.3,0
				l-0.4,0l0-0.1l0.1-0.1l0-0.1l-0.4,0l0,0.1l-0.2,0l-0.1-0.1l-0.2,0l-0.3,0L99.9,118.3z"/>
			<path id="_x31_860" class="st0" d="M67.7,118.2l-0.2,0l-0.1-0.1v0l0.1,0l0.1,0l0.2,0.1L67.7,118.2l0.2-0.1v0.1h-0.1L67.7,118.2z"
				/>
			<path id="_x31_862" class="st0" d="M70.3,118.3L70.3,118.3l0.1,0.1v0l-0.2,0l-0.1,0l0,0l0.1,0L70.3,118.3z"/>
			<path id="_x31_864" class="st0" d="M70.4,118.6L70.4,118.6l0.2,0l0,0l-0.1,0L70.4,118.6L70.4,118.6L70.4,118.6z"/>
			<path id="_x31_865" class="st0" d="M73,119.4L73,119.4L73,119.4l0.1,0l0,0l0,0l-0.1,0L73,119.4L73,119.4L73,119.4z"/>
			<path id="_x31_867" class="st0" d="M74.1,120L74.1,120L74.1,120L74.1,120L74.1,120l-0.2,0L74.1,120L74.1,120z"/>
			<path id="_x31_868" class="st0" d="M74.3,120l0.2,0l0,0l-0.1,0.1L74.3,120L74.3,120L74.3,120z"/>
			<path id="_x32_057" class="st0" d="M194.6,204.5l0-0.1l0.1-0.1l0-0.1l0.1,0l0.1-0.1v0l0-0.1l0-0.1l0,0l-0.1-0.1l-0.3-0.1l0-0.1
				l-0.2-0.1l-0.1,0l-0.1,0l-0.1,0l-0.1,0l-0.2-0.1l-0.2,0l-0.2,0l-0.3,0.1l-0.2,0l-0.1-0.1l0.3,0l0.1,0l0.1,0l-0.1-0.1l-0.1,0
				l0.1-0.1l0-0.1l0.4,0l0.2,0l0.2,0l0.2,0l0.1,0.1l0.2,0h0.2l0.1,0h0.2l0.2,0l0.2,0l0.2,0l0.3,0.1l0.4,0.1l0.4,0.1l0.3,0.1l0.2,0.1
				l0.1,0.1l0.2,0l0.1,0.1l0.5-0.1l0.1-0.1l0.3,0l0.2,0l0.2,0l0.5,0l0.2-0.1l0.2,0l0.1,0.1l0.2,0l0,0h0.1l0.1,0l0.3,0.1l0.2,0
				l0.4,0.1l0.3,0l0.3,0.1l0,0.1l0.2,0l0.2,0l0.3,0.2l0.2,0h0.2l0.2,0l0.2,0.1l0.3,0l0.3,0l0.1,0.1l0.4,0l0.1,0.1l0.2,0l0.2,0l0.2,0
				l0.2,0l0.5-0.3l-0.1-0.1l0-0.1l0.2,0l0.2-0.1l0.2-0.1l0.4-0.1l0.2,0.1l0.3,0l0-0.1l0.2,0l0.2-0.1l0.2,0l0.1,0.1l0.4,0.1l0.2,0
				l0.4,0.1l0.2,0.1l0.2,0.1l-0.1,0.1l-0.1,0l-0.1,0.1l-0.2,0l-0.4,0l-0.2,0.1l0.1,0.1l-0.2,0.1l0,0.1l0,0.1l-0.1,0.1l0,0l0,0
				l-0.1,0l-0.1,0l-0.3,0l-0.2,0l-0.2,0.1l-0.3,0.1l-0.2,0h-0.3l-0.2,0l-0.2,0l-0.3,0l-0.4,0l-0.2,0l-0.3,0l-0.3,0l-0.5,0l-0.3,0.1
				l-0.2,0.1l-0.1,0l-0.1,0.1l-0.3,0l-0.1,0.1l-0.3,0.1l-0.2,0l-0.1,0.1l-0.2-0.1l-0.3,0.1l-0.3,0.1l-0.2,0l-0.2,0h-0.2l-0.3-0.1
				l-0.1,0l-0.1,0l-0.2,0l-0.1,0l-0.1,0l-0.3,0l-0.2,0l-0.1,0h-0.1l-0.1,0l-0.4,0l-0.2-0.1h-0.2l-0.5,0l-0.3,0.1l-0.1-0.1l-0.2-0.1
				h-0.1l-0.1,0l-0.4,0l-0.1,0.1l-0.2,0l-0.2-0.1l-0.1,0l0,0l-0.2-0.1l-0.5,0V205l0-0.1l-0.1-0.1l-0.1-0.1v0l-0.1-0.1L194.6,204.5
				L194.6,204.5z"/>
			<path id="_x32_058" class="st0" d="M175.4,202.9l0.1,0.1l0.1,0.1v0.1l0.1,0.1l-0.2,0.1l0.2,0.1l0.3,0.1h0.2l0.4,0l0.2,0l0.2,0.1
				l0.2,0.1l0.3,0.1l0,0.1l0,0.1l0.1,0.1l0.4,0.1l-0.1,0l-0.2,0l-0.2,0l-0.3,0l-0.4,0l-0.3,0l-0.4,0l-0.3,0l-0.3,0l-0.1,0.1l-0.3,0
				l-0.2-0.1l-0.2-0.1l-0.3-0.1l-0.2,0l-0.3-0.1l-0.4-0.1l-0.2,0h-0.1l-0.1,0L173,204l-0.3,0l-0.2-0.1l-0.2,0l-0.2,0l-0.3,0l0.2-0.1
				l0-0.1l0.2,0h0.1l0.2,0l0.4-0.2l0.3-0.1l0.2-0.1l0.1,0.1l0.2,0l0.2,0l0.3,0l0.2,0l0.1,0l0.1,0l0.2,0l0.1,0l0.1-0.1l0.2-0.1
				l0.1-0.1l0-0.1l0.1,0L175.4,202.9z"/>
			<path id="_x32_060" class="st0" d="M176.6,203.2L176.6,203.2l0.3-0.1l0.1,0.1l0,0.1l-0.1,0l-0.2,0L176.6,203.2L176.6,203.2
				L176.6,203.2z"/>
			<path id="_x32_062" class="st0" d="M183.3,206.5L183.3,206.5l-0.2-0.1l-0.3-0.1l0-0.1l-0.1-0.1l-0.1-0.1l-0.1-0.1l0-0.1l-0.1-0.1
				l-0.2,0l-0.1,0l0-0.1l-0.1-0.1l-0.1-0.1l0-0.1l-0.1-0.1l-0.2-0.1l-0.2-0.1l-0.1-0.1l0-0.1l-0.1-0.1l-0.1,0l-0.2,0l-0.1,0
				l-0.1-0.1l-0.1-0.1l-0.2,0l-0.1-0.1l0.2,0l0.1,0l0.1-0.1l0.1-0.1l0.2,0l0.2,0h0.3l0.5,0.1l0.4,0l0.5-0.1l0.2,0l0.1,0l0.1,0h0.1
				l0.2,0l0.6-0.2l0.2-0.1l0.2,0l0.3,0l0.3,0.1h0.3l0.2,0.1l0.3,0l0.2,0l0.3,0l0.4,0l0.2,0l0.3-0.1l0.1-0.1l0.1,0l0.1,0l0.2-0.1
				l0.1,0l0.2,0l0.1,0l0.1,0l0.1,0l0,0l0,0.1l0,0.1l-0.2,0.1l-0.1,0.1l0,0.1l0.1,0.1l0,0.2l0.3,0.1l0.6,0.2l0.4,0.1l0.1,0l0.3,0.1
				l0.5-0.1l0.4,0l0.2,0l0,0.1l0,0.1l0,0.1l0,0.1l0,0.2l0.1,0l0.1,0.1v0.1l0.1,0.1l-0.1,0l-0.2,0l-0.3,0l-0.4,0l-0.4,0l-0.1,0.1
				l-0.4,0.1l-0.2,0.1l-0.2,0.1l-0.4,0.1l-0.1,0.1l-0.2,0l-0.1,0.1l-0.3,0l-0.4,0l-0.3,0l-0.2,0.1l-0.5,0l-0.3,0l-0.2,0l-0.3,0.1
				l0,0.1l-0.1,0l-0.2,0l-0.1,0l-0.1,0l-0.1-0.1l-0.1,0l-0.2-0.1l-0.2,0l-0.1-0.1l-0.2,0l-0.2-0.1l-0.1-0.1l-0.1,0l-0.2,0l-0.1,0
				l0,0l-0.1,0l-0.1,0L183.3,206.5z"/>
			<path id="_x32_063" class="st0" d="M215.3,204.2l0.1,0l0.2,0l0.2,0l0.2,0l0,0.1l-0.1,0l-0.1,0l-0.1,0L215.3,204.2L215.3,204.2z"
				/>
			<path id="_x32_064" class="st0" d="M212.9,204.3l-0.2,0v0l0.3,0l0.2,0l0.2,0l0.2,0.1l0,0l0.2,0.1l0.1,0l-0.1,0l-0.4,0l-0.2,0
				l-0.2-0.1L212.9,204.3z"/>
			<path id="_x32_065" class="st0" d="M214.4,204.3h0.2l0.2,0l0.2-0.1l0.2,0v0l-0.1,0l-0.1,0l-0.1,0l-0.3,0.1l-0.3,0l-0.2-0.1
				L214.4,204.3L214.4,204.3z"/>
			<path id="_x32_077" class="st0" d="M260.8,210L260.8,210l-0.2,0.1l-0.2,0.1l0,0.1l-0.2-0.1l-0.1,0l0.2,0.3l-0.1,0l-0.3-0.4l0,0
				l0-0.1l0.1-0.1l0.1-0.1l0.2-0.1l0.2-0.1l0.1-0.1l0.3-0.1l1-0.1l0,0l0.2,0.2l0,0.1l-0.2,0l-0.2-0.1l-0.2,0l-0.5,0.1l0.1,0.1l0,0
				l0.4,0l0.5-0.1v0l-0.4,0.1l-0.5,0l-0.1,0l-0.2-0.2L260.8,210L260.8,210z"/>
			<path id="_x32_078" class="st0" d="M228.8,216.2l0.3,0l0.2-0.1l0-0.1l0.1,0h0.1v0.1l0,0.1l0.1,0.1l-0.1,0.1l-0.1,0.1l-0.1,0.1
				l-0.1,0l-0.1,0l-0.1-0.1l0-0.1L228.8,216.2L228.8,216.2z"/>
			<path id="_x32_079" class="st0" d="M251.9,219.2l-0.2-0.1l-0.2-0.1l0-0.2l0.1-0.1l0.2-0.1l-0.1-0.1l0.2-0.1l0.1,0l0.1,0l0-0.1
				l-0.1-0.1l-0.2-0.2l-0.1-0.2l-0.1-0.2l-0.2-0.1H251l-0.2-0.1l0.3-0.2l-0.2,0l-0.3,0.1l-0.3,0.1l-0.2,0l-0.3,0l-0.3,0l-0.3,0
				l-0.6,0l-0.1,0l-0.3-0.1L248,217l0.1-0.1l-0.3-0.1l-0.5-0.3l-0.4-0.2l-0.1-0.1l0.2,0l0.4,0l0.2,0l0.3,0l0.3,0l0.3,0l0.2,0l0.5,0
				l0.2,0l0.2,0.1l0.1,0.1l0.1,0.1l0.3,0l-0.1,0.1l0.5,0.1l0.2,0.1l0.2,0.1l0.1,0.1l0.2,0l0.2,0l0.2-0.1l0.2,0l0.1,0.1l0.2,0
				l0.1,0.1l0.4,0.1l0.2,0l0.4,0.1l0.4,0l0.3,0l0.8,0.2l0.4,0l0.1,0.1l0.3,0.1l0.4,0h0.2l0,0.1l-0.1,0.2l0.7,0.5l0.9,0.3l0.3,0.3
				l0.5,0.2l0.1,0.2l0.3,0.2l-0.1,0.3l-0.3,0l0,0.1l-0.2,0l-0.2,0.1l-0.4-0.1l-0.6-0.2l-0.2-0.1l-0.3,0l-0.2,0l-0.7,0l-0.4-0.1
				l-0.6,0.1l-0.4,0l-0.5,0.1l-0.4-0.1l-0.5,0l-0.3,0l-0.2-0.1l-0.2-0.1l-0.2-0.1l-0.2-0.1l-0.1-0.1L251.9,219.2z"/>
			<path id="_x32_081" class="st0" d="M209.7,222.1l-0.3,0l-0.4,0l-0.4-0.1l-0.2-0.1l-0.1-0.1l-0.3-0.1l-0.2-0.2l-0.2-0.1l-0.1-0.1
				l0-0.1l-0.2-0.2l-0.1-0.1l0,0l0.3,0l0.1,0.1l0.3,0.1l0.3-0.1l0.1-0.1l0.2,0l0.3,0l0.2-0.1l0.2,0l0.2,0l0.1,0.1l0.2,0l0.3,0.1
				l0.3,0.1l0.2,0.1l0.4,0l0.2,0.1h0.3l0.1,0l0.3,0l0.2,0l0.2,0.1l0.2,0.1l0.2,0.1l0.2,0.2l0.2,0.1l0.3,0.1l0.3,0.1l-0.1,0.1l-0.1,0
				l-0.1,0v0.1l-0.1,0.1l-0.1,0.1l-0.3,0l-0.2,0l-0.2,0l-0.2,0l-0.4,0l-0.4-0.1l-0.4-0.1l-0.2,0l-0.2,0l-0.5,0L209.7,222.1z"/>
			<path id="_x32_088" class="st0" d="M246.8,226.1l0.1,0l0.1,0l0,0l0,0v0l-0.1,0l-0.1,0l-0.1,0L246.8,226.1L246.8,226.1
				L246.8,226.1z"/>
			<path id="_x32_089" class="st0" d="M251.2,230l0-0.2l-0.2-0.1l-0.4-0.1l-0.3-0.3l-0.2-0.2l-0.3,0l-0.3-0.3l-0.1-0.3l-0.2-0.3
				l-0.2-0.2l-0.2-0.1l-0.3-0.1l-0.2-0.1l-0.1-0.2l0-0.2l-0.2-0.1L248,227l-0.2-0.1l-0.2-0.1l-0.2-0.1l-0.4,0v-0.1l0-0.1l0-0.2
				l0.2,0l0.4,0l0.1,0.1l0.3,0l0.2-0.1l0.2,0.1l0.1,0l0.1,0l0.1,0.1l-0.2,0.1l0.2,0.1l0.1,0.2h0.2l0.2,0.1l0.1,0.1l0.2,0.3l0.3,0.1
				l0.2,0.2l0.4,0.2l0.4,0.3l0.4,0.3l0.3,0.2l0.4,0.2l0.5,0.1l0.3,0.1l0.2,0.1l0.2,0.1l0.3,0.1l0.4,0.2l0.7,0.3l0.5,0.2l0.6,0.2
				l0.6,0.3l0.5,0.2l0.4,0.3l0.3,0.1l-0.1,0.1l-0.2,0l-0.1-0.1l-0.3,0l-0.3,0l-0.2-0.1l-0.3-0.1l-0.4,0l-0.2,0.1l-0.3,0.1l0.1,0.2
				l-0.3,0l-0.2,0l-0.5,0.2l-0.2-0.3l-0.2-0.1l-0.2,0l-0.2-0.1l-0.2,0l-0.1-0.1l-0.4-0.2l-0.3-0.1l-0.2-0.2l-0.2-0.1l-0.5,0l0-0.1
				l-0.3,0l-0.1-0.2L251.2,230z"/>
			<path id="_x32_096" class="st0" d="M303.9,231.5l0-0.1l0.1-0.1l0-0.1l0,0l0.1,0l0.1,0l0,0l-0.1,0l0,0l0,0v0.1l0,0l0,0l0,0l-0.1,0
				l-0.1,0l0,0v0l0,0l0,0l0.1,0l0.1,0l0.1,0v0.1l0,0l-0.1,0l-0.1,0l0,0v0l-0.1,0l0,0l-0.1,0v0.1l-0.1,0l-0.1,0l-0.1,0l0,0l0,0h0
				L303.9,231.5L303.9,231.5L303.9,231.5z"/>
		</g>
	</g>
</g>
<g id="Text">
	<path class="st1" d="M394.8,49.6c-0.4,1.8-1.5,4.1-4.7,5.9c-4,2.3-9.3,2.7-11.1,2.9c-47.1,4.2-92.9,11.3-139.7,16
		c0,0-23.6,2.4-24.4,1s24.9-2.5,34.4-12.4c7.4-7.8,3.8-20,3.1-22.6c-1.7-5.8-4.2-7.9-1.9-9.1c4.6-2.3,19.4,4.2,51,13.1
		c24.6,6.9,35.5,8.6,41,9.3c13,1.7,30.5,3.9,42.5-0.9c2-0.8,7.3-1.9,10.4-4.9c1.3-1.4,2.2-2.8,2.6-4.3
		C397.8,43.5,397.2,44.7,394.8,49.6z"/>
	<path class="st1" d="M398.6,42c2.6-6.1-5.5-12.6-13-15.9c-7.6-3.3-16.1-4.2-28.5-4.5c-24.7-0.7-33.8,1.3-53.9,2
		c-35.8,1.1-43.8-4.3-76.9-1c-11.8,1.2-25.3,3.4-25,4.1c0.1,0.3,12.1-2,27.2-0.9c10,0.8,17.2,2.8,21.9,4.1
		c23.3,6.5,48,13.2,58.3,15.9c37.3,9.7,50.9,9.2,55.7,8.9c4.7-0.3,18.1-1.2,27.8-6.8C394.6,46.5,397.5,44.8,398.6,42z"/>
	<path class="st1" d="M180.5,33.5"/>
	<path class="st2" d="M200.2,26.7c-6.5,1.2-18.2,4.2-24.4,10.8c-4.5,4.8-4.3,9.6-3.8,18.3c0.2,4.9,0.4,7.3,2.2,9.3
		c7.6,8.2,30,9.7,32.7,9.8c4.1,0.3,8.3,0.3,12.3,0"/>
	<polyline class="st3" points="206.8,27.4 205.7,26.6 220.6,27.5 223.3,28.1 223.6,29.7 207.2,28.9 206.8,27.4 224.1,28.4 	"/>
	<path class="st3" d="M201.4,26.7c-4.5,1.3-8.6,2.8-12.1,4.6c-4.4,2.2-10.3,5-13.4,9.5c-4.2,6,1.4,8-1.1,16.4
		c-0.3,1.1-1.3,3.9,0.7,7.2c0.6,0.9,1.3,1.7,2.1,2.6c3.5,3.3,17.7,6.5,36.5,7.5"/>
	<path class="st3" d="M233.6,49.2c0,0-4.1,2.4,1.4,3.5c5.5,1.1,5.8,3.8,9.1,3"/>
	<path class="st3" d="M201.1,52.4c0,0-4.1,2.4,1.4,3.5c5.5,1.1,5.8,3.8,9.1,3"/>
	<path class="st3" d="M238.3,49.4c0,0-4.1,2.4,1.4,3.5c5.5,1.1,5.8,3.8,9.1,3"/>
	<path class="st2" d="M242.3,33.1l-6.8,3.3l-5.3-1.2L239,31l12,5.6"/>
	<path class="st2" d="M251.2,37.2l-9.4,2.8l-6.3-3.7"/>
	<path class="st2" d="M230.7,45.4l6.5,4l13.5,2l1.7-2.3c-4.6-3.1-7.8-5.5-10.2-7.3c-1-0.8-2.6-2-4.7-2c-1.8,0-3.1,0.9-4.1,1.5
		C231.3,42.7,230.8,44.4,230.7,45.4z"/>
	<polyline class="st2" points="246.5,50.6 244.8,49.4 235.3,42.5 234,41.8 	"/>
	<polyline class="st2" points="223.4,48.2 221.3,50.7 219,52 223.2,53.5 230.3,56 234.8,55.5 231.7,53.2 230.5,49.6 224.3,48.2 	"/>
	<path class="st2" d="M202.8,41.8"/>
	<path class="st3" d="M224.9,51.4c-1,0.1-0.7,2.6-0.2,4.8l6.3,2.9c1.7,0.5,7.2,2.1,11.5,0.9c0.7-0.2,1.9-0.6,1.8-0.9
		c-0.2-0.4-3,0-7.6-0.4c-2.1-0.2-3.4-0.3-4.9-0.7c-1.7-0.5-3-1.2-3.7-2c-1.4-1.6,0.1-2.8-1.8-4.1C225.9,51.7,225.4,51.4,224.9,51.4z
		"/>
	<path class="st3" d="M195.9,58.9c0,0-3.1,1.2-2.6,1.4"/>
	<path class="st3" d="M195.7,63.1c0.2,0,10.1,2.8,10.1,2.8"/>
	<path class="st3" d="M191,64.6c0,0,11.2,4.4,12.6,3.6"/>
	<path class="st3" d="M217,70.4c0,0,6.1,1.5,6.6,1.6c0.5,0.1,7.2-1.3,6.2-2.5"/>
	<path class="st3" d="M220.6,65.7c0,0-10.2,2.9-7.8,4.1s6.7,3.6,6.7,3.6s17.1-2.9,15.8-3.9c-1.3-1,0.2-2.5,0.2-2.5s-3.8-3.2-5.5-2.6
		C228.3,65,220.6,65.7,220.6,65.7z"/>
	<path class="st3" d="M201.5,57.6l-9.4-0.3c0,0-7.8,3.1-6.1,5.6s2.5,8.1,11.2,8.2c8.7,0.1,15.5-1.7,12.8-2.2
		c-2.7-0.5,2.5-5.4-0.8-4.1c-3.3,1.2-7.2-8.1-5.2-7"/>
	<path class="st3" d="M195.8,61.9"/>
	<path class="st3" d="M170.5,53.1c1.8,1.9,10.3,5.4,11.2,4.3c0.9-1.1,7.4,0.2,7.4,0.2s7.5-1.9,4.2-1.7c-3.2,0.2-2.5-2.1-2-1.9
		c0.5,0.2-5.3-2.2-5.3-2.2s-6.4-1.2-5.3-1.2s-1.3-2.4-1.3-2.4S168.7,51.2,170.5,53.1z"/>
	<path class="st3" d="M188.3,32c0,0-10.2,3.3-6.5,5s16.3,1.3,16.6,0.2L188.3,32z"/>
	<path class="st3" d="M194,38.8c0,0,3.7,6.7,8.1,2.6c4.4-4.1,10.1-4.9,10.1-4.9"/>
	<path class="st3" d="M202.8,42.4c0,0-1.2,5.2,3.7,6.3"/>
	<path class="st3" d="M206.7,42.5c0,0-4.1,2.4,1.4,3.5c5.5,1.1,5.8,3.8,9.1,3"/>
	<path class="st3" d="M204.5,48.7"/>
	<path class="st3" d="M191.7,48.1"/>
	<path class="st3" d="M168.2,44.1"/>
	<path class="st3" d="M186.2,49.2c-0.7-0.2-1.4-0.4-2.1-0.6c-1.3-0.4-5.7-1.8-6.9-2l-9-2.5l1.6-3.5c1.6,0.8,3.4,1.5,5.2,2.2
		c9.2,3.4,16.7,4.2,16.5,5.2C191.5,48.4,190.6,48.8,186.2,49.2z"/>
	<polyline class="st3" points="169.8,40.6 172.4,40.8 172.1,40.7 172.4,40.8 190.5,46.2 191.6,47.6 	"/>
	<path class="st3" d="M175.5,41.7"/>
	<path class="st3" d="M175.4,42.3"/>
	<path class="st2" d="M203.8,52.1c0.6,0,9.2-2.1,9.2-2.1l2.7,3.6l6.7,5l-14.5-1l-3.3-2.7L203.8,52.1z"/>
	<line class="st2" x1="205.7" y1="55" x2="214.4" y2="53.5"/>
	<path class="st3" d="M187.7,52.1c0,0,3.7,6.7,8.1,2.6c4.4-4.1,10.1-4.9,10.1-4.9"/>
	<path class="st3" d="M200.4,55.8c0,0-4.1,2.4,1.4,3.5c5.5,1.1,5.8,3.8,9.1,3"/>
	<path class="st2" d="M216.9,33.2l0.1-2.8c-4.4-0.4-9.2-0.6-14.3-0.8c-4.9-0.2-9.8-0.3-14.6-0.2l0.2,2.7c5.2,0,10.4,0.1,15.6,0.3
		C208.4,32.5,212.8,32.8,216.9,33.2z"/>
	<path class="st2" d="M204.9,28.4"/>
	<path class="st2" d="M182.6,26.5c4.7,0.1,9.3,0.4,13.9,0.8c2.1,0.2,4.8,0.5,8.6,0.6c2.4,0.1,4.7,0,7.1-0.1l3.8,2.4l-28.1-1.2
		l-5.4-2.5"/>
	<path class="st2" d="M209.1,29.9"/>
	<path class="st2" d="M194.7,27.8"/>
	<path class="st2" d="M209.1,30.3"/>
	<path class="st2" d="M200.1,30.5"/>
	<line class="st2" x1="181.4" y1="30" x2="187.5" y2="32.8"/>
	<line class="st2" x1="181.4" y1="30.2" x2="182.4" y2="26.4"/>
	<path class="st2" d="M214.2,46.4l5.5,1.2"/>
	<path class="st2" d="M223.9,46.2l8.6,2.3"/>
	<path class="st2" d="M229.2,39.8"/>
	<path class="st2" d="M235.2,57l5-1"/>
	<path class="st3" d="M240.8,57.9l6.8-1.5"/>
	<path class="st3" d="M229.2,34.6l8.3,5.2"/>
	<path class="st3" d="M247.9,49.6l1.9-1.3"/>
	<path class="st3" d="M246.1,57.6l-0.8,2.7"/>
	<path class="st3" d="M190.3,39.4c2.3,1.6,4.5,3.1,6.8,4.7"/>
	<path class="st3" d="M189.1,44.7c-0.7-0.2-1.4-0.4-2.1-0.6c-1.3-0.4-5.7-1.8-6.9-2l-9-2.5c0.5-1.2,1.1-2.3,1.6-3.5
		c1.6,0.8,3.4,1.5,5.2,2.2c9.2,3.4,16.7,4.2,16.5,5.2C194.4,43.9,193.5,44.3,189.1,44.7z"/>
	<polyline class="st3" points="174.9,36.2 175.2,36.3 193.3,41.7 194.4,43.1 	"/>
	<path class="st4" d="M173,41.8"/>
	<path class="st5" d="M173.4,41.7c-0.1,0.2,2.6,1.2,2.8,1.1c0.2-0.1-1.3-1.1-2.5-1.1C173.4,41.6,173.4,41.6,173.4,41.7z"/>
	<path class="st3" d="M227.3,37.2c-4-1.1-8.4-2-12.9-2.7c-2-0.3-4.1-0.5-6.2-0.7l-1.3,1.5l18,3.1l1.7,0.3L227.3,37.2z"/>
	<path class="st2" d="M228.6,36.1l-1.1,1.2L228.6,36.1z"/>
	<polyline class="st3" points="228.1,36.2 215.6,33.5 211.9,33 208.5,33.5 207.8,34.2 	"/>
	<polyline class="st3" points="216.9,27.2 215.8,26.5 230.7,27.4 233.4,27.9 233.7,29.5 217.3,28.8 216.9,27.2 234.2,28.3 	"/>
	<polyline class="st3" points="231.5,30 230.4,29.3 245.3,30.2 247.9,30.7 248.3,32.3 231.8,31.6 231.5,30 248.8,31.1 	"/>
	<polyline class="st3" points="237.8,40.2 236.8,39.5 251.6,40.4 254.3,40.9 254.7,42.5 238.2,41.8 237.8,40.2 255.2,41.3 	"/>
	<line class="st2" x1="216.5" y1="30.2" x2="187.6" y2="29"/>
	<path class="st3" d="M226.6,60.2c-4.7-1.3-14.4,2.2-13.5,4.1c0.8,1.6,10.1,2.3,17.3,1.2c7.4-1.1,12-3.8,11.6-4.1
		c-0.4-0.4-7.1,2.4-11.7,1C228.2,61.7,228.5,60.8,226.6,60.2z"/>
	<path class="st6" d="M218,62.6c5.8,1.4,8,1.7,8.2,1.5c0.4-0.4-4.7-2.1-4.4-2.5c0.2-0.2,2.6,0.3,5.7,1"/>
	<path class="st3" d="M260.1,37.3"/>
	<path class="st7" d="M257.6,47.2c0.6-2.4,1.3-4.7,2-7.1"/>
	<path class="st7" d="M261.9,45c1.7,4.1,1.8,8.3,0.3,12.3c-2.8,7.5-10.5,12.3-14.1,14.2"/>
	<path class="st7" d="M265.3,45.3c0.5,2.8,0.6,5.6,0.1,8.3c-0.4,2.8-1.4,5.5-2.8,8.2"/>
	<path class="st7" d="M259.4,52.5c-0.2,3.9-1.8,7.7-4.8,11.3c-1.8,2.2-4.2,4.3-7.2,6.3"/>
	<path class="st7" d="M257.5,49.9c0.3,4.2-1,8.3-3.8,12.2c-3.9,5.4-9.7,8.8-13.3,10.6"/>
	<path class="st7" d="M268.4,52.7c0.3,0.7,0.9,2.5-0.7,4.3c-0.4,0.5-1,1-1.8,1.4"/>
	<path class="st7" d="M270.8,46.7c1.5,4.1,1.2,8.3-0.9,12.3c-2.8,5.3-8.1,8.6-11,10.2"/>
	<path class="st8" d="M261.1,63.9l-4.3,4.2"/>
	<path class="st9" d="M288.1,46.2"/>
	<path class="st9" d="M280.2,47.5c0.2,3.6-0.3,7.1-1.5,10.6c-1.2,3.3-3,6.5-5.6,9.7"/>
	<path class="st9" d="M277.1,56.3c-0.8,2.1-1.9,4.1-3.5,6c-1.7,2.1-3.9,4.2-6.6,6.1"/>
	<path class="st10" d="M274.8,45.5c0.1,1.1,0.1,2.6,0,4.4c-0.3,3.8-0.6,7.9-4,12.3c-1.9,2.5-4.6,4.8-8,6.9"/>
	<path class="st10" d="M266.9,60.5c-1.5,1.7-3.2,3.3-5.1,4.9c-2.6,2.1-5.5,4.1-8.8,6"/>
	<path class="st10" d="M284.5,49.4c-0.3,0.6-0.6,1.5-1.1,2.4c0,0-1,2.1-2,4.3c-2.1,4.5-5,9.7-5.3,10.4"/>
	<path class="st10" d="M283.5,58.7c-0.7,1.2-1.5,2.5-2.4,3.8c-1,1.4-2,2.8-3,4.1"/>
	<path class="st5" d="M288.4,51.8c-0.2-0.1-1.3-0.1-2,0.3c-0.6,0.4-0.4,0.7-0.9,1.5c-0.6,1-1.3,1.2-1,1.5c0.4,0.5,2.1,0.9,2.7,0.6
		c0.3-0.2,0.3-0.6,0.1-0.9c-0.2-0.2-0.4-0.3-0.5-0.5c-0.1-0.2-0.2-0.4-0.1-0.6c0-0.3,0.2-0.5,0.8-1C288.3,52,288.5,51.9,288.4,51.8z
		"/>
	<path class="st11" d="M292.6,49.1c0.9,2.5,1,5,0.5,7.4c-0.8,3.6-3.3,7-7.3,10.1"/>
	<path class="st11" d="M289.7,55.8c-0.2,1.4-0.7,3-1.3,4.6c-0.7,1.8-1.7,3.5-2.8,5.2"/>
	<path class="st11" d="M286.1,59.8c-0.5,1-1.1,2.1-1.8,3.2c-0.8,1.3-1.8,2.5-3,3.7"/>
	<path class="st11" d="M297.4,52.6c1,3.2,0.7,6.3-0.8,9.4c-0.9,2-1.7,2.8-2.1,3.1c-0.7,0.6-1.5,1.1-2.5,1.6"/>
	<path class="st11" d="M295.1,57.3c-0.9,1.5-1.5,2.7-1.8,3.5c-0.7,1.7-0.9,2.6-1.9,4c-0.6,0.8-1.3,1.5-2.2,2.3"/>
	<path class="st9" d="M300.1,52.5c0.1,1.1,0.2,2.6,0.1,4.4c-0.1,1.6-0.1,2.6-0.5,3.9c-0.5,1.6-1.3,3.2-2.5,4.7"/>
	<path class="st9" d="M304.7,51c0.9,1.4,1.2,2.9,0.8,4.3c-0.2,0.6-0.5,1.3-0.9,1.9"/>
	<path class="st9" d="M307.6,55.6c0.2,1,0.2,2.1,0,3.1c-0.3,2-1.1,4-2.5,5.9"/>
	<path class="st9" d="M302.3,53.7c0.2,2.2,0.1,4.4-0.4,6.5c-0.3,1.4-0.7,2.7-1.2,4"/>
	<path class="st9" d="M309.4,51c0.1,2.4,0.6,4.8,1.4,7.2c0.5,1.4,1.3,3.2-0.1,5c-0.4,0.5-1,1-1.8,1.5"/>
	<path class="st9" d="M311.4,41c0.3,0.9,0.7,1.9,1,2.8"/>
	<path class="st9" d="M313.8,50.5c1.4,2.5,1.9,5.1,1.3,7.7c-0.4,1.8-1.2,3.5-2.5,5.1"/>
	<path class="st9" d="M317.4,51.2c0.5,1.9,0.8,3.5,1,4.8c0.3,2.6,0.1,3.8,0.1,4.2c-0.2,1-0.5,2-1.1,2.9"/>
	<path class="st9" d="M321.9,56.5c-0.2,1.4-0.4,2.9-0.8,4.4c-0.2,0.9-0.5,1.8-0.7,2.7"/>
	<path class="st9" d="M322.6,55.3c0.2,0.8,0.6,2,1,3.5c0.4,1.6,0.6,2.4-0.1,3.2c-0.3,0.4-0.9,0.7-1.5,1"/>
	<path class="st9" d="M325.3,54.4c-0.9,1.7-0.6,3-0.1,3.8c0.5,0.9,1.4,1.6,1.3,2.7c-0.1,0.6-0.4,1.2-1,1.8"/>
	<path class="st9" d="M329.7,54.3c-0.3,0.9-0.4,1.9-0.3,2.8c0.1,0.6,0.2,0.7,0.3,1.5c0.1,1.1,0.1,1.8-0.4,2.6c-0.4,0.5-1,1-1.7,1.4"
		/>
	<path class="st9" d="M330.8,54.5c1.2,1.2,1.9,2.4,2,3.6c0.1,1.5-0.6,3-2.2,4.2"/>
	<path class="st9" d="M335.5,54.3c1.2,2.2,1.1,4.5-0.2,6.7"/>
	<path class="st9" d="M338.6,54.6c0.5,0.5,0.8,1.1,1,1.7c0.3,1.1,0,2.1-0.8,3.1c-0.5,0.7-1.2,1.4-2.2,2"/>
	<path class="st9" d="M341.2,55.2c1.6,1.3,1.5,2.1,1.4,2.5c-0.1,0.2-0.2,0.4-2.2,2.2c-0.5,0.4-0.8,0.7-1.1,1"/>
	<path class="st9" d="M344.6,55.5c1.3,1.2,1,2.1,0.9,2.4c-0.3,0.7-1.3,1.3-2.9,2.2c-0.5,0.3-1,0.5-1.3,0.7"/>
	<path class="st9" d="M347.9,56.3c-0.4,0.9-0.7,1.6-0.8,2c-0.4,1-0.5,1.4-1.1,1.7c-0.5,0.3-1.3,0.5-2.2,0.6"/>
	<path class="st9" d="M385.4,29.8c2.3,1.6,4,3.3,5.3,5c1.9,2.6,2.4,4.8,2.7,6.5c0.2,1.1,0.3,2,0.3,2.7"/>
	<path class="st9" d="M384.8,31.3c1.7,1.6,3.2,3.3,4.5,5c1.1,1.5,2,3.1,2.7,4.6c0.8,1.8,1,2.9,0.1,4c-0.3,0.4-0.8,0.8-1.5,1.2"/>
	<path class="st9" d="M381,29.9c1,1.3,1.8,2.3,2.4,3c2.1,2.5,3.2,3.6,5,5.9c1.2,1.5,1.8,2.2,2,2.7c0.9,2.1,0.2,4-0.5,5.2"/>
	<path class="st9" d="M382.7,34.6c0.8,0.9,1.9,2.1,3.1,3.5c1.1,1.2,1.5,1.6,1.9,2.3c0.4,0.6,0.6,1.3,1.2,2.8
		c0.8,2.2,0.9,2.8,0.4,3.4c-0.3,0.4-0.7,0.7-1.3,1"/>
	<path class="st9" d="M380.7,35.9c0.7,1.2,1.5,2.4,2.5,3.6c1,1.2,1.4,1.5,1.8,2.3c0.1,0.2,0.2,0.5,0.6,3.1c0.2,1.4,0.3,1.7,0.2,2.2
		c-0.1,0.7-0.4,1.3-0.8,1.9"/>
	<path class="st9" d="M376.7,38.3c0.2,1.8,0.9,3.6,2,5.3c0.8,1.2,1.3,2.4,1.6,3.6c0.2,0.8,0.3,1.5-0.5,2.3c-0.4,0.4-0.9,0.7-1.6,1"
		/>
	<path class="st9" d="M375.4,40.9c2.1,2,2.8,4.1,2,6.1c-0.5,1.3-1.6,2.5-3.2,3.6"/>
	<path class="st9" d="M372.4,39.7c1.3,2.8,1.7,5.5,1,8.3c-0.4,1.5-1.1,3-2.1,4.4"/>
	<path class="st9" d="M368.6,40.4c1.8,1.8,2.7,3.7,2.8,5.5c0.1,2.1-0.9,4.2-2.9,6.1"/>
	<path class="st9" d="M366.3,41.3c1.7,1.7,2.3,3.6,1.9,5.4c-0.6,2.6-3.2,4.3-4.1,4.8"/>
	<path class="st9" d="M361.6,42.1c0.3,1.4,0.4,2.9,0.3,4.3c-0.3,2.5-1.3,4.9-3.1,7.2"/>
	<path class="st9" d="M357.1,40.3c2,2.7,2.7,5.5,2,8.2c-0.5,1.7-1.5,3.4-3.2,5"/>
	<path class="st9" d="M354.9,39.8c1.3,2.1,1.8,4.2,1.6,6.4c-0.2,1.8-1,3.6-2.3,5.4"/>
	<path class="st9" d="M350.4,38.9c2.8,4.4,2.9,8.9,0.3,13.1"/>
	<path class="st9" d="M346.3,38c2.4,1.5,4,3.2,4.6,4.9c0.8,2.4,0,4.8-2.3,6.9"/>
	<path class="st9" d="M341.7,35.9c1.5,1,5.2,3.6,6.2,7.5c0.7,2.5,0.1,5.1-1.7,7.5"/>
	<path class="st9" d="M342.4,41.1c1.3,1.6,2.1,3.2,2.3,4.9c0.2,1.5-0.1,3-0.9,4.5"/>
	<path class="st9" d="M340.3,42c-0.6,1.6-0.9,3.2-1,4.9c-0.1,1.2,0,2.4,0.1,3.4"/>
	<path class="st9" d="M333.9,43.7c0.6,1,0.9,2,1.1,3c0.1,1.1,0,2.1-0.3,3.1"/>
	<path class="st9" d="M328.4,41.4c0.9,2.4,1.8,4.7,2.7,7.1"/>
	<path class="st9" d="M323.7,41.6c2,1.4,3.3,3,3.6,4.7c0.3,1,0.2,2-0.1,3"/>
	<path class="st9" d="M319.8,41.4c0.4,0.1,4.6,1.7,4.5,4.2c0,0.6-0.3,1.3-0.9,1.8"/>
	<path class="st9" d="M314,39.8c3.5,1.3,5.6,3.2,5.2,5c-0.1,0.6-0.5,1.2-1.2,1.8"/>
	<path class="st9" d="M352.4,59.4c0.8-0.5,1.2-1.1,1.1-1.6c0-0.6-0.4-1.1-1.2-1.6"/>
	<path class="st9" d="M355.1,59.5c1.3-0.3,2-0.9,1.9-1.6c-0.1-0.4-0.5-0.7-1.1-1"/>
	<path class="st9" d="M359,58.6c0.5-0.2,0.7-0.5,0.8-0.8c0.1-0.4-0.2-0.8-0.8-1.1"/>
	<path class="st9" d="M362,58.5c0.6-0.2,0.9-0.5,0.8-0.8c0-0.3-0.5-0.6-1.1-0.8"/>
	<path class="st9" d="M364.4,57.8c0.1-0.2,0.2-0.4,0.1-0.6c-0.1-0.3-0.3-0.5-0.6-0.7"/>
	<path class="st9" d="M365.8,57.5c0.2-0.1,0.3-0.3,0.3-0.5c0.1-0.2,0.1-0.4,0-0.6"/>
	<path class="st11" d="M367.5,57.7l1.6-0.6c-0.3-0.2-0.6-0.5-0.9-0.7"/>
	<path class="st11" d="M388.3,53.1l0.1,1.4"/>
	<path class="st10" d="M387,53.4"/>
	<path class="st10" d="M385.9,54.5c-0.3,0.4-0.7,0.8-1.3,1.1c-0.8,0.5-1.9,0.8-3.2,1"/>
	<path class="st10" d="M381.7,54.5c-0.2,0.6-0.4,1.2-0.6,1.8"/>
	<path class="st10" d="M378.6,55.5l-1.5,1.8"/>
	<path class="st10" d="M371.9,56.5c0.2,0.2,0.3,0.4,0.3,0.6c0,0.3-0.4,0.5-0.9,0.6"/>
	<path class="st10" d="M370,56.5c-0.2,0.6-0.4,1.1-0.3,1.1s0.5-0.4,0.4-0.5s-0.6,0.2-1.8,0.9"/>
	<path class="st10" d="M375.9,56.2c0.1,0.2,0.1,0.4,0,0.6c-0.1,0.2-0.4,0.4-0.8,0.6c-0.6,0.3-1.4,0.4-1.5,0.3
		c-0.1-0.1,0.6-0.2,1-0.7c0.2-0.2,0.3-0.5,0.2-0.7"/>
	<path class="st10" d="M386.2,53.5c-0.1,0.3-0.2,0.6-0.3,0.9"/>
	<path class="st10" d="M388.9,52.9c0.5,1,0.3,2-0.6,2.9"/>
	<path class="st10" d="M364.6,42.4c0.4,1,0.7,1.9,0.8,2.9c0.1,0.9,0.1,1.8,0,2.6c-0.3,2-1.4,4-3.2,5.8"/>
	<path class="st10" d="M368.6,42.1c0.2,0.7,0.4,1.6,0.5,2.8c0.3,2.1,0.5,3.2,0.1,4.1c-0.5,1.1-1.4,2.2-2.7,3.2
		c-0.4,0.4-0.8,0.6-1.1,0.8"/>
	<path class="st10" d="M375.6,34.1c1,0.6,1.9,1.3,2.6,2c1.6,1.5,2.8,3,3.5,4.6c1.2,2.4,0.2,2.1,1.5,4.6c0.4,0.9,1,1.7,0.6,2.9
		c-0.2,0.6-0.6,1.2-1.1,1.7"/>
	<path class="st10" d="M377.5,33.6"/>
	<path class="st9" d="M380.6,34.4c0.8,0.8,1.5,1.5,1.9,2.1c1.1,1.1,1.8,2,2.3,2.6c1,1.2,1.3,1.6,1.4,1.8c0.4,0.6,0.7,1.3,0.8,2
		c0.2,0.8,0.3,1.5,0.2,2.3c0,1.1-0.2,2.2-0.5,3.3"/>
	<path class="st7" d="M203.9,39.2c-3.5-1.1-7.3-2.2-11.5-3.3c-5.2-1.4-10.6-2.6-16.1-3.7l2.1-2.7c4.7,1.1,9.6,2.2,14.7,3.5
		c4.5,1.2,8.8,2.3,12.9,3.5C205.3,37.4,204.6,38.3,203.9,39.2z"/>
	<polygon class="st12" points="178.4,29.5 205.9,36.5 207.9,36.1 193.4,32.4 185.7,30.4 181.9,29.5 	"/>
	<path class="st12" d="M188.5,29.3"/>
	<path class="st2" d="M212.1,38.8"/>
	<path class="st2" d="M233.8,29.3c0.2-0.9,0.5-1.8,0.7-2.7l16.5,2.7l-1.4,3.3c-2.4-0.7-4.9-1.4-7.5-1.9
		C239.5,30.2,236.7,29.7,233.8,29.3z"/>
	<path class="st7" d="M212.8,31.1"/>
	<polygon class="st3" points="230.1,42.9 211.2,41.6 211.5,39.4 230.4,40.8 	"/>
	<polygon class="st3" points="230.2,40.6 211.1,39.2 211.3,38 230.4,39.3 	"/>
	<path class="st6" d="M232.4,58.6c-5.2-0.9-8.2-3.3-6.9-5.5"/>
	<g>
		<path class="st13" d="M89,125c0.3,1.1-0.3,2.2-1.4,2.6c-3.4,1.2-8.7,2.3-15.2,2.3c-18.2,0-32-11.5-32-32.7c0-20.3,13.7-34,33.8-34
			c6.3,0,10.8,1,13.5,2.1c1.1,0.4,1.7,1.6,1.3,2.7l-0.8,2.6c-0.4,1.2-1.7,1.9-2.9,1.4c-2.9-1.1-6.6-1.8-10.9-1.8
			c-15.2,0-25.2,9.7-25.2,26.7c0,15.8,9.1,26,24.9,26c4.1,0,8.2-0.7,11.4-1.8c1.2-0.4,2.5,0.3,2.9,1.5L89,125z"/>
		<path class="st13" d="M126.7,129c-1.1,0-2.1-0.8-2.2-2l-0.4-3.9h-0.3c-2.6,3.6-7.6,6.9-14.2,6.9c-9.4,0-14.2-6.6-14.2-13.3
			c0-11.2,10-17.4,27.9-17.3v-1c0-3.8-1.1-10.8-10.6-10.8c-3.4,0-7,0.8-9.9,2.2c-1.2,0.6-2.6,0-3-1.3l-0.5-1.4c-0.4-1,0.1-2.2,1-2.7
			c3.7-2,8.6-3.2,13.7-3.2c14.2,0,17.7,9.7,17.7,19v17.4c0,3.1,0.1,6,0.4,8.7c0.1,1.3-0.9,2.4-2.2,2.4H126.7z M123.5,107.5
			c0-1.2-1-2.2-2.2-2.2c-8.6,0.1-17.4,2.2-17.4,10.5c0,5.5,3.6,8.1,8,8.1c6,0,9.9-3.8,11.2-7.8c0.3-0.9,0.5-1.8,0.5-2.7V107.5z"/>
		<path class="st13" d="M147.5,60.8h4c1.2,0,2.2,1,2.2,2.2v63.7c0,1.2-1,2.2-2.2,2.2h-4c-1.2,0-2.2-1-2.2-2.2V63.1
			C145.3,61.8,146.3,60.8,147.5,60.8z"/>
		<path class="st13" d="M177.3,69.5c0.1,2.9-2,5.2-5.4,5.2c-3,0-5.1-2.3-5.1-5.2c0-3,2.2-5.3,5.3-5.3
			C175.3,64.2,177.3,66.5,177.3,69.5z M167.9,126.8v-42c0-1.2,1-2.2,2.2-2.2h4c1.2,0,2.2,1,2.2,2.2v42c0,1.2-1,2.2-2.2,2.2h-4
			C168.9,129,167.9,128,167.9,126.8z"/>
		<path class="st13" d="M191.3,126.8V91.2c0-1.2-1-2.2-2.2-2.2h-2.1c-1.2,0-2.2-1-2.2-2.2v-2c0-1.2,1-2.2,2.2-2.2h2.1
			c1.2,0,2.2-1,2.2-2.2l0,0c0-6.5,1.4-12.5,5.4-16.2c3.2-3.1,7.4-4.3,11.3-4.3c2,0,3.8,0.3,5.3,0.7c1.1,0.3,1.8,1.4,1.6,2.5
			l-0.4,2.2c-0.2,1.3-1.5,2-2.7,1.8c-0.9-0.2-1.9-0.3-3.1-0.3c-7.2,0-9,6.3-9,13.4v0.3c0,1.2,1,2.2,2.2,2.2h6.8c1.2,0,2.2,1,2.2,2.2
			v2c0,1.2-1,2.2-2.2,2.2h-6.8c-1.2,0-2.2,1-2.2,2.2v35.6c0,1.2-1,2.2-2.2,2.2h-3.9C192.3,129,191.3,128,191.3,126.8z"/>
		<path class="st13" d="M259.2,105.4c0,17.2-11.9,24.7-23.1,24.7c-12.6,0-22.3-9.2-22.3-23.9c0-15.6,10.2-24.7,23-24.7
			C250.2,81.5,259.2,91.2,259.2,105.4z M222.4,105.9c0,10.2,5.9,17.9,14.1,17.9c8.1,0,14.1-7.6,14.1-18c0-7.9-3.9-17.9-13.9-17.9
			S222.4,97,222.4,105.9z"/>
		<path class="st13" d="M269.9,97c0-4.5-0.1-8.5-0.3-12.2c-0.1-1.3,0.9-2.3,2.2-2.3h2.9c1.2,0,2.2,0.9,2.2,2.1l0.2,7h0.4
			c2.1-6.2,7.2-10.2,12.9-10.2c0.1,0,0.2,0,0.2,0c1.2,0,2.2,1,2.2,2.2v3.6c0,1.2-1,2.3-2.2,2.2c-0.2,0-0.4,0-0.6,0
			c-6,0-10.2,4.5-11.3,10.8c-0.2,1.2-0.4,2.5-0.4,3.9v22.6c0,1.2-1,2.2-2.2,2.2h-3.9c-1.2,0-2.2-1-2.2-2.2V97z"/>
		<path class="st13" d="M301.7,95.1c0-3.8-0.1-7.1-0.2-10.2c-0.1-1.3,0.9-2.3,2.2-2.3h3.1c1.2,0,2.1,0.9,2.2,2.1l0.4,5.6h0.2
			c2.3-4.4,7.7-8.7,15.4-8.7c6.4,0,16.4,3.8,16.4,19.8v25.5c0,1.2-1,2.2-2.2,2.2h-4c-1.2,0-2.2-1-2.2-2.2v-24.6
			c0-7.5-2.8-13.7-10.8-13.7c-5.6,0-9.9,3.9-11.3,8.6c-0.4,1.1-0.6,2.5-0.6,3.9v25.7c0,1.2-1,2.2-2.2,2.2h-4c-1.2,0-2.2-1-2.2-2.2
			V95.1z"/>
		<path class="st13" d="M364.4,69.5c0.1,2.9-2,5.2-5.4,5.2c-3,0-5.1-2.3-5.1-5.2c0-3,2.2-5.3,5.3-5.3
			C362.3,64.2,364.4,66.5,364.4,69.5z M354.9,126.8v-42c0-1.2,1-2.2,2.2-2.2h4c1.2,0,2.2,1,2.2,2.2v42c0,1.2-1,2.2-2.2,2.2h-4
			C355.9,129,354.9,128,354.9,126.8z"/>
		<path class="st13" d="M405.1,129c-1.1,0-2.1-0.8-2.2-2l-0.4-3.9h-0.3c-2.6,3.6-7.6,6.9-14.2,6.9c-9.4,0-14.2-6.6-14.2-13.3
			c0-11.2,10-17.4,27.9-17.3v-1c0-3.8-1.1-10.8-10.6-10.8c-3.4,0-7,0.8-9.9,2.2c-1.2,0.6-2.6,0-3-1.3l-0.5-1.4c-0.4-1,0.1-2.2,1-2.7
			c3.7-2,8.6-3.2,13.7-3.2c14.2,0,17.7,9.7,17.7,19v17.4c0,3.1,0.1,6,0.4,8.7c0.1,1.3-0.9,2.4-2.2,2.4H405.1z M401.9,107.5
			c0-1.2-1-2.2-2.2-2.2c-8.6,0.1-17.4,2.2-17.4,10.5c0,5.5,3.6,8.1,8,8.1c6,0,9.9-3.8,11.2-7.8c0.3-0.9,0.5-1.8,0.5-2.7V107.5z"/>
	</g>
</g>
<g id="Burrito">
</g>
<g id="Burrito_Shop_1_">
	<text transform="matrix(1 0 0 1 89.6045 187.418)" class="st14 st15">Burrito Shop</text>
</g>
</svg>
