<?xml version="1.0" encoding="utf-8"?>
<!-- Generator: Adobe Illustrator 24.1.2, SVG Export Plug-In . SVG Version: 6.00 Build 0)  -->
<svg version="1.1" xmlns="http://www.w3.org/2000/svg" xmlns:xlink="http://www.w3.org/1999/xlink" x="0px" y="0px"
	 viewBox="0 0 169 213" style="enable-background:new 0 0 169 213;" xml:space="preserve">
<style type="text/css">
	.st0{display:none;}
	.st1{display:inline;}
	.st2{fill:#FFFFFF;stroke:#000000;stroke-width:3;stroke-linejoin:round;stroke-miterlimit:10;}
	.st3{display:inline;fill:#FFFFFF;stroke:#000000;stroke-width:3;stroke-linejoin:round;stroke-miterlimit:10;}
	.st4{fill:none;stroke:#EED7C1;stroke-width:4;stroke-miterlimit:10;}
	.st5{fill:none;stroke:#EED7C1;stroke-width:4;stroke-linecap:round;stroke-linejoin:bevel;stroke-miterlimit:10;}
	.st6{fill:#EED7C1;stroke:#000000;stroke-width:4;stroke-miterlimit:10;}
	.st7{fill:#EED7C1;stroke:#EED7C1;stroke-width:4;stroke-miterlimit:10;}
</style>
<g id="Layer_3" class="st0">
	<g id="use3536" class="st1">
		<g id="state_outline">
			<path id="_x31_729" class="st2" d="M-3.1,210l0.5,0l1,0.1l0.2,0l0.2,0h0l0.6,0l1.3,0h0.2l0.2,0l0.5,0l0,0l1.4,0l1.2,0l0.6,0
				l0.3,0l0,0l1.4,0l0.3,0l0.5,0l0.6-0.1l2,0.1l1.1,0l0.9,0l1.1,0l0.1,0l0.2,0l0,0h0l1.1,0l0.3,0l0.6,0l0.3,0l0.1,0l0.6,0l0.8,0
				l1.2,0.1l0.4,0l0,0l0.3,0l0.4,0l2.1,0l3.2,0l0.3,0l0.6,0l0.8,0l0.7,0l0.1,0l0.3,0l1.1,0l3.3,0l0.1,0l0.7,0l0.4,0l0.4,0l0.4,0
				l0.7,0l0.4,0h0l0.3,0l0.3,0l0,0l0.4,0l0.3,0l0.2,0l1.3,0l1.3,0l0.8,0l0.9,0l0,0l0.1,0l1.3,0L45,211l0.3,0l0.1,0l0.2,0l0.5,0
				l0.2,0l2.6,0.1l0.5,0l2,0h0.1l0.1,0l0.3,0h0.1l0.3,0l1,0l0.3,0l0.2,0l2,0h0l2,0.1l0.4,0h0.6l1.3,0l5.5,0l1.1,0l0.8,0l1.1,0l2.6,0
				h0.3l0.1,0l1.5,0l1.8,0h0.4l0.8,0h0.2l0.5,0l0,0.8l0,0.4l0,0.4l0,0.1l0,1.8l0,1.7l0,0.4l0,0.6l0,5.4l0,1.6l0,0.8l0,0.8v0.3l0,0.8
				l0,2.2l0,1.6l0,1.6l0,0.2l0,0.6v0.2l0,0.8l0,1.2l0,1.3l0,0.4l0,0.1l0,0.7l0,0.4l0,0.2l0,1.2l0,0.4v0.1l0,0.9l0,1.2l0,0.2l0,0.9
				l0,0.2v0.3l0,0.3v0.5l0,0.8l0,0.6v0.1l0,0.4l0,0.3l0,0.2l0,0.1l0,0.2l0,1.2l0,0.2l0,0.3l0,0.3l0,0.2l0,2.3l0,0.2v0l0,0.2l0,0.1
				v0.3l0,0.2v0l0,0.2v0l0,0.3v0.3l0,0.3v0.2l0,0.8l0,0.3v0.3l0,0.2l0,0.8l0,0.3l0,0.5l0,0.8l0,0.2v0l0,0.3l0,0.3l0,0.2l0,0.3l0,0.3
				l0,0.5l0,0.3l0,0.3l0,0l0,0.3l0,0.2l0,0.1l0,0.7l0,0.5l0,0.8l0,0.2l0,1l0,0.8l0,1.3l1,0.6l0.6,0.4l0.1,0.1l0.3,0.2l1.1,0.7
				l0.4,0.3l0.1,0l0.6,0.4l0.1,0l0.7,0.5l0.2,0.1l0.3,0.2l0.5,0.3l0.5,0.3l1.2,0.8l0.2,0.1l0.2,0.1l0.4,0.3l0.5,0.3l0.1,0l1.9,1.2
				l0.1,0.1l2.4,1.5l1.8,1.2l0.4,0.3l0.9,0.6L94,278l0.2,0.2l2.5,1.6l0.5,0.3l0.8,0.5l0.2,0.1l0.7,0.4l1.1,0.7l0.6,0.4l0.8,0.5
				l0.2,0.2l1.2,0.7l2.2,1.4l1.3,0.8l0.9,0.6l0.7,0.4l0.9,0.6l0.7,0.4l0.8,0.5l1.4,0.9l2.1,1.4l1.5,1l0.6,0.4l0.5,0.3l0.7,0.4
				l1.5,0.9l2.4,1.6l0,0l1.7,1.1l0.2,0.1l1.2,0.7l0.9,0.6l1.2,0.7l0.1,0.1l0.2,0.1l1.3,0.8l0.1,0.1l3.2,2.1l1.2,0.8l0.2,0.1l0.2,0.1
				l0.5,0.3l0.3,0.2l1.6,1v0l3.3,2.1l0.5,0.3l0.1,0l0.3,0.2l0.9,0.5l0.7,0.4l0.2,0.1l0.7,0.5l0.1,0l1.1,0.7l1.8,1.1l0.6,0.4l0.4,0.2
				l0.1,0l1.3,0.8l0.4,0.3l0.3,0.2l0.7,0.5l0.3,0.2l2.9,1.8l1.7,1.1l0.3,0.2l1.1,0.7l1.2,0.8l0.1,0l0.9,0.6l0.5,0.3l0.9,0.6l0.3,0.2
				l1.2,0.8l0.9,0.6l0.7,0.5l0.5,0.3l4.5,2.9l0.8,0.5l0.1,0l0.4,0.3l0.8,0.5l1.2,0.8l0.3,0.2l2.1,1.3l0.3,0.2l4.2,2.7l0.2,0.2
				l0.1,0.1l1.1,0.7l1,0.7l0.4,0.3l0.4,0.3l0.6,0.4l0.4,0.2l1,0.6l0.7,0.4l0.3,0.2l2.3,1.5l1.2,0.8l0.5,0.3l0.2,0.2l0.5,0.3l0.2,0.1
				l0.4,0.2l0.4,0.3l0,0l0.4,0.2l0.6,0.4l0,0l0.1,0.1l0,0.1l0,0l0,0.2l0,0.2l0,0.1l0,0l0,0.1l0.1,0.1l0,0.1l0,0.1l0,0.2l0,0.1l0,0.1
				l0,0.1l0,0.1l0,0.1l0,0.1l0,0.1l0,0.1l0.1,0.1l0.1,0.1l0.2,0.1l0,0l0.3,0.1l0.2,0.1l0,0l0.1,0.1l0.1,0.1l0.1,0.1l0,0l0.1,0.2l0,0
				l0.1,0.2l0.2,0.2l0.1,0.2l0.2,0.2l0.2,0.1l0.2,0.1l0.1,0.1l0.1,0.1l0.1,0.1l0.1,0.1l0.1,0l0.1,0l0.2,0.1l0,0l0,0.1l0,0l0.1,0.1
				l0,0l0.1,0l0.1,0.1l0.1,0.1l0.1,0.1l0,0l0.1,0.1l0.1,0.1l0.1,0.1l0.1,0.1l0,0l0,0l0,0l0,0.1l0,0l0,0.1l0,0l0.1,0l0.1,0.1l0,0.1
				l0,0.1l0,0.1l0,0.1l0.1,0.1l0.1,0l0.1,0.1l0.1,0.1l0,0.1l0,0l-0.1,0l-0.1,0l-0.1,0l0,0l0,0l0,0l0.1,0.1l0.1,0.1l0.3,0.1l0.1,0.1
				l0.1,0l0.1,0.1l0.1,0.1l0.1,0.1l0.1,0.1l0.1,0.1l0.1,0.1l0.1,0.1l0.1,0.2l0.1,0.1l0,0.2l0,0.2l0,0l0,0.2l0,0.1v0l0,0.1l0,0.1
				l0,0.1l0,0.1l0.1,0.1l0.1,0l0.1,0l0,0l0.2,0l0,0l0.2-0.1l0.1,0l0.1,0l0.1,0l0.1,0.1l0.1,0.1l0.1,0.1l0,0l0.1,0l0.2,0.1l0.1,0.1
				l0.1,0.1l0.1,0.1l0.1,0.1l0,0.1l0.1,0.1l0.1,0l0.1,0l0.1,0l0.1,0l0.1,0l0.1,0.1l0.1,0.1l0.2,0.1l0,0l0.2,0.1l0.1,0.1l0.1,0.1l0,0
				l0.1,0l0,0l0.1,0l0,0l0.2,0l0.2,0l0,0l0.2,0l0.1,0l0.1,0l0.1,0.1l0.1,0.1l0.1,0.1l0,0l0.1,0.1l0.2,0.1l0.1,0.1l0.2,0.1l0.1,0.1
				l0.1,0.1l0,0.1l0,0.1l0,0.1l0,0.1l0.1,0.1v0.1l0,0.1l0,0.1l0,0.1l0,0.1l0,0l-0.1,0h-0.1l-0.1,0l-0.1,0l-0.1,0l-0.1,0l-0.1,0l0,0
				l0,0v0.1l0,0l0,0l0,0l-0.1,0l-0.1,0l-0.1,0.1l0,0L200,353l-0.2,0.2l-0.2,0.2l-0.2,0.1l-0.1,0.1l0,0l-0.1,0.1l-0.1,0l0,0l0,0
				l0,0.1l0,0.1l0,0l0,0l-0.1,0l0,0l-0.1,0l-0.1,0.1l-0.1,0l0,0l-0.1,0l-0.1,0.1l-0.1,0l-0.2,0l-0.1,0l0,0l-0.1,0l-0.1,0l0,0l-0.1,0
				l-0.1,0l-0.1,0.1l-0.1,0.1l-0.2,0.2l-0.2,0.1l-0.1,0.1l-0.2,0l-0.2,0l-0.1,0l-0.1,0l0,0l0,0l-0.1,0.1l-0.1,0.1l-0.1,0.1l-0.1,0
				l-0.2,0l-0.1,0l-0.1,0h-0.1l-0.1,0l0,0l0,0l0,0l-0.1,0l-0.1,0.1l-0.1,0.1l-0.1,0.1l-0.1,0.1l-0.1,0.1l-0.1,0.1l0,0l0,0.1l0,0
				l0,0.2l0,0.1l0,0.1l0,0.1l0,0.1l0,0l0,0.1l0,0.1l0,0.1l-0.1,0.1l-0.1,0.1l-0.1,0l-0.1,0l-0.1,0l0,0l-0.1,0l-0.1,0l0,0l0,0l0.1,0
				l0.1,0l0,0l0,0l-0.1,0l0,0l-0.1,0l0,0l-0.1,0.1l0,0l0,0l0,0l-0.1,0l0,0l0,0l0,0l0,0l-0.1,0.1l-0.1,0.1l-0.1,0.1l0,0l-0.1,0
				l-0.1,0l-0.1,0l0,0l0,0l-0.1,0l-0.1,0.1l-0.1,0.1l0,0.1l-0.1,0.1l0,0.1l0,0l0,0l0.1,0l0,0l0.1,0l0.1,0.1l0.1,0.1l0.1,0.1l0.1,0.1
				l0,0.1l0,0l-0.2,0l-0.1,0h-0.1l0,0l0,0l0.1,0.1l0.1,0.1l0.1,0.1l0.2,0.1l0.1,0l0,0.1l0,0.1l0,0.1l-0.1,0l0,0l-0.1,0l-0.1,0h-0.1
				l-0.1,0l-0.1,0l0,0l0,0l0,0.1l0,0.1l0.1,0.1l0,0l0.1,0.1l0.1,0.1l0,0.1l0,0l-0.1,0.1l0,0l0,0l0,0.1l0,0.1l0.1,0.1l0.1,0.1
				l0.1,0.2l0,0.1l0,0.1l0.1,0.2l0,0l0,0.1l0,0.1l0,0.1l0,0.1l0,0.1l0,0l0,0.1l0.1,0l0.1,0l0.1,0.1l0.1,0.1l0.1,0.2l0,0.1l-0.1,0.1
				l-0.1,0l0,0l-0.1,0l0,0l-0.1,0l-0.1,0l-0.1,0l0,0l0,0l0,0l0,0l-0.1,0.1l0,0.1l0,0.1l0,0.1l0.1,0l0.1,0l0.1,0l0.1,0l0,0l0,0
				l-0.1,0l-0.1,0l-0.1,0l-0.1,0l0,0v0l0,0.1l0.1,0.1l0.1,0l0,0.1l0,0.1l0,0l0,0l0,0l0,0.1l0,0.1l0,0l0,0l0,0l0,0l0,0.1l-0.1,0.1
				l0,0l-0.1,0.1l-0.1,0.1l0,0l0,0l0,0l0,0.1l0,0l0,0.1l0,0l0,0.1l0.1,0l0,0.1l0,0.1l0.1,0l0,0l0,0l0.1,0l0,0.1l0,0l0,0l-0.1,0
				l-0.1,0l-0.1,0.1l-0.1,0.1l-0.1,0.1l-0.1,0.1l0,0l-0.1,0.1l0,0.1l0,0.1l0,0.1l0,0l0,0l0,0.1l-0.1,0l0,0l0,0l-0.1,0l0,0l0,0l0,0
				l0,0l-0.1,0l-0.1,0.1l-0.1,0.1l-0.1,0.1l-0.1,0.2l0,0l-0.1,0.1l0,0l0,0l-0.1,0.1l-0.1,0.1l0,0l0,0l0,0.1l0,0.1l0,0.1l0,0l0,0.1
				l0,0.1l0,0.1l0,0l0,0l-0.1,0.1l-0.1,0.1l-0.1,0.1l-0.1,0l-0.1,0l-0.1,0l-0.1,0l0,0l-0.2,0l-0.1,0h-0.1l-0.1,0l-0.1,0l-0.1,0.1
				l0,0l-0.1,0l-0.1,0l-0.1,0l-0.1,0h-0.1l-0.1,0l0,0l0,0.1l0,0.1l0.1,0.1l0.1,0.1l0.1,0.1l0,0.1l0,0l0,0.1l0,0l0,0.1l0.1,0.1l0,0
				l0,0.1l0,0.1l0,0.1l0,0l0,0l0,0.1l0,0.1l-0.1,0.1l-0.2,0.2l-0.1,0.1l-0.1,0.1l-0.1,0.1l0,0.1l0.1,0.1l0.1,0.1l0.1,0.1l0.1,0
				l0.2,0l0.1,0l0.2,0l0.2,0.1l0.1,0.1l0.1,0.1l0.1,0.1l0,0.1l0,0l0,0l-0.1,0l-0.1,0l0,0l-0.1,0l-0.1,0.1l0,0l0,0.1l0.1,0.1l0,0
				l0.1,0.1l0.1,0.1l0,0l0,0l0,0.1l0,0.1l0,0l0,0.1l0,0.1l0,0.1l0,0l0,0.1l0,0l0.1,0.1l0,0.1l0,0.1l0,0.1v0.1l0,0l0,0.1l0,0l0,0.1
				l0,0.1l0,0.1l0,0l-0.1,0.1l-0.1,0.2l-0.1,0.2l0,0l-0.1,0.1l0,0.2l0,0.1l0,0.2l0,0.1l0,0.1l0.1,0l0.1,0l0.1,0l0.1,0l0,0l0,0l0,0
				l0.1,0.1l0.1,0.1l0,0l0.1,0.1l0.1,0l0,0l0,0.1l0,0.1l0,0.1l0.1,0l0.1,0.1l0.1,0.1h0.1l0.1,0l0-0.1l0-0.1l0-0.1l0.1,0l0.1,0l0.1,0
				l0.1,0.1l0.1,0.1l0.1,0.1l0.1,0.1l0,0l0.1,0h0l0.1,0l0.2,0l0.1,0h0.1l0.1-0.1l0.1,0l0,0l0.1,0l0,0l0.1,0l0.1,0l0.2,0l0.2,0l0.2,0
				l0.2,0l0.1,0l0.1,0l0.1,0l0.1,0l0.1,0.1l0.1,0.1l0,0l0.1,0.1l0.1,0.1l0.1,0.2l0,0.1l0,0.1l0,0.1l0,0.1l0,0.1l0.1,0.1l0.1,0l0.1,0
				l0.1-0.1l0.1,0l0,0h0l0.1,0.1l0,0.1l0,0.1l0,0.1l0,0.1l-0.1,0.1l-0.1,0.1l0,0l0,0l0,0.1l0,0.1l0.1,0.1l0.1,0.1l0,0l0.1,0.1l0,0.1
				l0,0l0,0l0,0.1l0,0l0,0.1l0,0.1l0,0.2l0,0.5l-0.3,0.2l-0.3,0.2l-0.1,0l-0.2,0.1l-0.1,0.1l-0.1,0.1l-0.1,0.1l0,0l-0.1,0.1
				l-0.1,0.1l-0.1,0.1l0,0.1l0,0l0,0l0,0.1l0,0.1l0,0.1l0,0.1l0.1,0.2l-0.1,0l-0.1,0l0,0.1l-0.2,0l-0.2,0l-0.2,0l0,0.1l-0.4,0l0,0.1
				v0l-0.7,0l0,0.1l-0.3,0l-0.3,0l-0.3,0l-0.5,0l-0.1,0l-0.1-0.1l-0.1,0l0,0l0,0l-0.1,0l-0.1,0.1l0,0l-0.1,0.1l-0.1,0.1l-0.1,0.2
				l-0.3,0l-4.6,0.5l-2.5,0.2l-1.1,0.1l-0.4,0l-0.7,0.1l-2.2,0.2l-2.2,0.2l-2.2,0.2l-2.2,0.2l-1.6,0.2l-0.7,0.1l-2.3,0.2l-2.2,0.2
				l-0.4,0l-1.9,0.2l-2.1,0.2l-0.4,0l-0.4,0l-1.5,0.2l-1.5,0.1l-0.7,0.1l-1.9,0.2l-1.1,0.1l-3.7,0.4l-1.2,0.1l-0.3,0h0l-2.3,0.2
				l-0.4,0l-0.7,0.1l-0.4,0l-0.5,0l-0.7,0.1l-2.3,0.2l-2,0.2l0,0l0-0.1l0-0.2l0-0.1l-0.1-0.2l0-0.1v-0.1l0-0.2l0-0.2l0-0.2l0-0.2
				l0-0.1l0-0.1l-0.1-0.1l-0.1-0.1l-0.1-0.1l-0.1-0.1l-0.1-0.1l-0.1,0l-0.1-0.1l0-0.1l0-0.1l-0.1-0.1l0,0l0,0l-0.1,0h0l0,0l0,0l0,0
				l-0.1,0l-0.1,0l-0.1,0l-0.1,0l-0.1,0l-0.1,0l-0.1,0l-0.1,0l0,0h0l0,0l0,0l0-0.1l0-0.2l0.1-0.1l0.2-0.1l0.2-0.1l0.2,0l0.2,0.2
				l0.1,0l0.1,0l0.2,0l0.2,0.2l-0.1,0.2l0,0.1l0.2-0.1l0.1,0.1l-0.1,0.1l0.1,0.2l0.2,0.3l0.1,0.2l0.1,0.2h0.1l0,0.2l0,0.1l0,0.1
				l0.1,0.1l0.1,0.1l0.2,0.1l0.1,0l0.1-0.1l0.1-0.1l0,0l0.1-0.1l0-0.2l-0.1-0.1l-0.1-0.1l-0.1,0l0-0.1l0-0.1l0-0.1l-0.1-0.2v-0.1
				l-0.1-0.1l0.1,0l-0.2-0.2l-0.1-0.1l-0.4-0.2l-0.4-0.3l-0.2-0.1l0-0.1v-0.1l-0.2-0.1l-0.3,0l-0.3,0l-0.2,0l-0.1,0.1l-0.2,0
				l-0.2,0.2l0,0.1l0,0l-0.1,0.1l0,0.1l0,0.1l0.1,0v0l0,0l0,0v0.1l0,0v0l0,0l0,0l0,0.1l0,0l0,0l0,0l0,0l0,0l0,0l0-0.1l0-0.1l0-0.1
				l0-0.1l-0.1-0.1l0-0.1l0,0l0,0l0-0.1l0,0l0-0.1l0-0.1l0-0.1l0,0l0,0v-0.1l0,0v-0.1l0-0.1l0-0.1l0-0.1l0-0.1l0,0l0,0l0,0h0l0,0
				l0,0l0,0l0,0l0,0h0l0,0l0,0l0,0l0,0v0l0,0l0,0h0l0,0l0,0v0l0,0l0,0h0l0,0l0,0v0l0,0h0l0,0l0,0l0,0l0,0h0l0.1,0l0.1,0h0.1l0,0l0,0
				l0,0l0,0l0,0l0,0l0-0.1l0,0l0,0l0-0.1l0-0.1l0-0.1v-0.1l0-0.1l0,0h0l0,0l0,0h0l0,0l0,0l0,0l-0.1,0l0,0l0,0l0,0l0,0l0,0l0,0l0,0
				l0,0l0,0h0v0l0,0.1l0,0.1l0,0l0,0h0l0,0l0,0v-0.1l0,0l0,0l0,0h-0.1l-0.1,0l0,0l0,0l0,0.1l0,0l0,0l0,0l0,0l0,0h0l0,0l0,0l0,0l0,0
				l0,0l0,0l0,0l0,0l0,0l0,0l0,0l0,0l0,0v0l0,0v0l0,0l0,0l0,0l0,0h0l0,0l0,0l0,0l0,0v0.1l0,0l0,0l0,0l0,0l0,0l0,0l0,0h-0.1v-0.1
				l0-0.2l0-0.2l0-0.1l0-0.1l-0.1-0.1l0-0.1l-0.1-0.1l0,0l0,0l0,0l0,0l0,0l0,0l0,0l0,0l0,0l0,0l0,0v0l0,0v-0.1l0-0.1l0,0l0-0.1v0
				l0-0.1l0,0l0,0l0,0l0,0l0,0l0,0l0,0l0,0l0,0l0,0l0,0l0.1,0l0-0.1l0.1-0.1l0-0.1l0-0.1l0-0.1l0-0.1l0-0.1l0,0l0-0.1l0-0.1l0-0.1
				l0-0.1l0-0.1l0-0.1l0-0.2l0-0.1l0-0.1l-0.1-0.1l0-0.1l-0.1-0.1V379l0-0.1l0-0.1l0-0.1l0-0.1l0-0.1l0,0l0-0.1l0,0l0-0.1l0-0.1
				l0-0.1l0-0.1l0-0.1l-0.1-0.1l-0.1-0.1l0-0.1l0-0.1l0-0.1l0-0.1l-0.1-0.1l-0.1-0.3l0-0.1l-0.1-0.1l-0.1-0.2l-0.1-0.2l-0.1-0.1
				l-0.1-0.1l0-0.1l-0.1-0.1l0-0.1l0-0.1l0-0.1l-0.1,0l-0.1-0.1l0,0l-0.1-0.1l-0.1-0.1l-0.1-0.1l-0.1-0.1l-0.1-0.1l-0.2-0.2
				l-0.1-0.1l-0.1-0.1l-0.1-0.1l-0.2-0.2l0,0l0,0l0,0l-0.1-0.1l-0.1,0l0,0l0,0l-0.2-0.2l-0.2-0.2l-0.1-0.2l-0.1-0.1l-0.2-0.2
				l-0.2-0.2l-0.2-0.2l-0.2-0.2l-0.2-0.2l-0.2-0.2l-0.2-0.2l-0.1-0.1l-0.1-0.1l-0.1-0.1l-0.2-0.1l-0.1-0.1l-0.1-0.1l-0.1-0.1
				l-0.1-0.1l-0.1-0.1l-0.1-0.1l-0.1-0.1l-0.1-0.1l-0.1,0l-0.1-0.1l0,0l0,0l-0.1,0l-0.1,0l-0.1,0h0l0,0l0,0l-0.1,0l0,0l0,0l0,0l0,0
				l0,0l-0.1-0.1l-0.1-0.1l0-0.1l-0.1-0.1l0-0.1l0,0l-0.1,0l0,0l0,0l0,0l0-0.1l-0.1,0l0,0l0,0l0,0l0,0l-0.1-0.1l-0.1-0.1l-0.1,0
				l-0.1,0l-0.1-0.1l-0.1,0l-0.1-0.1l-0.1,0l-0.1,0l-0.1,0l-0.1-0.1l-0.1,0l0,0l0,0l0,0l0,0h0l-0.1,0h0l0,0h-0.1l-0.1,0h-0.1l-0.1,0
				l0,0l-0.1,0H126l-0.1,0v0l0,0l0,0l0,0l0-0.1l0,0l0,0l0,0l0-0.1l0,0l0,0l0,0l0,0l0,0l0,0l0,0v0l0,0l0,0l-0.1-0.1l0,0l0,0l0,0l0,0
				l0,0l0,0l0-0.1l0,0l-0.1-0.1l-0.1-0.1l0,0l0,0l0,0l0,0l0,0l-0.1,0l0-0.1l0,0l-0.1-0.1l-0.1-0.1l-0.1-0.1l0-0.1l0,0l0,0l0,0
				l-0.1,0l0,0l0,0l-0.1,0l0,0H124l0,0h0l0,0l0-0.1l0,0l0,0h0l0,0h0l0,0l0,0l0,0l0,0l0,0l0,0v0l0,0l0-0.1l-0.1,0l-0.1,0l-0.1,0l0,0
				l0,0l-0.1,0l-0.1,0l-0.1,0l0,0l-0.1,0l0,0l0,0l0,0l0,0l0,0l0,0l0,0l0,0l-0.1,0l0,0l0,0l0,0h0l0,0l0-0.1l0,0v0l0,0l0,0l0-0.1l0,0
				l0-0.1l-0.1,0l0,0l-0.1,0l-0.1,0h-0.1l0,0h0l0,0l0,0l0-0.1l0,0l0,0l0,0l0.1,0l0,0l0,0l0,0l0,0l0,0v0l0,0l0,0l0,0l0,0l0,0l0,0l0,0
				l0,0l0,0l0,0l0,0l0,0v0l0,0l0,0l0,0l0-0.1l0,0l0.1,0l0,0l0,0l0,0l0,0l0,0l-0.1,0h-0.1l0,0l0,0l0,0l0,0l0,0.1l0,0v0.1l0,0.1l0,0.1
				l0,0v0l0,0L122,367l0,0l-0.1,0l0,0l0,0l0,0l0,0l0,0h-0.1l0,0l-0.1,0l-0.1,0l0,0l0,0h0v0.1l0,0l0,0l0,0l0,0l0,0l0,0l0,0v0l0,0l0,0
				l0.1,0l0.1,0h0l0,0l0.1,0l0.1,0l0,0h0l0,0l0,0l0,0l0.1,0l0.1,0l0.1,0l0.1,0l0.1,0l0,0l0,0l0,0l0,0l-0.1,0l-0.1,0l-0.2,0l-0.2,0
				l-0.2,0l-0.1,0h0l0,0l0,0l0,0l0,0l0-0.1l-0.1-0.1l-0.1-0.1L121,367l-0.1,0l-0.1-0.1l-0.1-0.1l-0.2-0.1l-0.1-0.1l-0.2-0.1l-0.1,0
				l-0.1,0l-0.1-0.1l-0.1-0.1l-0.1-0.1l-0.1-0.1l-0.1-0.1l-0.1-0.1l-0.1,0l-0.1-0.1l-0.2-0.1l-0.1-0.1l-0.1-0.1l-0.1-0.1l-0.1-0.1
				l-0.1-0.1l0,0l-0.1,0l-0.1,0l0,0l0,0l0,0l-0.1-0.1l-0.1-0.1l-0.1-0.1l0,0l0,0l0,0l0,0l0-0.1h0.2l0,0l0,0.1l0,0l0.2,0.1l0.1,0
				l0.1,0.1l0.1,0.1l0.1,0l0,0l0,0l-0.2-0.1l0,0l-0.1-0.1l0,0l-0.1,0l0,0l0,0l0,0l0-0.1l0,0l0,0l0,0l-0.1,0l0,0l-0.1,0h0l0,0h-0.1
				l0,0l0,0l0,0l0,0l0,0l0,0l0,0l-0.1,0h0l-0.1,0l0,0v-0.1l0-0.1l0.1-0.1l0,0l0,0l0,0l-0.1,0l0,0l-0.1-0.1l-0.1-0.1l-0.1-0.1l0,0
				l0,0v0l0,0.1l0,0l0,0l0,0l0,0v0h0l0,0l0,0l0,0.1v0l0.1,0l0,0l0.1,0.1l0,0v0h0l0,0l-0.1,0l-0.1-0.1l-0.1,0l-0.2-0.1l-0.2,0l-0.1,0
				l-0.4,0l-0.1,0h-0.1l0,0l-0.1,0l0,0l0,0l0,0l-0.1,0l-0.1,0l0,0l0.1,0.1l0.2,0.1l0.1,0.3l-0.4,0l0,0h0.1l0.1-0.1l0-0.1l-0.1,0
				v-0.1l-0.1,0l0,0.1h-0.1l0-0.1l-0.1,0.1l0.1,0.1l0,0.1l-0.2-0.1l0-0.1l0.1-0.1l0,0l0,0v0l0,0h-0.2l-0.1-0.1l0.1-0.1l0.1,0l0,0
				l-0.2,0.1l0,0l0.2-0.1l0,0l-0.3,0.1l-0.4,0.1l-0.1,0.1l0-0.1l0,0l0,0l0,0l0,0l0,0l0,0l0,0l0,0l-0.1,0.1l-0.1,0.2l0-0.1l-0.1,0
				l0,0.1l0,0.1l-0.1,0.1l0-0.1v-0.1l0,0l0,0l0,0l0,0l0,0.1l0,0l0,0l0,0l0,0l0,0l0-0.1l0-0.1l-0.1,0l0-0.1l0,0l0,0v0.1l0,0l0,0.1
				l0,0l0,0l0,0l0,0l0,0h0l0,0h0l0,0v0l0,0h0l0,0h0.1l0,0h0.1l0,0l0,0l0,0l0,0l0,0l0,0l0,0l0,0l0,0.1v0l0,0l0,0.1l0,0.1l0,0.1l0,0.1
				l0,0l0,0l0,0l0,0l0,0l0,0l0,0l0,0l0,0.1l0,0v0l0,0l0,0l0,0l0,0l0,0v0l0,0v0l0,0h0l0,0l0,0.1v0l0,0l0,0l0,0v0l0,0.1l0,0l0,0l0,0
				l0,0l0,0h0l0,0l0,0v0l0,0l0,0v0l0,0l0,0l-0.1,0l-0.1,0l0,0l0,0l0,0l0,0l0,0h0l0,0l0,0h0l0,0l0,0l-0.1,0l-0.1,0l-0.1,0l-0.1-0.1
				l0,0h-0.1l0,0l0,0l0,0l0,0l0,0l0,0l0,0l0,0l0,0h0l0,0h0l0,0h0l0,0l0,0l0,0h0v0l0,0l0,0h0l0,0l0,0l0,0l0,0l0,0h0l0,0l0,0l0,0l0,0
				l0,0l0,0l0,0l0,0l0,0l0,0l0,0h0l0,0v-0.1l0,0v0l0,0v-0.1l0,0l0,0l0,0l0,0l0,0l0,0l0,0l0,0l0,0l0,0l0,0l0,0l0,0l0,0v0l0,0l0,0l0,0
				l0,0l0,0l0,0v0l0,0l0,0l0,0l0.1-0.1l0.1,0l0.1,0l0.1,0l0.1,0l0,0l0,0v0l0,0l0,0l0.2-0.1l0.1-0.1l0-0.1l0-0.1l0-0.1l0-0.1l0,0
				l0-0.1l-0.1-0.1l-0.1,0l0,0l0,0l0,0h-0.1l0,0l0,0l-0.1-0.2l-0.1-0.1l0-0.1l-0.1-0.2l-0.1-0.2l-0.2-0.3l-0.2-0.3l-0.2-0.2
				l-0.1-0.2l-0.1-0.1l0,0l-0.2-0.2l0-0.1l0-0.1l-0.1-0.1l-0.1-0.1l-0.1-0.1l-0.1-0.1l-0.1-0.1l-0.1-0.1l-0.1-0.1l-0.1-0.1l-0.1-0.1
				l0,0l-0.1-0.1l0,0l-0.2-0.1l0,0l-0.2-0.1l-0.1,0l-0.1,0l-0.1,0l-0.1,0l-0.1,0h-0.2l-0.1,0l0,0l-0.1,0h-0.1l-0.1,0l-0.1,0l0,0
				l-0.1,0l-0.1,0l-0.2,0h-0.2l0,0l-0.1,0l-0.1,0h-0.1l-0.1,0l-0.1,0l-0.1,0l-0.1,0l-0.1,0l-0.1,0H106l0,0h-0.1l-0.1,0h-0.1l-0.1,0
				l-0.1,0h-0.1l-0.1,0l-0.1,0l0,0l0,0.1h0l0,0l0,0l-0.1,0l-0.1,0l-0.1,0l0,0l-0.1,0l-0.1,0l-0.1,0l-0.1,0h-0.1l-0.1,0l-0.1,0
				l-0.2,0l-0.1,0l-0.1,0l-0.2,0l0,0l0,0l-0.1,0l-0.1,0l-0.1,0l-0.1,0l-0.1,0l-0.1,0l0,0l-0.1,0l0,0l0,0.1l0,0.1l0,0l0,0l0,0l-0.1,0
				h0l0,0v0l0,0h0l0,0l0-0.1l-0.1-0.1l-0.1-0.1l-0.1-0.1l-0.1-0.1l-0.1-0.1l-0.1-0.1l-0.1-0.1l-0.1,0l-0.1,0l-0.1,0h-0.1l-0.1,0
				l-0.1,0l-0.1,0h-0.2l-0.1,0l-0.1,0l-0.1,0l-0.2,0h-0.1l0,0l-0.1,0l0,0l0,0l-0.1,0l-0.1,0l-0.1,0l0,0l-0.1,0l-0.1,0l-0.1,0l-0.1,0
				l-0.1,0l-0.2-0.1l-0.1,0l-0.1-0.1l0,0l-0.1,0l0,0l-0.1,0l0,0l-0.1,0l-0.1,0l-0.1,0l-0.1,0l-0.1,0l-0.1,0h0l0,0l-0.1,0l0,0l0,0
				l-0.1,0l-0.1,0l0,0l-0.1-0.1l-0.1,0l-0.1,0l-0.1,0l-0.1,0l-0.1,0l-0.1,0l-0.1,0l0,0l-0.1,0l0,0l-0.1,0l-0.1-0.1l-0.1,0l-0.1,0
				l-0.1,0l-0.1,0l-0.1,0l0,0v0l0,0l0,0l0.1,0l0,0l0,0l0,0l0,0l0,0l0,0l0,0l0,0l0,0l0,0l0,0l0,0l0,0l0,0l0,0l0,0.1l0,0l0,0l0,0
				l-0.1,0l-0.1,0l-0.1,0l0,0l0,0l0,0l0,0l0,0l0,0l0,0l0,0v0l0,0l0,0l0,0h0l-0.1,0l0,0l0.2,0h0l0,0l0,0h0l0,0l0,0l0,0l0.1,0l0,0
				l0.1,0l0,0h0l0,0h0l0,0h0l0,0l0,0v0h-0.1l0,0l-0.1,0l-0.1,0l-0.1,0l-0.1,0l-0.1,0l-0.2,0l-0.1,0l-0.2-0.1l-0.1,0l-0.1,0l-0.1-0.1
				l-0.2-0.1l-0.1-0.1l0,0l-0.2-0.1l-0.1-0.1l-0.1-0.1l-0.1-0.1l-0.1,0l-0.1,0l0,0l-0.1,0H94l0,0l0,0l0,0l0.1,0l0,0l-0.1,0l0,0l0,0
				l0,0l0,0.1v0l0,0.1l0,0l0,0l0,0l0-0.1l-0.1-0.1l0-0.1v0l0,0l0.1,0l0,0l0,0l0,0l0,0l0,0l0,0.1l0,0l-0.1-0.1l0-0.1l-0.1-0.2
				l-0.2-0.2l-0.1-0.1l-0.1-0.1l-0.1-0.1l0,0l0-0.1l-0.1-0.1l-0.1-0.1l0-0.1l0-0.1l0-0.1l0,0l0,0l0,0l0,0v0l0,0v0.1l0,0l0,0l0,0
				v-0.1l-0.1-0.1h0l-0.1,0l0-0.1l-0.1-0.1l0,0l-0.1-0.1l-0.1-0.1l-0.1,0l-0.1,0h-0.1l0,0l-0.1,0l-0.1,0l-0.1,0l0,0l-0.1,0l-0.1,0
				l-0.1,0l-0.1,0l-0.1,0l-0.1,0l-0.1-0.1l-0.1-0.1l-0.1-0.1l0,0l-0.1-0.1l-0.1,0l-0.1-0.1l-0.2-0.1l-0.1-0.1l0,0l-0.1,0h0l-0.1,0
				l-0.1,0l0,0h0l-0.1,0l-0.1,0l0,0l-0.1-0.1l0-0.1l0,0l-0.1,0l0,0l-0.1,0l0,0l-0.1-0.1l-0.1-0.1l-0.1-0.1l-0.1-0.1l-0.1,0l0,0l0,0
				h-0.1l-0.1,0l-0.1,0l-0.1,0l-0.1-0.1l0-0.1l0-0.1l0,0l-0.1-0.1l-0.1,0l-0.1,0l-0.1,0h0l-0.1,0h-0.1l0,0l0,0l0,0l0,0l0,0l0,0l0,0
				l0,0l0,0l0,0l0,0l0,0h-0.1l-0.1,0l-0.1,0l-0.1,0l0,0l0,0l-0.1,0l-0.1-0.1l0,0l-0.1,0l-0.1,0l-0.1,0l0,0l0,0l0,0l-0.1,0l0,0
				l-0.1,0l-0.1-0.1l-0.1-0.1l0,0l-0.1,0h-0.1l-0.1,0l0,0h-0.1l-0.1,0l-0.1,0l-0.1,0l-0.1,0h-0.1l0,0l0,0l-0.1,0h-0.2l-0.1,0h-0.1
				l-0.1,0l-0.1,0l0,0h0l-0.1,0l0,0h-0.1l-0.1,0l-0.1,0l-0.1,0l-0.2,0l-0.1,0l-0.1,0l-0.2,0.1l-0.1,0.1l-0.1,0v0l0,0l0,0l0,0l0,0
				l-0.1,0l0,0l0,0l0,0l-0.1,0l0,0l-0.1,0l0,0h-0.2l-0.1,0l-0.1,0l-0.1,0l-0.1,0l0,0l-0.1,0l0,0l0,0l0,0h-0.1l-0.1,0l0,0l0,0l-0.1,0
				l-0.1,0l-0.1,0l-0.1,0l-0.1,0l-0.2-0.1l0,0l-0.1,0l-0.2,0l-0.1,0l0,0h-0.1l-0.1,0l-0.1,0h-0.1l-0.1,0l-0.1,0l-0.1,0l-0.1,0l0,0
				l0,0h0l-0.1,0l-0.1,0.1v0l0,0l0,0l0,0l-0.1,0l-0.1,0l0,0l-0.1,0l-0.2,0l-0.1,0h-0.1l-0.1,0l0,0l0,0l0,0l0,0l0-0.1l0-0.1l0,0
				l-0.1,0l-0.1,0l-0.1,0l-0.1,0l0,0l0,0l0,0l-0.1,0l-0.1,0l-0.1-0.1l-0.1,0l-0.1,0h-0.1l-0.1,0h-0.1l-0.1,0h-0.1l-0.1,0h-0.1
				l-0.1,0l-0.1,0l-0.1-0.1l-0.1-0.1l-0.1-0.1l-0.1,0l0,0l0,0h-0.1l0,0h0l0,0l0,0l0,0l0,0l-0.1,0l-0.1,0l0,0l-0.1,0h0l0,0l-0.1,0
				h-0.1l-0.1,0h0l-0.1,0l0,0l-0.1,0l-0.1,0l-0.1,0l-0.1,0l-0.1,0l-0.1,0l-0.1,0l-0.1,0l-0.1,0l-0.1,0l0,0h0l-0.1,0l0,0l-0.1,0h-0.1
				l-0.1,0l-0.1,0l-0.1,0h-0.1l0,0l-0.1,0l-0.2-0.1l-0.1,0l-0.1,0l-0.2,0l-0.2,0l-0.1,0l-0.2,0l-0.1,0h-0.1l-0.1,0l-0.1,0h-0.1
				l-0.1,0h-0.1l-0.1,0h0l-0.1,0l0,0H73l-0.1,0h-0.2l-0.1,0l-0.1,0l0,0l-0.1,0l-0.1,0h-0.1l-0.2,0l-0.1,0l-0.1,0h0l-0.1,0l-0.1,0
				l-0.1,0h0l0,0h0l-0.1,0l-0.1,0l-0.1,0l0,0l0,0l0,0l0,0l0,0l0,0l0,0l0,0l0,0l-0.1,0l-0.1,0l-0.2,0l-0.2,0l0,0l-0.1,0l-0.1,0
				l-0.1,0H70l-0.1,0h0l-0.1,0h-0.1l-0.1,0l-0.1,0h-0.2l-0.1,0l-0.1,0l-0.1,0l-0.2,0l-0.2,0l-0.1,0l-0.1,0l-0.1,0l-0.1,0l-0.1,0
				l-0.1,0l-0.1,0H68l-0.1,0l-0.1,0l-0.1,0l0,0l0,0.1l0,0l0,0h0l0,0h0l0-0.1l0,0l0,0l-0.1,0l0,0h0l0,0l0-0.1l0,0l0-0.1l0-0.1v-0.1
				l0-0.1l0-0.1l0,0l-0.1-0.1l-0.1-0.1l-0.1,0l-0.1-0.1l0,0l0-0.1l0,0l0,0l0,0l0-0.1l0-0.1l-0.1-0.1l-0.1-0.1l0-0.1l-0.1-0.1
				l-0.1-0.1l-0.1-0.1l-0.2-0.1l-0.1,0l-0.1,0l-0.2-0.1l-0.1,0l-0.1-0.1l-0.1,0l0,0l-0.1,0l-0.1,0l0,0l-0.1-0.1h0l-0.1,0h-0.2
				l-0.1,0l-0.1,0l-0.1,0h-0.1l0,0l0,0l0,0l-0.1,0l-0.1,0l-0.1,0h0l0,0l0,0l0,0l0,0l0,0l0,0l0,0h0l0,0l0,0l0,0l0,0l0,0l0,0v0l0,0
				l0,0l0,0l0,0l0,0l0,0h0l0,0h-0.1l0,0l0,0l0,0l0,0l0,0v-0.1l0,0l0,0l0,0l0,0l0,0l0,0v-0.1l0,0l0,0v0l0,0l0-0.1l0,0l0-0.1l0-0.1
				l0-0.1l0-0.1l0.1-0.1l0.1-0.1l0.1-0.2l0.1-0.2l0.1-0.1l0-0.1l0.1-0.1l0.1-0.2l0-0.1l0-0.1l0,0l0-0.1l0,0l0-0.1l0,0l0,0l0,0l0,0
				l0,0l0-0.1l0-0.1l0,0l0-0.1l-0.1-0.1l0,0l0,0l0,0h-0.1l0,0l0,0l0,0l0-0.1v-0.1l0-0.1v0l0,0l0,0l0,0l0,0v0l0-0.1l0,0l0-0.1
				l0.1-0.1l0-0.1l0.1-0.1l0.1-0.2l0.1-0.1l0-0.1l0.1-0.2l0.1-0.3l0-0.1l0-0.1v0l0-0.1v-0.1l0-0.1l0-0.1l-0.1-0.1l-0.1-0.1l-0.1,0
				l-0.1,0l-0.1,0l0,0l0,0l0,0v0l0-0.1l0-0.1l0,0l0,0l0-0.1l0,0l-0.1,0l-0.1,0l-0.1,0l-0.1,0h-0.1l0,0l0,0l0,0h0v0l0,0l0,0l0-0.1
				l0.1-0.1l0-0.1v0l0,0l0,0v0l0.1-0.1l0-0.1l0.1-0.2l0.1-0.2l0.1-0.2l0-0.1l0.1-0.2l0.1-0.2l0.1-0.1l0.1-0.2l0-0.1l0.1-0.2l0-0.1
				l0-0.2l0-0.2l0-0.1l0-0.2l0-0.1l0-0.1l0-0.1l0-0.1v-0.1l0-0.1l0-0.3l0-0.1l-0.1-0.2l0-0.1l-0.1-0.1l-0.1-0.1l-0.1-0.1l0,0l-0.1,0
				l-0.1,0h-0.1l-0.1,0h0l0,0l-0.1-0.1l0,0l0,0l0,0l0,0l0,0l-0.1,0l0,0l-0.1-0.1l-0.1-0.1l-0.3-0.1h-0.1l0,0l0,0l-0.1,0h0l-0.1-0.1
				l-0.1,0l-0.2,0l-0.1,0l-0.1,0l-0.1,0l0,0l0,0.1l0,0.1v0l0,0l0,0l0,0l0,0l-0.1,0l0,0l-0.1,0l-0.1,0l0,0l-0.1-0.1l-0.1,0l0,0l0,0
				l-0.1,0l0,0l0,0l-0.1,0l0,0l-0.1,0l-0.1,0l-0.1,0l0,0l-0.1,0l0,0l0,0l-0.1,0l-0.1,0l-0.1,0l0,0l0,0l0,0l-0.1,0l0,0l-0.1-0.1l0,0
				l0,0l0,0l0,0h0l0,0l0,0l0,0l-0.1,0l0-0.1l0,0l0,0l0,0l-0.1-0.1l-0.2-0.1l0-0.1l-0.1-0.1l-0.2-0.1l-0.1-0.1l-0.1-0.1l0.1-0.1v0
				l-0.1-0.1l0.1,0l0,0l0-0.1l0-0.1v-0.1l0,0l0,0l0.1,0l0,0l0,0l0,0l0-0.1l0-0.1l0.1-0.1L59,336l0-0.1l0-0.1l0-0.1l0-0.1l0-0.1
				l0-0.1l0-0.1l0-0.2l0-0.1l0-0.1l0-0.1l0,0l0-0.1l0,0l0,0l0,0l0,0.1l0,0.1l0,0l0,0.1l0,0.2l0,0.1l0,0.1l-0.1,0.1l0,0.1l-0.1,0.1
				l-0.1,0.1l0,0l0.1-0.1l0.1,0l0.1,0l0.1,0l0.1,0l0,0v0l0,0l0,0l0,0l0,0l0.1,0l0.1,0l0.1-0.1l0,0l0,0l-0.1,0l-0.1,0l-0.1,0l-0.1,0
				l0,0h0l0,0l0,0l0-0.1l-0.1-0.2l-0.1,0l0-0.1l0-0.1l-0.1,0l0,0l-0.1,0.1l-0.1,0l0,0v0l0.1,0l0,0l0,0v0l0,0l0-0.1v-0.1l0-0.1l0-0.1
				l-0.1-0.1l0-0.1L59,334l0-0.1l0-0.1l-0.1-0.1l-0.1-0.1l-0.1-0.1l-0.1-0.1l-0.1-0.1l0,0h-0.1l-0.1,0l0,0h0l0,0l0,0H58l0,0h-0.1
				l-0.1,0l0,0l0,0l-0.1,0l0,0l0,0l0,0v0l0,0l0,0l0,0l-0.1,0l-0.1,0l0,0l-0.1,0l0-0.1l-0.2,0l-0.1,0l-0.1,0l-0.1,0l0,0l0,0l-0.1,0
				l0,0l0,0l0,0l0,0h0l-0.1,0l-0.1,0l0-0.1l-0.1-0.1l0-0.1l-0.1-0.1l-0.1-0.1l0,0l-0.1,0l-0.1-0.1l-0.1,0l0,0l0,0l-0.1,0l0,0l-0.1,0
				l0-0.1l0-0.1l-0.1,0l-0.1-0.1h0l-0.1-0.1l0,0l-0.1,0l-0.2-0.1l0-0.1l-0.2-0.2l0,0l0,0l0,0l-0.1-0.1l-0.1-0.1l0-0.1l0-0.1l0,0
				l-0.1-0.1l0-0.1l0-0.1l0-0.1l0-0.1l-0.1-0.1l0-0.1l-0.1-0.1l0-0.1l-0.1-0.1l0,0l-0.1,0l-0.1-0.1l0-0.1l0,0l0-0.1l-0.1,0l0,0l0,0
				l-0.1-0.1l-0.1-0.2l-0.2-0.1l-0.1,0l-0.1,0l-0.1,0h0l-0.1,0l-0.1,0l0,0l0,0.1h0l-0.1-0.1l0-0.1l-0.1,0l0,0l0,0l0,0l0,0l-0.1-0.1
				l-0.2,0l-0.1,0l-0.1,0h-0.1l-0.1,0l-0.1,0l-0.1-0.1l-0.1-0.1l-0.1-0.1l0,0l-0.1,0l-0.1,0v0l0,0l-0.1,0l-0.1,0l-0.1,0l0,0l0,0l0,0
				l0,0l0-0.1l0-0.1l0-0.1l0,0l0,0l0,0v-0.1l-0.1-0.1l0-0.1l-0.1-0.1l0,0l-0.1-0.1l-0.1-0.1l0-0.1l0,0l0,0l0,0l0,0l0,0l0-0.1l0-0.1
				l0-0.1l-0.1-0.1l0,0l0-0.1l0-0.1l0-0.1v0l0-0.1l0,0v0l0,0l0,0l0,0l0,0h-0.1l0,0l0,0l0,0l0,0l0,0v-0.1l0-0.1l-0.1-0.1l0,0l0,0l0,0
				l0,0l0,0l0,0l0,0l0-0.1l0,0l-0.1-0.1l0,0l0,0l-0.1-0.1l0,0l-0.1,0l0,0l0,0l0,0l0,0l0,0l0,0l0,0l0,0l0,0l-0.1,0l0,0v0l0,0l-0.1,0
				l-0.1-0.1l-0.1,0l0,0l0-0.1l0-0.1l-0.1-0.1l-0.1-0.1l-0.1-0.1l0-0.1l-0.1-0.1v0l0,0l0,0l0,0l0,0l0,0l0,0l0,0l-0.1,0l-0.1,0
				l-0.1,0l0,0l0,0l0-0.1l0,0l0,0h0l0,0l0,0l0,0h0l0,0l0,0l0-0.1l0,0l-0.1-0.1l0,0l0,0l-0.1,0l0,0l0,0l0,0v0l0,0l0-0.1l0,0l0,0l0,0
				l0,0v0l0,0v0l0,0l-0.1-0.1l0-0.1l0,0l0,0l0-0.1l0,0l0,0l0,0l0,0v0l0,0l0,0l-0.1,0v-0.1l0,0v0l0,0l0,0l0,0l0,0l0-0.1l0,0l0,0v0
				l0-0.1l0-0.1l0-0.1l0-0.1l0-0.1l0-0.1l0-0.1l-0.1-0.1l0,0l0,0l0-0.1l0-0.1l0-0.1l0,0l-0.1,0l-0.1,0l0,0l-0.1,0l0,0l0,0l0,0l0,0
				l-0.1-0.1l0,0l0,0h0l-0.1,0l0,0l-0.1,0l0,0l-0.1,0l-0.1,0H45l0,0l0,0h0l-0.1,0l0,0l0,0l0,0l0-0.1l0-0.1l0-0.1l0-0.1l-0.1-0.1l0,0
				l0,0l0,0l0,0v0l0,0l0,0v0l0,0l0,0l0,0v-0.1l0,0l0,0l-0.1-0.1l0,0l-0.1,0l0,0l0,0l0,0l-0.1-0.1l0,0l0,0l0,0l0,0l0,0v0l0-0.1l0,0
				l0,0l0-0.1l0-0.1l0-0.1l0,0l0,0l0,0l0,0l0,0l0,0l0-0.1l0,0v0l0,0l0,0l0,0l-0.1,0l-0.1-0.1l0,0l0,0l0-0.1l0-0.1l0,0l0,0l-0.1,0
				l0,0l-0.1,0l0,0l-0.1,0l-0.1-0.1l0,0l0,0l0-0.1l0,0l-0.1,0l0,0l0,0l0,0l0,0l-0.1,0l-0.2-0.1l0-0.1l0-0.1l-0.1-0.1l0,0l0,0l0,0
				l0,0l0-0.1l0,0l0,0l0,0l0,0h0l0,0l0,0l0,0v0l0,0l0,0l0,0h0l0,0v0l0,0l0,0l0,0l0,0l-0.1,0H41l-0.1,0l-0.1-0.1l-0.1-0.1l-0.1,0l0,0
				l-0.1,0l0,0l0,0l0,0h-0.1l-0.1,0l-0.1,0l-0.1,0l0,0l-0.1,0l0,0l0,0l-0.1,0l0,0l0,0h0l0,0l0,0l0,0l0,0l0,0l0,0l0,0l0,0l0,0l-0.1,0
				h0l0,0l0,0l0,0l0,0l0,0l0,0l0,0l0,0v0l0-0.1l0,0l0-0.1l-0.1-0.1l-0.1-0.1l0-0.1l-0.1,0l0,0l0,0l0,0l0,0h-0.1l0-0.1l0,0l0,0
				l-0.1,0l0,0l0,0v0l0,0l0,0h0l0,0l0,0l0-0.1l0,0l0,0l-0.1,0l-0.1,0l-0.1,0l0,0l0,0l0,0l0,0l0.1,0l0-0.1l0-0.1l0-0.1v-0.1l0,0v-0.1
				l0,0l0,0v-0.1l0,0v0l0-0.1l0-0.1l0,0l0,0l-0.1-0.1l0,0l0-0.1v0l0,0l0,0l0,0v0l0-0.1V316l0,0l0,0l0,0v0l0,0v0l0.1-0.1l0-0.1v0
				l0-0.1l0,0v-0.1l0-0.1l0,0l0,0l0,0l0,0h0l0,0l0,0l0,0l0,0v0l0,0l0,0l0-0.1v0l0-0.1l0,0l0,0l0-0.1l0,0l0,0l0-0.1l0-0.1l0,0l0-0.1
				l0-0.1l0,0l0,0v0l0,0l0,0l0,0l0,0v0l0-0.1l-0.1-0.1l0,0l0,0l0,0l0-0.1v-0.1l0,0l0-0.1v0l0-0.1l0,0l0,0l0,0l0,0v0l0,0l0,0l0,0l0,0
				v0l0,0l0-0.1l0,0l0,0l0,0l0,0v0l0,0l0,0l0,0h0l0,0l0,0l0,0l0,0l0,0v0l0,0l0,0l0,0l0,0h0l0,0h0l0,0h0l0,0l0.1,0h0.1l0,0l0,0l0,0
				l0,0l0.1,0l0,0l0-0.1l0,0l0-0.1l0,0l0,0l0,0l0,0l0,0l0,0l0,0l0,0l0,0l0,0l0-0.1l0,0l0,0l0,0l0,0h0l0,0l0,0v0l0,0l0,0h0l0,0l0,0
				l0,0l0,0l0,0l0,0.1l0,0l-0.1,0l-0.1-0.1l0,0l-0.1,0l-0.1,0l0,0l0-0.1l0-0.1l0,0l0,0l0,0l0,0h0l0,0h0.1l0,0l0,0l0-0.1l0,0l0-0.1
				l0,0v-0.1l0-0.1l0-0.1l0,0l0,0h0l0,0h0l0,0l0,0l0-0.1l0-0.1l0-0.1l0,0v0l0,0l0,0h0l0,0v0l0,0v0l0,0l0,0h0.1l0.1,0l0.1,0l0.1,0
				l0,0l0,0l0.1,0l0.1,0l0.1,0.1l0.1,0.1l0,0l0,0l0,0.1l0,0.1l0,0.1l0,0l0,0l0.1,0l0.1,0l0.1,0l0,0l0.1,0l0.1,0l0.1,0l0,0l0.1,0
				l0.1-0.1l0.1-0.1l0.1-0.1l0,0l0.1-0.2l0.1-0.1l0.1-0.1l0-0.1l0.1-0.1l0.1-0.2l0,0l0-0.1l0.1-0.1l0,0l0-0.1l0-0.1l0.1-0.1l0-0.1
				l0-0.1l0-0.1l0-0.1l0-0.1v-0.1l0-0.1v-0.1l0-0.1v-0.1l0,0l0,0l0,0.1h0l0,0v0l0-0.1l0,0v0l0,0v0l0,0l0,0l0-0.1l0,0l0,0v-0.1l0-0.1
				l0-0.1l0-0.1l0-0.1l0-0.1l0-0.1l0-0.1l0,0l0,0l0,0l0,0h0l0.1,0l0.1,0l0.1,0v0l0,0l-0.1,0l-0.1,0l-0.1,0l0,0l-0.1,0v0l0,0l0-0.1
				l0-0.1l0-0.1l-0.1-0.1l0-0.1l0-0.1l0-0.1l0-0.1l0-0.1l0,0l0,0l0,0l0,0v0l-0.1,0l0,0l0,0l0,0l0,0l0-0.1l0-0.1l0-0.1l0-0.1l0-0.1
				l-0.1-0.1l-0.1-0.2l-0.1-0.1l-0.1-0.1l-0.1-0.1l-0.1-0.1l-0.1-0.1l-0.1-0.1l-0.1-0.1l-0.1-0.1l-0.2-0.2l-0.1-0.1l-0.1-0.1
				l-0.1-0.1l-0.1-0.1l-0.1-0.1l-0.1-0.1l-0.2-0.1l-0.1,0l0,0l0,0l0,0l-0.1,0l-0.1,0l-0.1,0l-0.1,0l0,0l0,0l-0.1,0l-0.1,0l0,0l0,0
				l-0.1,0l0,0l0,0l0,0l0,0.1l-0.1,0l0,0l0,0l0,0l0,0h0l0,0l-0.1,0l0,0l0-0.1l0,0l0,0l-0.1,0l-0.1,0l-0.1,0l-0.1,0l0,0l-0.1,0
				l-0.2,0.1l0,0.1v0l0,0.1l0,0h-0.1l0,0l0,0l0,0l0,0l0,0l0,0l-0.2,0h0l0,0l0,0l0,0h0l0,0l0,0l0,0h0l-0.1,0l0,0l-0.1,0l0,0l0,0l0,0
				h0l0,0l0,0l0,0l-0.1,0l-0.1,0l-0.1,0l-0.1,0l-0.1,0l-0.1,0l0,0l0,0l0,0h0l0,0l0,0l0,0l0,0l0,0l0,0h0l0,0l0,0l0,0h0l0,0l0,0l0,0
				l0,0l0,0l0,0l0,0l0,0l-0.1,0l0,0l0,0l0,0l0,0l0,0l0,0l0,0l0,0l-0.1,0l-0.1,0l-0.1-0.1l-0.1-0.1l-0.1,0l-0.1-0.1l0-0.1l-0.1-0.1
				l0,0l0,0l0,0l-0.1,0l0,0l0,0h0l0,0l0,0v0l0,0l0,0l0,0l-0.1,0l0,0l0,0l0,0h-0.1l-0.1,0l0,0l0-0.1l0,0l0-0.1l0,0l0,0l0,0l0,0l0,0
				l-0.1,0l-0.1-0.1l-0.1-0.1l0-0.1l0,0l-0.1,0l-0.1,0l0,0l0,0l0,0v0l0,0l0,0l0,0l0-0.1l0,0l0,0l0,0l0,0l0,0l0-0.1l0,0l0,0l0,0l0,0
				l0,0l0,0l0,0l0-0.1l0-0.1l-0.1-0.1l0,0l0,0l-0.1-0.1l-0.1-0.1l-0.1-0.1l-0.2-0.1l-0.1,0l0,0l0,0l0,0l0,0l0,0l0,0l0,0l0,0l0,0
				h-0.1l0,0l0,0v0l0,0l0,0l0-0.1v-0.1l0,0l0,0l-0.1,0l0,0v0l0,0l0,0l0,0h-0.1l0,0l0,0l0,0l0,0l0,0l0,0l0,0l0,0l0,0l0-0.1l0,0l0-0.1
				l0,0l0,0l0,0l0,0l-0.1,0l0,0l-0.1,0l0,0h0l0,0h0l0,0l0,0l0,0h0l0,0l0,0l0-0.1l0-0.1l-0.1-0.1l0,0l0,0l0,0l0,0v-0.1l0-0.1l0-0.1
				l0,0l0,0v0l0,0l0,0V300l0-0.1l0-0.1l0,0l0,0l0-0.1l0-0.1l0-0.1l0-0.1l0-0.2l0,0l0-0.1l0,0l0-0.1l0-0.1v0l0,0l0,0l0,0l0,0l0-0.1
				l0,0l0-0.1l0-0.1l0-0.1l0,0l0,0v0l0-0.1l0-0.1l0-0.1l0,0l0,0l0,0l0,0l0,0l0-0.1l0,0l0-0.1v-0.1l0,0l0-0.1l0-0.1l0-0.1l0-0.1l0,0
				l0,0l0,0l0,0l0,0l0,0l0-0.1l0,0l0-0.1l0,0l0,0l0,0l0,0l0,0l0,0l0,0v0l0,0l0,0l0,0l0,0v0l0,0l0,0v-0.1l0,0l0,0l0,0l0,0v0l0-0.1
				l0,0l0,0l0,0l0,0l0-0.1l0-0.1l0,0l0,0l0,0l0,0l0-0.1l0-0.1l0,0l0-0.1v0l0,0v-0.1l0-0.1l0-0.2l0-0.1l0-0.1l0-0.1l0-0.1l-0.1-0.1
				l-0.1-0.1l-0.1-0.1l-0.1,0l-0.1,0l-0.1,0l-0.1,0l-0.1,0l0,0l0,0l0,0v0l0,0l0,0l0,0v-0.1l0,0l0,0l-0.1-0.1l0,0l0,0l-0.1-0.1l0-0.1
				l0,0v-0.1l0,0l0,0l0,0l0,0v0l0,0v0l0,0l0,0l0-0.1l0,0l0,0l0-0.1l0-0.1l0,0v-0.1l0,0l0,0l0,0l0,0l0,0l0,0l0,0l0,0v0l0,0v0l0,0l0,0
				v0l0,0l0,0l0,0l0,0v-0.1l0,0v0l0,0l0,0l0,0l0,0l0,0l0,0l0,0l0,0l0,0h0l0,0l0,0l0,0l0,0l0,0l0-0.1v0l0,0l0.1,0v0l0-0.1l0-0.1l0,0
				l0,0l0,0l0,0l0-0.1l0-0.2l0-0.2l0-0.1v-0.1l0-0.1l0,0l0,0l0,0l0,0v-0.1l0-0.1l0-0.1l0-0.1l0-0.1l0-0.2l0,0l0-0.1v-0.1l0-0.1
				l0-0.1l0-0.2v-0.1l0-0.1l0-0.1l0-0.1l0-0.1l0-0.1v-0.2l0-0.1l0-0.1l0,0l0.1,0l0,0l0,0l0.1,0l0.1,0l0,0l0.1,0l0.1,0l0,0l0-0.1l0,0
				l0-0.1l0.1-0.1v0l0,0l0,0l0,0h0l0,0l0.1,0l0.1,0.1l0,0h0.1l0.1,0l0.2,0l0,0h0.1l0,0l0.1,0l0,0h0l0.1,0h0l0,0l0.1,0l0.1,0l0.1,0
				l0.1,0l0.1,0l0,0l0,0l0,0l0.1,0.1l0.1,0.1l0,0.1l0,0.4l0,0.1v0l0,0.1v0l0,0l0,0v0l-0.1,0.1l0,0l0,0l0.1,0l0,0l0,0l0,0l0.1,0l0,0
				l0,0.1l0,0l0,0l0.1,0l0,0l0.1,0l0,0l0.1,0l0,0l-0.1,0.1l-0.1,0.1v0.1l0,0h0l0,0l0,0l0,0l-0.1,0l0,0l0-0.1l0,0l0,0l-0.1,0.1
				l-0.1,0h0l0,0v0.1l0,0l0,0l0,0l0,0l-0.1,0v0l0,0.1l0,0.1l0,0.1l0,0.1l0,0.1l0,0.1v0l-0.1,0.1l0,0.1l0,0l0.1-0.1l0,0l-0.1,0l0,0
				l0,0.1l0.1,0l0.1,0v0l0,0.1l-0.1,0l0,0l-0.1,0l0,0v0.1l0,0.1l0,0l0,0l0,0l0.1,0l0.1,0l0,0l0,0.1l0,0.1l0,0l0,0l0.1,0l0.1,0l0,0
				l0,0l0,0.1l0,0v0l0,0.1l0,0l0,0l-0.1,0l0,0l0,0.1l0,0l0.1,0l0,0l0,0l0.1,0.1l0.1,0.1l0.1,0l0.2,0l0.1,0l0.1,0l0.1,0l0.1,0l0,0.1
				l0,0.1l0,0.1l0,0l0,0l0.1,0l0.1,0l0,0l0,0l0.1,0l0,0l0,0.1l0.1,0l0,0l0,0l0,0l0,0l0,0l-0.1,0v0l0,0h0.1l0.1,0l0.1,0l0.1,0l0.1,0
				l0,0l0.1,0l0.1,0.1l0,0l0.1,0.1l0,0.1l0,0v0.1l-0.1,0l-0.1,0l0,0.1v0.1l0,0.1l0,0l0,0l0,0l0,0l0-0.1l0.1,0l0,0l0,0h0.1l0.1,0
				l0.1,0l0.1,0l0,0l0,0.1l0,0.1l0,0.1l0,0l0,0l0-0.1l0,0l0,0l0.1,0l0,0l0.1,0l0.1,0l0.1,0l0.1,0l0.1,0l0.1,0.1l0,0l-0.1,0.1
				l-0.1,0.1l-0.1,0l0,0.1v0l-0.1,0.1l-0.1,0.1v0.1l0,0l0.1-0.1l0,0l0.1,0h0.1l0.1,0l0,0l0.1,0l-0.1-0.1h-0.1l-0.1,0l0,0l0,0l0.1,0
				l0.1,0l0.1,0l0,0h0l0,0v0l0,0l0,0.1l0,0.1l0.1,0.1l0.1,0.1l0,0l0,0.1l0,0l0.1,0l0.1,0l0,0l0,0l0,0.1l0,0.1l0,0l0,0l0.1,0l0,0v0h0
				l-0.1,0l0,0l0,0l0,0l0,0v0l0,0l0,0l0.1,0l0.1,0l0.1,0l0.1,0l0,0l0.1,0.1l0,0.1l0,0l0,0.1l0,0.1l0,0.1l0,0.1l0,0.1l0,0.1l0.1,0
				l0.1,0.1l0.1,0.1l0.1,0l0.1,0l0.1,0.1l0,0l0.1,0l0.1,0l0.1,0l0,0l0,0h0l0,0l0.1,0l0.1,0l0,0l0,0l0,0.1l0,0l0.1,0l0.1,0l0.1,0h0.1
				l0.1,0l0.1,0l0.1,0H36l-0.1-0.1l0,0l0-0.1l0.1,0l0.1,0l0.1,0l0,0l0.1,0.1l0-0.1l0,0l0.1,0l0.1,0l0.2,0l0.2,0l0.1,0l0-0.1l-0.1,0
				l-0.2,0l-0.2,0l-0.2,0l-0.2,0l-0.2,0l-0.1,0l-0.1,0l0-0.1l0,0l0-0.1l0,0l0,0v-0.1l0-0.1l0-0.1v-0.1l0,0l0,0l0,0l-0.1,0l-0.1,0
				l-0.1,0l-0.1,0l-0.1,0l-0.1,0l-0.1-0.1l0,0l0,0l-0.1,0.1l-0.1,0l-0.1,0l-0.1,0l0,0l0,0l0,0l0-0.1l0-0.2l0-0.1l-0.1-0.2l-0.1-0.1
				l-0.1-0.1l-0.1-0.1l0-0.1v0l0,0l0,0l0-0.1l-0.1-0.1l-0.1-0.1l-0.1-0.1l0-0.1l0-0.1v0l0-0.1l0,0l0,0l0,0l0,0l0,0l0-0.1l0,0l0-0.1
				v-0.1l0-0.1l0,0l0,0l0,0l0-0.1l0-0.1l0,0l0-0.1l0,0l0-0.1V292l-0.1-0.1l0-0.1l0-0.1l-0.1-0.1l0-0.1l0,0l-0.1,0l0,0l0,0h0l0,0
				l0-0.1l0-0.1l-0.1-0.1l0-0.1l-0.1,0l-0.1-0.1l0,0l0.1-0.1l0,0l0,0l-0.1,0l-0.1,0l0,0l0,0.1v0.1l0,0.1l-0.1,0l-0.1,0l0,0l-0.1,0
				l-0.1-0.1l-0.1,0l-0.1-0.1l0-0.1l0,0l0,0l0,0h0l0,0l0,0l0.1,0l0,0l-0.1,0l-0.1,0l-0.1,0h0l-0.1,0l-0.1-0.1l0,0l0,0l0,0l0,0l0,0
				l0,0l0,0l0.1,0l0.1,0l0,0l0-0.1l0-0.1l0,0l0,0h0.1l0.1,0l0.1,0l0.1,0l0,0l0.1,0.1l0,0.1l0,0l0,0l-0.1-0.1l0-0.1l0,0v0l0,0l0.1,0
				l0,0l0,0l0,0l0-0.1l0,0l0,0l-0.1-0.1v0l0,0l0,0l0,0l0,0l0,0l0-0.1l-0.1-0.1l-0.1,0l-0.1,0l-0.1-0.1l0-0.1l0-0.1l-0.1-0.1l-0.1,0
				l-0.1,0l0,0l0,0l0,0h-0.1l0,0l-0.1-0.1l-0.1,0l-0.1,0l-0.1,0l-0.1,0l-0.1,0l-0.2,0l-0.1,0l-0.1,0v0l0-0.1l0,0l0,0l0,0l0,0l-0.1,0
				l0,0l0,0l0.1,0h0.1l0.1,0l0.1,0l0-0.1l0.1-0.1h0l0.1,0v0l0,0l-0.1,0l-0.1,0l0,0l0,0l0,0h-0.1l-0.1,0l0,0l0,0l0.1,0l0.1,0l0.1,0
				l0,0l0,0l0,0l0,0h0l0.2,0l0,0v0l0-0.1l0,0l0,0l0,0l0,0l0,0l0-0.1l0-0.1l-0.1-0.1l0-0.1l-0.1,0l-0.1-0.1l0,0l0,0l0,0l0-0.1l0-0.1
				l0-0.1l0-0.1l0-0.1l0,0l0,0l0,0l0.1,0l0-0.1l-0.1-0.1l-0.1,0h-0.1v0l0-0.1l0,0l-0.1-0.1l-0.1,0l-0.1,0l-0.1,0l-0.1,0l0,0l0,0
				l0-0.1l-0.1,0l-0.1,0l0,0l-0.1,0l0,0l-0.1-0.1l-0.1,0l0,0.1l0,0l0,0l0,0.1l-0.1,0l-0.1-0.1l0-0.1l-0.1,0l-0.1,0l-0.1,0l0,0l0,0
				l0,0l0,0l0-0.1l0,0v0l0-0.1l-0.1,0l0,0l0-0.1l-0.1,0l-0.2,0l-0.1,0l0,0l0,0l0,0v0l0,0l0,0l0,0l0,0l0,0l0,0l-0.1,0h0l0,0l0-0.1v0
				l0,0l-0.1,0l0,0l0,0l0,0l0,0v0l0,0l0,0l0,0l0,0l0,0l0.1,0h0l0.1,0l0,0.1l0,0.1l0.1,0l0.1,0h0l0,0l0,0l-0.1,0l0,0l0,0l0,0l0,0
				l0.1-0.1l0,0l0,0v0l0-0.1l0.1,0l0.1,0l0.1,0l0.1,0l0,0l0,0l0-0.1l0-0.1l0-0.1l0-0.1l0,0l0,0l0,0l0-0.1l0-0.1l0,0l0-0.1l0,0l0,0
				l0,0l0.1,0l0.1,0l0.1,0l0,0l0.1,0.1l0.1,0h0.1l0.2-0.1l0.1-0.1l0.1,0l0.1,0l0.1,0l0.1,0l0.1-0.1l0.1,0l0,0l0,0l0,0l0.1,0l0-0.1
				l0,0l0,0l0-0.1l0-0.1l0.1,0l0.1,0l0.1,0l0-0.1l0-0.1l0.1-0.1l0.1,0l0.1,0l0,0l0.1,0l0.1,0l0.1,0l0.2,0l0.2,0l0.2,0l0.2,0l0.2,0
				l0.2,0l0.1,0.1l0.1,0.1l0.1,0.2l0.1,0.1l0.1,0.1l0.1,0l0.1,0h0.1l0.1,0l0.1,0l0.1,0l0.1,0l0.1-0.1l0.1-0.1l0.1-0.1l0.2,0l0.3-0.1
				l0.2,0l0.1,0l0,0l0,0l0,0l0.1,0h0.1l0.1,0l0.1,0l0.1,0l0.1,0l0.1,0l0.1,0l0.1,0l0.1,0l0.2,0l0.1,0l0.1,0l0.1,0l0.1,0H37l0.1,0
				l0.1,0l0.1,0l0.1,0l0.1,0l0.1,0l0.2,0h0.2l0,0l0.1,0l0.1,0l0,0l0.1,0l0.1,0l0.2,0l0.2,0l0.1,0l0.1,0l0.1,0l0.1,0l0.1,0l0.1,0
				l0,0.1l0.1,0l0.1,0l0.1,0l0.1,0l0.1,0l0.1,0l0.1,0l0.1,0l0,0l0.1,0l0,0h0.1l0,0l0.1,0l0.1,0l0.1,0l0.1,0.1l0.4,0.1l0.3,0h0.1
				l0.1,0l0.1,0l0.1,0l0.1,0l0.1,0l0.1,0l0,0l0.1,0l0.2,0.1l0.2,0l0.1,0.1l0.1,0h0.1l0,0l0,0h0l0,0l0,0l0.1,0h0l0,0l0.1,0l0,0
				l0.1-0.1l0,0l0.1,0l0,0l-0.1,0l0,0l0-0.1l0,0l-0.1,0l-0.1,0l-0.1,0l0,0l-0.1,0l-0.1,0l-0.1,0l-0.1,0l0,0l0-0.1l0,0l0.1,0l0.1,0
				l0.1,0l0.1,0l0.1,0l0,0l0.1,0l0-0.1l0,0l0,0l0.1-0.1l0.1,0h0.1l0,0l0,0l0,0v-0.2l0-0.1l0-0.1l0-0.1l0.1-0.1l0.1,0l0.1,0l0.1,0
				l0.1,0.1l0.2,0.1l0.1,0l0.1,0l0.1,0l0-0.1l0-0.1v-0.1l0,0l0.2,0l0.1,0l0.1,0l0.1,0l0.1,0l0.1,0.1l0.1,0l0.1,0l0,0l0,0.1v0.1
				l0,0.1l0.1,0.1l0,0l-0.1,0l0,0l0,0.1l-0.1,0l-0.1,0l-0.1,0l-0.1,0l-0.1,0l-0.1,0h-0.1l0,0l0-0.1l-0.1,0l-0.1,0.1l0,0.1l0,0.1l0,0
				l-0.1,0.1l-0.1,0l0,0l0,0.1l0.1,0l0,0l0,0.1l0.1,0l0.1,0.1l0.1,0.1l0.1,0.1l0,0l0.1-0.1l0.1-0.1l0.1,0l0.1,0l0.1,0l0-0.1l0-0.1
				l0-0.1l0,0l0-0.1l0-0.2l0-0.1l0-0.1l0-0.1l0.1,0l0.1,0l0.1,0l0,0.1l0,0.1l0.1,0l0.1,0l0.1,0l0.1,0v0.1l0,0.1l0,0l0,0.1l0,0.1l0,0
				l0,0.1l0,0.1l0,0.1l0,0.1l0,0l0.1,0h0v0.1l0,0v0h0l0,0l0-0.1l0,0l0.1,0l0.1,0l0.1,0v0l-0.1,0l-0.1,0l-0.1,0l-0.1,0l-0.1,0l0,0
				l0-0.1v-0.1l0-0.1l0-0.1l0,0l0.1-0.1l0-0.1l0,0l0,0l0.1,0l0.1,0l0,0l0,0.1l0,0.1l0.1,0.1l0.1,0l0,0l0,0l0,0v0l0,0l0,0l0.1,0
				l0.1,0.1l0.1,0l0.1,0l0.1-0.1l0,0l0.1,0l0.1,0l0.1-0.1l0.1,0l0,0l0,0l0.2,0.2l0.1,0l0.1,0l0.1,0l0.1,0l0.3,0l0,0l0.1,0l0-0.1
				l-0.2,0v0l-0.1,0l-0.2,0l-0.1,0l-0.1,0h-0.1l0,0l0,0l0-0.1l0,0l-0.1,0l-0.1,0l-0.2,0.1l-0.1,0v0l0,0l0,0l-0.1,0.1l-0.1,0l0-0.1
				l-0.2-0.1l-0.1,0l0,0l0,0l0-0.1h-0.1l-0.1,0l-0.1,0l-0.1,0l-0.1,0v-0.1l0-0.1l0,0l-0.1,0h-0.1l-0.1,0l-0.1,0l0,0l-0.1,0l0,0l0,0
				l0-0.1l0,0l0-0.1l0,0l-0.1-0.1l-0.1,0l0,0l0-0.1l0,0l0,0l0-0.1l-0.1-0.1l0.1,0l0.1,0l-0.1,0l-0.1,0l-0.1,0l-0.1,0l-0.1,0l-0.1,0
				l-0.1,0l-0.1,0l-0.1,0l0,0l0,0l-0.1,0h-0.1l-0.1,0l-0.1,0.1l0,0.1l0,0.1v0.1l-0.1,0l0,0l-0.1-0.1l-0.2-0.1l-0.1,0l-0.2,0
				l-0.2,0.1l-0.1,0.1l0,0.1l-0.1,0l0,0.1l0,0.1l0,0.1l0,0.1l0,0.1l0,0.1l-0.1,0.1l-0.1,0.1l-0.1,0l-0.1,0.1l-0.1,0l-0.1,0l-0.1,0
				l-0.2,0.1l-0.1,0l-0.2,0.1l-0.1,0l-0.2,0l-0.1,0l-0.1,0l-0.1,0l-0.1-0.1l-0.1,0l-0.1,0l0,0l0-0.1l0-0.1l0-0.1l0-0.1l0,0h0l-0.1,0
				l0,0l0.1-0.1l0.1,0l0.1,0l0.1-0.1l0.1,0l0.1-0.1l0.1,0l0.2-0.1l0.1-0.1l0,0h0l0,0l0.1,0l0.1,0l0.2,0l0.1,0l0.1,0l0,0l0.1-0.1
				l0-0.1l0-0.1l0-0.1l0.1-0.1l0-0.1l0.1-0.2l0.1-0.1l0.1-0.1l0-0.2l0.1-0.2l0-0.1l0.1-0.1l0.1-0.1l0.1-0.1l0.1,0l0,0l-0.1,0l-0.1,0
				l-0.1,0l-0.1,0.1l-0.1,0.1l-0.1,0.1l0,0l-0.1,0.1l-0.1,0.1l0,0.1l0,0.1l-0.1,0.1l-0.1,0.2l-0.1,0.1l-0.1,0.1L42,284l-0.1,0l0,0
				l-0.1,0l-0.1,0.1l-0.1,0l-0.1,0l-0.1,0.1l-0.1,0l-0.1,0h0l-0.1,0.1l-0.1,0.1l-0.1,0.1l-0.1,0l-0.1,0l-0.1,0l-0.2-0.1l-0.1,0
				l-0.1,0l-0.2,0l-0.1,0l-0.1,0l-0.1,0l0,0l0,0.1l0,0.1l-0.1,0.1l-0.1,0l-0.1,0.1l-0.1,0l-0.1,0l0,0l-0.1,0h-0.1l-0.2,0h-0.2
				l-0.1,0l0,0l0,0l0,0l0.1,0l0.1,0l0.1,0l0,0v0l0-0.1v0l0-0.1l0,0l0.1,0l0,0l0,0l0,0l0,0l0,0l0-0.1l0,0l0,0l-0.1,0h-0.1l-0.2,0
				l-0.1,0h0l0,0l-0.1,0l-0.1,0l-0.1,0l0,0l-0.1,0l0,0l-0.1,0l-0.1,0h-0.1l0,0l0-0.1l0,0l0,0l0,0l0-0.1l-0.1,0H37l0,0l-0.1,0l0,0
				l-0.1,0l-0.1-0.1l-0.1,0l-0.1,0v0l0.1,0l0.1,0l0.1,0l0,0h0l0,0l0.1,0l0,0l0.1,0v0l0,0l0,0l0.1,0l0.1,0l0,0l0-0.1l0-0.1l0-0.1
				l-0.1-0.1l-0.1-0.1l-0.1-0.1l-0.1,0l-0.1,0l-0.1,0l-0.1,0l-0.1,0l-0.2,0l-0.1,0l-0.1,0l-0.1,0l-0.1,0l-0.1,0H36l-0.1,0l-0.1,0
				h-0.1l-0.1,0l0,0l0,0l0,0l0-0.1l0,0l0.1-0.1l0.1-0.1l0.1-0.1l0.1-0.1l0.1,0l0.1,0l0.1,0h0.1l0.1,0l0.1-0.1l0.1,0l0.1,0l0.1,0
				l0.1,0l0,0l0,0l0-0.1l0-0.1l0,0l-0.1,0.1l0,0.1l-0.1,0l-0.1,0l0,0l-0.1,0.1l-0.1,0.1l-0.1,0l-0.1,0l-0.1,0l-0.1,0.1l-0.1,0.1
				l-0.1,0.1l-0.1,0.1l0,0l-0.1,0.1v0.1l0,0.1l0,0.1l0,0.1l0,0.1l-0.1,0l-0.1,0l0,0l0,0l0,0l0,0l0,0l0,0v0l0,0.1l0,0l0,0.1l-0.1,0.1
				l-0.1,0.1l-0.1,0.1l-0.1,0.1L35,284l-0.1,0.1l-0.1,0.1l-0.2,0.1l-0.1,0.1l-0.2,0.2l0,0.1v0.1l-0.1,0.1v0l-0.1,0l-0.1,0h-0.1
				l-0.1,0l-0.1,0l0,0l0,0l0,0l0,0l0,0l0,0l0,0l0,0l0,0h0l0,0l0,0l0,0l-0.1,0l0,0l0-0.1l0,0l-0.1,0l0,0l0,0.1l0,0.1l0,0h-0.1l0,0
				l-0.1,0l-0.1,0l0,0l0,0l-0.1,0l-0.1,0l-0.1,0h-0.1l-0.1,0l0,0l-0.1,0l0-0.1l0,0l0-0.1l0,0l0,0v0l0,0l0,0l-0.1-0.1l-0.1-0.1
				l-0.1-0.1l-0.1-0.1l0-0.1l-0.1-0.1l0-0.1l0-0.1l0-0.1l0,0l0,0l0,0l0-0.1l0,0V283l0,0l0,0l0,0l0,0l0,0l0,0l-0.1-0.1l-0.1,0l-0.1,0
				l-0.1,0l-0.1,0l0,0l0-0.1l0.1-0.1l0-0.1v-0.1h0l0,0l0,0l0,0l0-0.1l0,0l0,0l0,0l0,0l0,0l-0.1,0l-0.1,0l-0.1,0l0,0l-0.1,0l0,0
				l0-0.1l0-0.1v-0.1l0-0.1l0,0l0.1-0.1l0,0l0,0l0-0.1l0-0.1l0-0.1l0.1,0l0.1,0l0,0l0.1,0l0.1,0l0.1-0.1l0-0.1l0-0.1l0-0.1l0-0.1
				l-0.1,0l0,0l0,0l0,0.1l0,0.1l-0.1,0l-0.1,0l-0.1,0l-0.1,0l-0.1,0.1l0,0l0,0.1l0,0.1l0,0.1l0,0.1l0,0l0,0.1l0,0.1l0,0l0,0l0,0l0,0
				l0,0.1l0,0h-0.1l0.1,0.1l0.1,0l0,0l0.1,0.1l0,0l0.1,0l0.1,0l0,0l0,0.1l0,0l0,0.1l0,0l0,0.1v0l0,0.1l0.1,0.1l0.1,0l0.1,0.1l0,0.1
				l0,0.1l0,0.1l0.1,0.1l0,0.1l0.1,0.2l0.1,0.2l0.1,0.1l0,0v0.1l0,0l0,0l0,0l0.1,0.1v0.1l0,0.1l0,0l0,0l0,0l0,0l-0.1,0l-0.1,0l0-0.1
				l0-0.1l0,0l-0.1-0.1l-0.1,0l0,0l-0.1-0.1l-0.1-0.1l-0.2-0.2l0-0.1l0,0l-0.1-0.1l-0.1-0.1l-0.1-0.1l-0.1,0l-0.1,0l-0.1-0.1
				l-0.1-0.1l-0.1-0.1l-0.1,0L30,283l-0.1-0.1l-0.2-0.1l-0.2-0.1l-0.2-0.1l-0.2-0.1l-0.1,0l-0.2,0l-0.1,0l0,0l0,0l0,0.1l0,0
				l-0.1,0.1l-0.1,0.1l-0.1,0.1l-0.1,0.1l-0.1,0l-0.1,0.1l-0.1,0l-0.1,0l-0.1,0l0,0l0,0l0,0l0,0l0,0l-0.1,0l0,0l0,0l-0.1,0l-0.1,0
				l-0.1,0l-0.1,0l-0.1,0l-0.1,0v0l0.1,0l0.1,0.1l0,0.1v0.1l0,0l0.1,0v0.2l0,0.1l0,0.1l0,0.1l0,0.1l0,0.1l-0.1,0.1l0,0.1l0,0v0l0,0
				l0,0l0,0l-0.1,0.1l0,0.1l0,0.1l0,0.1l0,0.1l0,0.1l0,0.1l0,0l0.1,0l0.1,0l0,0l0,0l0.1,0l0.1,0l0.1,0l0.1,0.1l0.1,0l0,0l0.1,0l0,0
				l0,0l0.1,0l0,0.1l0,0.1l0,0.1l0,0l-0.1,0h-0.1l-0.1,0l-0.1,0l-0.1,0l0,0l-0.1,0.1l0,0l0,0.1l0,0h0l0,0l0,0l-0.1,0l-0.1,0l0,0l0,0
				l0,0l0,0.1l0,0.1l0,0h0.1l0,0l0,0.1l0,0.1l0,0.1v0l0.1,0l0.1,0l0,0l0,0l0,0l-0.1,0l-0.1,0l-0.1,0h-0.1l-0.1,0l0-0.1l-0.1,0l0,0
				l0,0l0,0l0,0l0.1,0l0,0l0,0l0,0.1l0.1,0.1l0.1,0.1l0.1,0l0.1,0l0.1,0l0.1,0.1l0.1,0l0,0.1l0,0l0,0l0,0l0,0l0,0l0.1,0l0.1,0l0,0.1
				l0.1,0l0,0l0.1,0l0,0h0.1l0,0l0,0l0.1,0.1l0.1,0l0,0l0,0l0,0l0,0l0,0.1l-0.1,0l-0.1,0l-0.1,0l-0.1,0l0,0l0,0l0,0l0,0l0,0l0,0.1v0
				l0,0l-0.1,0l-0.1-0.1l0-0.1l0-0.1l0,0l0-0.1l0-0.1l0,0l0,0l-0.1,0l0,0l0,0l-0.1-0.1l0,0l0,0l-0.1,0l-0.1,0l-0.1,0l0,0l0,0l0,0.1
				l0,0.1v0.1l-0.1,0l0,0l-0.1,0l0,0l0,0.1l0,0l0,0l0.1,0l0,0l0,0l0,0l0,0l0.1,0l0.1,0.1l0.1,0l0,0l0,0l0,0.1l0,0l0,0l0,0l0,0l0,0.1
				l0,0l0,0l0,0.1l0,0l0,0l0,0v0l0,0l0,0H27l0,0l0,0l-0.1,0l-0.1,0l0,0l0,0l-0.1,0l-0.1,0l-0.1-0.1l-0.1,0l-0.2,0l0,0l0,0l0,0
				l-0.1,0l0,0v0.1l0,0l0-0.1l0,0v0l0,0l0,0l0,0l0,0l0,0l-0.1,0l-0.1,0l-0.1,0l0,0v0l0-0.1l0,0l0,0l0,0l0,0l0,0l0,0l0,0l0,0l0,0l0,0
				l0,0l0,0l0,0l0,0l0,0l0,0h0l0,0l0,0l0,0l0,0l0,0l0,0h0l0,0l-0.1,0l0,0l0,0l0,0l0-0.1l0-0.1l0-0.1l0,0l0,0l0,0l0,0l0,0l0,0l-0.1,0
				l0,0l0,0l0,0h0l0,0l0,0l0,0v0l0,0l0,0h-0.1l0,0v0l0,0l0,0v0l0,0l0,0l-0.1-0.1l-0.1-0.1l0,0l0,0l0,0l0,0l-0.1,0l-0.1,0l-0.1,0
				l-0.1,0l-0.1,0h-0.1l-0.1,0l-0.1,0l-0.1,0l-0.1,0.1l-0.1,0l0,0l0,0v0l0,0l0,0h0l-0.1,0l0,0l0,0l0,0l0,0l-0.1,0h0l-0.1,0l0,0
				l0-0.1l0-0.1l0-0.1l0-0.1v0l0,0l0-0.1l-0.1-0.1l-0.1,0l0,0l-0.1,0l0,0l0,0l0,0l0,0h-0.1l0,0l0,0l0,0l0,0l0,0l0,0l0,0l0,0h-0.1
				l0,0l0,0l0,0l0,0l0,0l0,0l0,0v0l0,0l0-0.1l0-0.1l0-0.1l-0.1-0.1l-0.1-0.1l-0.1-0.1l0,0l-0.1,0l0-0.1l0,0l0,0l0,0l0,0l0-0.1
				l-0.1-0.1l0,0l-0.1,0l0,0l0,0l-0.1,0l-0.1-0.1l-0.2-0.1l-0.2-0.1l-0.2-0.1l-0.1,0l-0.2,0l-0.1,0l-0.2,0l-0.1,0l-0.1,0l-0.2,0
				l-0.1,0l-0.1,0l-0.1,0l0,0v0h0l0.1,0l0.1,0.1h0.1l0.1,0l0.1,0l0,0l0,0h0.1l0,0l0,0l0-0.1l0,0l0,0l0,0v0l0,0l-0.1,0h-0.1l-0.1,0
				l-0.1,0l0,0l0,0v0l0.1-0.1v-0.2l-0.1,0l0,0l0,0l0,0l0,0l0,0l0,0l0,0l0,0v0.1l0,0l0,0l0,0l-0.1,0l0,0l-0.1,0h0l0,0v0l0,0l0,0l0,0
				l-0.1,0l0,0l0,0l0,0l0-0.1l0,0l0,0l0,0l0.1-0.1l0,0l0.1,0l0-0.1l0,0l0,0l0,0l0.1,0l0.1,0l0,0l0,0l0,0l0,0l0,0h0l0,0l-0.1,0l0,0
				l0,0h-0.1v0l0,0l0,0.1l0,0l-0.1,0l0,0V284l0-0.1l0,0l0,0l0-0.1l0,0l0-0.1l0.1,0l0,0l0,0l0,0l0,0l0,0l0,0v0l0,0h0v0l0,0l0,0l0,0
				l0,0v0l0,0.1l0,0.1l0,0.1l0,0h-0.1l-0.1,0l0,0l0,0v0l0,0l0-0.1l0,0l0,0l0,0h0v0l0,0.1l0,0.1l0,0l0,0l0,0.1l0,0l0.1,0l0,0l0,0.1
				l0,0l0,0l0,0l-0.1-0.1l-0.1,0l0,0v0l0,0l0,0l0.1,0.1l0.1,0.1l0.1,0.1l0.1,0.1l0,0h0l0,0l0,0l0,0l-0.1,0l-0.1,0l-0.2,0l-0.2,0.1
				l-0.2,0.1l-0.1,0.1l-0.1,0.1l0,0.1l0,0.1l0,0l0,0l0,0l0,0l0.1,0l0.1,0l0,0l0,0l0,0l-0.1,0l-0.1,0l0,0l0,0l0,0l0,0l-0.1,0H17
				l-0.1,0l0,0l0,0l0,0h0l0,0l0,0h-0.1l0,0h0l0,0l0,0l0,0l0,0l0,0l0,0l0,0h-0.1l-0.1,0h0l0,0v0l0,0l0,0l0.1,0l0,0l0,0l0,0l0,0l0,0
				l0.1-0.1l0-0.1l0.1-0.1l0.1-0.1l0.1-0.1l0.1-0.1l0.1-0.2l0.1-0.2l0.1-0.2l0.1-0.2l0.1-0.2l0.1-0.2l0.1-0.2l0-0.1l0.1-0.2l0.1-0.2
				l0.1-0.1l0-0.1l0-0.1l0-0.1l0-0.1v-0.1l0-0.1l0,0l0,0l0,0l0,0l0,0v0l0,0l0,0l-0.1,0l0,0l0,0l0,0v0l0-0.1l0,0l0,0v-0.1l0,0l0-0.1
				l0-0.1l0,0l0-0.1l0,0l-0.1-0.1l-0.1,0l0-0.1v-0.1l0,0l0,0l0,0l0,0l0,0l0,0l0-0.1l0-0.1l0,0l0-0.1l0,0l0,0l0.1,0l0.1,0.1l0,0
				l0,0.1l0.1,0l0,0.1l0,0l0.1,0.1l0.4,0.3l0,0.1h0l0,0.1l0,0l0,0l0,0l0,0h0.1l0,0h0l0,0l0,0l0,0l0,0l0,0l0,0h0l0,0l0.1,0.2l0,0h0
				l0,0l0,0v0l0,0l0,0l0,0l0,0l0,0.1l0,0h0l0.1,0l0,0l0,0l0,0v0.1l0,0l0,0l0,0l0,0l0,0l0,0l0,0.1l0,0l0,0l0,0v0.1l0,0h0l0.1,0l0,0
				l0,0.1l0,0l0.1,0.1l0,0l0.1,0.1l0.8,0.6l0,0l0.1,0l0,0l0,0l0,0l-0.1-0.1l-0.1-0.1l0-0.1l0,0l0,0l0,0l-0.1,0l-0.1,0v-0.1l0,0l0,0
				l0,0h0l0,0h0l0,0l0,0l0,0l0,0l0,0l0-0.1l0,0l-0.1,0l0,0l0,0l0-0.1l0,0l0,0l0,0l0,0l0,0l0,0l0,0v0l0,0l0,0l-0.1,0l0,0l0-0.1l0,0
				l0,0l0,0l0,0l0,0l0,0l0,0l0,0l0-0.1l0-0.1v0l0,0l0,0l-0.1-0.2l-0.1-0.1l0,0l-0.1-0.2l0,0l0,0l0,0v-0.1l0-0.1l0-0.1l0,0v0
				l-0.1,0.1l0,0l0,0.1l0,0l0,0l0,0l0,0l0,0l0,0l0,0l0,0l-0.1,0.1l0,0l0,0l0-0.1v0l0-0.1l0-0.1l0-0.1l-0.1,0h0l0,0l0,0l-0.1,0l0,0
				l0,0l0,0l0,0l0-0.1l0,0l0-0.1l0,0l0-0.1l0,0l0,0l0-0.1l0-0.1l-0.1-0.1l0,0l0,0l0,0v0l-0.1,0l-0.1,0l0,0l0,0v0l0,0l0,0l0,0l0,0
				l0,0l-0.1-0.3l-0.1,0h0l0,0l0,0l0-0.1l-0.1,0l-0.1,0l-0.1-0.1l-0.1-0.1l-0.1,0l-0.1,0l-0.1,0l-0.1,0l-0.1,0l-0.1,0l0,0l0,0l0,0
				l0,0l0,0l0,0v0l0,0l0,0h-0.1l0,0l0,0l0,0l0,0l0,0v0l0,0l0,0l0,0l0,0l0,0l0,0l0,0l0,0l0,0l0,0l0,0l0,0l0,0l0,0h0l0,0l0,0l0-0.1
				l0-0.2l0-0.1l0-0.1l0-0.1l0-0.1l0-0.1l-0.1-0.1l0-0.1l0-0.1l-0.1-0.1l0-0.1l0,0l0,0l0,0l0,0h0l0,0l0,0l0,0v0l0,0l0-0.1l0-0.1
				l0-0.1l-0.1-0.1l-0.1,0l-0.1-0.1l0,0l0,0l0,0l0,0l0,0l0,0v-0.1l0-0.1l0,0h-0.1l0,0v0l0-0.1l0,0l0,0l0,0l0,0l-0.1-0.1l-0.1,0l0,0
				h0l0,0l0,0l0,0l0,0l0,0l-0.1,0l0,0v0l0,0l0,0l0,0l0,0h-0.1l0,0l-0.1-0.1l0,0l0,0l-0.1,0l-0.1-0.1l-0.1-0.1l-0.1-0.1l-0.1,0
				l-0.1,0l-0.1,0l0,0l0,0l0,0l0,0l0,0l0,0l0,0l-0.1,0l0,0l0,0l-0.1,0l0,0l0,0h-0.1l0,0l0,0l0,0l0,0l0,0l0,0l-0.1,0h0l0,0l0,0l0,0
				l0,0l0,0l0,0l0,0l0,0l0,0l0,0l0,0l0,0l0,0l0,0l0,0l-0.1-0.1l0-0.1l0,0l0-0.1l0,0l0,0l0,0l0,0l-0.1,0l0,0l0,0l0,0l0,0l0,0l0,0l0,0
				l0,0l0,0h0l-0.1,0l0,0l0,0l0,0h-0.1l0,0l0,0l0,0l0,0l0-0.1l0,0l-0.1,0l0,0l-0.1,0l-0.1,0l0,0l0,0l0,0l0,0l0,0h-0.1l0,0l0-0.1l0,0
				l0,0l0,0l0-0.1l0,0l0,0l0,0l0,0l0,0l0,0l0,0l0-0.1l0,0l0,0l-0.1,0l-0.1,0l0,0l-0.1,0l0,0l0,0l0,0l0,0l-0.1,0l0,0l0,0l0,0l0,0l0,0
				l0,0v0l0,0l-0.1,0l-0.1,0l-0.1-0.1l-0.1-0.1l-0.1-0.1l0,0l0,0l0,0l0,0l0,0l0,0l0,0l0,0l0,0l0,0l0,0l0,0v0l-0.1-0.1l0,0l0,0l0,0
				l0,0l0,0l0-0.1l0-0.1l0,0l0,0l0-0.1l0,0l0,0l0,0l0,0l0,0l-0.1,0l0,0l0,0l0,0l0,0l0,0l0,0l0,0l0,0l0,0l0,0l0-0.1l0,0l0-0.1l0,0
				l0,0l-0.1-0.1l-0.1,0l0,0l0,0l0,0l0,0l0,0l0,0l0,0l-0.1,0l-0.1-0.1l-0.1,0l0,0l0,0h0l0,0l0,0l0,0l0,0v0l0,0l0,0l0,0l-0.1,0l0,0
				l-0.1,0h0l-0.1,0l0,0L7,271.1l0-0.1l0,0l0,0h0l0,0l0,0v0l0-0.1l0,0l0,0l-0.1,0l0,0v0l0-0.1l0-0.1l0,0l0,0l-0.1,0l0,0l0,0l0,0v0
				l0,0l0,0l0,0l0,0l0,0l0,0l0,0l0,0l0,0l0,0l0,0l0,0v0l0,0l0,0l0,0L6,270.2l-0.1-0.1l-0.1,0l0,0h0l0,0l0,0l-0.1,0l-0.1,0l0,0l0,0h0
				l0,0h0l0,0l0,0l0.1,0l0,0l0,0l0,0l0,0l0-0.1l0,0l0,0l0,0l-0.1-0.1l0,0l0,0l-0.1,0l0,0l0,0l0,0l0,0l0,0l-0.1-0.1l0,0l0,0l0,0l0,0
				l-0.1,0l0,0l0,0l0,0l0-0.1l0,0l0-0.1l0,0l0-0.1l0-0.1l0,0l0-0.1l0,0l-0.1,0l0,0l0,0l0,0l0,0l0,0l0,0l0,0l0,0h0l0,0l0,0l0,0l0-0.1
				l0-0.1l0,0l0,0l0,0l-0.1-0.1L3.5,268l0,0l0-0.1l0,0l0,0l0,0l0,0l0,0l-0.1,0l0,0l0,0l0,0l-0.1,0l0,0h0l0,0l0,0l0,0v0l0,0l0,0v0
				l0,0l0,0l0,0l0,0l0,0l0,0l0,0l0,0l0-0.1l0-0.1l0-0.1l0-0.1l0,0l0,0l0,0l0,0l0,0l0.1,0h0l0,0l0,0l0.1-0.1l0.1-0.1l0.1-0.1l0.1-0.2
				l0.1-0.2l0.1-0.2l0.1-0.2l0-0.1l0-0.1v-0.1l0,0v-0.1l0,0v0l0,0v0l0,0l0,0l0,0l0,0l0,0l0,0l0,0l0,0v0l0,0v-0.1l0,0l0,0l0-0.1l0,0
				l0,0l0,0l0,0l0,0l0,0l0,0l0,0l0-0.1v0l0,0l0,0v0l0,0v0l0-0.1l0,0l0-0.1l0-0.1l0,0l0,0l0,0l0,0l0,0l0,0l0,0v-0.1l0-0.1l0,0l0,0
				l0,0l0,0v0l0,0l0,0l0,0l0,0l0,0l0,0l-0.1-0.1l0,0l0,0l0,0h0l0,0l0,0l0-0.1l0,0l0,0h0l0,0l0,0l0,0l0,0l0,0l0,0l0,0l0,0l0,0l0,0
				l0,0l0,0v0l0,0l0,0l0,0l0,0l0-0.1l0,0l0,0l0,0l0,0v-0.1l0,0l0,0l0,0l0,0l0,0l0,0l0,0l0,0l0,0l0,0l0,0l0,0l0,0l0,0l0,0l0,0l0,0v0
				l0,0l0-0.1l0,0l0,0v0l0,0l0,0h0l0,0l0,0l0,0l0,0l0,0l0,0l0,0l0,0l0,0h0l0,0v0l0,0l0,0l-0.1,0l0,0v0l0-0.1l0,0v0l0,0l0,0l0,0
				l0-0.1l0-0.1l0,0l0,0l0,0v0l0,0l0,0l0,0l0,0l0,0l0,0l0,0l0,0l0-0.1l0,0l0,0v0l0,0l0,0l0,0l0,0l0,0h0l0,0l0-0.1l0,0l0,0v0l0-0.1
				l0,0v0l0,0v-0.1l0,0l0,0l0,0l0,0l0,0l0,0l0,0l0,0l0,0l0,0l0,0l0,0v-0.1l0,0l0,0l0,0l0,0l0,0l0,0h0l0,0l-0.1,0l0,0l0-0.1l0,0l0,0
				l0,0l0.1,0l0,0l0,0l0,0l0,0l0,0l0,0l0,0l0,0l0,0v0l0,0l0,0l0,0l0,0l0,0l0,0l0,0l0,0l0,0v0l0,0l0,0l0,0l0,0l0,0l0,0l0-0.1l0,0l0,0
				l0,0l0,0l0,0l0,0l0,0l0,0l0,0l0,0l0,0l0,0h0l0,0l0,0l0,0l0,0l0,0l0,0l0,0l0,0l0,0l0,0l0,0v0h0l0,0l0,0l0,0v0l0,0v0l0-0.1l0,0l0,0
				l0,0v0l0,0l0,0h0l0,0l0,0l0,0l0,0l0,0l0,0v-0.1l0,0l0,0l0,0l0,0l0,0l0,0l0,0l0-0.1v-0.1l0,0l0,0l0,0v0l0,0h0.1l0,0v0l0,0l0,0l0,0
				l0,0l0,0l0,0v0l0,0l0,0l0,0l0,0h0l0,0l0,0h0l0,0l0,0l0,0l0,0l0,0l0,0l0,0v0l0,0l0,0l0,0l0,0l0,0l0,0v0l0,0l0,0l0,0v0l0,0v0l0,0
				l0,0l0,0v0l0,0l0-0.1v-0.1l0,0l0,0l0,0l0,0l0,0v0l0,0h0.1l0,0l0-0.1l0-0.1l0-0.1l0-0.1l0.1-0.1l0.1-0.1l0.1-0.1l0.1-0.1l0.1-0.2
				l0-0.2l0-0.1v-0.2l0,0l0,0l0,0l0,0l0-0.1l0,0l0,0l0,0v-0.1l0-0.1l0,0l0,0l0-0.1l0-0.1l0,0l-0.1-0.2l0-0.1l0,0l0,0l0-0.1l0-0.1
				l0-0.1v0l0,0l0,0l0,0l0,0l0,0l0,0l0-0.1l0-0.1v0l0,0l0-0.1l0-0.1l0-0.1V254l0,0l0-0.1v-0.1l0,0l0,0l0,0l0,0l0-0.1l0-0.1l0-0.1
				l0-0.1l0-0.1l0-0.1l0,0l-0.1-0.1l0,0l0,0v0l0,0l0-0.1l0,0l0,0l0,0L2,252.9l-0.2-0.1l-0.1-0.1l0,0l0,0l0,0l0,0l0,0l0,0v0l0,0
				l-0.1,0l0,0l0-0.1v0l0,0l0-0.1l0,0l0,0l0-0.1l0-0.1l0-0.1l0-0.1l0-0.1l0-0.1v-0.1l0-0.1l0-0.1l0-0.1l0-0.1l0,0l0-0.1l0-0.1l0,0
				l0,0l0,0l0,0l0,0l0-0.1l0,0l0-0.1l0,0l0-0.1l0-0.1l0-0.1l0-0.1l0,0l-0.1,0l-0.1,0l-0.1,0L1,250.5l-0.1-0.1l-0.1-0.1l0-0.1l0,0
				l0,0l0,0l0,0l0,0l0,0v0l0,0l0,0l0,0l0,0l0-0.1l0,0l0-0.1l0,0l0,0v0l0-0.1l0,0l0-0.1l0,0l0,0l-0.1-0.1l0-0.1l0-0.1l0,0l-0.1,0
				l-0.1,0l-0.1,0l-0.1-0.1l-0.1-0.1l-0.1,0l0,0l-0.1-0.1l0-0.1l0-0.1l0,0l-0.1-0.1l0-0.1l0-0.1l0-0.1l0,0l0-0.1l0,0l-0.1-0.1
				l-0.1-0.1l0,0l0,0l-0.1,0l0,0l0-0.1l0,0l-0.1-0.1l-0.1-0.1l0,0l-0.1-0.1l-0.1,0l0,0l0,0l0-0.1l-0.1-0.1l-0.1-0.1l-0.1-0.1l0-0.1
				l0,0l0,0l-0.2-0.1l-0.1,0l-0.1,0l0,0l0,0l0,0h0l0,0l-0.1-0.1l0-0.1l0,0l0,0l0,0l0,0l0,0l0,0l0-0.1l0,0l0,0l0-0.1l0-0.1l0-0.1
				l0-0.1v0l0-0.1l0-0.1l-0.1-0.1l0,0l0,0l0,0l0,0l0,0l0-0.1l-0.1-0.1l-0.1-0.1l0-0.1l0-0.1l0,0l0,0l-0.1,0l-0.1,0l0,0l0,0l-0.1,0
				l-0.1-0.1l-0.1,0l-0.1,0l-0.1,0l0,0l-0.1,0l-0.1,0l-0.1,0l-0.1,0l-0.1,0l-0.1,0l-0.1,0l-0.1,0l-0.1,0l-0.1-0.1l-0.1-0.1l-0.1-0.1
				l-0.1-0.1l0-0.1l0,0l0-0.1l0-0.1l-0.1-0.1l-0.1-0.1l-0.1,0l-0.1,0l-0.1,0l0-0.1l-0.1-0.1l-0.1-0.1l-0.2-0.1l-0.1,0l-0.1,0l0,0
				l0,0l0,0l-0.1,0l0,0l-0.1-0.1l-0.1,0l-0.1,0l0,0l-0.1,0l-0.1,0l-0.1-0.1l-0.1-0.1l-0.1-0.1l-0.1-0.1l-0.1-0.1l0,0l0,0l0,0l0,0
				l0,0l0-0.1l0,0l-0.1,0l-0.1,0l-0.1,0l-0.1,0l0,0l0,0l0,0l0,0l0,0l0,0l0,0l0,0l-0.1,0l0,0l0,0l0,0l0,0l0,0l0,0l0-0.1l0,0l0-0.1
				V242l0-0.1l0.1-0.1l0-0.1l0-0.1l0-0.1l0,0l0,0l0-0.1l0,0l0,0l0,0l0,0l0-0.1l0-0.1l0-0.1l0-0.1l0-0.1l0,0l-0.1-0.1l0,0l0,0l0,0
				v-0.1l0-0.1v-0.2l0-0.2l0-0.1l0-0.1l0-0.1l-0.1-0.2l-0.1-0.1l-0.1-0.1l-0.1,0l0,0l0-0.1l0,0l0,0l0-0.1l0,0l0,0v0l0,0l0,0l0-0.1
				l0-0.1l0,0l0-0.1l0,0l0,0l0,0l0,0l0-0.1l0.1-0.1l0.1-0.2l0.1-0.1l0.1-0.2l0-0.1l0-0.1l0.1-0.1l0-0.1l0,0l0,0l0,0l0-0.1l0,0v0l0,0
				v-0.1l0.1-0.1l0,0l0-0.1l0.1-0.1l0.1-0.1l0.1-0.2l0.1-0.1l0.1-0.2l0.1-0.1l0-0.1l0.1-0.1l0.1-0.1l0.1-0.1l0.1-0.1l0,0l0.1-0.1
				l0.1-0.1l0-0.1l0-0.1l0,0l0-0.1l0,0l0,0l0,0l0,0l0,0h0.1l0,0h0.1l0,0l0,0l0,0l0,0l0.1,0h0v0l0-0.1l0.1-0.1l0,0v0l0,0l0,0l-0.1,0
				l0,0l-0.1,0l0,0l-0.1,0l0,0l0,0l0,0l0-0.1l0-0.1l0.2-0.2l0.2-0.1l-0.1,0l0,0l-0.3,0.4l0,0.1l-0.1,0.1l-0.1,0.1l0,0l0,0l0,0l0,0
				l0,0l0.1-0.1l0-0.1l0.1-0.1l0.1-0.2l0-0.1l0.2-0.3l0.1-0.1l0-0.1l0.1-0.1l0.1-0.1l0-0.1l0.2-0.2l0.2-0.3l0.1-0.1l0.2-0.2l0-0.1
				l0-0.1l0-0.1l0.1,0.1l0,0.1v0l0,0l0,0.1l0,0h0l-0.1,0.1l-0.2,0.2l-0.3,0.3l0,0.1l0,0l-0.1,0.1l0,0l0,0l0.1,0.1l0.1,0l0,0l0.1,0
				l0.1,0l0.2,0l0,0l0.1,0.1l0.1,0l-0.1-0.1l0-0.1l0,0l0-0.1l0.1,0l0,0l0,0l0-0.1l0-0.1l0,0l-0.1-0.2l0-0.1v0l0,0l0,0l0,0l0,0l0,0
				l0.1-0.1l0,0l-0.1,0l0,0v0l0,0l0.1,0l0.1,0l0.1-0.1l0.1-0.1l0-0.1l0-0.2v0l0,0l0,0v0l0,0l0-0.1l0-0.1l0.1-0.1l0.1-0.1l0-0.1v0
				l0.1-0.1l0.2-0.1l0.1-0.1l0.1,0l0,0l0,0.1l0.3,0l0.2,0.1l0.2,0l0.1,0l0,0l0,0l0,0l0.1,0l0,0l0.1,0l0,0l0.3-0.1l0.1-0.1l0-0.1
				v-0.1l0-0.2h-0.1v-0.1l0-0.1l0,0l-0.1,0l-0.1,0l-0.1,0l-0.1,0l-0.1,0.1l0,0l-0.1,0l-0.1-0.1l-0.1,0l0-0.1v0l0,0h-0.1l-0.1,0l0,0
				h-0.1l0,0.1l0,0.1l-0.1,0.1l0,0l0,0l-0.1,0.1l-0.1,0.1l0,0.1l0,0.1l0,0.1l0,0.1l-0.1,0.1l-0.1,0.1l-0.1,0.1l-0.1,0.1l0,0.1l0,0
				l0,0.1l0,0.1l0,0.1l-0.1,0.1l0,0l0,0l0,0l0,0.1l-0.1,0.1l0,0l-0.1,0.1l0,0.1l0,0h-0.1l-0.1-0.1l0-0.1l0.1,0l0.2-0.2l0.1-0.1
				l0.1-0.1l0-0.1l0.2-0.2l0.1-0.1l0.1-0.1l0.1-0.2l0.1-0.2l0.1-0.1l0.1-0.1l0-0.1l0.1-0.2l0.1-0.1l0-0.1l0-0.1l0,0l0,0l0,0l0-0.1
				l0.1-0.2l0.1-0.2l0.1-0.2l0-0.1L-3,230l0.1-0.2l0-0.1l0,0l0.1-0.2l0.1-0.2l0.1-0.2l0-0.2l0-0.1l0,0v0l0-0.1v-0.1l0-0.1l0-0.1
				l0-0.1l0-0.1v-0.1l0,0v-0.1l0,0v0l0,0v0l0,0l0,0l0,0l0,0l0,0l0,0V228l0,0l0-0.1l0,0l0,0l0-0.1l-0.1-0.1l-0.1,0l-0.1-0.1l0,0
				l-0.1,0l0,0l0,0v0l0,0l0,0l0,0l0,0l0,0l0,0l0,0l0-0.1l0,0l0,0l0,0l0,0l0,0h0l0,0l0,0l0,0v0l0,0l0,0l0,0v-0.1l0,0l0,0l0,0h0l0,0
				l0,0v0l0,0l0,0l0,0l0-0.1v0l0,0l0,0v0l0,0l0,0l0,0v0l0,0v0l0,0l0,0v-0.1l0,0l0,0l0,0v0l0,0l-0.1-0.1l0,0l0,0l0,0l0,0l0,0l0,0l0,0
				l0,0l0,0l0,0l0,0h0l0,0l0,0l0,0l0,0l0,0l0.1-0.1l0-0.1l0-0.1l0-0.1l0.1-0.1l0-0.1l0.1-0.1l0.1-0.2l0.1-0.2l0,0l0,0l0.1-0.1
				l0.1-0.1l0.1-0.1l0-0.1v-0.1l0,0l0-0.1l0,0l0,0l0-0.1l0.1-0.1l0-0.1l0-0.1v-0.1l0,0l0-0.1l0,0l0,0l0-0.1l0-0.1l0-0.1v-0.1l0,0
				l0,0l0,0l0-0.1l0-0.1l0-0.1l0-0.1l0-0.1l0,0l0,0l0,0l0-0.1l0-0.1l0-0.1l0,0l0.1-0.2l0-0.1l0-0.1l0.1-0.1l0-0.1l0-0.1v0l0-0.1
				l0-0.1l0-0.1l0-0.1l0-0.1l0-0.1l0-0.1l0,0l0-0.1l0-0.1l0-0.2l0-0.2l0-0.1l0-0.1l0-0.1l0-0.1l0-0.1V220l0-0.1l0,0l0-0.1l0-0.1
				l0-0.1l0-0.1l0-0.1l0-0.1l0-0.1l0-0.1l0-0.1l0-0.1l0-0.1v-0.1l0-0.1l0,0l0-0.1l0,0l0,0l0,0l0,0l0,0l0,0l0-0.1v-0.2l0,0l0,0v0.1
				l0,0v0l0,0l0-0.1l0,0l0,0l0,0l0,0l0.1,0l0.1,0l0.1,0.1l0,0l0,0l0,0l0,0l0,0l0,0v0l0,0l0,0l-0.1,0l-0.1,0l0,0l-0.1,0l0,0l0,0
				l-0.1,0l0,0l0,0l0,0l-0.1,0l-0.1,0l-0.1-0.1l-0.1-0.1l-0.1,0l0-0.1l0,0l0-0.1l0-0.1l0-0.1v0l0,0l0,0l0,0l0,0v0l0,0l0,0v0l0,0
				l0-0.1l0,0v0l0-0.1l0,0l0,0l0,0l0,0l0,0l0,0l0,0l0,0l0-0.1l0,0h-0.1v0l0,0l0,0l0,0l0,0l0-0.1l0-0.1l0-0.1l0-0.1l0,0l0-0.1
				l-0.1-0.1l-0.1-0.1l0,0l0-0.1l0-0.1l0-0.1l0-0.1l0,0l0,0V216l0-0.1v-0.1l0-0.1l0,0l0-0.1l0-0.1l0,0l0-0.1l0-0.2l0-0.1l0-0.1
				l-0.1-0.1l0,0l-0.1-0.1l-0.1-0.1l-0.1-0.1l-0.1,0l0,0h0l0,0l0,0l0,0l0,0l0,0l-0.1,0l0,0l0,0l0,0l0,0l0,0l0,0l-0.1,0l-0.1,0
				l-0.1,0l0,0l0,0l0,0l0,0l0,0l0,0l0,0l-0.1-0.1l-0.1-0.1l-0.1,0l0,0l0,0l0,0l0,0h0l0,0l0,0l0,0l0,0l0,0l0,0l0,0v0l0,0l0,0l0,0l0,0
				l0,0l0,0l0,0l0-0.1l0.1-0.1l0.1-0.1l0.1-0.1l0-0.1l0-0.1l0.1-0.2l0.1-0.2l0-0.2l0-0.1l0-0.1l0-0.1l0-0.2l0-0.2l0.1-0.2v-0.1
				l0-0.1l0-0.1l0-0.1l0-0.1l0-0.1l0-0.1l0-0.1l0-0.1l0-0.1v-0.1l0,0l0,0l0,0l0,0l0,0.1l0,0.1l0,0.1l0,0l0,0h0l0,0l0,0l0,0l0,0l0,0
				l0-0.1l0,0l0,0l0,0h0l0,0l0,0v0l0-0.1l0-0.1l0,0l-0.1,0l-0.1,0l0-0.1v0l0-0.1l0-0.1l0,0l0-0.1l0-0.1l0-0.1v-0.1l0-0.1l0-0.1l0,0
				l0,0l0-0.1L-3.1,210L-3.1,210z"/>
			<path id="_x31_770" class="st2" d="M-3.6,232.2L-3.6,232.2l-0.2,0.1l0,0l0,0l0-0.1l0-0.1l0.1,0L-3.6,232.2l0-0.1l0,0h0.1l0,0l0,0
				l0,0L-3.6,232.2L-3.6,232.2z"/>
			<path id="_x31_827" class="st2" d="M42.6,284L42.6,284l-0.1,0.1l-0.1,0l-0.1,0l-0.1,0l0.2-0.2l0.1-0.1l0.1-0.1l0,0.1L42.6,284
				L42.6,284L42.6,284z"/>
			<path id="_x31_828" class="st2" d="M36.8,284L36.8,284l0,0.1l0,0l0,0h-0.1l0,0l0,0l0,0l-0.1,0l-0.1,0v-0.1l0-0.1l-0.1-0.1l-0.2,0
				v-0.1l-0.1-0.1l0.1,0l0.2,0.1l0.3,0.1L36.8,284L36.8,284z"/>
			<path id="_x31_831" class="st2" d="M40.6,285L40.6,285l0.2,0.1l0.1,0l0,0l0,0l0.1,0l0.1,0l0,0l0.1,0.1l-0.1,0.1l-0.1,0l-0.2,0
				l-0.2,0l-0.2,0l-0.2-0.1l-0.1-0.1l-0.1-0.2l-0.1-0.1l0-0.1v-0.1l0-0.1l0.4,0.1h0l0.1,0l0.1,0l0.1,0l0.1,0l0,0l0,0l0,0l-0.1,0
				l-0.2,0l0,0l-0.1,0.1l0,0.1l0,0.1L40.6,285L40.6,285z"/>
			<path id="_x31_833" class="st2" d="M39.9,284.8L39.9,284.8L40,285l0.1,0.1l0,0l-0.1,0l-0.1,0l-0.1,0l-0.2,0l-0.2-0.1l-0.1-0.1v0
				l0.2-0.1l0.2,0l0-0.1l0-0.1l0-0.1l0.1,0.1l0,0.1l0,0.1L39.9,284.8L39.9,284.8z"/>
			<path id="_x31_852" class="st2" d="M27.9,288.2L27.9,288.2l-0.1,0l0,0l0,0l0-0.1l0.1-0.1l0.1,0l0,0l0.1,0l0,0l0,0l0,0.1l0,0
				l0,0.1l0,0.1l-0.1,0.1l-0.1,0h0L27.9,288.2L27.9,288.2L27.9,288.2z"/>
			<path id="_x31_855" class="st2" d="M29.4,289.1L29.4,289.1l-0.1,0l0,0l0,0l0-0.1l-0.1-0.3l0.1-0.1l0.1,0l0.2,0.2l-0.2,0.1l0,0
				h0.1l0,0l0.1,0l0,0l0,0.1L29.4,289.1L29.4,289.1L29.4,289.1z"/>
			<path id="_x31_859" class="st2" d="M30,289.3L30,289.3l0.7,0.1l0.2,0l0.1,0l0,0l0.1,0l0.1,0.1l0,0.1l0.1,0l0.1,0l0,0l0.1,0
				l0.1,0.1h0.1l0.1,0.1l0.1,0l0.1,0.1l0,0.1l-0.1,0.1l-0.2,0l-0.2,0l-0.1,0l-0.2-0.1l-0.2,0l-0.1-0.1l-0.1,0l-0.2,0l-0.2,0l0-0.1
				l0.1-0.1l0-0.1l-0.2,0l0,0.1l-0.1,0l-0.1-0.1l-0.1,0l-0.2,0L30,289.3z"/>
			<path id="_x31_860" class="st2" d="M13.1,289.2l-0.1,0l0-0.1v0l0,0l0,0L13.1,289.2L13.1,289.2L13.1,289.2L13.1,289.2L13.1,289.2
				L13.1,289.2z"/>
			<path id="_x31_862" class="st2" d="M14.5,289.3L14.5,289.3L14.5,289.3L14.5,289.3L14.5,289.3L14.5,289.3L14.5,289.3L14.5,289.3
				L14.5,289.3z"/>
			<path id="_x31_864" class="st2" d="M14.5,289.6L14.5,289.6l0.1,0l0,0L14.5,289.6L14.5,289.6L14.5,289.6L14.5,289.6z"/>
			<path id="_x31_865" class="st2" d="M15.9,290.3L15.9,290.3L15.9,290.3L15.9,290.3L15.9,290.3H16H15.9L15.9,290.3L15.9,290.3
				L15.9,290.3z"/>
			<path id="_x31_867" class="st2" d="M16.4,290.8L16.4,290.8L16.4,290.8L16.4,290.8L16.4,290.8L16.4,290.8L16.4,290.8L16.4,290.8z"
				/>
			<path id="_x31_868" class="st2" d="M16.6,290.7L16.6,290.7L16.6,290.7l0,0.1L16.6,290.7L16.6,290.7L16.6,290.7z"/>
			<path id="_x32_057" class="st2" d="M79.7,360.3L79.7,360.3l0.1-0.1l0-0.1l0.1,0l0-0.1v0l0-0.1l0,0l0,0l0-0.1l-0.2,0l0-0.1
				l-0.1-0.1l0,0l-0.1,0l0,0l-0.1,0l-0.1-0.1l-0.1,0l-0.1,0l-0.2,0l-0.1,0l0-0.1l0.1,0l0.1,0l0,0l0-0.1l-0.1,0l0.1-0.1l0-0.1l0.2,0
				l0.1,0l0.1,0l0.1,0l0,0l0.1,0h0.1l0,0h0.1l0.1,0l0.1,0l0.1,0l0.2,0.1l0.2,0.1l0.2,0.1l0.1,0.1l0.1,0.1l0.1,0.1l0.1,0l0.1,0
				l0.3-0.1l0.1,0l0.1,0l0.1,0l0.1,0l0.2,0l0.1-0.1l0.1,0l0,0.1l0.1,0l0,0h0.1l0.1,0l0.2,0.1l0.1,0l0.2,0.1l0.1,0l0.2,0.1l0,0.1
				l0.1,0l0.1,0l0.2,0.2l0.1,0h0.1l0.1,0l0.1,0.1l0.2,0l0.2,0l0.1,0.1l0.2,0l0.1,0.1l0.1,0l0.1,0l0.1,0l0.1,0l0.3-0.3l-0.1-0.1
				l0-0.1l0.1,0l0.1-0.1l0.1-0.1l0.2-0.1l0.1,0.1l0.1,0l0-0.1l0.1,0l0.1-0.1l0.1,0l0.1,0.1l0.2,0.1l0.1,0l0.2,0.1l0.1,0.1l0.1,0
				l0,0.1l-0.1,0l0,0.1l-0.1,0l-0.2,0l-0.1,0.1l0,0.1l-0.1,0.1l0,0.1l0,0l-0.1,0.1l0,0l0,0l-0.1,0l-0.1,0l-0.2,0l-0.1,0l-0.1,0.1
				l-0.2,0.1l-0.1,0h-0.2l-0.1,0l-0.1,0l-0.2,0l-0.2,0l-0.1,0l-0.1,0l-0.1,0l-0.3,0l-0.2,0.1l-0.1,0.1l-0.1,0l0,0l-0.1,0l-0.1,0
				l-0.2,0.1l-0.1,0l0,0.1l-0.1,0l-0.2,0.1l-0.2,0.1l-0.1,0l-0.1,0h-0.1l-0.2,0l-0.1,0l0,0l-0.1,0l-0.1,0l0,0l-0.1,0l-0.1,0l-0.1,0
				H82l-0.1,0l-0.2,0l-0.1-0.1h-0.1l-0.3,0l-0.2,0.1L81,361l-0.1-0.1h-0.1l-0.1,0l-0.2,0l-0.1,0.1l-0.1,0l-0.1-0.1l0,0l0,0l-0.1-0.1
				l-0.3,0v-0.1l0-0.1l0-0.1l0-0.1v0l-0.1-0.1L79.7,360.3L79.7,360.3z"/>
			<path id="_x32_058" class="st2" d="M69.6,358.9l0,0.1l0.1,0v0.1l0,0.1l-0.1,0.1l0.1,0.1l0.2,0H70l0.2,0l0.1,0l0.1,0.1l0.1,0
				l0.2,0.1l0,0.1l0,0.1l0,0.1l0.2,0.1l0,0l-0.1,0l-0.1,0l-0.2,0l-0.2,0l-0.2,0l-0.2,0l-0.2,0l-0.1,0l-0.1,0.1l-0.2,0l-0.1,0
				l-0.1-0.1l-0.1-0.1l-0.1,0l-0.2,0l-0.2-0.1l-0.1,0h-0.1l-0.1,0l-0.1,0.1l-0.1,0l-0.1-0.1l-0.1,0l-0.1,0l-0.2,0l0.1-0.1l0-0.1
				l0.1,0h0.1l0.1,0l0.2-0.2l0.2-0.1l0.1-0.1l0,0.1l0.1,0l0.1,0l0.1,0l0.1,0l0.1,0l0.1,0l0.1,0l0.1,0l0.1-0.1l0.1-0.1l0-0.1l0-0.1
				L69.6,358.9L69.6,358.9z"/>
			<path id="_x32_060" class="st2" d="M70.2,359.2L70.2,359.2l0.2,0l0,0.1l0,0.1l0,0L70.2,359.2L70.2,359.2L70.2,359.2L70.2,359.2z"
				/>
			<path id="_x32_062" class="st2" d="M73.7,361.9L73.7,361.9L73.7,361.9l-0.3-0.2l0-0.1l-0.1-0.1l0-0.1l-0.1-0.1l0-0.1l-0.1-0.1
				l-0.1,0l-0.1,0l0-0.1l-0.1-0.1l-0.1-0.1l0-0.1l0-0.1l-0.1-0.1l-0.1-0.1l-0.1-0.1l0-0.1l-0.1,0l-0.1,0l-0.1,0l-0.1,0l0-0.1
				l-0.1-0.1l-0.1,0l-0.1-0.1l0.1,0l0.1,0l0.1,0l0-0.1l0.1,0l0.1,0h0.2l0.3,0.1l0.2,0l0.3-0.1l0.1,0l0.1,0l0.1,0h0l0.1,0l0.3-0.2
				l0.1-0.1l0.1,0l0.2,0l0.2,0.1h0.1l0.1,0.1l0.2,0l0.1,0l0.2,0l0.2,0l0.1,0l0.2-0.1l0-0.1l0.1,0l0.1,0l0.1-0.1l0.1,0l0.1,0l0.1,0
				l0.1,0l0.1,0l0,0l0,0.1l0,0.1l-0.1,0.1l0,0.1l0,0.1l0,0.1l0,0.1l0.2,0.1l0.3,0.1l0.2,0l0,0l0.1,0l0.2-0.1l0.2,0l0.1,0l0,0l0,0.1
				l0,0.1l0,0.1l0,0.1l0.1,0l0.1,0.1v0.1l0.1,0.1l-0.1,0l-0.1,0l-0.2,0l-0.2,0l-0.2,0l0,0l-0.2,0l-0.1,0.1l-0.1,0.1l-0.2,0.1
				l-0.1,0.1l-0.1,0l0,0.1l-0.2,0l-0.2,0l-0.1,0l-0.1,0.1l-0.2,0l-0.1,0l-0.1,0l-0.1,0.1l0,0.1l0,0l-0.1,0l-0.1,0l-0.1,0l-0.1,0
				l-0.1,0l-0.1-0.1l-0.1,0l-0.1-0.1l-0.1,0l-0.1,0l-0.1,0l0,0l-0.1,0l0,0l0,0l0,0L73.7,361.9L73.7,361.9z"/>
			<path id="_x32_063" class="st2" d="M90.5,360L90.5,360l0.2-0.1l0.1,0l0.1,0l0,0.1l0,0l0,0l-0.1,0L90.5,360L90.5,360z"/>
			<path id="_x32_064" class="st2" d="M89.2,360.1l-0.1,0v0L89.2,360.1l0.2-0.1l0.1,0l0.1,0.1l0,0l0.1,0.1l0,0l0,0l-0.2,0l-0.1,0
				L89.2,360.1L89.2,360.1z"/>
			<path id="_x32_065" class="st2" d="M90,360.1L90,360.1l0.2,0l0.1-0.1l0.1,0v0l0,0l0,0l0,0l-0.2,0.1L90,360.1l-0.2,0L90,360.1
				L90,360.1z"/>
			<path id="_x32_077" class="st2" d="M114.4,364.8L114.4,364.8L114.4,364.8l-0.2,0.2l0,0.1l-0.1-0.1l-0.1,0l0.1,0.3l-0.1,0
				l-0.2-0.3l0,0l0,0l0.1-0.1l0,0l0.1-0.1l0.1-0.1l0.1-0.1l0.2,0l0.5-0.1l0,0l0.1,0.1l0,0.1l-0.1,0l-0.1-0.1l-0.1,0l-0.3,0.1
				l0.1,0.1l0,0l0.2,0l0.2-0.1v0l-0.2,0.1l-0.2,0l0,0l-0.1-0.1L114.4,364.8L114.4,364.8z"/>
			<path id="_x32_078" class="st2" d="M97.6,369.9l0.2,0l0.1-0.1l0-0.1l0.1,0h0v0.1l0,0.1l0,0.1l-0.1,0.1l0,0.1l0,0.1l-0.1,0l-0.1,0
				l0-0.1l0-0.1L97.6,369.9L97.6,369.9z"/>
			<path id="_x32_079" class="st2" d="M109.7,372.3l-0.1-0.1l-0.1-0.1l0-0.1l0.1-0.1l0.1-0.1l0-0.1l0.1-0.1l0.1,0l0.1,0l0-0.1
				l-0.1-0.1l-0.1-0.1l0-0.2l0-0.2l-0.1-0.1h-0.2l-0.1-0.1l0.2-0.1l-0.1,0l-0.1,0.1l-0.2,0.1l-0.1,0l-0.2,0l-0.1,0l-0.2,0l-0.3,0
				l0,0l-0.2-0.1l-0.1,0l0-0.1l-0.2,0l-0.3-0.2L107,370l0-0.1l0.1,0l0.2,0l0.1,0l0.2,0l0.2,0l0.1,0l0.1,0l0.3,0l0.1,0l0.1,0.1
				l0.1,0.1l0,0.1l0.2,0l0,0.1l0.3,0.1l0.1,0.1l0.1,0.1l0.1,0.1l0.1,0l0.1,0l0.1-0.1l0.1,0l0.1,0.1l0.1,0l0.1,0.1l0.2,0.1l0.1,0
				l0.2,0.1l0.2,0l0.2,0l0.4,0.1l0.2,0l0.1,0.1l0.2,0.1l0.2,0h0.1l0,0.1l-0.1,0.2l0.4,0.4l0.5,0.3l0.2,0.2l0.3,0.1l0.1,0.2l0.1,0.2
				l0,0.2l-0.1,0l0,0.1l-0.1,0l-0.1,0.1l-0.2,0l-0.3-0.1l-0.1-0.1l-0.2,0l-0.1,0l-0.4,0l-0.2-0.1l-0.3,0l-0.2,0l-0.2,0.1l-0.2,0
				l-0.2,0l-0.2,0l-0.1-0.1l-0.1-0.1l-0.1-0.1l-0.1-0.1L109.7,372.3L109.7,372.3z"/>
			<path id="_x32_081" class="st2" d="M87.6,374.7l-0.2,0l-0.2,0l-0.2,0l-0.1,0l-0.1-0.1l-0.2-0.1l-0.1-0.2l-0.1-0.1l-0.1-0.1l0-0.1
				l-0.1-0.1l-0.1-0.1l0,0l0.1,0l0.1,0.1l0.2,0.1l0.1-0.1l0.1-0.1l0.1,0l0.2,0l0.1-0.1l0.1,0l0.1,0l0.1,0.1l0.1,0l0.1,0.1l0.1,0.1
				L88,374l0.2,0l0.1,0.1h0.1l0.1,0l0.1,0l0.1,0l0.1,0.1l0.1,0.1l0.1,0.1l0.1,0.1l0.1,0.1l0.2,0.1l0.1,0l-0.1,0.1l-0.1,0l-0.1,0v0
				l0,0.1l-0.1,0.1l-0.2,0l-0.1,0l-0.1,0l-0.1,0l-0.2,0l-0.2-0.1l-0.2,0l-0.1,0l-0.1,0l-0.2,0L87.6,374.7z"/>
			<path id="_x32_088" class="st2" d="M107,378L107,378l0.1,0l0,0l0,0v0l-0.1,0l0,0l0,0L107,378L107,378L107,378z"/>
			<path id="_x32_089" class="st2" d="M109.3,381.2l0-0.1l-0.1-0.1l-0.2-0.1l-0.2-0.2l-0.1-0.2l-0.1,0l-0.2-0.2l0-0.3l-0.1-0.2
				l-0.1-0.2l-0.1-0.1l-0.1-0.1l-0.1-0.1l-0.1-0.1l0-0.2l-0.1-0.1l-0.1-0.2l-0.1-0.1l-0.1-0.1l-0.1-0.1l-0.2,0v-0.1l0-0.1l0-0.1
				l0.1,0l0.2,0l0,0.1l0.2,0l0.1-0.1l0.1,0.1l0.1,0l0.1,0l0.1,0.1l-0.1,0.1l0.1,0.1l0.1,0.2h0.1l0.1,0.1l0,0.1l0.1,0.2l0.2,0.1
				l0.1,0.2l0.2,0.1l0.2,0.3l0.2,0.2l0.2,0.1l0.2,0.2l0.2,0.1l0.2,0.1l0.1,0.1l0.1,0.1l0.2,0.1l0.2,0.1l0.4,0.3l0.3,0.2l0.3,0.2
				l0.3,0.2l0.3,0.1l0.2,0.2l0.2,0.1l0,0.1l-0.1,0l-0.1-0.1l-0.1,0l-0.2,0l-0.1-0.1l-0.2,0l-0.2,0l-0.1,0.1l-0.1,0.1l0,0.1l-0.1,0
				l-0.1,0l-0.3,0.2l-0.1-0.2l-0.1-0.1l-0.1,0l-0.1-0.1l-0.1,0l-0.1-0.1l-0.2-0.1l-0.1-0.1l-0.1-0.1l-0.1-0.1l-0.3,0l0-0.1l-0.2,0
				l-0.1-0.2L109.3,381.2z"/>
			<path id="_x32_096" class="st2" d="M136.9,382.5L136.9,382.5l0.1-0.1l0-0.1l0,0l0,0l0,0l0,0l0,0l0,0l0,0v0l0,0l0,0l0,0l0,0l0,0
				L136.9,382.5L136.9,382.5l0.1,0l0,0l0,0l0,0l0,0v0.1l0,0l0,0l0,0l0,0v0l0,0l0,0L136.9,382.5l0,0.1l0,0l-0.1,0l0,0l0,0l0,0
				L136.9,382.5L136.9,382.5L136.9,382.5L136.9,382.5z"/>
		</g>
	</g>
	<path class="st3" d="M82.5,370.5c1.5,1.8,1.2,4.2,0,5c-1.2,0.8-2.9,0-3,0"/>
	<path class="st3" d="M85.5,370.5c0.4,1.7,0.7,3,1,4c0.4,1.3,0.6,1.8,1,2c1.1,0.6,2.8-0.8,3-1"/>
</g>
<g id="Layer_1">
</g>
<g id="hand">
	<g>
		<path class="st4" d="M124,52c0,0-3.3,3-5,4c-4.4,2.7-3.6,3.2-8,6c-1.5,1-7.6,4.8-16.6,7c0,0-2.8,0.8-5.4,1c-13.2,1.2-31-2.7-40-15
			c-6.2-8.4-5.7-17.2-8-17c-2.8,0.2-4.1,12.9-4.6,17.9c-1.5,14.9-0.3,26.2-0.3,26.7c1.9,15.1,7.1,24.7,9.8,44.9
			c2.4,18.4-7.2,27.4-3.7,49.2c1.2,7.4,2.6,10.7,3.8,12.9c7.8,14.7,27,22.7,44.1,20.9c1.5-0.2,22.5-2.6,34.3-20.1
			c10.4-15.5,2.4-26.5,3.6-65.9c0.6-20.5-1.2-41.1,1-61.5c0.1-0.7,0.5-4.2-1-5c-1.6-0.8-4.2,2.2-10,6c-2.9,1.9-5.4,3.2-7,4
			c1-1.3,2.6-3.2,5-5c5.6-4.3,10.6-4.8,11-8c0.1-0.8,0-2.4-1-3C125.3,51.6,124.4,51.9,124,52z"/>
		<path class="st4" d="M40.6,47"/>
		<ellipse transform="matrix(0.2929 -0.9562 0.9562 0.2929 -21.1217 161.5298)" class="st5" cx="98.6" cy="95" rx="3.8" ry="3.3"/>
		
			<ellipse transform="matrix(0.6088 -0.7933 0.7933 0.6088 -117.7916 108.9344)" class="st5" cx="51.6" cy="173.9" rx="5.5" ry="3.6"/>
		
			<ellipse transform="matrix(0.2929 -0.9562 0.9562 0.2929 -65.1003 188.8731)" class="st5" cx="95.1" cy="138.4" rx="3.4" ry="4.2"/>
		
			<ellipse transform="matrix(0.2929 -0.9562 0.9562 0.2929 -102.5162 227.7719)" class="st5" cx="102.7" cy="183.2" rx="3" ry="1.7"/>
		<path class="st5" d="M92.6,205.4c-0.4,1.5-1.7,2.4-2.9,2c-1.1-0.4-1.7-1.8-1.3-3.3c0.4-1.5,1.7-2.4,2.9-2
			C92.5,202.5,93.1,204,92.6,205.4z"/>
		<path class="st5" d="M55,146c2.5,4.3,6.1,11.8,7.4,21.9c1,8.3,0,15.2-1.1,19.7"/>
		<path class="st5" d="M82.5,143.2c14.7,10.5,29.5,20.9,44.2,31.4"/>
		<path class="st5" d="M88.3,69c-6.5,0.4-24,1.3-36.3-11c-10.8-10.8-15-29.2-9.3-34.1c6.1-5.2,22.2,6.1,25.7,1.2
			c2.3-3.2-4-8.8-1.3-15.5c1.4-3.4,5-6.4,8.7-6.7c4.6-0.4,8.4,3.5,11.9,7.2c6,6.2,6.5,10.8,9.3,10.7c2.6-0.1,3-4.1,8.1-9.5
			c1.9-2,8.4-9.1,12.9-7.6c4.8,1.6,5.2,12.2,5.4,16.8c0,0.2,0,0.3,0,0.6c0.4,13.3,3.1,18.6,2.3,24.3c-0.9,6.6-6.3,10.9-11.2,14.8
			C104.7,68,93.7,68.7,88.3,69z"/>
		<path class="st5" d="M71,62"/>
		<path class="st5" d="M55.7,50.8c4.8-3.8,5.4-6.3,5.1-7.9c-0.2-1.1-0.9-1.5-3.2-5.2c-1.3-2-2-3.5-1.9-3.6c0.2-0.1,2.6,6.4,7.8,8.2
			c2.9,1,7.3,0.8,9-1.6c2.1-3-1.7-7.2,0.7-10.7c1.5-2.3,4.3-1.6,4.9-3.7c0.3-1.1-0.2-1.7-1.6-5.7c-0.7-2-1.4-4.2-1.2-4.3
			c0.7-0.4,7.7,20,15.3,19.6c5.6-0.3,7.8-11.4,13.5-11c3.4,0.3,5.7,5.1,5.9,5.5c2.1,4.5,0.2,8.4,2.4,9.8c1.2,0.8,2.2-0.5,4.6-0.1
			c4.1,0.6,7.9,5.5,7.3,9.3c-0.2,1.4-1,2.3-4,5c-5.3,4.9-7.9,7.3-9,8c-9.4,6.2-19.8,6.5-24.8,6.6c-0.3,0-0.6,0-0.7,0
			c-4.5,0-24.1-0.3-29.2-11.6C55.7,55,55.6,52.5,55.7,50.8z"/>
		<path class="st5" d="M63.2,55.7c11.4,2.6,16.2,0.8,18.4-1.8c3.3-3.9,0.9-10.4,4.2-11.9c3.1-1.5,6.6,3.5,10.6,1.9
			c3.1-1.3,3.1-5.4,5.5-5.6c0.2,0,0.3,0,0.4,0c2.7,0.6,4.3,4,5.3,5.6c3.8,6.2,13.6,4,14.4,7.6c0.2,1-0.3,2.5-8.2,8.6
			c-6.6,5.1-9.9,7.6-12.7,8.8c-8.6,3.7-16,2.9-25.3,1.9c-7.5-0.8-9.6-2.2-10.8-3.7C61.6,62.9,62.9,57.3,63.2,55.7z"/>
		
			<ellipse transform="matrix(0.2929 -0.9562 0.9562 0.2929 -36.8152 126.9049)" class="st5" cx="67.4" cy="88.3" rx="3.8" ry="3.3"/>
		<path class="st4" d="M66.5,96c0.4,0.8,5.1,10.6,16.1,12.3c9.5,1.5,16.3-4.3,17.3-5.2"/>
	</g>
	<path class="st6" d="M150,43"/>
	<circle class="st7" cx="67.5" cy="88.5" r="2.5"/>
	<ellipse class="st7" cx="98.5" cy="95" rx="2.5" ry="3"/>
</g>
<g id="Layer_4">
</g>
</svg>
