<?xml version="1.0" encoding="utf-8"?>
<!-- Generator: Adobe Illustrator 24.1.2, SVG Export Plug-In . SVG Version: 6.00 Build 0)  -->
<svg version="1.1" xmlns="http://www.w3.org/2000/svg" xmlns:xlink="http://www.w3.org/1999/xlink" x="0px" y="0px"
	 viewBox="0 0 112.4 224.2" style="enable-background:new 0 0 112.4 224.2;" xml:space="preserve">
<style type="text/css">
	.st0{display:none;}
	.st1{fill:#693D3D;stroke:#000000;stroke-width:0.5;stroke-miterlimit:10;}
	.st2{fill:#301E0E;stroke:#382A21;stroke-width:2;stroke-miterlimit:10;}
	.st3{fill:none;stroke:#000000;stroke-width:0.5;stroke-miterlimit:10;}
	.st4{fill:none;stroke:#000000;stroke-width:0.75;stroke-miterlimit:10;}
	.st5{fill:#5B2F24;stroke:#000000;stroke-miterlimit:10;}
	.st6{fill:#824949;}
</style>
<g id="Layer_1" class="st0">
	
		<image style="display:inline;overflow:visible;" width="2048" height="1706" xlink:href="Carne asdaa.jpg"  transform="matrix(0.24 0 0 0.24 -117.4725 -255.8132)">
	</image>
</g>
<g id="Layer_2">
	<path class="st1" d="M17.3,51.1c5.3-2.6,23.8,14.6,30.9,33.3c1.4,3.7,4.8,12.6,0.5,15.8c-3.3,2.4-9.3,0.5-10.1,0.2
		c-3.4-1.1-9.4-4.3-16.1-22.5C17.8,65,13.5,53,17.3,51.1z"/>
	<path class="st2" d="M15,16.8c0,0-14.7,5.5-10.9,7.8S45,157.1,45,157.1l-3.8,60.4h16.6l13.4-4.4l20.5,0.6l15.3-4.4
		c-0.6-2.8-1.5-7-2.9-12c-4.5-16.1-9.5-25.7-12-31.9c-7.4-18.2-5.3-36.4-3.7-44.9c0.3-1.5,0.5-2.5,0.8-4c5.3-23.7,11.8-26.8,12-40
		c0-3.4-0.3-10.1-3.5-17.7c-1.8-4.3-4.2-8-5.3-9.6c-2-3-4-5.4-5.8-7.3C70.9,19.6,50.2,6,38,6.9c-8.9,0.6-15,3.6-15,3.6
		C18.6,12.7,16.2,15.2,15,16.8z"/>
	<path class="st3" d="M15,15.9c0.8,0.1,1.9,0.4,3.3,0.7c13.2,3.5,20.5,12.9,24.4,17.9c30.6,39.1,30.8,38.2,31.7,41.6
		c1.1,4.2,0.5,4-6.6,53.8c-1.8,13-3.1,22.8,0,35.5c2.5,10.2,6.7,17.7,8.8,21c7.6,12.4,17.4,20.4,23.7,24.8"/>
	<path class="st4" d="M88.3,154.8"/>
	<path class="st3" d="M27.7,9.6C64,26.8,76.6,43.7,81.4,55.8c7.5,18.7-1.6,30.9-3.5,62.5c-2,33.4,2.5,46.6,4.5,52.4
		c5.8,16.9,15.1,30,22.1,38.4"/>
	<path class="st5" d="M8.6,21c8.2,6.6,19.5,17,28.9,30.9C50.3,70.9,53.2,87.3,55,100.3c6.4,46.7,4.9,94.7,3.9,115.3"/>
	<ellipse transform="matrix(0.955 -0.2967 0.2967 0.955 -22.0657 13.0812)" class="st6" cx="32.1" cy="79.2" rx="5.3" ry="19.6"/>
</g>
</svg>
