<?xml version="1.0" encoding="utf-8"?>
<!-- Generator: Adobe Illustrator 24.1.2, SVG Export Plug-In . SVG Version: 6.00 Build 0)  -->
<svg version="1.1" xmlns="http://www.w3.org/2000/svg" xmlns:xlink="http://www.w3.org/1999/xlink" x="0px" y="0px"
	 viewBox="0 0 1366 768" style="enable-background:new 0 0 1366 768;" xml:space="preserve">
<style type="text/css">
	.st0{display:none;}
	.st1{fill:none;stroke:#000000;stroke-linecap:round;stroke-miterlimit:10;}
	.st2{fill:none;stroke:#000000;stroke-width:0.75;stroke-linecap:round;stroke-miterlimit:10;}
	.st3{fill:none;stroke:#000000;stroke-width:0.5;stroke-linecap:round;stroke-miterlimit:10;}
	.st4{fill:none;stroke:#000000;stroke-width:0.75;stroke-miterlimit:10;}
	.st5{fill:none;stroke:#000000;stroke-width:0.5;stroke-miterlimit:10;}
	.st6{fill:none;stroke:#000000;stroke-miterlimit:10;}
</style>
<g id="Layer_1" class="st0">
	
		<image style="display:inline;overflow:visible;" width="373" height="479" xlink:href="../Graphic Design Inspiration/mexicanfood2.jpg"  transform="matrix(1 0 0 1 497 144)">
	</image>
</g>
<g id="shading">
	<path class="st1" d="M691.8,535.8v5c0,0,17.1,20.2,18,20.1"/>
	<path class="st1" d="M713.3,552.3l1.2,5.6c0,0-4.7,5.3-4.7,4.8c0-1.9,0-1.9,0-1.9"/>
	<path class="st1" d="M713.1,567.4c0,0,4.4-4.2,3.8-4.6"/>
	<path class="st2" d="M719.3,552.3"/>
	<path class="st2" d="M719.3,550.3"/>
	<path class="st2" d="M719.3,540.3"/>
	<path class="st2" d="M719.3,530.3"/>
	<path class="st2" d="M719.3,540.3"/>
	<path class="st2" d="M714.5,569.8c0,0,5.4-4.8,4.7-6.6"/>
	<path class="st2" d="M720.3,551.5l2,9.4c0,0-2.7,11.2-4,11.2"/>
	<path class="st3" d="M723,550.9l1.6,12.3c0,0-2.5,8.3-3.2,8.3"/>
	<path class="st3" d="M726.2,550.9c0,0,0.8,6.6,0,6.6"/>
	<path class="st3" d="M726.5,564.3c0,0-2.4,10.3-4.3,9.8"/>
	<path class="st3" d="M731.5,560.9c0,0-4.3,12.9-5.3,12.7"/>
	<path class="st3" d="M727.8,550.9c0.1,0.3,2.7,7.2,2.4,7.2"/>
	<path class="st3" d="M731.5,550.9c0,0,0.8,5.1,0,5.3"/>
	<path class="st3" d="M733.3,559.4c0,0-1.4,6-1.4,6.3"/>
	<path class="st3" d="M737,552.3l3.9,10.5c0,0-3.8,13.9-5.7,13.4"/>
	<path class="st3" d="M738.8,553.6l4.4,9.6c0,0-3.6,12.7-4.4,13.1"/>
	<path class="st3" d="M742.1,556.3c0,0,7.2,11.7,5.7,11.9"/>
	<path class="st3" d="M743.9,565.8c0,0,8.5,8,5.3,9.5"/>
	<path class="st3" d="M750.4,557.2l5,8c0,0,0,10.6-4.1,12.1"/>
	<path class="st3" d="M760.7,558.1c0,0-0.5,16.6-2.4,17.1"/>
	<path class="st3" d="M762.7,557.6c-0.3,0,4.5,8.6,3.3,8.2"/>
	<path class="st3" d="M764.4,559c0,0,4.4,7.6,3.2,8.2"/>
	<path class="st3" d="M769.3,560.9c0,0,6.5,5.1,3.5,8.3"/>
	<path class="st3" d="M767.8,562.6c0,0,4,4,1.9,5.5"/>
	<path class="st3" d="M769.7,562.6c0,0,3.8,6.1,2.2,6.6"/>
	<path d="M770.3,576.8c0.7-0.1,5.4-6.8,5.4-6.8l-0.7-6.5c0,0,2.3,4.9,2,5.1c-0.3,0.2,0.7-5.5,0.7-5.5l0.9,6.8l2.3-6.5l0.9,5.7
		l0.5-7.5l1.4,6.9c0,0,2.2-6.5,2.4-6.4c0.2,0.1,2.3,4.7,2.3,4.7l0.5-4.3l0.5,4l0.3-5.2l7.1-2l2.2-1.8l1.7,1l2.4-2.2l2.2,0.3
		c0,0,1.2-2.3,1.3-2.4c0.1-0.1,6.8-7.4,6.8-7.4l-1.6,7.1l-10.9,11c0,0-19.9,7.8-20.6,7.8c-0.7,0-6.1,4.7-8.1,4.4
		S770.3,576.8,770.3,576.8z"/>
</g>
<g id="Layer_3">
	<path class="st4" d="M724.1,547.6c6.7,0.6,9.3,2.7,16.4,4.2c4.7,0.9,4.7,0.6,11.3,1.6c10.7,1.7,12.8,3,19,4
		c3.2,0.5,12.6,1.9,22-0.8c15.1-4.3,20.6-19.7,23.7-18.2c2.6,1.2,2.4,9.4-1,15c-0.9,1.5-1.6,2.2-4.4,4.7
		c-13.3,12.6-14.4,14.4-18.2,15.2c-3.7,0.8-4.7-0.4-8.7,1c-4.2,1.5-4.8,3.4-8.1,5.1c-5.2,2.8-8,0.2-19,0.6
		c-8.3,0.3-7.5,1.8-14.4,1.8c-8.4-0.1-14.7-2.3-17.8-3.4c-8.6-3.1-11.9-5.4-13.3-6.7c-2.2-2-5.1-5.5-4.4-6.6
		c0.4-0.5,1.2-0.1,2.5-0.2c3.7-0.3,7.5-4.2,7.9-7.8c0.4-3.9-3.4-5.9-2.4-8C716.3,546.9,721.2,547.3,724.1,547.6z"/>
	<path class="st4" d="M709,556.2c0.7,0.6,1.8,1.3,3.2,1.6c0.3,0.1,0.6,0.1,0.9,0.1"/>
	<path class="st5" d="M711,555.1c0.7,0.4,1.4,0.8,2,1.2"/>
	<path class="st5" d="M709.7,558.5c0.7,0.3,1.4,0.6,2.1,0.9"/>
	<path class="st6" d="M715.2,548.6c-1.3,0.5-2.7,1.1-4.2,1.5c-0.9,0.3-1.8,0.5-2.7,0.7c0,0-12.1-8.6-11.5-9.9s0.6-8.2-0.7-7.5
		s-7.2,0.6-6.9,0.8s0.4,8.3,1.1,7.9c0.7-0.4,16.9,23.4,17.9,22.7"/>
</g>
<g id="HORN">
</g>
</svg>
