<?xml version="1.0" encoding="utf-8"?>
<!-- Generator: Adobe Illustrator 24.1.2, SVG Export Plug-In . SVG Version: 6.00 Build 0)  -->
<svg version="1.1" xmlns="http://www.w3.org/2000/svg" xmlns:xlink="http://www.w3.org/1999/xlink" x="0px" y="0px"
	 viewBox="0 0 1366 768" style="enable-background:new 0 0 1366 768;" xml:space="preserve">
<style type="text/css">
	.st0{display:none;}
	.st1{fill:none;stroke:#000000;stroke-linecap:round;stroke-miterlimit:10;}
	.st2{fill:none;stroke:#000000;stroke-width:0.75;stroke-linecap:round;stroke-miterlimit:10;}
	.st3{fill:none;stroke:#000000;stroke-width:0.5;stroke-linecap:round;stroke-miterlimit:10;}
	.st4{fill:none;stroke:#000000;stroke-width:2;stroke-linecap:round;stroke-miterlimit:10;}
	.st5{fill:#F2F2F2;stroke:#000000;stroke-linecap:round;stroke-miterlimit:10;}
	.st6{fill:#FFFFFF;stroke:#000000;stroke-linecap:round;stroke-miterlimit:10;}
</style>
<g id="Layer_1" class="st0">
	
		<image style="display:inline;overflow:visible;" width="373" height="479" xlink:href="../Graphic Design Inspiration/mexicanfood2.jpg"  transform="matrix(1 0 0 1 497 144)">
	</image>
</g>
<g id="Layer_3">
</g>
<g id="Layer_2">
	<path class="st1" d="M650.7,534.1c1.9-0.2,3.7-1.6,7.1-4.2c2.6-2,4.1-3.1,5.9-5.1c2.4-2.7,4.5-5,5.3-8.7c0.2-0.7,1.4-6.6-1.8-11.1
		c-1.4-1.9-2-1.3-3.6-3.6c-2.2-3.1-1.3-4.7-3.6-8.1c-1.7-2.6-2.5-2.1-3.4-4.2c-1-2.6,0-3.8-1.2-6.3c-1-2.2-2.1-1.9-2.6-3.6
		c-0.8-2.7,1.7-4.1,1.4-7.3c-0.3-3.2-3.2-6.2-4.9-5.9c-1.5,0.3-1.2,2.7-3.4,3.8c-2.2,1-3.7-1-5.9,0c-2.3,1-1.8,3.7-4,4.5
		c-2.4,1-4-2-6.7-1.2c-2.7,0.8-2.2,4-5.9,6.1c-1.9,1-2.5,0.5-4.4,1.4c-3.2,1.5-6.5,5-5.9,7.7c0.4,2.1,2.8,1.9,6.3,4.7
		c2.1,1.7,2.1,2.5,7.5,11.1c3.8,6,4.1,6.1,6.1,9.7c1.8,3.1,3.3,6.2,4.2,7.9c3.4,6.9,3.7,8.3,5.7,9.9
		C644.2,532.5,647.2,534.6,650.7,534.1z"/>
	<path class="st1" d="M665.8,506.4c0,0,4.1,6.9,2.5,7.7"/>
	<path class="st1" d="M665.1,519.6c0,0-1.3,3.5-2.4,3.3"/>
	<path class="st1" d="M661.5,503.3"/>
	<path class="st1" d="M663.4,531.5c-3.1,4.3-5.6,5.6-6.3,5.9c-2.4,1.2-4.7,1.4-6.1,1.4c-26.2-12.4-46.2-19.3-60.1-23.3
		c-12.7-3.7-28.8-7.6-42.7-16.4c-3.7-2.3-7.3-5-13.7-7.4c-10.1-3.7-14.8-2.1-20-6.3c-4.2-3.4-5.5-7.9-7.4-14.8
		c-1.2-4.1-4.3-17.6,1.6-32.2c1.9-4.8,3.9-9.6,9-12.7c1-0.6,5.2-3,13.2-2.6c8.9,0.4,15.5,3.9,23.2,8.4
		c17.5,10.3,26.2,15.4,32.7,22.1c7.9,8.3,6.8,17,17.4,26.4c3.5,3.1,3.2,2,7.5,5.7c9.4,8,14.5,16.2,20.4,25.7
		c4.4,7.1,6.5,10.6,7.6,14.6c0.8,2.8,0.8,4.1,2.1,5.5c3.6,3.6,11.6,2.7,17.1-0.5c6.5-3.8,8.6-10.4,9.3-10.1
		C668.7,521.4,666.8,526.8,663.4,531.5z"/>
	<path class="st2" d="M631.8,516.7c0,0,2.9,12.8,3.9,12.8"/>
	<path class="st2" d="M629.6,516.1c0,0,1.5,11.5,2.7,11.9"/>
	<path class="st2" d="M625.9,511.7c0.1,0.4,0,8.9,0,8.9s2.9,6.8,3.7,6.7"/>
	<path class="st3" d="M624.1,509.4c0,0-1.4,11.7-0.9,11.8"/>
	<path class="st3" d="M624.1,525.3c0.3,0.2,3.7,2.7,3.7,2.7"/>
	<line class="st3" x1="620.4" y1="504.8" x2="620.4" y2="510"/>
	<path class="st3" d="M620.8,513.5v5.9c0,0,0.3,1.7,1.4,1.7"/>
	<path class="st3" d="M617.8,502.1c0,0-1.1,19.6,0,20"/>
	<path class="st3" d="M614.5,499.1v10.3c0,0-1.1,7,0.6,7.3"/>
	<path class="st3" d="M611.6,499.1c0,0,0.2,6.5,0,7.3c-0.2,0.7-1.1,14,0,13.7"/>
	<path class="st3" d="M608.1,497c0.2,0.4,0,11.3,0,11.3l0.1,10"/>
	<path class="st3" d="M603.2,507.7c0,0,2.7,9.7,3.4,10.6"/>
	<path class="st3" d="M601.2,487.7v9.4c0,0-2.2,18.4-0.5,19.1"/>
	<path class="st3" d="M598.1,486.5c0,0.5-1.8,19.5-0.8,23.4"/>
	<path class="st3" d="M596,486.5c0,0-3.4,26.4-2.3,26.4"/>
	<path class="st3" d="M594.8,482.5c0,1.6-4,29.5-2.9,30.1"/>
	<path class="st3" d="M593.2,483c0,0.9-3.8,27.4-3,27.8"/>
	<path class="st3" d="M590.5,483c0,0.3-3.5,26.2-1.9,27"/>
	<path class="st3" d="M589.4,485.6c0,0-3.3,20.4-2.2,21.8"/>
	<path class="st3" d="M586.9,489.8c0,0.3-4.2,16.3-1.7,17.6"/>
	<path class="st3" d="M582.9,496.5c0,0-1.2,9.4,0,11.2"/>
	<path class="st3" d="M571.9,452.7c0,0-3.4,20-1.8,21.2"/>
	<path class="st3" d="M570.7,452.2c0,0-4.7,22.9-3.5,23.6"/>
	<path class="st3" d="M568.9,450.9c0,0-4.8,24.9-3.2,24.9"/>
	<path class="st3" d="M567.1,451.7c0,0-6.8,20.6-3.4,21.6"/>
	<path class="st3" d="M567.1,448c0,0-3.2,11-2.1,11"/>
	<path class="st3" d="M564.7,446.4c0,0-3,10.5-1.9,11.1"/>
	<path class="st3" d="M560.8,457.5c-2,0,1.7-14.9,1.7-14.9"/>
	<path class="st3" d="M561.4,442.6c0,0-4.5,11.9-3.7,12.5"/>
	<path class="st3" d="M559.5,440.4c0,0-3.2,7.6-1.9,8.5"/>
	<path class="st3" d="M557.5,438.2c0,0-2.2,7.5-1.2,8.2"/>
	<path class="st3" d="M556.1,437.5c0,0-3.3,8.6-2.1,9"/>
	<path class="st3" d="M570.7,483c0,0-1.7,19.1,0,19.1"/>
	<path class="st3" d="M573.6,497.5c0,0-2.4,7.1,0.7,7.5"/>
	<path class="st3" d="M580.2,501.2c0,0-2.4,3.9,0,4.6"/>
	<path class="st3" d="M567.1,484.3c0.3,0.7-0.8,16.9,1.2,17"/>
	<path class="st3" d="M563.6,486.5c0,0-2.9,13.5,0,13.2"/>
	<path class="st3" d="M560.2,486.1c0,0-1.4,13.2,0,13.2"/>
	<path class="st3" d="M556.8,483c0,0-1.5,14.1,0,14.5"/>
	<path class="st3" d="M554.2,481c0,0-2.9,15.4-1.6,15.9"/>
	<path class="st3" d="M552.3,479.9c0,0-3.3,16.6-2,16.6"/>
	<path class="st3" d="M548.3,481.9c0,0-2.5,14.9-0.7,15"/>
	<path class="st3" d="M545.4,471.7c0,0-0.5,20.3,0,20.8"/>
	<path class="st3" d="M543.7,470.5c0,0-0.9,20.3,0,21"/>
	<path class="st3" d="M540.8,471.7c0,0-2.6,21,0,20.8"/>
	<path class="st3" d="M542.6,474c0,0-2.6,16.9-0.8,17.5"/>
	<path class="st3" d="M538.9,471.7c0,0-2.8,20.1-0.9,19.8"/>
	<path class="st3" d="M536.3,474c0,0-2.4,14.7-0.7,15.4"/>
	<path class="st3" d="M533.4,471.7c0,0-0.9,15.5,0,15.9"/>
	<path class="st3" d="M531,466.9c0,0.4-1.3,16.1,0,17.4"/>
	<path class="st3" d="M526.9,466c0,0-2.6,19-1.2,19.6"/>
	<line class="st3" x1="528.1" y1="466.9" x2="528.1" y2="486.5"/>
	<path class="st3" d="M525.3,466.9c0,0-4.3,16.6-2.8,17.4"/>
	<path class="st3" d="M542.6,435.6c0,0-8.2,9-6.3,10.8"/>
	<path class="st3" d="M540.2,434.8c0,0-11,15-9.2,16.1"/>
	<path class="st3" d="M539.6,428.9c-3.4,2.3-7.8,6.1-10.6,12c-0.5,1-0.9,2-1.2,3"/>
	<path class="st3" d="M538.9,432.6c0,0-11.3,16.5-9.6,17.4"/>
	<path class="st3" d="M534,428.1"/>
	<path class="st3" d="M529.1,432.6l-4.6,7.3c0,0-3,12.8-2.3,15.2"/>
	<path class="st3" d="M526.1,455.1c0,0-7.9,27.2-6.5,27.9"/>
	<path class="st3" d="M522.8,457.5c0,0-7.3,22.9-5.8,24.1"/>
	<path class="st3" d="M524.5,433.8c0,0-5.6,18.7-5.1,21.3s-5.4,18.5-3.8,20.4"/>
	<path class="st3" d="M519.9,437.5c0,0-9.2,38.9-8,40.1"/>
	<path class="st3" d="M516.8,441.9c0.2,0.6-8.3,30.1-7.3,31.4"/>
	<path class="st3" d="M513.1,439.9c0,0-6.2,25.1-5,26.2"/>
	<path class="st3" d="M530.2,433.6c-1.9,6.4-3.9,12.7-5.8,19.1"/>
	<path class="st3" d="M530.2,453.4c-0.7,3.8-1.3,7.6-2,11.3"/>
	<path class="st4" d="M667.4,500.7c-2.6-13.1-6.9-22.7-9-27.2c-5.8-12.6-11.5-21.3-17.7-30.9c-10.6-16.2-15.9-24.3-23.5-30.3
		c-4.5-3.5-13.9-10.8-28-13.2c-11.3-1.9-20.2,0.2-28.5,2.4c-22,5.7-42.6,17.6-41.4,21c0.6,1.6,5.6-0.2,13.6,0
		c25.1,0.7,51.3,20.6,60.5,40.5c1.4,3,3.2,7.8,7.6,13.5c6.3,8.1,11.3,9.7,16.8,14.4c17.3,14.8,10.3,35.4,23.9,40.3
		c4.8,1.8,11.6,1.3,16.9-1.6c4.7-2.6,7-6.3,7.5-7C668.9,518.3,669.8,512.8,667.4,500.7z"/>
	<path class="st1" d="M538,413.7c8.1-0.1,13.7-2,17.4-4c5.1-2.6,8.6-6.1,14.2-5.5c1,0.1,4.9,0.5,5.7,2.8c0.4,1.3-0.2,3.1-1.5,3.8
		c-1.9,1-3.5-1.4-7.4-1.6c-2.9-0.1-5.2,1.2-7.5,2.5c-3.9,2.2-3,3.3-6.3,5.1c-4.2,2.3-5.7,0.6-10.7,3.3c-1.7,0.9-3.2,2-3.8,1.5
		c-0.8-0.7,0.8-2.9-0.3-5c-0.5-1-1.4-1.5-2.1-1.8"/>
	<path class="st1" d="M531,419.6c0.6-1.3,1.1-2.6,1.7-4"/>
	<path class="st1" d="M625.8,460.5c2.5,4.4,8.2,7.6,9.9,6.1c1.2-1-0.2-3.9,1.1-4.5c1-0.5,2.4,1,3,0.5c0.5-0.4,0-2.2-1-3.5
		c-0.6-0.7-1.2-1.2-4.6-2.8c-3.7-1.7-4.3-1.7-4.7-1.7c-1.7,0.1-3.8,1.2-4.3,2.9C624.9,458.3,625,459.2,625.8,460.5z"/>
	<path class="st1" d="M643.3,456.2c-1.4,1.1-2.9,2.2-4.3,3.4"/>
	<path class="st1" d="M636.1,454.4c0.9-1.4,2.7-1.5,4.8-1.7c1.3-0.1,3.9-0.3,4.6,1c0.5,0.9-0.3,1.6,0.3,3.1c0.5,1.3,1.3,1.2,1.5,2.2
		c0.3,1.4-1,3.2-2.6,3.7c-0.7,0.2-1.7-0.1-3.8-0.6c-1.9-0.5-2.8-0.7-3.2-1C636,459.7,634.8,456.4,636.1,454.4z"/>
	<path class="st1" d="M607.7,445.2c-0.1,1.8,6.2,3.4,6.5,3.5c4.6,1.1,5.7,0,10.2,0.7c5.2,0.8,5.1,2.5,10.4,3.5
		c5.3,0.9,10.8,0.1,10.9-0.9c0.1-0.7-3-1.7-9.1-3.6c-6.8-2.1-6.3-1.5-13-3.5c-5.8-1.7-8.4-2.7-12.1-1.9
		C611.1,443.1,607.8,443.9,607.7,445.2z"/>
	<path class="st1" d="M604.1,440.8c6.2-0.2,5.8-0.7,8.6-0.6c5.4,0.3,10.1,2.3,11.5,3c2.2,1,2.9,1.6,5,2.2c2.3,0.6,2.9,0.2,6.3,0.9
		c2.9,0.6,4,1.1,4.4,0.6c0.5-0.7-0.6-2.7-2.1-4.1c-1.8-1.6-4-2-6.9-2.6c-2.3-0.4-2.4-0.2-4.2-0.6c-2.5-0.6-3.8-1.4-5.7-2.4
		c-2-1-5.3-2.6-9.2-3.2c-3.2-0.5-6.2-0.9-9.1,0.6c-1.6,0.8-2.7,2-4.8,2.1c-0.7,0-1-0.1-3.3-0.7c-5.4-1.4-5.9-1.3-6.3-1
		c-1.2,0.8-1.4,3.6-0.3,5c1,1.2,2.4,0.9,10,0.8C601.9,440.8,601.7,440.9,604.1,440.8z"/>
	<path class="st1" d="M598.5,444.6c2.2,3.2,4.8,5,6.9,6.3c2.3,1.5,4.8,3.2,8.4,3.7c2.8,0.4,5.4-0.1,6.3-0.3c2.3-0.4,3.6-0.6,3.7-1.1
		c0.1-1.1-5.5-1.9-13-5.7c-4.1-2.1-6.1-3.1-8.1-5.4c-0.5-0.5-5.7-6.9-4-13.2c1-3.4,3.3-4.6,2.6-6.6c-0.7-1.9-3.6-3.2-5.3-2.4
		c-2.2,1.1-1.8,6-1.3,11.1C595.3,436.5,595.7,440.4,598.5,444.6z"/>
	<path class="st1" d="M585.5,445c3.4,0.1,5.8,2,12.7,7.9c15.3,13.3,6.9,7.2,9.8,9.4c1.2,1,3.5,2.7,3.5,4.9c0,0.1-0.1,1.8-1.1,2.3
		c-2.2,1.1-6.7-3.9-8-5.3c-1.8-2-1.3-1.9-3-3.7c-3.1-3.2-6.2-4.9-7.2-5.4c-2.7-1.4-2.8-0.8-4.5-2c-3.2-2.1-5.9-5.8-4.9-7.3
		C583.1,444.9,584.7,445,585.5,445z"/>
	<path class="st1" d="M588.5,451.5c5.4,3.7,10.9,7.5,16.3,11.2"/>
	<path class="st1" d="M596.9,465.7c0.9-0.7,3.2,2.6,9.6,7.3c2.3,1.7,4.2,2.9,4.1,4.4c-0.1,0.9-0.9,1.7-1.8,1.9
		c-0.8,0.2-1.5-0.2-6-4.5c0,0-0.9-0.9-2.5-2.4c-2.2-2.2-2.6-2.7-3-3.5C597,468.1,596.3,466.1,596.9,465.7z"/>
	<path class="st1" d="M566.5,421.2c2.5,0.3,3.7-2.5,6.7-4.4c3.7-2.2,8.2-2.1,10.9-0.6c0.5,0.3,1.9,1.1,2,2.2c0,0.4-0.1,1.2-2,2.4
		c-1.7,1.1-3.5,1.7-8.7,2.6c-3.9,0.7-4.5,0.6-5.5,1.4c-1.2,0.9-1.7,1.9-3,2c-1,0.1-2.1-0.4-2.8-1.2c-0.2-0.2-0.8-0.9-0.8-2
		c0-0.1,0-1.5,1-2.2C565,420.9,565.9,421.1,566.5,421.2z"/>
	<path class="st1" d="M572.6,413.5c-0.9-2.3,3.2-5.8,5.5-7.3c4.5-2.8,9.4-2.7,12.3-2.4c0,0,1.9-0.2,5.7,0c2.8,0.2,3.8,0.4,4.4,1.2
		c0.6,0.8,0.7,2.2,0.2,3.2c-1.5,3.2-8.7,4-13.8,3.4c-2.4-0.3-4.1-0.9-5.7,0.2c-1.8,1.1-1.6,2.9-3.3,3.6
		C576,416,573.2,415,572.6,413.5z"/>
	<path class="st1" d="M576.4,410.9c2.9-1.3,5.8-2.6,8.7-4"/>
	<path class="st1" d="M581.7,402.6c-0.6-0.9,1.9-3.9,4.5-5.5c1.4-0.9,4.3-2.3,7.9-1.8c2.5,0.4,4.3,1.5,5.7,2.6
		c6.6,5,14.3,15.4,11.7,18.6c-1.3,1.6-5.3,1.4-7.1-0.4c-2.1-2-0.1-4.6-1.8-8.3c-1.9-4.1-6.9-6.5-10.9-6.9
		C586.2,400.3,582.4,403.6,581.7,402.6z"/>
	<path class="st1" d="M563.1,396.4c5.1-5.3,14.5-3.9,16.6-3.6c3.5,0.5,9.3,2.2,9.3,4.4c0,2.1-5.5,4.9-9.9,3.8
		c-3.8-1-4.5-4.4-7.1-4.2c-3.3,0.3-5.3,6.1-5.8,7.6c-1.8,5.3,0.1,6.6-1.5,10c-0.5,1.1-1.6,2.9-12.7,8.1c-9.7,4.6-11.1,4.4-11.7,3.8
		c-1.3-1.3-0.8-4.9,1.2-7.1c4-4.5,11,0.3,15.8-3.6C562.8,411.3,557.2,402.5,563.1,396.4z"/>
	<path class="st1" d="M587.2,421.8c9,3,12.7-0.5,21,0.8c10.9,1.7,17.2,9.7,18.8,7.9c0.9-1-0.6-4.2-1.4-5.6c-0.4-0.6-1.3-1.9-2.9-3.1
		c-3.5-2.5-7.6-2.4-10.9-2.6c-8.2-0.5-7.6-3.1-15.8-4c-7.1-0.7-15.2,0.4-15.4,2.4C580.3,419.4,586.4,421.5,587.2,421.8z"/>
	<path class="st1" d="M560.3,433.4c0.4-4.3,13.6-6.2,14.8-6.3c4.4-0.6,11.6-1.5,17.6,2.8c2.5,1.7,4.6,4.3,4.2,4.9
		c-0.5,0.8-4-1.5-10.1-2.8c-2.8-0.6-6.9-1.3-11.9-0.2c-3.9,0.9-6.6,1.5-8.7,3.8c-0.8,0.8-1.4,1.8-2.5,1.8
		C562.2,437.5,560.2,435.2,560.3,433.4z"/>
	<path class="st1" d="M599.3,442.9c1.6,1.4,3.2,2.8,4.7,4.2"/>
	<path class="st1" d="M606.2,448.9c1.3,0.5,2.5,0.9,3.8,1.4"/>
	<path class="st1" d="M604.5,437.6c1.3,0,2.5,0,3.8,0"/>
	<path class="st1" d="M613.2,436.6c2.2,1,4.4,2,6.5,3"/>
	<path class="st1" d="M613.5,421.8c3.8,1.7,7.6,3.4,11.5,5.1"/>
	<path class="st1" d="M622.6,463.3c1.3,0.9,2.6,1.8,4,2.8"/>
	<path class="st1" d="M612.6,466.7c0.1-0.7,2.5-0.3,3.6-1.8c1.3-1.8-0.9-4.7,0-5.3c0.9-0.6,4.5,1.2,5.1,4.4c0.3,1.4,0.1,3.6-1.4,4.5
		c-1.3,0.9-3,0.4-4.7-0.2C614.7,468.1,612.5,467.4,612.6,466.7z"/>
	<path class="st1" d="M621.3,470.8c2.3,1.8,2.6,2.3,2.6,2.4c-0.1,0.2-1.8-1-4.2-1.6c-1.6-0.4-5.3-0.8-6.3,0.8c-1,1.6,1,5,3.6,6.5
		c2.1,1.3,5.4,1.9,6.7,0.4c1.2-1.4-0.5-3.2,0.2-6.1c1-3.9,5.4-6.7,6.5-5.9c0.6,0.4,0.7,1.8-0.8,5.9"/>
	<path class="st1" d="M609.8,424.9c0.9,1.8-0.1,3.2,1,4.1c1,0.8,2.9,0.4,4-0.5c1-0.9,0.7-1.7,1.5-2.4c1.5-1.2,5.1-0.6,6.1,1.3
		c1.1,2.1-2,4.2-1,7.3c0.8,2.5,3.5,3.4,3.3,3.9c-0.3,0.5-3-0.5-7.2-1.9c-8.7-2.8-9.6-2.3-11.1-4c-1.3-1.4-2.1-3.4-4.3-3.9
		c-0.8-0.2-1.5-0.1-2.2-0.6c-1-0.7-1.5-2.3-1.2-3.5c0.5-2.2,3.6-3.2,5.7-3.1C606.5,421.9,608.9,423,609.8,424.9z"/>
	<path class="st1" d="M627.4,423.1"/>
</g>
<g id="Meat">
	<path class="st1" d="M661.5,505.5c1.3-0.3,2.7,1.8,3.2,2.6c1.2,1.8,1.4,3.5,1.5,4.5c0.1,1.6-0.2,2.9-0.5,3.7
		c-0.5,1.7-4,1.3-5.5-0.1c-1.9-1.7-1.2-4.8-0.7-6.9C659.8,507.9,660.2,505.7,661.5,505.5z"/>
	<path class="st1" d="M624.6,484.6c1.2-2.5,4.2-5.2,7.1-4.8c2.7,0.3,3,3,5.9,3.4c3,0.4,4.4-2,6-1.2c1.8,0.9,0.4,3.8,2.4,7.7
		c1.7,3.4,4,3.9,3.7,5.5c-0.4,2.1-4.5,3.9-6.2,2.7c-1.2-0.8-0.3-2.4-1.6-4c-1.9-2.3-6.9-2.2-8-0.4c-0.8,1.4,1,3.3,0.2,4.1
		c-0.9,0.9-4.3-0.2-5.5-2.5c-0.9-1.6,0-2.7-1.1-4.1c-1.1-1.4-2.6-1-3.4-2.3C623.3,487.3,624.2,485.3,624.6,484.6z"/>
	<path class="st1" d="M617.6,488.7"/>
	<path class="st1" d="M630.7,505.1c1.3-0.6,3.2-0.7,4.1,0.2c1.3,1.5-0.3,5.5-2.2,5.7c-1.8,0.2-4-3-3.3-4.7
		C629.6,505.7,630.2,505.4,630.7,505.1z"/>
	<path class="st1" d="M637.1,506.4c-0.4,1.9,2.9,4.6,6.1,5.5c3,0.9,7.1,0.6,8.1-1.4c0.5-0.9,0-1.9,0.6-2.2c1-0.6,2.7,2.4,4.9,2.3
		c2.1-0.1,4.1-2.8,4.1-5c-0.1-1.8-1.4-2.2-1.8-4.2c-0.4-2.5,2.4-3.7,1.9-5.3c-0.5-1.5-3.1-2.6-4.9-2c-2.2,0.8-1.5,3.5-4.5,6.4
		c-0.5,0.5-3.4,3.3-6.3,2.8c-1.8-0.3-2.1-1.6-3.6-1.4c-0.9,0.2-1.8,1.2-3.7,3.2C637.2,506.1,637.1,506.3,637.1,506.4z"/>
	<path class="st5" d="M640.1,518.5c1.4-0.7,3.8,3.9,6.9,3.2c1.8-0.4,1.5-2.1,3.8-3.2c3-1.5,4.8,0.8,7.9-0.6c2.8-1.2,3.1-3.8,4.5-3.6
		c1.5,0.3,2.8,3.3,1.9,5.3c-0.6,1.5-2,1.4-5.3,3.4c-3.4,2.1-2.7,2.8-4.9,3.8c-2.5,1.1-3.1,0.3-8.3,1.4c-2.5,0.5-2.8,0.8-3.6,0.6
		C639.5,527.7,638.4,519.4,640.1,518.5z"/>
	<path class="st1" d="M647.6,473.2c-4-0.4-8.2,7.8-7.3,8.8c0.5,0.5,2.2-1.2,4-0.5c1.8,0.7,1.6,3,3.2,5.4c2.8,4.4,9.6,5.8,10.4,4.6
		c0.3-0.4-0.2-1-1.2-3.1c-1.7-3.4-1.6-4.3-2.8-7C651.8,477.1,650.1,473.5,647.6,473.2z"/>
	<path class="st6" d="M623,486c-0.5-0.4-0.9-2.2-2.2-2.5c-1.3-0.3-2.9,0.8-3.4,1.8c-2.2,4.5,12.3,17.1,14,15.8
		C632.6,500.1,628,489.3,623,486z"/>
	<path class="st6" d="M624.6,484.6"/>
</g>
</svg>
