<?xml version="1.0" encoding="utf-8"?>
<!-- Generator: Adobe Illustrator 24.1.2, SVG Export Plug-In . SVG Version: 6.00 Build 0)  -->
<svg version="1.1" xmlns="http://www.w3.org/2000/svg" xmlns:xlink="http://www.w3.org/1999/xlink" x="0px" y="0px"
	 viewBox="0 0 1273 81" style="enable-background:new 0 0 1273 81;" xml:space="preserve">
<style type="text/css">
	.st0{display:none;}
	.st1{fill:#EED7C1;stroke:#000000;stroke-width:3;stroke-miterlimit:10;}
	.st2{fill:#EFDBA7;stroke:#000000;stroke-width:2;stroke-miterlimit:10;}
	.st3{fill:#8C6239;}
	.st4{fill:#754C24;}
	.st5{fill:#603813;}
</style>
<g id="Layer" class="st0">
</g>
<g id="Tortilla">
	<g>
		<path class="st1" d="M1266.5,66.5c-0.2,7.1-114.6,6.6-290,5.7c-194.5-0.9-202.1-4.6-336-4.3c-184.9,0.4-212.7,7.5-366,4.3
			C254.6,71.8,10.1,66.4,10,53.6C9.9,42.2,201.7,30.5,269.5,26.3c193-11.8,335.4-10.5,370-10c26.2,0.3,148.8,2,316,14.4
			C1073.6,39.3,1266.7,57.2,1266.5,66.5z"/>
	</g>
	<path class="st2" d="M1157-515"/>
</g>
<g id="Tortilla_burn">
	<ellipse class="st3" cx="337.5" cy="50.3" rx="16.5" ry="1.3"/>
	<ellipse class="st3" cx="912.5" cy="58" rx="16.5" ry="2"/>
	<ellipse class="st3" cx="620.3" cy="37.3" rx="13.8" ry="0.8"/>
	<ellipse class="st3" cx="254" cy="49" rx="10" ry="2"/>
	<ellipse class="st3" cx="780" cy="59.5" rx="26" ry="2.5"/>
	<ellipse class="st4" cx="773.3" cy="32" rx="27.3" ry="1"/>
	<ellipse class="st3" cx="181.4" cy="51.5" rx="3.5" ry="0.5"/>
	<path class="st3" d="M539,42.1c0,1-20.3,2.5-38.9,2.9c-16.3,0.3-39.1-0.1-39.1-1.1c0-1.3,29.9-3.4,59.4-2.8
		C525.9,41.1,539,41.4,539,42.1z"/>
	<ellipse class="st3" cx="1104.5" cy="59" rx="16.5" ry="1"/>
	<ellipse class="st5" cx="1123.5" cy="67" rx="16.5" ry="1"/>
	<ellipse class="st4" cx="599.9" cy="27.5" rx="29.9" ry="0.5"/>
</g>
</svg>
